<?xml version="1.0" encoding="UTF-8" standalone="no"?>
<!DOCTYPE svg PUBLIC "-//W3C//DTD SVG 1.1//EN" "http://www.w3.org/Graphics/SVG/1.1/DTD/svg11.dtd">
<svg width="100%" height="100%" viewBox="0 0 2084 2084" version="1.1" xmlns="http://www.w3.org/2000/svg" xmlns:xlink="http://www.w3.org/1999/xlink" xml:space="preserve" xmlns:serif="http://www.serif.com/" style="fill-rule:evenodd;clip-rule:evenodd;stroke-linejoin:round;stroke-miterlimit:2;">
    <g id="ARCANE" transform="matrix(1.145349,0,0,1.145349,-151.072739,-151.072128)">
        <path d="M449.622,1238.04C450.275,1239.397 450.124,1240.728 449.12,1242.06C448.115,1243.417 446.758,1244.07 445.1,1244.07L375.254,1244.07C372.892,1244.07 371.385,1243.065 370.732,1241.055L290.736,1015.337L211.845,1241.055C211.443,1243.065 209.735,1244.07 206.72,1244.07L137.376,1244.07C135.014,1244.07 133.406,1243.417 132.552,1242.06C131.748,1240.728 131.698,1239.397 132.351,1238.04L285.711,842.279C286.364,840.269 288.048,839.264 290.736,839.264C293.399,839.264 295.083,840.269 295.761,842.279L449.623,1238.04L449.622,1238.04Z" style="fill:white;"/>
        <path d="M729.422,1237.537C730.075,1239.22 729.975,1240.728 729.121,1242.059C728.317,1243.416 726.91,1244.069 724.9,1244.069L652.541,1244.069C649.853,1244.069 648.144,1243.064 647.416,1241.054L573.55,1080.659L530.034,1080.659L530.034,1239.546C530.034,1242.561 528.175,1244.068 524.507,1244.068L458.178,1244.068C454.811,1244.068 453.153,1242.561 453.153,1239.546L453.153,1006.29L589.227,1006.29C593.297,1006.29 598.699,1005.963 605.407,1005.285C612.165,1004.556 618.823,1002.672 625.406,999.657C632.039,996.642 637.617,992.019 642.189,985.788C646.737,979.507 649.023,970.789 649.023,959.659C649.023,948.554 646.561,939.811 641.687,933.429C636.788,926.997 630.783,922.349 623.698,919.46C616.588,916.596 609.829,914.737 603.397,913.933C597.015,913.079 592.292,912.627 589.227,912.627L453.153,912.627L453.153,843.786C453.153,840.771 454.811,839.264 458.178,839.264L589.227,839.264C593.976,839.264 601.588,839.716 612.04,840.57C622.492,841.374 634.2,843.66 647.214,847.404C660.203,851.097 672.665,857.152 684.599,865.594C696.583,874.036 706.457,885.869 714.246,901.07C722.009,916.22 725.904,935.742 725.904,959.66C725.904,980.237 722.512,997.698 715.754,1012.019C708.97,1026.365 699.926,1038.098 688.62,1047.193C677.364,1056.313 665.003,1063.423 651.536,1068.499C664.324,1097.191 677.389,1125.532 690.73,1153.52C704.046,1181.534 716.96,1209.548 729.422,1237.536L729.422,1237.537Z" style="fill:white;"/>
        <path d="M962.695,1169.701L1040.078,1169.701L1040.078,1239.547C1040.078,1242.562 1038.219,1244.069 1034.551,1244.069L968.725,1244.069C948.475,1244.069 927.42,1242.562 905.512,1239.547C883.603,1236.482 862.323,1230.804 841.696,1222.563C821.119,1214.322 802.502,1202.715 785.819,1187.69C769.136,1172.691 755.896,1153.295 746.122,1129.502C736.323,1105.734 731.449,1076.439 731.449,1041.667C731.449,1005.89 736.399,975.891 746.323,951.621C756.297,927.3 769.639,907.754 786.321,892.93C803.054,878.056 821.797,866.775 842.499,859.062C863.252,851.299 884.507,846.073 906.215,843.384C927.973,840.645 948.826,839.264 968.725,839.264L1034.551,839.264C1038.219,839.264 1040.078,840.771 1040.078,843.786L1040.078,1002.673L962.695,1002.673L962.695,913.129C933.35,911.471 907.12,914.787 884.005,923.078C860.89,931.319 842.65,945.162 829.334,964.584C815.993,983.955 809.335,1009.657 809.335,1041.666C809.335,1066.665 812.953,1087.267 820.189,1103.472C827.475,1119.627 837.098,1132.265 849.032,1141.36C861.016,1150.48 873.905,1157.138 887.724,1161.359C901.593,1165.58 915.085,1168.143 928.225,1168.997C941.415,1169.801 952.897,1170.052 962.696,1169.7L962.695,1169.701Z" style="fill:white;"/>
        <path d="M1360.916,1238.04C1361.569,1239.397 1361.418,1240.728 1360.414,1242.06C1359.409,1243.417 1358.052,1244.07 1356.394,1244.07L1286.548,1244.07C1284.186,1244.07 1282.679,1243.065 1282.026,1241.055L1202.03,1015.337L1123.139,1241.055C1122.737,1243.065 1121.029,1244.07 1118.014,1244.07L1048.67,1244.07C1046.308,1244.07 1044.7,1243.417 1043.846,1242.06C1043.042,1240.728 1042.992,1239.397 1043.645,1238.04L1197.005,842.279C1197.658,840.269 1199.342,839.264 1202.03,839.264C1204.693,839.264 1206.377,840.269 1207.055,842.279L1360.917,1238.04L1360.916,1238.04Z" style="fill:white;"/>
        <path d="M1699.407,839.264C1703.151,839.264 1705.035,840.771 1705.035,843.786L1705.035,1239.547C1705.035,1242.562 1703.151,1244.069 1699.407,1244.069L1632.676,1244.069C1632.324,1244.069 1631.571,1243.918 1630.365,1243.567C1629.159,1243.24 1628.38,1242.914 1628.054,1242.562L1441.831,975.84L1441.831,1146.888L1364.448,1146.888L1364.448,843.786C1364.448,840.771 1366.106,839.264 1369.473,839.264L1436.807,839.264C1437.46,839.264 1438.314,839.364 1439.319,839.565C1440.324,839.716 1440.977,840.118 1441.329,840.771L1628.054,1107.493L1628.054,843.786C1628.054,840.771 1630.089,839.264 1634.184,839.264L1699.407,839.264Z" style="fill:white;"/>
        <path d="M1901.788,1168.696L1901.788,1244.069L1715.063,1244.069C1711.37,1244.069 1709.536,1242.562 1709.536,1239.547L1709.536,843.786C1709.536,840.771 1711.37,839.264 1715.063,839.264L1901.788,839.264L1901.788,912.628L1786.919,912.628L1786.919,1004.182L1945.806,1004.182C1949.55,1004.182 1951.434,1005.74 1951.434,1008.805L1951.434,1073.023C1951.434,1076.038 1949.55,1077.545 1945.806,1077.545L1786.919,1077.545L1786.919,1168.697L1901.788,1168.697L1901.788,1168.696Z" style="fill:white;"/>
    </g>
</svg>
