<?xml version="1.0" encoding="UTF-8" standalone="no"?><!DOCTYPE svg PUBLIC "-//W3C//DTD SVG 1.1//EN" "http://www.w3.org/Graphics/SVG/1.1/DTD/svg11.dtd"><svg width="100%" height="100%" viewBox="0 0 6250 919" version="1.1" xmlns="http://www.w3.org/2000/svg" xmlns:xlink="http://www.w3.org/1999/xlink" xml:space="preserve" xmlns:serif="http://www.serif.com/" style="fill-rule:evenodd;clip-rule:evenodd;stroke-linejoin:round;stroke-miterlimit:2;"><g><path d="M0,524.221l0,-371.415c0,-29.428 6.58,-55.657 19.741,-78.597c13.16,-22.848 31.164,-40.943 54.104,-54.104c23.122,-13.343 49.443,-20.106 78.962,-20.106l577.959,0c29.428,0 55.657,6.763 78.597,20.106c22.848,13.16 40.943,31.256 54.104,54.104c13.16,22.939 19.741,49.169 19.741,78.597l0,371.415l-86.639,0l0,-218.608l-709.929,0l-0,218.608l-86.639,0Zm796.568,-371.415c0,-19.009 -6.215,-34.729 -18.644,-47.158c-12.429,-12.429 -28.149,-18.644 -47.158,-18.644l-577.959,0c-18.552,0 -34.272,6.215 -47.158,18.644c-12.703,12.429 -19.009,28.149 -19.009,47.158l0,65.802l709.929,0l0,-65.802Z" style="fill:#fff;"/><path d="M1073.359,524.221l0,-524.221l730.766,0c29.428,0 55.657,6.763 78.597,20.106c22.848,13.16 40.943,31.256 54.104,54.104c13.16,22.939 19.741,49.169 19.741,78.597c0,30.525 -7.129,57.668 -21.203,81.521c-14.166,23.67 -33.266,41.674 -57.394,54.104c25.041,22.939 44.416,50.814 58.125,83.715c13.617,32.901 20.472,69.092 20.472,108.573l0,43.502l-86.639,0l0,-43.502c0,-33.815 -7.677,-63.791 -23.031,-89.929c-15.171,-26.321 -35.825,-46.975 -62.146,-62.146c-26.138,-15.354 -56.114,-23.031 -89.929,-23.031l-534.823,0l0,218.608l-86.639,0Zm86.639,-305.613l644.127,0c19.009,0 34.729,-6.306 47.158,-19.009c12.429,-12.612 18.644,-28.24 18.644,-46.792c0,-19.009 -6.215,-34.729 -18.644,-47.158c-12.429,-12.429 -28.149,-18.644 -47.158,-18.644l-644.127,0l0,131.604Z" style="fill:#fff;"/><path d="M2233.356,371.415c0,18.552 6.306,34.18 19.009,46.792c12.886,12.703 28.606,19.009 47.158,19.009l730.4,0l0,87.005l-730.4,0c-29.519,0 -55.84,-6.58 -78.962,-19.741c-22.939,-13.343 -40.943,-31.53 -54.104,-54.469c-13.16,-22.848 -19.741,-49.077 -19.741,-78.597l0,-218.608c0,-29.428 6.58,-55.657 19.741,-78.597c13.16,-22.848 31.164,-40.943 54.104,-54.104c23.122,-13.343 49.443,-20.106 78.962,-20.106l730.4,0l0,87.005l-730.4,0c-18.552,0 -34.272,6.215 -47.158,18.644c-12.703,12.429 -19.009,28.149 -19.009,47.158l0,218.608Z" style="fill:#fff;"/><path d="M3220.076,524.221l0,-371.415c0,-29.428 6.58,-55.657 19.741,-78.597c13.16,-22.848 31.164,-40.943 54.104,-54.104c23.122,-13.343 49.443,-20.106 78.962,-20.106l577.959,0c29.428,0 55.657,6.763 78.597,20.106c22.848,13.16 40.943,31.256 54.104,54.104c13.16,22.939 19.741,49.169 19.741,78.597l0,371.415l-86.639,0l0,-218.608l-709.929,0l0,218.608l-86.639,0Zm796.568,-371.415c0,-19.009 -6.215,-34.729 -18.644,-47.158c-12.429,-12.429 -28.149,-18.644 -47.158,-18.644l-577.959,0c-18.552,0 -34.272,6.215 -47.158,18.644c-12.703,12.429 -19.009,28.149 -19.009,47.158l0,65.802l709.929,0l0,-65.802Z" style="fill:#fff;"/><path d="M5090.002,152.806c0,-19.009 -6.215,-34.729 -18.644,-47.158c-12.429,-12.429 -28.149,-18.644 -47.158,-18.644l-577.959,0c-18.552,0 -34.272,6.215 -47.158,18.644c-12.703,12.429 -19.009,28.149 -19.009,47.158l0,371.415l-86.639,0l0,-371.415c0,-29.428 6.58,-55.657 19.741,-78.597c13.16,-22.848 31.164,-40.943 54.104,-54.104c23.122,-13.343 49.443,-20.106 78.962,-20.106l577.959,0c29.428,0 55.657,6.763 78.597,20.106c22.848,13.16 40.943,31.256 54.104,54.104c13.16,22.939 19.741,49.169 19.741,78.597l0,371.415l-86.639,0l0,-371.415Z" style="fill:#fff;"/><path d="M5366.793,152.806c0,-29.428 6.58,-55.657 19.741,-78.597c13.16,-22.848 31.164,-40.943 54.104,-54.104c23.122,-13.343 49.443,-20.106 78.962,-20.106l730.4,0l0,87.005l-730.4,0c-18.552,0 -34.272,6.215 -47.158,18.644c-12.703,12.429 -19.009,28.149 -19.009,47.158l0,65.802l796.568,0l0,87.005l-796.568,0l0,65.802c0,18.552 6.306,34.18 19.009,46.792c12.886,12.703 28.606,19.009 47.158,19.009l730.4,0l0,87.005l-730.4,0c-29.519,0 -55.84,-6.58 -78.962,-19.741c-22.939,-13.343 -40.943,-31.53 -54.104,-54.469c-13.16,-22.848 -19.741,-49.077 -19.741,-78.597l0,-218.608Z" style="fill:#fff;"/></g><rect x="115.195" y="836.875" width="6019.611" height="81.25" style="fill:#fff;"/></svg>