<?xml version="1.0" encoding="UTF-8" standalone="no"?><!DOCTYPE svg PUBLIC "-//W3C//DTD SVG 1.1//EN" "http://www.w3.org/Graphics/SVG/1.1/DTD/svg11.dtd"><svg width="100%" height="100%" viewBox="0 0 2084 2084" version="1.1" xmlns="http://www.w3.org/2000/svg" xmlns:xlink="http://www.w3.org/1999/xlink" xml:space="preserve" xmlns:serif="http://www.serif.com/" style="fill-rule:evenodd;clip-rule:evenodd;stroke-linejoin:round;stroke-miterlimit:2;"><path id="PYRAMIDE" d="M0,2083.333l0,-2083.333l2083.333,0l0,2083.333l-2083.333,0Zm236.658,-499.94l-110.442,73.483l0,294.558l110.442,-110.442l0,-257.599Zm1130.855,-873.121l110.469,-110.442l-136.006,0l-73.483,110.442l99.02,0Zm-1125.307,1136.322l-110.388,110.442l294.558,0l73.483,-110.442l-257.653,0Zm586.368,-943.558l-110.442,-73.483l0,97.796l110.442,36.497l0,-60.81Zm-591.916,135.789l-0,-262.059l-110.442,-36.497l0,298.039l110.442,0.517Zm1728.211,315.118l0,298.719l110.442,73.429l0,-335.65l-110.442,-36.497Zm-118.329,219.987l110.442,73.483l0,-296.081l-110.442,-36.47l0,259.067Zm-591.808,-610.083l110.442,-36.497l0,-97.796l-110.442,73.483l0,60.81Zm-426.158,-129.697l-110.442,-110.469l0,96.382l110.442,73.483l0,-59.396Zm1017.966,1006.842l110.442,110.496l0,-294.612l-110.442,-73.483l0,257.599Zm-1017.966,-721.504l-110.442,36.497l0,97.769l110.442,-73.429l0,-60.837Zm218.056,727.107l-0.435,110.442l296.788,0l-36.497,-110.442l-259.856,0Zm268.205,0l36.497,110.442l295.945,0l-73.483,-110.442l-258.958,0Zm268.504,0l73.51,110.442l294.53,0l-110.442,-110.442l-257.599,0Zm-1338.794,-799.828l0,257.191l110.442,-36.47l0,-220.177l-110.442,-0.544Zm110.442,229.043l-110.442,36.47l0,256.402l110.442,-73.483l0,-219.388Zm1297.701,-1157.48l73.429,-110.442l-335.705,0l-36.47,110.442l298.746,0Zm-306.986,0l36.388,-110.442l-332.469,0l0,110.442l296.081,0Zm-303.913,0l-0.054,-110.442l-340.518,0l36.361,110.442l304.212,0Zm-568.474,1118.4l-110.442,36.47l0,216.75l110.442,-73.483l0,-179.737Zm0,189.31l-110.442,73.374l0,215.391l110.442,-110.442l0,-178.323Zm5.548,183.925l-110.306,110.442l215.2,0l73.456,-110.442l-178.35,0Zm187.841,0l-73.32,110.442l216.587,0l36.47,-110.442l-179.737,0Zm828.465,-1254.977l73.456,-110.442l-256.375,0l-36.442,110.442l219.361,0Zm-180.281,-118.329l258.904,0l73.592,-110.442l-296.053,0l-36.442,110.442Zm760.394,110.986l0,-334.155l-110.442,110.442l0,297.196l110.442,-73.483Zm-1259.546,1380.513l-36.388,110.442l259.393,0l0.544,-110.442l-223.549,0Zm231.436,0l-0.435,110.442l257.109,0l-36.497,-110.442l-220.177,0Zm912.174,-1609.827l110.415,-110.442l-334.236,0l-73.429,110.442l297.25,0Zm-231.327,460.234l110.442,-73.32l0,-255.015l-110.442,110.442l0,217.893Zm-5.412,-223.577l110.496,-110.442l-254.961,0l-73.483,110.442l217.947,0Zm-758.762,473.615l-36.497,-110.442l-97.823,0l73.483,110.442l60.837,0Zm-70.301,0l-73.238,-110.442l-96.355,0l110.442,110.442l59.151,0Zm-177.724,-118.329l99.183,0l-73.483,-110.442l-136.142,0l110.442,110.442Zm464.477,118.329l73.483,-110.442l-97.823,0l-36.47,110.442l60.81,0Zm-69.104,0l36.606,-110.442l-98.177,0l0,110.442l61.571,0Zm164.48,899.555l36.497,110.442l256.375,0l-73.483,-110.442l-219.388,0Zm228.771,0l73.701,110.442l254.716,0l-110.442,-110.442l-217.974,0Zm223.577,-5.602l110.442,110.551l0,-254.961l-110.442,-73.483l0,217.893Zm347.1,-685.035l0,-336.358l-110.442,36.442l0,300.486l110.442,-0.571Zm-1033.386,-208.918l0,-110.442l-106.064,0l36.442,110.442l69.621,0Zm686.286,666.514l110.442,73.51l0,-256.375l-110.442,-36.442l0,219.307Zm0,-227.71l110.442,36.551l0,-257.191l-110.442,0.544l0,220.096Zm118.329,-220.884l0,259.856l110.442,36.442l0,-296.815l-110.442,0.517Zm118.329,-0.544l0,299.67l110.442,36.47l0,-336.711l-110.442,0.571Zm-1227.02,918.918l-36.442,110.442l336.493,0l0.544,-110.442l-300.595,0Zm308.509,0l-0.571,110.442l336.493,0l-36.442,-110.442l-299.48,0Zm307.639,0l36.606,110.442l335.759,0l-73.483,-110.442l-298.882,0Zm308.183,0l73.537,110.442l334.155,0l-110.442,-110.442l-297.25,0Zm302.852,-5.602l110.442,110.551l0,-334.236l-110.442,-73.483l0,297.168Zm-627.108,-1367.35l73.483,-110.442l-177.099,0l-36.47,110.442l140.085,0Zm-148.407,0l36.497,-110.741l-176.202,0l0,110.741l139.705,0Zm-147.592,0l0,-110.442l-184.251,0l36.497,110.442l147.755,0Zm-186.835,-118.356l186.835,-0.272l0,-110.442l-223.277,0l36.442,110.714Zm-8.295,0l-36.47,-110.714l-216.75,0l73.483,110.714l179.737,0Zm-189.337,0l-73.51,-110.442l-215.173,0l110.442,110.442l178.241,0Zm-183.952,5.466l-110.442,-110.496l0,215.2l110.442,73.619l0,-178.323Zm0,187.814l-110.442,-73.483l0,216.75l110.442,36.497l0,-179.764Zm0,188.032l-110.442,-36.334l0,220.884l110.442,0.517l0,-185.067Zm-349.384,1109.996l-110.496,110.442l334.291,0l73.483,-110.442l-297.277,0Zm306.741,0l-73.483,110.442l335.705,0l36.497,-110.442l-298.719,0Zm611.062,-1254.623l0,-110.442l-145.144,0l36.47,110.442l108.674,0Zm-116.996,0l-36.47,-110.442l-137.393,0l73.483,110.442l100.38,0Zm-179.193,-118.329l140.113,-0.299l-36.442,-110.442l-177.099,0l73.429,110.741Zm-9.464,0l-73.429,-110.442l-175.685,0l110.442,110.442l138.671,0Zm-262.766,455.91l-110.442,-0.517l0,217.539l110.442,-36.442l0,-180.58Zm118.519,149.849l-110.442,36.497l0,177.099l110.442,-73.483l0,-140.113Zm0,149.604l-110.442,73.374l0,175.712l110.442,-110.442l0,-138.644Zm5.575,144.246l-110.496,110.442l175.685,0l73.483,-110.442l-138.671,0Zm148.135,0l-73.429,110.442l177.099,0l36.442,-110.442l-140.113,0Zm148.435,0l-36.497,110.442l182.511,0l0.571,-110.442l-146.585,0Zm154.472,0l-0.571,110.442l177.942,0l-36.497,-110.442l-140.874,0Zm149.196,0l36.47,110.442l177.099,0l-73.483,-110.442l-140.085,0Zm149.577,0l73.456,110.442l175.63,0l-110.442,-110.442l-138.644,0Zm144.246,-153.738l110.442,73.401l0,-177.099l-110.442,-36.497l0,140.194Zm0,-148.38l110.442,36.388l0,-177.915l-110.442,0.544l0,140.983Zm0,-148.788l110.442,-0.626l0,-182.511l-110.442,36.47l0,146.667Zm0,-154.907l110.442,-36.606l0,-177.099l-110.442,73.456l0,140.249Zm0,-149.577l110.442,-73.51l0,-175.685l-110.442,110.442l0,138.753Zm-5.602,-144.219l110.496,-110.442l-175.685,0l-73.456,110.442l138.644,0Zm471.113,140.058l0,-296.081l-110.442,73.483l0,259.04l110.442,-36.442Zm-110.442,-232.062l110.442,-73.429l0,-294.639l-110.442,110.442l0,257.626Zm-5.548,-263.282l110.469,-110.442l-294.612,0l-73.483,110.442l257.626,0Zm-2.529,802.004l0,-259.285l-110.442,36.442l0,223.413l110.442,-0.571Zm-110.442,-231.327l110.442,-36.279l0,-256.402l-110.442,73.483l0,219.198Zm-1017.802,-91.514l-110.442,-110.524l0,136.088l110.442,73.483l0,-99.047Zm0,108.511l-110.442,-73.51l0,137.502l110.442,36.47l0,-100.461Zm0,108.756l-110.442,-36.497l0,144.219l110.442,0.49l0,-108.212Zm0,115.963l-110.442,-0.571l0,138.291l110.442,-36.47l0,-101.25Zm0,109.572l-110.442,36.524l0,137.366l110.442,-73.483l0,-100.407Zm715.657,451.341l73.537,110.442l215.227,0l-110.442,-110.442l-178.323,0Zm183.925,-5.602l110.442,110.361l0,-215.309l-110.442,-73.483l0,178.432Zm0,-187.787l110.442,73.374l0,-216.75l-110.442,-36.47l0,179.846Zm-459.554,-706.302l36.497,-110.442l-137.121,0l0,110.442l100.624,0Zm108.783,0l73.456,-110.442l-137.42,0l-36.497,110.442l100.461,0Zm-430.455,339.322l-110.442,-0.381l0,98.449l110.442,-36.442l0,-61.626Zm-702.358,-3.399l0,296.815l110.442,-36.442l0,-259.856l-110.442,-0.517Zm1365.256,439.756l110.442,110.415l0,-175.685l-110.442,-73.483l0,138.753Zm-588.462,-231.219l-73.483,110.442l97.823,0l36.497,-110.442l-60.837,0Zm-481.746,-1136.403l-73.537,-110.442l-334.291,0l110.496,110.442l297.332,0Zm550.851,1136.403l-36.442,110.442l105.52,0l0.517,-110.442l-69.594,0Zm-617.127,-894.062l-110.442,-110.469l0,254.988l110.442,73.456l0,-217.974Zm0,227.466l-110.442,-73.483l0,256.402l110.442,36.47l0,-219.388Zm0,227.683l-110.442,-36.442l0,259.502l110.442,0.544l0,-223.604Zm0,688.761l-110.442,73.565l0,254.852l110.442,-110.442l0,-217.974Zm5.548,223.577l-110.361,110.442l254.906,0l73.483,-110.442l-218.029,0Zm227.493,0l-73.483,110.442l256.375,0l36.497,-110.442l-219.388,0Zm1487.283,-1035.262l0,-335.705l-110.442,73.483l0,298.719l110.442,-36.497Zm-702.195,674.646l110.442,110.442l0,-136.033l-110.442,-73.429l0,99.02Zm0,-108.511l110.442,73.456l0,-137.448l-110.442,-36.47l0,100.461Zm0,-108.729l110.442,36.633l0,-138.236l-110.442,0.517l0,101.087Zm0,-109.137l110.442,-0.517l0,-144.002l-110.442,36.442l0,108.076Zm0,-116.371l110.442,-36.524l0,-137.393l-110.442,73.51l0,100.407Zm0,-109.925l110.442,-73.32l0,-136.197l-110.442,110.442l0,99.074Zm-323.521,439.865l-0.408,110.442l98.449,0l-36.442,-110.442l-61.598,0Zm907.197,-216.614l0,-297.848l-110.442,36.497l0,261.868l110.442,-0.517Zm-1364.957,-292.464l-110.442,-73.537l0,177.181l110.442,36.442l0,-140.086Zm655.011,90.997l-410.221,0l0,410.194l410.221,0l0,-410.194Zm-392.109,773.312l-36.334,110.442l220.884,0l0.517,-110.442l-185.067,0Zm-846.85,-564.34l0,336.493l110.442,-36.497l0,-299.453l-110.442,-0.544Zm820.687,144.165l-110.442,73.483l0,96.3l110.442,-110.442l0,-59.341Zm5.602,64.944l-110.469,110.442l96.164,0l73.483,-110.442l-59.178,0Zm420.556,-361.187l110.442,-73.429l0,-96.409l-110.442,110.442l0,59.396Zm-5.602,-64.944l110.496,-110.442l-96.382,0l-73.483,110.442l59.368,0Zm360.671,399.941l110.442,36.334l0,-217.539l-110.442,0.517l0,180.689Zm0,-188.44l110.442,-0.789l0,-220.884l-110.442,36.47l0,185.203Zm0,-193.28l110.442,-36.687l0,-216.75l-110.442,73.483l0,179.955Zm0,-189.337l110.442,-73.728l0,-215.146l-110.442,110.442l0,178.432Zm-5.548,-184.17l110.469,-110.442l-215.309,0l-73.483,110.442l178.323,0Zm-187.787,0l73.483,-110.442l-216.75,0l-36.497,110.442l179.764,0Zm-188.032,0l36.442,-110.442l-215.255,0l0,110.442l178.812,0Zm-178.812,-118.329l217.865,0l36.47,-110.442l-254.335,0l0,110.442Zm-7.887,0l0,-110.442l-262.385,0l36.497,110.442l225.888,0Zm-234.21,0l-36.497,-110.442l-256.375,0l73.483,110.442l219.388,0Zm311.963,899.745l36.47,110.442l97.823,0l-73.483,-110.442l-60.81,0Zm70.274,0l73.483,110.442l96.327,0l-110.442,-110.442l-59.368,0Zm64.971,-5.602l110.442,110.496l0,-96.355l-110.442,-73.483l0,59.341Zm0,-68.805l110.442,73.429l0,-97.769l-110.442,-36.497l0,60.837Zm0,-69.104l110.442,36.442l0,-98.612l-110.442,0.544l0,61.626Zm0,-69.512l110.442,-0.408l0,-105.656l-110.442,36.497l0,69.567Zm-544.514,226.84l-110.442,73.456l0,135.979l110.442,-110.442l0,-98.993Zm5.602,104.595l-110.524,110.442l136.033,0l73.483,-110.442l-98.993,0Zm108.457,0l-73.483,110.442l137.475,0l36.47,-110.442l-100.461,0Zm224.746,0l-0.544,110.442l138.263,0l-36.497,-110.442l-101.223,0Zm109.545,0l36.578,110.442l137.339,0l-73.456,-110.442l-100.461,0Zm109.925,0l73.483,110.442l135.979,0l-110.442,-110.442l-99.02,0Zm-1150.164,-334.862l0,-300.677l-110.442,-36.388l0,336.521l110.442,0.544Zm650.115,-801.623l-36.47,-110.442l-296.053,0l73.483,110.442l259.04,0Zm-268.504,0l-73.456,-110.442l-294.639,0l110.442,110.442l257.653,0Zm-263.282,5.657l-110.442,-110.496l0,294.639l110.442,73.483l0,-257.626Zm0,267.09l-110.442,-73.483l0,296.081l110.442,36.442l0,-259.04Zm-118.329,219.987l0,-298.719l-110.442,-73.483l0,335.705l110.442,36.497Zm-110.442,661.048l0,335.65l110.442,-73.401l0,-298.746l-110.442,36.497Zm925.174,-17.297l-36.47,110.442l144.165,0l0.544,-110.442l-108.239,0Zm-806.845,-21.811l0,296.081l110.442,-73.619l0,-258.931l-110.442,36.47Zm921.475,258.632l-0.354,110.442l217.376,0l-36.442,-110.442l-180.58,0Zm-219.116,-637.823l-110.442,-36.497l0,105.52l110.442,0.544l0,-69.567Zm-319.251,874.453l-73.401,110.442l295.999,0l36.442,-110.442l-259.04,0Zm-390.994,-1722.663l-110.442,-110.469l0,334.263l110.442,73.483l0,-297.277Zm-110.442,1611.595l0,334.209l110.442,-110.442l0,-297.25l-110.442,73.483Zm1298.68,-1498.869l36.47,-110.442l-293.415,0l0,110.442l256.946,0Zm-264.833,0l0,-110.442l-301.465,0l36.497,110.442l264.969,0Zm-265.05,1609.936l-36.415,110.442l297.957,0l0.517,-110.442l-262.059,0Zm-184.85,-1249.103l-110.632,-110.551l0,175.712l110.632,73.537l0,-138.699Zm0,296.57l-110.442,-36.551l0,182.593l110.442,0.544l0,-146.585Zm0,154.472l-110.442,-0.626l0,177.996l110.442,-36.47l0,-140.901Zm644.703,561.43l36.66,110.442l216.587,0l-73.483,-110.442l-179.764,0Zm-657.785,-1254.977l-73.537,-110.442l-254.988,0l110.442,110.442l218.083,0Zm150.665,-236.658l-36.524,-110.442l-335.705,0l73.483,110.442l298.746,0Z" style="fill:#fff;"/><g id="ARCANE"><path d="M449.622,1238.04c0.653,1.357 0.502,2.688 -0.502,4.02c-1.005,1.357 -2.362,2.01 -4.02,2.01l-69.846,0c-2.362,0 -3.869,-1.005 -4.522,-3.015l-79.996,-225.718l-78.891,225.718c-0.402,2.01 -2.11,3.015 -5.125,3.015l-69.344,0c-2.362,0 -3.97,-0.653 -4.824,-2.01c-0.804,-1.332 -0.854,-2.663 -0.201,-4.02l153.36,-395.761c0.653,-2.01 2.337,-3.015 5.025,-3.015c2.663,0 4.347,1.005 5.025,3.015l153.862,395.761Z" style="fill:#fff;"/><path d="M729.422,1237.537c0.653,1.683 0.553,3.191 -0.301,4.522c-0.804,1.357 -2.211,2.01 -4.221,2.01l-72.359,0c-2.688,0 -4.397,-1.005 -5.125,-3.015l-73.866,-160.395l-43.516,0l0,158.887c0,3.015 -1.859,4.522 -5.527,4.522l-66.329,0c-3.367,0 -5.025,-1.507 -5.025,-4.522l0,-233.256l136.074,0c4.07,0 9.472,-0.327 16.18,-1.005c6.758,-0.729 13.416,-2.613 19.999,-5.628c6.633,-3.015 12.211,-7.638 16.783,-13.869c4.548,-6.281 6.834,-14.999 6.834,-26.129c0,-11.105 -2.462,-19.848 -7.336,-26.23c-4.899,-6.432 -10.904,-11.08 -17.989,-13.969c-7.11,-2.864 -13.869,-4.723 -20.301,-5.527c-6.382,-0.854 -11.105,-1.306 -14.17,-1.306l-136.074,0l0,-68.841c0,-3.015 1.658,-4.522 5.025,-4.522l131.049,0c4.749,0 12.361,0.452 22.813,1.306c10.452,0.804 22.16,3.09 35.174,6.834c12.989,3.693 25.451,9.748 37.385,18.19c11.984,8.442 21.858,20.275 29.647,35.476c7.763,15.15 11.658,34.672 11.658,58.59c0,20.577 -3.392,38.038 -10.15,52.359c-6.784,14.346 -15.828,26.079 -27.134,35.174c-11.256,9.12 -23.617,16.23 -37.084,21.306c12.788,28.692 25.853,57.033 39.194,85.021c13.316,28.014 26.23,56.028 38.692,84.016Z" style="fill:#fff;"/><path d="M962.695,1169.701l77.383,0l0,69.846c0,3.015 -1.859,4.522 -5.527,4.522l-65.826,0c-20.25,0 -41.305,-1.507 -63.213,-4.522c-21.909,-3.065 -43.189,-8.743 -63.816,-16.984c-20.577,-8.241 -39.194,-19.848 -55.877,-34.873c-16.683,-14.999 -29.923,-34.395 -39.697,-58.188c-9.799,-23.768 -14.673,-53.063 -14.673,-87.835c0,-35.777 4.95,-65.776 14.874,-90.046c9.974,-24.321 23.316,-43.867 39.998,-58.691c16.733,-14.874 35.476,-26.155 56.178,-33.868c20.753,-7.763 42.008,-12.989 63.716,-15.678c21.758,-2.739 42.611,-4.12 62.51,-4.12l65.826,0c3.668,0 5.527,1.507 5.527,4.522l0,158.887l-77.383,0l0,-89.544c-29.345,-1.658 -55.575,1.658 -78.69,9.949c-23.115,8.241 -41.355,22.084 -54.671,41.506c-13.341,19.371 -19.999,45.073 -19.999,77.082c0,24.999 3.618,45.601 10.854,61.806c7.286,16.155 16.909,28.793 28.843,37.888c11.984,9.12 24.873,15.778 38.692,19.999c13.869,4.221 27.361,6.784 40.501,7.638c13.19,0.804 24.672,1.055 34.471,0.703Z" style="fill:#fff;"/><path d="M1360.916,1238.04c0.653,1.357 0.502,2.688 -0.502,4.02c-1.005,1.357 -2.362,2.01 -4.02,2.01l-69.846,0c-2.362,0 -3.869,-1.005 -4.522,-3.015l-79.996,-225.718l-78.891,225.718c-0.402,2.01 -2.11,3.015 -5.125,3.015l-69.344,0c-2.362,0 -3.97,-0.653 -4.824,-2.01c-0.804,-1.332 -0.854,-2.663 -0.201,-4.02l153.36,-395.761c0.653,-2.01 2.337,-3.015 5.025,-3.015c2.663,0 4.347,1.005 5.025,3.015l153.862,395.761Z" style="fill:#fff;"/><path d="M1699.407,839.264c3.744,0 5.628,1.507 5.628,4.522l0,395.761c0,3.015 -1.884,4.522 -5.628,4.522l-66.731,0c-0.352,0 -1.105,-0.151 -2.311,-0.502c-1.206,-0.327 -1.985,-0.653 -2.311,-1.005l-186.223,-266.722l0,171.048l-77.383,0l0,-303.102c0,-3.015 1.658,-4.522 5.025,-4.522l67.334,0c0.653,0 1.507,0.1 2.512,0.301c1.005,0.151 1.658,0.553 2.01,1.206l186.725,266.722l0,-263.707c0,-3.015 2.035,-4.522 6.13,-4.522l65.223,0Z" style="fill:#fff;"/><path d="M1901.788,1168.696l0,75.373l-186.725,0c-3.693,0 -5.527,-1.507 -5.527,-4.522l0,-395.761c0,-3.015 1.834,-4.522 5.527,-4.522l186.725,0l0,73.364l-114.869,0l0,91.554l158.887,0c3.744,0 5.628,1.558 5.628,4.623l0,64.218c0,3.015 -1.884,4.522 -5.628,4.522l-158.887,0l0,91.152l114.869,0Z" style="fill:#fff;"/></g></svg>