<?xml version="1.0" encoding="UTF-8" standalone="no"?><!DOCTYPE svg PUBLIC "-//W3C//DTD SVG 1.1//EN" "http://www.w3.org/Graphics/SVG/1.1/DTD/svg11.dtd"><svg width="100%" height="100%" viewBox="0 0 6250 1753" version="1.1" xmlns="http://www.w3.org/2000/svg" xmlns:xlink="http://www.w3.org/1999/xlink" xml:space="preserve" xmlns:serif="http://www.serif.com/" style="fill-rule:evenodd;clip-rule:evenodd;stroke-linejoin:round;stroke-miterlimit:2;"><rect x="-0" y="0" width="6250" height="1752.489" style="fill:#fff;"/><g><circle cx="5897.813" cy="1202.883" r="110.809"/><path d="M690.044,1304.424c-12.535,1.014 -24.977,1.751 -37.235,2.212c-12.074,0.277 -23.963,0.737 -35.761,1.475c-48.664,0.737 -97.696,0.645 -147.098,-0.369c-49.401,-1.198 -98.434,0.184 -147.098,4.055c-7.926,0.737 -18.618,1.382 -32.074,1.843c-13.272,0.276 -24.885,-1.659 -34.655,-5.899c-9.862,-4.424 -14.747,-12.903 -14.747,-25.438c1.659,-80.093 2.581,-160.001 2.581,-239.633c0,-79.816 0.369,-159.817 1.106,-240.001l0,-197.605c0,-16.406 0.092,-32.903 0.369,-49.401c0.461,-16.682 0.737,-33.272 0.737,-49.77c0,-11.06 0.922,-23.595 2.949,-37.604c1.935,-14.194 9.217,-23.318 21.751,-27.281c2.396,-0.737 4.793,-1.106 7.005,-1.106l7.005,0c73.18,0.737 146.452,2.028 219.725,3.687c73.457,1.475 145.992,8.111 217.513,19.908c35.392,5.714 65.991,18.986 91.798,39.816c25.807,20.645 44.701,46.083 56.775,76.314c12.258,30.231 15.3,63.042 9.217,98.434c-5.438,31.244 -16.037,59.263 -31.705,84.056c-15.76,24.885 -30.415,51.06 -43.871,78.526c-0.737,2.949 -1.751,5.899 -2.949,8.848c-1.014,2.765 -1.475,5.714 -1.475,8.848c0.737,6.912 5.161,14.194 13.272,21.751c8.295,7.373 17.512,14.378 27.65,21.014c10.323,6.636 17.788,12.35 22.489,16.959c15.668,15.76 29.954,33.364 42.765,52.719c12.995,19.171 21.936,40.185 26.913,63.042c6.82,33.733 3.779,69.862 -9.217,108.388c-12.811,38.341 -31.337,70.046 -55.669,95.116c-22.857,24.332 -50.323,41.106 -82.212,50.139c-31.705,9.124 -63.687,14.747 -95.853,16.959Zm-256.591,-183.595c10.323,18.249 25.069,30.231 44.24,36.129c19.171,5.714 40,8.018 62.673,7.005c22.857,-1.198 43.687,-3.041 62.673,-5.53c22.857,-2.212 45.899,-8.848 69.309,-19.908c23.595,-11.06 41.751,-26.36 54.563,-46.083c11.521,-16.406 15.945,-32.996 13.272,-49.77c-2.765,-16.959 -9.862,-32.627 -21.383,-47.189c-11.336,-14.47 -24.332,-26.175 -39.079,-35.023c-17.512,-10.783 -36.406,-17.512 -56.775,-20.277c-20.461,-2.949 -40.461,-4.793 -60.092,-5.53c-22.673,-1.475 -44.793,0.645 -66.36,6.267c-21.659,5.438 -39.632,15.3 -53.825,29.493c-14.009,14.009 -22.304,34.286 -24.701,60.83c-0.737,11.06 -0.553,22.12 0.737,33.18c1.198,10.876 2.949,21.751 5.161,32.811c1.659,3.963 3.041,7.926 4.055,11.797c1.198,3.963 3.041,7.926 5.53,11.797Zm-9.585,-423.965l0,5.899c-0.737,7.926 -1.475,17.696 -2.212,29.493c-0.737,11.797 0.184,22.857 2.949,33.18c2.673,10.138 8.295,17.512 16.959,22.12c4.885,2.212 9.677,3.594 14.378,4.055c4.608,0.553 9.677,0.737 15.115,0.737l71.152,2.212c24.055,0.737 47.927,-1.198 71.521,-5.899c17.88,-3.134 34.47,-12.35 49.77,-27.65c15.484,-15.207 24.793,-31.89 28.019,-50.139c4.608,-22.581 2.028,-42.12 -7.742,-58.618c-9.862,-16.682 -23.595,-29.493 -41.291,-38.341c-17.696,-9.032 -36.774,-14.47 -57.143,-16.221c-11.797,-1.475 -25.807,-2.765 -42.028,-4.055c-16.037,-1.198 -31.89,-0.922 -47.558,0.737c-15.76,1.475 -29.493,6.083 -41.291,13.641c-11.613,7.373 -18.986,19.355 -22.12,35.761c-1.751,8.664 -3.226,17.512 -4.424,26.544c-1.014,9.124 -2.396,17.972 -4.055,26.544Zm1361.688,427.652c11.06,25.069 22.489,50.139 34.286,75.208c11.797,25.069 22.673,50.323 32.811,75.576c5.622,12.535 7.834,21.567 6.636,26.913c-1.29,5.438 -8.848,8.664 -22.857,9.585c-21.383,0.737 -42.95,1.106 -64.516,1.106c-21.383,0 -43.134,-1.198 -65.254,-3.687c-16.498,-1.475 -30.599,-9.032 -42.397,-22.857c-11.797,-13.733 -19.724,-28.479 -23.595,-44.24c-5.438,-20.369 -13.088,-40.369 -22.857,-60.092c-9.862,-19.631 -23.871,-35.392 -42.028,-47.189c-14.747,-10.046 -29.401,-15.484 -43.871,-16.221c-14.562,-0.922 -30.138,-1.475 -46.821,-1.475c-18.71,1.014 -37.512,1.29 -56.406,0.737c-18.986,-0.461 -38.157,-1.106 -57.512,-1.843c-22.857,-1.475 -45.162,-1.567 -66.728,-0.369c-21.659,1.014 -43.042,7.005 -64.148,18.065c-26.82,13.272 -48.664,31.982 -65.622,56.037c-16.774,23.871 -28.295,50.415 -34.655,79.632c-1.475,9.401 -4.608,17.972 -9.217,25.807c-4.7,7.926 -12.535,12.166 -23.595,12.903c-3.226,0 -13.917,0.645 -32.074,1.843c-17.972,1.29 -37.788,2.12 -59.355,2.581c-21.659,0.277 -40.092,-0.737 -55.3,-2.949c-15.3,-2.396 -22.12,-6.452 -20.645,-12.166c1.659,-3.871 2.949,-7.373 3.687,-10.323l2.212,-9.585c11.06,-32.166 24.424,-63.41 40.185,-93.641c15.668,-30.231 30.231,-61.014 43.503,-92.535c14.931,-33.641 29.678,-67.281 44.24,-101.014c14.47,-33.917 29.217,-67.65 44.24,-101.383c29.678,-67.558 59.079,-135.116 88.111,-202.766c28.94,-67.558 57.235,-135.024 84.793,-202.397c7.097,-16.682 14.931,-28.111 23.595,-34.286c8.571,-6.359 20.737,-9.585 36.498,-9.585l2.581,0c14.747,0.737 29.309,0.737 43.871,0c14.747,-0.737 29.493,-0.737 44.24,0c21.383,1.751 36.867,7.926 46.452,18.433c9.77,10.599 18.618,24.516 26.544,41.659c9.585,21.383 18.986,42.581 28.387,63.41c9.309,20.645 18.802,41.567 28.387,62.673c17.88,41.567 36.314,83.318 55.3,125.346c18.894,42.028 37.327,83.964 55.3,125.715c1.475,2.212 7.465,16.129 18.065,41.659c10.783,25.622 23.779,56.775 39.079,93.641c15.207,36.867 30.691,74.286 46.452,112.074Zm-309.679,-165.162c13.272,-0.737 24.148,-1.106 32.811,-1.106c8.848,0 10.415,-7.834 4.793,-23.595c-3.226,-12.535 -8.111,-24.424 -14.747,-35.761c-6.636,-11.521 -13.088,-23.042 -19.171,-34.655c-8.848,-15.668 -16.59,-32.443 -23.226,-50.139c-6.636,-17.696 -13.917,-35.115 -21.751,-52.351c-3.963,-8.848 -7.558,-17.88 -10.691,-27.281c-2.949,-9.309 -6.452,-17.88 -10.323,-25.807c-5.714,-13.456 -10.323,-20 -14.009,-19.539c-3.502,0.553 -7.926,7.373 -13.272,20.645c-8.664,19.724 -17.143,39.724 -25.438,60.092c-8.111,20.461 -16.498,40.83 -25.069,61.198c-7.926,18.249 -17.327,35.761 -28.387,52.719c-11.06,16.774 -19.355,34.931 -24.701,54.563c-1.475,5.438 -1.475,10.138 0,14.009c2.396,7.926 10.046,11.06 22.857,9.585c12.995,-1.659 22.212,-2.581 27.65,-2.581l142.674,0Zm1170.809,-363.873c0,3.226 -1.659,6.452 -4.793,9.585c-12.535,14.747 -25.714,29.493 -39.447,44.24c-13.825,14.562 -27.281,29.125 -40.553,43.871c-1.751,1.751 -3.871,3.594 -6.267,5.53c-2.212,2.028 -4.977,3.687 -8.111,5.161c-7.65,2.488 -16.59,-1.29 -26.913,-11.429c-10.323,-10.323 -18.249,-17.88 -23.595,-22.857c-25.807,-18.618 -53.364,-34.286 -82.581,-46.821c-29.032,-12.719 -60,-19.171 -92.904,-19.171l-3.687,0c-62.673,1.014 -117.42,18.249 -164.056,51.613c-46.728,33.18 -80.738,79.263 -102.12,138.25c-9.401,25.807 -13.272,54.378 -11.797,85.53c1.659,30.968 7.834,61.567 18.433,91.798c10.507,30.231 24.793,57.788 42.765,82.581c18.157,24.608 39.079,44.424 62.673,59.355c41.475,25.807 90.139,38.71 145.992,38.71c39.263,0 75.023,-6.267 107.282,-18.802c32.166,-12.535 58.434,-30.231 78.894,-53.088c11.06,-13.272 21.198,-21.567 30.599,-25.069c9.309,-3.687 20.737,0.737 34.286,13.272c12.535,11.797 24.424,24.24 35.761,37.235c11.244,13.088 22.12,26.175 32.443,39.447c1.475,3.226 3.134,6.175 5.161,8.848c1.935,2.765 3.41,6.083 4.424,9.954c2.949,11.797 -1.106,22.857 -12.166,33.18c-10.876,10.138 -23.502,18.986 -37.973,26.544c-14.562,7.373 -25.714,13.456 -33.549,18.065c-36.129,22.857 -75.853,40.553 -119.079,53.088c-43.318,12.535 -88.019,18.802 -134.194,18.802c-62.212,0 -117.512,-8.94 -165.9,-26.913c-48.203,-18.157 -89.401,-42.028 -123.503,-71.521c-34.194,-29.493 -62.12,-61.659 -83.687,-96.59c-21.383,-34.839 -36.867,-69.678 -46.452,-104.332c-20.369,-74.47 -24.885,-146.821 -13.641,-217.144c11.521,-70.231 38.433,-132.904 80.738,-188.019c40,-53.272 90.323,-94.747 150.784,-124.24c60.461,-29.493 125.346,-44.24 194.655,-44.24l3.318,0c50.323,0 99.632,6.912 147.835,20.645c48.387,13.825 92.996,35.668 133.826,65.622c6.083,4.7 14.194,10.691 24.332,18.065c10.323,7.373 19.724,15.484 28.387,24.332c8.848,8.664 13.641,17.604 14.378,26.913Zm507.72,676.133c-11.06,-13.272 -21.198,-27.373 -30.231,-42.397c-9.124,-14.931 -18.71,-29.493 -28.756,-43.503c-22.12,-29.954 -44.148,-59.816 -65.991,-89.586c-21.936,-29.678 -43.871,-59.171 -65.991,-88.48c-11.06,-15.668 -22.489,-23.595 -34.286,-23.595c-11.797,0 -23.042,4.793 -33.549,14.378c-10.599,9.401 -19.816,20.83 -27.65,34.286c-7.926,13.272 -14.194,25.807 -18.802,37.604c-10.138,25.069 -15.76,51.613 -16.959,79.632c-1.29,27.834 -0.645,54.931 1.843,81.475c1.475,15.023 1.29,30.231 -0.369,45.715c-1.475,15.3 -11.613,23.595 -30.231,25.069c-8.848,0 -17.972,-0.092 -27.281,-0.369c-9.401,-0.461 -18.341,-0.737 -26.913,-0.737c-11.797,0 -25.438,1.014 -40.922,2.949c-15.3,2.028 -28.387,1.383 -39.447,-1.843c-14.747,-3.871 -21.383,-11.797 -19.908,-23.595c1.475,-11.797 2.212,-24.701 2.212,-38.71l0,-77.788c0,-25.991 -0.369,-51.613 -1.106,-76.682l0,-310.416c0,-103.226 0.369,-206.176 1.106,-308.942c0,-9.585 3.871,-16.037 11.797,-19.539c7.834,-3.687 16.682,-5.899 26.544,-6.636c9.77,-0.737 17.88,-0.737 24.332,0c10.046,0.737 19.724,2.028 29.125,3.687c9.585,1.475 19.355,2.581 29.493,3.318c4.885,0 9.677,-0.092 14.378,-0.369c4.608,-0.461 8.94,0.184 12.903,1.843c6.359,0.737 12.627,3.963 18.802,9.585c6.359,5.438 9.954,11.613 10.691,18.433c3.134,37.88 5.253,75.484 6.267,112.812c1.198,37.143 4.147,74.655 8.848,112.443c1.659,10.138 4.608,20.461 8.848,30.968c4.424,10.599 12.903,15.853 25.438,15.853c7.834,0 14.931,-3.041 21.383,-9.217l25.807,-25.807c8.571,-8.848 16.774,-17.143 24.701,-25.069c20.369,-18.618 39.908,-37.973 58.618,-57.88c18.894,-20.092 35.853,-42.028 50.876,-65.622c27.466,-43.963 60.092,-75.576 97.696,-94.747c37.788,-19.355 86.083,-29.125 144.886,-29.125c15.668,0 31.06,0.553 46.083,1.475c14.931,0.737 24.148,4.7 27.65,11.797c3.41,6.912 -3.871,20.553 -21.751,40.922c-40.83,45.715 -81.752,91.337 -122.766,136.775c-40.83,45.53 -82.028,90.231 -123.503,134.194c-16.498,17.512 -26.083,34.102 -28.756,49.77c-2.765,15.484 -1.106,30.415 4.793,44.609c5.899,14.009 13.088,27.466 21.751,40.185c42.212,57.327 84.793,114.563 127.558,171.798c42.765,57.327 84.977,115.024 126.821,173.273c7.834,10.138 14.101,20.277 18.802,30.599c4.608,10.138 4.977,18.618 1.106,25.438c-3.963,6.636 -14.931,10.323 -32.811,11.06c-14.286,0.737 -28.572,0.184 -42.765,-1.843c-14.009,-1.935 -28.572,-2.949 -43.503,-2.949c-17.972,0 -34.839,-0.369 -50.507,-1.106c-15.76,-0.737 -30.599,-8.203 -44.609,-22.489c-5.714,-5.346 -9.585,-9.677 -11.797,-12.903Zm635.874,38.71c-10.138,1.014 -20.277,1.751 -30.599,2.212c-10.323,0.277 -20.553,0.369 -30.599,0.369c-58.986,-0.737 -117.051,-10.691 -174.01,-29.862c-56.775,-19.355 -107.19,-49.125 -151.153,-89.217c-3.226,-3.134 -7.189,-7.097 -11.797,-11.797c-4.7,-4.608 -6.636,-9.677 -5.899,-15.115c0.737,-2.396 1.843,-4.608 3.318,-6.636c1.659,-1.935 2.949,-3.687 3.687,-5.161c8.848,-9.585 17.051,-18.802 24.701,-27.65c7.834,-9.032 15.668,-18.249 23.595,-27.65c6.359,-7.097 12.535,-15.207 18.433,-24.332c5.899,-9.032 13.825,-14.009 23.963,-14.747c7.097,0 13.825,2.028 20.277,5.899c25.069,11.06 49.862,23.502 74.47,37.235c24.793,13.825 49.954,25.807 75.576,36.129c25.53,10.138 51.613,15.392 78.157,15.853c26.728,0.277 53.917,-7.097 81.475,-22.12c7.834,-3.871 15.207,-8.848 22.12,-14.747c7.097,-5.899 12.627,-12.258 16.59,-19.171c9.585,-17.419 11.889,-33.18 7.005,-47.189c-4.7,-14.194 -13.548,-27.005 -26.544,-38.341c-12.811,-11.244 -27.097,-21.106 -42.765,-29.493c-15.76,-8.295 -29.493,-14.839 -41.291,-19.539c-25.807,-10.783 -52.166,-19.908 -78.894,-27.281c-26.544,-7.558 -53.272,-15.668 -80,-24.332c-26.083,-8.571 -51.245,-19.171 -75.576,-31.705c-24.332,-12.719 -44.793,-30.046 -61.198,-51.982c-21.936,-28.203 -34.655,-61.014 -38.341,-98.434c-3.502,-37.327 -1.29,-72.811 6.636,-106.544c6.359,-31.429 19.171,-59.079 38.341,-82.95c19.171,-24.055 42.489,-43.503 70.046,-58.249c51.06,-29.954 113.18,-44.977 186.176,-44.977c30.415,0 60.83,2.857 91.06,8.479c30.231,5.438 59.908,13.18 89.217,23.226c15.668,5.714 31.797,11.797 48.295,18.433c16.406,6.636 30.599,14.562 42.397,23.595c11.797,9.124 19.171,20.83 22.12,35.023c3.134,14.009 -0.737,31.244 -11.797,51.613c-2.949,7.926 -6.912,15.392 -11.797,22.489c-4.7,6.912 -9.401,13.548 -14.009,19.908c-3.963,7.926 -8.664,13.272 -14.009,16.221c-9.585,6.452 -19.724,6.912 -30.231,1.475c-10.599,-5.622 -19.816,-10.783 -27.65,-15.484c-28.295,-17.88 -58.433,-31.521 -90.323,-40.922c-31.705,-9.585 -64.424,-12.35 -98.065,-8.479c-21.936,2.212 -42.304,9.124 -61.198,20.645c-18.986,11.336 -31.337,25.807 -37.235,43.503c-5.899,17.696 -0.184,37.973 17.327,60.83c18.618,24.332 42.212,42.765 70.784,55.3c28.756,12.535 58.802,22.673 90.323,30.231c31.429,7.373 60.553,16.498 87.374,27.281c20.369,7.926 40.553,17.143 60.461,27.65c20.092,10.599 38.065,23.779 53.825,39.447c21.843,21.383 37.327,47.466 46.452,78.157c9.032,30.507 12.719,61.844 11.06,94.01c-1.475,32.258 -8.111,62.12 -19.908,89.586c-13.272,31.244 -32.719,57.512 -58.249,78.894c-25.622,21.198 -54.102,37.512 -85.53,49.033c-31.521,11.336 -63.687,18.433 -96.59,21.383Zm509.01,-240.001c-11.797,0 -25.254,1.383 -40.185,4.055c-15.023,2.765 -22.489,11.982 -22.489,27.65c0,18.986 0.369,37.604 1.106,56.037c0.922,18.433 1.475,37.051 1.475,55.669c0,5.714 0.461,15.115 1.475,28.387c1.198,13.272 1.475,26.083 0.737,38.341c-0.737,12.074 -4.332,20.092 -10.691,23.963c-3.226,1.751 -6.452,2.857 -9.585,3.318c-2.949,0.277 -6.083,0.737 -9.217,1.475c-15.023,0 -29.77,0.277 -44.24,0.737c-14.562,0.277 -28.756,0.922 -42.765,1.843c-8.664,0 -18.71,0.369 -30.231,1.106c-11.336,0.737 -20.922,-1.567 -28.756,-7.005c-7.926,-7.097 -11.06,-18.894 -9.585,-35.392c1.659,-16.406 2.581,-29.493 2.581,-39.079l0,-189.494c0,-31.429 0.369,-62.857 1.106,-94.378l0,-191.706c0,-63.595 -0.369,-127.65 -1.106,-192.075c0,-9.585 -0.922,-21.106 -2.581,-34.655c-1.475,-13.733 -1.843,-27.281 -1.106,-40.553c0.737,-13.456 3.871,-24.148 9.585,-32.074c7.097,-8.571 16.682,-13.825 28.756,-15.853c12.258,-1.935 24.793,-2.304 37.604,-1.106c12.995,1.014 24.148,2.028 33.549,2.949c22.857,0.737 45.162,1.106 67.097,1.106c22.12,0 44.056,0.369 65.991,1.106c43.963,0.737 88.111,3.318 132.351,7.742c44.424,4.24 87.927,13.088 130.508,26.544c21.106,6.175 42.581,15.76 64.516,28.756c22.12,13.088 42.028,30.784 59.724,53.088c17.696,22.396 30.046,50.784 37.235,85.162c21.843,103.779 21.751,186.453 -0.369,248.112c-21.936,61.751 -67.742,107.466 -137.512,137.144c-43.318,18.986 -89.77,30.415 -139.356,34.286c-49.401,3.963 -97.236,5.53 -143.411,4.793l-2.212,0Zm-57.88,-185.07c0,8.664 3.502,16.129 10.691,22.489c8.571,6.912 19.539,9.493 32.811,7.742c13.456,-1.935 25.254,-2.581 35.392,-1.843c13.272,0 25.899,0.369 37.973,1.106c12.258,0.737 24.793,0.737 37.604,0c25.069,-0.737 48.48,-5.161 70.415,-13.272c22.12,-8.295 40.553,-23.595 55.3,-45.715c10.323,-14.931 17.788,-32.996 22.489,-54.194c4.608,-21.106 6.267,-42.028 4.793,-62.673c-1.475,-20.83 -6.175,-38.802 -14.009,-53.825c-18.986,-36.129 -44.885,-59.079 -77.788,-68.94c-32.996,-9.77 -68.387,-14.747 -106.176,-14.747c-7.926,0 -18.71,-0.369 -32.443,-1.106c-13.825,-0.737 -26.913,-0.737 -39.447,0c-12.535,0.737 -21.936,4.332 -28.019,10.691c-6.452,6.175 -9.585,13.18 -9.585,21.014l0,253.273Zm539.582,-445.348l4.424,0c19.631,0 38.894,0.277 57.88,0.737c18.894,0.277 38.157,0.922 57.88,1.843c14.009,0.737 21.014,6.267 21.014,16.59l0,439.081c0,32.258 -0.277,64.701 -0.737,97.328c-0.277,32.443 -0.369,64.793 -0.369,96.959c0,30.046 1.659,60.092 5.161,90.323c3.687,30.231 3.502,60.645 -0.369,91.06c-2.488,15.023 -7.65,24.701 -15.484,29.125c-7.926,4.24 -19.355,7.189 -34.286,8.848c-6.912,0.737 -17.696,1.382 -32.443,1.843c-14.562,0.276 -29.678,-0.553 -45.346,-2.581c-15.484,-1.935 -29.032,-5.899 -40.553,-11.797c-11.336,-5.899 -16.959,-14.378 -16.959,-25.438c0,-131.706 0.092,-263.596 0.369,-395.578c0.461,-131.982 0.369,-263.965 -0.369,-395.947c0,-15.668 2.949,-26.544 8.848,-32.443c5.899,-5.899 16.313,-9.217 31.337,-9.954Zm744.157,844.613c-53.364,-67.558 -106.176,-135.485 -158.526,-203.872c-52.166,-68.295 -104.885,-135.761 -158.158,-202.397c-3.963,-4.608 -11.06,-11.613 -21.383,-21.014c-10.138,-9.585 -20.922,-17.696 -32.443,-24.332c-11.336,-6.636 -21.198,-9.217 -29.493,-7.742c-8.111,1.475 -12.166,10.599 -12.166,27.281c0,61.936 1.106,123.503 3.318,184.701c2.396,61.198 2.028,122.95 -1.106,185.07c-0.737,11.06 -1.106,22.765 -1.106,35.023c0,12.074 -1.659,23.502 -4.793,34.286c-2.212,10.323 -5.53,16.129 -9.954,17.327c-4.24,1.014 -12.166,1.475 -23.963,1.475c-21.198,-0.737 -42.581,-1.106 -64.148,-1.106l-65.622,0c-4.7,0 -8.018,-8.848 -9.954,-26.544c-2.028,-17.696 -2.949,-39.632 -2.949,-65.991c0,-26.267 0.092,-53.088 0.369,-80.369c0.461,-27.466 1.106,-51.705 1.843,-72.627c0.922,-20.83 1.475,-34.378 1.475,-40.553c0,-86.452 -0.277,-173.088 -0.737,-259.909c-0.277,-86.729 0,-173.273 0.737,-259.541c0,-11.797 0.737,-22.949 2.212,-33.549c1.659,-10.507 8.848,-18.618 21.383,-24.332c12.535,-4.608 26.36,-6.728 41.659,-6.267c15.207,0.277 29.217,1.659 42.028,4.055c28.94,5.438 54.747,17.235 77.42,35.392c22.857,17.972 42.12,38.341 57.88,61.198c23.595,33.733 47.65,67.281 72.258,100.646c24.793,33.456 49.77,66.636 74.839,99.54c22.857,29.032 45.438,59.908 67.834,92.535c22.304,32.443 46.913,61.383 73.733,86.636c7.834,7.926 16.406,12.903 25.807,15.115c12.535,3.226 23.042,0.553 31.705,-8.111c8.571,-8.571 14.47,-18.433 17.696,-29.493c2.396,-7.834 3.779,-16.037 4.055,-24.701c0.461,-8.571 0.737,-16.774 0.737,-24.701c-1.475,-59.724 -2.857,-118.895 -4.055,-177.697c-1.29,-58.986 0.829,-117.973 6.267,-176.959c2.396,-19.631 9.309,-33.18 20.645,-40.553c11.521,-7.558 25.53,-11.521 42.028,-11.797c16.406,-0.461 32.996,0.737 49.77,3.687c16.959,2.765 32.166,4.424 45.715,5.161c5.346,0 10.415,1.106 15.115,3.318c6.359,3.963 9.954,10.876 10.691,20.645c0.737,9.862 0.461,20.184 -0.737,30.968c-1.29,10.599 -2.212,18.986 -2.949,25.069l0,95.484c-0.737,31.521 -1.106,62.95 -1.106,94.378l0,463.781c0,17.512 0.553,35.761 1.843,54.931c1.198,19.171 0.553,37.42 -1.843,54.563c-2.488,13.548 -7.373,20.184 -14.747,19.908c-7.373,-0.461 -16.59,-0.737 -27.65,-0.737l-91.798,0c-15.76,0 -28.756,-1.29 -39.079,-4.055c-10.138,-2.949 -20.277,-10.691 -30.599,-23.226Z"/></g></svg>