<?xml version="1.0" encoding="UTF-8" standalone="no"?><!DOCTYPE svg PUBLIC "-//W3C//DTD SVG 1.1//EN" "http://www.w3.org/Graphics/SVG/1.1/DTD/svg11.dtd"><svg width="100%" height="100%" viewBox="0 0 8684 8684" version="1.1" xmlns="http://www.w3.org/2000/svg" xmlns:xlink="http://www.w3.org/1999/xlink" xml:space="preserve" xmlns:serif="http://www.serif.com/" style="fill-rule:evenodd;clip-rule:evenodd;stroke-linejoin:round;stroke-miterlimit:2;"><g><rect x="-2.696" y="3123.804" width="8685.95" height="2432.95" style="fill:#ff3131;"/><path id="POINT" d="M8050.246,4705.988c0,-139.946 113.554,-253.5 253.5,-253.5c139.946,0 253.371,113.554 253.371,253.5c0,139.946 -113.421,253.371 -253.371,253.371c-139.946,0 -253.5,-113.421 -253.5,-253.371Z" style="fill:#fff;"/><g id="BACKSPIN"><path d="M7614.583,4919.108c-75.658,-95.783 -150.533,-192.083 -224.754,-289.042c-73.958,-96.825 -148.704,-192.479 -224.229,-286.95c-5.621,-6.533 -15.679,-16.462 -30.317,-29.792c-14.375,-13.592 -29.662,-25.087 -45.996,-34.496c-16.071,-9.408 -30.054,-13.067 -41.813,-10.975c-11.5,2.092 -17.25,15.029 -17.25,38.679c0,87.808 1.567,175.1 4.704,261.862c3.396,86.767 2.875,174.313 -1.567,262.388c-1.046,15.679 -1.567,32.275 -1.567,49.654c0,17.117 -2.35,33.321 -6.796,48.608c-3.137,14.633 -7.842,22.867 -14.112,24.567c-6.012,1.438 -17.25,2.092 -33.975,2.092c-30.054,-1.046 -60.371,-1.567 -90.946,-1.567l-93.037,0c-6.662,0 -11.367,-12.546 -14.113,-37.633c-2.875,-25.087 -4.183,-56.187 -4.183,-93.558c0,-37.242 0.129,-75.267 0.521,-113.946c0.654,-38.942 1.567,-73.304 2.613,-102.967c1.308,-29.533 2.092,-48.742 2.092,-57.496c0,-122.567 -0.392,-245.4 -1.046,-368.492c-0.392,-122.963 0,-245.658 1.046,-367.967c0,-16.725 1.046,-32.537 3.137,-47.562c2.35,-14.896 12.546,-26.396 30.317,-34.496c17.771,-6.533 37.371,-9.537 59.062,-8.887c21.562,0.392 41.421,2.35 59.587,5.75c41.029,7.708 77.617,24.433 109.763,50.179c32.404,25.479 59.717,54.358 82.062,86.767c33.45,47.825 67.558,95.387 102.446,142.692c35.15,47.433 70.562,94.475 106.104,141.125c32.404,41.163 64.421,84.938 96.175,131.192c31.621,45.996 66.512,87.025 104.537,122.829c11.108,11.238 23.258,18.296 36.588,21.429c17.771,4.575 32.667,0.783 44.95,-11.5c12.154,-12.154 20.517,-26.133 25.087,-41.812c3.396,-11.108 5.358,-22.738 5.75,-35.021c0.654,-12.154 1.046,-23.783 1.046,-35.021c-2.092,-84.675 -4.05,-168.567 -5.75,-251.933c-1.829,-83.629 1.175,-167.258 8.887,-250.887c3.396,-27.833 13.196,-47.042 29.271,-57.496c16.333,-10.717 36.196,-16.333 59.587,-16.725c23.258,-0.654 46.779,1.046 70.562,5.225c24.042,3.921 45.604,6.271 64.812,7.317c7.579,0 14.767,1.567 21.429,4.704c9.017,5.621 14.112,15.421 15.158,29.271c1.046,13.983 0.654,28.617 -1.046,43.904c-1.829,15.029 -3.137,26.917 -4.183,35.542l0,135.375c-1.046,44.688 -1.567,89.246 -1.567,133.808l0,657.533c0,24.829 0.783,50.7 2.613,77.879c1.7,27.179 0.783,53.054 -2.613,77.358c-3.529,19.208 -10.454,28.617 -20.908,28.225c-10.454,-0.654 -23.521,-1.046 -39.2,-1.046l-130.146,0c-22.346,0 -40.771,-1.829 -55.404,-5.75c-14.375,-4.183 -28.746,-15.158 -43.383,-32.929l-0.008,-0.008Z" style="fill:#fff;"/><path d="M6559.542,3721.65l6.271,0c27.833,0 55.142,0.392 82.062,1.046c26.788,0.392 54.096,1.308 82.062,2.612c19.863,1.046 29.792,8.888 29.792,23.521l0,622.512c0,45.733 -0.392,91.729 -1.046,137.988c-0.392,45.996 -0.521,91.863 -0.521,137.467c0,42.6 2.35,85.196 7.317,128.058c5.225,42.858 4.967,85.979 -0.521,129.104c-3.529,21.3 -10.846,35.021 -21.954,41.292c-11.237,6.012 -27.442,10.192 -48.608,12.546c-9.8,1.046 -25.087,1.958 -45.996,2.613c-20.646,0.392 -42.075,-0.783 -64.292,-3.658c-21.954,-2.746 -41.162,-8.363 -57.496,-16.725c-16.071,-8.363 -24.042,-20.383 -24.042,-36.067c0,-186.729 0.129,-373.717 0.521,-560.838c0.654,-187.121 0.521,-374.242 -0.521,-561.358c0,-22.213 4.183,-37.633 12.546,-45.996c8.363,-8.363 23.129,-13.067 44.429,-14.113l-0.004,-0.004Z" style="fill:#fff;"/><path d="M5876.604,4615.433c-16.725,0 -35.804,1.958 -56.971,5.75c-21.3,3.921 -31.883,16.987 -31.883,39.2c0,26.917 0.521,53.313 1.567,79.446c1.308,26.133 2.092,52.529 2.092,78.925c0,8.1 0.654,21.429 2.092,40.246c1.7,18.817 2.092,36.979 1.046,54.358c-1.046,17.117 -6.142,28.487 -15.158,33.975c-4.575,2.483 -9.146,4.05 -13.592,4.704c-4.183,0.392 -8.625,1.046 -13.067,2.092c-21.3,0 -42.208,0.392 -62.721,1.046c-20.646,0.392 -40.771,1.308 -60.629,2.613c-12.283,0 -26.525,0.521 -42.858,1.567c-16.071,1.046 -29.662,-2.221 -40.771,-9.929c-11.237,-10.062 -15.679,-26.788 -13.592,-50.179c2.35,-23.258 3.658,-41.812 3.658,-55.404l0,-268.658c0,-44.558 0.521,-89.117 1.567,-133.808l0,-271.796c0,-90.163 -0.521,-180.979 -1.567,-272.317c0,-13.592 -1.308,-29.925 -3.658,-49.133c-2.092,-19.471 -2.612,-38.679 -1.567,-57.496c1.046,-19.079 5.488,-34.237 13.592,-45.475c10.062,-12.154 23.65,-19.6 40.771,-22.475c17.379,-2.746 35.15,-3.267 53.313,-1.567c18.425,1.438 34.238,2.875 47.562,4.183c32.404,1.046 64.029,1.567 95.129,1.567c31.363,0 62.458,0.521 93.558,1.567c62.329,1.046 124.921,4.704 187.642,10.975c62.983,6.013 124.658,18.554 185.029,37.633c29.925,8.754 60.371,22.346 91.471,40.771c31.363,18.554 59.587,43.646 84.675,75.267c25.088,31.754 42.6,72 52.792,120.737c30.971,147.133 30.838,264.346 -0.521,351.763c-31.1,87.55 -96.042,152.363 -194.958,194.438c-61.417,26.917 -127.271,43.121 -197.575,48.608c-70.037,5.621 -137.858,7.842 -203.321,6.796l-3.137,0l-0.008,0.013Zm-82.062,-262.387c0,12.283 4.967,22.867 15.158,31.883c12.154,9.8 27.704,13.458 46.517,10.975c19.079,-2.746 35.804,-3.658 50.179,-2.613c18.817,0 36.717,0.521 53.838,1.567c17.379,1.046 35.15,1.046 53.312,0c35.542,-1.046 68.733,-7.317 99.833,-18.817c31.363,-11.758 57.496,-33.45 78.404,-64.812c14.633,-21.167 25.221,-46.779 31.883,-76.833c6.533,-29.925 8.888,-59.587 6.796,-88.854c-2.092,-29.533 -8.754,-55.012 -19.863,-76.312c-26.917,-51.221 -63.637,-83.758 -110.288,-97.742c-46.779,-13.85 -96.958,-20.908 -150.533,-20.908c-11.237,0 -26.525,-0.521 -45.996,-1.567c-19.6,-1.046 -38.154,-1.046 -55.925,0c-17.771,1.046 -31.1,6.142 -39.725,15.158c-9.146,8.754 -13.592,18.688 -13.592,29.792l0,359.083Z" style="fill:#fff;"/><path d="M5154.946,4955.7c-14.375,1.438 -28.746,2.483 -43.383,3.137c-14.633,0.392 -29.137,0.521 -43.383,0.521c-83.629,-1.046 -165.95,-15.158 -246.704,-42.338c-80.492,-27.442 -151.971,-69.646 -214.3,-126.488c-4.575,-4.442 -10.192,-10.062 -16.725,-16.725c-6.662,-6.533 -9.408,-13.721 -8.363,-21.429c1.046,-3.396 2.612,-6.533 4.704,-9.408c2.35,-2.746 4.183,-5.225 5.225,-7.317c12.546,-13.592 24.175,-26.658 35.021,-39.2c11.108,-12.804 22.212,-25.871 33.45,-39.2c9.017,-10.062 17.771,-21.562 26.133,-34.496c8.363,-12.804 19.6,-19.863 33.975,-20.908c10.062,0 19.6,2.875 28.746,8.363c35.542,15.679 70.692,33.321 105.583,52.792c35.15,19.6 70.825,36.587 107.15,51.221c36.196,14.375 73.175,21.821 110.808,22.475c37.896,0.392 76.442,-10.062 115.512,-31.363c11.108,-5.488 21.562,-12.546 31.363,-20.908c10.062,-8.363 17.9,-17.379 23.521,-27.179c13.592,-24.696 16.858,-47.042 9.929,-66.904c-6.663,-20.125 -19.208,-38.288 -37.633,-54.358c-18.163,-15.942 -38.417,-29.925 -60.629,-41.812c-22.346,-11.758 -41.812,-21.038 -58.542,-27.704c-36.588,-15.288 -73.958,-28.225 -111.854,-38.679c-37.633,-10.717 -75.529,-22.212 -113.421,-34.496c-36.979,-12.154 -72.654,-27.179 -107.15,-44.95c-34.496,-18.033 -63.504,-42.6 -86.767,-73.7c-31.1,-39.983 -49.133,-86.504 -54.358,-139.554c-4.967,-52.921 -1.829,-103.229 9.408,-151.054c9.017,-44.558 27.179,-83.758 54.358,-117.604c27.179,-34.104 60.238,-61.675 99.308,-82.583c72.392,-42.467 160.463,-63.767 263.954,-63.767c43.121,0 86.242,4.05 129.104,12.021c42.858,7.708 84.938,18.688 126.487,32.929c22.212,8.1 45.079,16.725 68.471,26.133c23.258,9.408 43.383,20.646 60.108,33.45c16.725,12.938 27.179,29.533 31.363,49.654c4.442,19.863 -1.046,44.296 -16.725,73.175c-4.183,11.238 -9.8,21.821 -16.725,31.883c-6.662,9.8 -13.329,19.208 -19.863,28.225c-5.621,11.238 -12.283,18.817 -19.863,23c-13.592,9.146 -27.963,9.8 -42.858,2.092c-15.029,-7.971 -28.096,-15.287 -39.2,-21.954c-40.117,-25.35 -82.846,-44.688 -128.058,-58.017c-44.95,-13.592 -91.337,-17.508 -139.033,-12.021c-31.1,3.138 -59.979,12.938 -86.767,29.271c-26.917,16.071 -44.429,36.587 -52.792,61.675c-8.363,25.088 -0.263,53.838 24.567,86.242c26.396,34.496 59.846,60.629 100.354,78.404c40.771,17.771 83.367,32.146 128.058,42.858c44.558,10.454 85.85,23.392 123.875,38.679c28.879,11.238 57.496,24.304 85.721,39.2c28.488,15.029 53.967,33.712 76.312,55.925c30.971,30.317 52.921,67.296 65.858,110.808c12.804,43.25 18.033,87.679 15.679,133.283c-2.092,45.733 -11.5,88.071 -28.225,127.012c-18.817,44.296 -46.388,81.537 -82.583,111.854c-36.325,30.054 -76.704,53.183 -121.263,69.517c-44.688,16.071 -90.292,26.133 -136.942,30.317Z" style="fill:#fff;"/><path d="M4253.429,4900.817c-15.679,-18.817 -30.054,-38.808 -42.858,-60.108c-12.938,-21.167 -26.525,-41.813 -40.771,-61.675c-31.363,-42.467 -62.592,-84.804 -93.558,-127.012c-31.1,-42.075 -62.2,-83.892 -93.558,-125.442c-15.679,-22.212 -31.883,-33.45 -48.608,-33.45c-16.725,0 -32.667,6.796 -47.562,20.383c-15.029,13.329 -28.096,29.533 -39.2,48.608c-11.238,18.817 -20.125,36.587 -26.658,53.312c-14.375,35.542 -22.346,73.175 -24.042,112.9c-1.829,39.462 -0.917,77.879 2.613,115.512c2.092,21.3 1.829,42.858 -0.521,64.812c-2.092,21.692 -16.463,33.45 -42.858,35.542c-12.546,0 -25.479,-0.129 -38.679,-0.521c-13.329,-0.654 -26.004,-1.046 -38.154,-1.046c-16.725,0 -36.067,1.438 -58.017,4.183c-21.692,2.875 -40.246,1.958 -55.925,-2.613c-20.908,-5.487 -30.317,-16.725 -28.225,-33.45c2.092,-16.725 3.138,-35.021 3.138,-54.883l0,-110.288c0,-36.85 -0.521,-73.175 -1.567,-108.717l0,-440.096c0,-146.35 0.521,-292.308 1.567,-438.008c0,-13.592 5.488,-22.738 16.725,-27.704c11.108,-5.225 23.65,-8.362 37.633,-9.408c13.85,-1.046 25.35,-1.046 34.496,0c14.242,1.046 27.963,2.875 41.292,5.225c13.592,2.092 27.442,3.658 41.812,4.704c6.925,0 13.721,-0.129 20.383,-0.521c6.533,-0.654 12.675,0.262 18.296,2.612c9.017,1.046 17.9,5.621 26.658,13.592c9.017,7.708 14.112,16.463 15.158,26.133c4.442,53.704 7.45,107.021 8.888,159.942c1.7,52.658 5.879,105.842 12.546,159.417c2.35,14.375 6.533,29.008 12.546,43.904c6.271,15.029 18.296,22.475 36.067,22.475c11.108,0 21.167,-4.312 30.317,-13.067l36.587,-36.587c12.154,-12.546 23.783,-24.304 35.021,-35.542c28.879,-26.396 56.579,-53.838 83.108,-82.063c26.787,-28.487 50.829,-59.588 72.129,-93.037c38.942,-62.329 85.196,-107.15 138.512,-134.329c53.575,-27.442 122.046,-41.292 205.413,-41.292c22.212,0 44.037,0.783 65.333,2.092c21.167,1.046 34.238,6.663 39.2,16.725c4.833,9.8 -5.488,29.138 -30.838,58.017c-57.887,64.812 -115.904,129.496 -174.054,193.917c-57.887,64.55 -116.296,127.925 -175.1,190.254c-23.392,24.829 -36.979,48.35 -40.771,70.562c-3.921,21.954 -1.567,43.121 6.796,63.246c8.362,19.863 18.554,38.942 30.837,56.971c59.846,81.275 120.217,162.425 180.846,243.571c60.629,81.275 120.479,163.075 179.804,245.658c11.108,14.375 19.992,28.746 26.658,43.383c6.533,14.375 7.054,26.396 1.567,36.067c-5.621,9.408 -21.167,14.633 -46.517,15.679c-20.254,1.046 -40.508,0.262 -60.629,-2.613c-19.863,-2.746 -40.508,-4.183 -61.675,-4.183c-25.479,0 -49.392,-0.521 -71.608,-1.567c-22.346,-1.046 -43.383,-11.629 -63.246,-31.883c-8.1,-7.579 -13.592,-13.721 -16.725,-18.296l-0.021,-0Z" style="fill:#fff;"/><path d="M3533.6,3942.221c0,4.575 -2.35,9.146 -6.796,13.592c-17.771,20.908 -36.458,41.812 -55.925,62.721c-19.6,20.646 -38.679,41.292 -57.496,62.2c-2.483,2.483 -5.488,5.096 -8.888,7.842c-3.138,2.875 -7.054,5.225 -11.5,7.317c-10.846,3.529 -23.521,-1.829 -38.154,-16.204c-14.633,-14.633 -25.871,-25.35 -33.45,-32.404c-36.587,-26.396 -75.658,-48.608 -117.079,-66.379c-41.162,-18.033 -85.067,-27.179 -131.717,-27.179l-5.225,0c-88.854,1.438 -166.475,25.871 -232.592,73.175c-66.25,47.042 -114.467,112.375 -144.783,196.004c-13.329,36.587 -18.817,77.096 -16.725,121.263c2.35,43.904 11.108,87.288 26.133,130.146c14.896,42.858 35.15,81.929 60.629,117.079c25.742,34.888 55.404,62.983 88.854,84.15c58.8,36.588 127.796,54.883 206.983,54.883c55.667,0 106.367,-8.888 152.1,-26.658c45.604,-17.771 82.846,-42.858 111.854,-75.267c15.679,-18.817 30.054,-30.575 43.383,-35.542c13.196,-5.225 29.4,1.046 48.608,18.817c17.771,16.725 34.629,34.367 50.7,52.792c15.942,18.554 31.363,37.108 45.996,55.925c2.092,4.575 4.442,8.754 7.317,12.546c2.746,3.921 4.833,8.625 6.271,14.113c4.183,16.725 -1.567,32.404 -17.25,47.042c-15.421,14.375 -33.321,26.917 -53.838,37.633c-20.646,10.454 -36.458,19.079 -47.562,25.613c-51.221,32.404 -107.542,57.496 -168.825,75.267c-61.417,17.771 -124.792,26.658 -190.254,26.658c-88.204,0 -166.604,-12.675 -235.208,-38.154c-68.342,-25.742 -126.75,-59.587 -175.1,-101.4c-48.479,-41.813 -88.071,-87.417 -118.65,-136.942c-30.317,-49.392 -52.267,-98.788 -65.858,-147.917c-28.879,-105.583 -35.279,-208.158 -19.337,-307.858c16.333,-99.571 54.488,-188.425 114.467,-266.567c56.712,-75.529 128.058,-134.329 213.775,-176.142c85.721,-41.812 177.712,-62.721 275.975,-62.721l4.704,0c71.346,0 141.254,9.8 209.596,29.271c68.6,19.6 131.846,50.571 189.733,93.037c8.625,6.662 20.125,15.158 34.496,25.613c14.633,10.454 27.963,21.954 40.246,34.496c12.546,12.283 19.337,24.958 20.383,38.154l0.008,-0.012Z" style="fill:#fff;"/><path d="M2312.721,4692.267c15.679,35.542 31.883,71.083 48.608,106.625c16.725,35.542 32.146,71.346 46.517,107.15c7.971,17.771 11.108,30.575 9.408,38.154c-1.829,7.708 -12.546,12.283 -32.404,13.592c-30.317,1.046 -60.892,1.567 -91.471,1.567c-30.317,0 -61.154,-1.7 -92.512,-5.225c-23.392,-2.092 -43.383,-12.804 -60.108,-32.404c-16.725,-19.471 -27.963,-40.379 -33.45,-62.721c-7.708,-28.879 -18.554,-57.233 -32.404,-85.196c-13.983,-27.833 -33.842,-50.179 -59.588,-66.904c-20.908,-14.242 -41.683,-21.954 -62.2,-23c-20.646,-1.308 -42.729,-2.092 -66.379,-2.092c-26.525,1.438 -53.183,1.829 -79.971,1.046c-26.917,-0.654 -54.096,-1.567 -81.538,-2.613c-32.404,-2.092 -64.029,-2.221 -94.604,-0.521c-30.708,1.438 -61.025,9.929 -90.946,25.612c-38.025,18.817 -68.996,45.342 -93.037,79.446c-23.783,33.842 -40.117,71.475 -49.133,112.9c-2.092,13.329 -6.533,25.479 -13.067,36.587c-6.662,11.238 -17.771,17.25 -33.45,18.296c-4.575,0 -19.729,0.917 -45.475,2.613c-25.479,1.829 -53.575,3.004 -84.15,3.658c-30.708,0.392 -56.842,-1.046 -78.404,-4.183c-21.692,-3.396 -31.362,-9.146 -29.271,-17.25c2.35,-5.488 4.183,-10.454 5.225,-14.633l3.138,-13.592c15.679,-45.604 34.629,-89.9 56.971,-132.762c22.213,-42.858 42.858,-86.504 61.675,-131.192c21.167,-47.696 42.075,-95.387 62.721,-143.217c20.517,-48.087 41.421,-95.912 62.721,-143.738c42.075,-95.783 83.758,-191.562 124.921,-287.475c41.029,-95.783 81.146,-191.433 120.217,-286.95c10.063,-23.65 21.167,-39.854 33.45,-48.608c12.154,-9.017 29.4,-13.592 51.746,-13.592l3.658,0c20.908,1.046 41.554,1.046 62.2,0c20.908,-1.046 41.812,-1.046 62.721,0c30.317,2.483 52.267,11.238 65.858,26.133c13.85,15.029 26.396,34.758 37.633,59.062c13.592,30.317 26.917,60.371 40.246,89.9c13.196,29.271 26.658,58.933 40.246,88.854c25.35,58.933 51.483,118.125 78.404,177.712c26.787,59.588 52.921,119.042 78.404,178.233c2.092,3.137 10.583,22.867 25.613,59.062c15.287,36.325 33.713,80.492 55.404,132.762c21.562,52.267 43.512,105.321 65.858,158.896l-0,0.004Zm-439.05,-234.163c18.817,-1.046 34.237,-1.567 46.517,-1.567c12.546,0 14.767,-11.108 6.796,-33.45c-4.575,-17.771 -11.5,-34.629 -20.908,-50.7c-9.408,-16.333 -18.554,-32.667 -27.179,-49.133c-12.546,-22.212 -23.521,-45.996 -32.929,-71.083c-9.408,-25.087 -19.729,-49.783 -30.838,-74.221c-5.621,-12.546 -10.717,-25.35 -15.158,-38.679c-4.183,-13.196 -9.146,-25.35 -14.633,-36.587c-8.1,-19.079 -14.633,-28.354 -19.862,-27.704c-4.967,0.783 -11.237,10.454 -18.817,29.271c-12.283,27.963 -24.304,56.321 -36.067,85.196c-11.5,29.008 -23.392,57.888 -35.542,86.767c-11.238,25.871 -24.567,50.7 -40.246,74.742c-15.679,23.783 -27.442,49.525 -35.021,77.358c-2.092,7.708 -2.092,14.375 0,19.863c3.396,11.237 14.242,15.679 32.404,13.592c18.425,-2.35 31.492,-3.658 39.2,-3.658l202.279,0l0.004,-0.004Z" style="fill:#fff;"/><path d="M759.542,4947.333c-17.771,1.438 -35.413,2.483 -52.792,3.137c-17.117,0.392 -33.975,1.046 -50.7,2.092c-68.996,1.046 -138.513,0.917 -208.55,-0.521c-70.038,-1.7 -139.554,0.263 -208.55,5.75c-11.238,1.046 -26.396,1.958 -45.475,2.612c-18.817,0.392 -35.279,-2.35 -49.133,-8.363c-13.983,-6.271 -20.908,-18.296 -20.908,-36.067c2.35,-113.554 3.658,-226.842 3.658,-339.742c0,-113.163 0.521,-226.583 1.567,-340.267l0,-280.158c0,-23.258 0.129,-46.65 0.521,-70.037c0.654,-23.65 1.046,-47.171 1.046,-70.562c0,-15.679 1.308,-33.45 4.183,-53.312c2.746,-20.125 13.067,-33.058 30.838,-38.679c3.396,-1.046 6.796,-1.567 9.929,-1.567l9.929,0c103.754,1.046 207.633,2.875 311.517,5.225c104.146,2.092 206.983,11.5 308.383,28.225c50.179,8.1 93.558,26.917 130.146,56.45c36.588,29.271 63.375,65.333 80.492,108.196c17.379,42.858 21.692,89.379 13.067,139.554c-7.708,44.296 -22.737,84.021 -44.95,119.171c-22.346,35.279 -43.121,72.392 -62.2,111.329c-1.046,4.183 -2.483,8.363 -4.183,12.546c-1.438,3.921 -2.092,8.1 -2.092,12.546c1.046,9.8 7.317,20.125 18.817,30.838c11.758,10.454 24.829,20.383 39.2,29.792c14.633,9.408 25.221,17.508 31.883,24.042c22.212,22.346 42.467,47.304 60.629,74.742c18.425,27.179 31.1,56.971 38.154,89.379c9.671,47.825 5.358,99.05 -13.067,153.667c-18.162,54.358 -44.429,99.308 -78.925,134.85c-32.404,34.496 -71.346,58.279 -116.558,71.083c-44.95,12.938 -90.292,20.908 -135.896,24.042l0.021,0.008Zm-377.375,-861.379l0,8.362c-1.046,11.238 -2.092,25.088 -3.137,41.813c-1.046,16.725 0.262,32.404 4.183,47.042c3.788,14.375 11.758,24.829 24.042,31.363c6.925,3.137 13.721,5.096 20.383,5.75c6.533,0.783 13.721,1.046 21.429,1.046l100.879,3.137c34.104,1.046 67.95,-1.7 101.4,-8.362c25.35,-4.442 48.871,-17.508 70.562,-39.2c21.954,-21.562 35.15,-45.212 39.725,-71.083c6.533,-32.012 2.875,-59.717 -10.975,-83.108c-13.983,-23.65 -33.45,-41.812 -58.542,-54.358c-25.087,-12.804 -52.137,-20.517 -81.017,-23c-16.725,-2.092 -36.588,-3.921 -59.587,-5.75c-22.737,-1.7 -45.213,-1.308 -67.425,1.046c-22.346,2.092 -41.812,8.625 -58.542,19.338c-16.462,10.454 -26.917,27.442 -31.363,50.7c-2.483,12.283 -4.575,24.829 -6.271,37.633c-1.438,12.938 -3.396,25.479 -5.75,37.633l0.004,0Zm13.592,601.083c14.633,25.871 35.542,42.858 62.721,51.221c27.179,8.1 56.713,11.367 88.854,9.929c32.404,-1.7 61.938,-4.313 88.854,-7.842c32.404,-3.137 65.075,-12.546 98.263,-28.225c33.45,-15.679 59.192,-37.371 77.358,-65.333c16.333,-23.258 22.604,-46.779 18.817,-70.562c-3.921,-24.042 -13.983,-46.258 -30.317,-66.904c-16.071,-20.517 -34.496,-37.108 -55.404,-49.654c-24.829,-15.288 -51.617,-24.829 -80.492,-28.746c-29.008,-4.183 -57.362,-6.796 -85.196,-7.842c-32.146,-2.092 -63.504,0.917 -94.083,8.887c-30.708,7.708 -56.188,21.692 -76.312,41.812c-19.863,19.863 -31.621,48.608 -35.021,86.242c-1.046,15.679 -0.783,31.363 1.046,47.042c1.7,15.421 4.183,30.838 7.317,46.517c2.35,5.621 4.312,11.238 5.75,16.725c1.7,5.621 4.312,11.238 7.842,16.725l0.004,0.008Z" style="fill:#fff;"/></g></g></svg>