<?xml version="1.0" encoding="UTF-8" standalone="no"?><!DOCTYPE svg PUBLIC "-//W3C//DTD SVG 1.1//EN" "http://www.w3.org/Graphics/SVG/1.1/DTD/svg11.dtd"><svg width="100%" height="100%" viewBox="0 0 2084 2084" version="1.1" xmlns="http://www.w3.org/2000/svg" xmlns:xlink="http://www.w3.org/1999/xlink" xml:space="preserve" xmlns:serif="http://www.serif.com/" style="fill-rule:evenodd;clip-rule:evenodd;stroke-linejoin:round;stroke-miterlimit:2;"><rect x="-0.647" y="749.713" width="2084.628" height="583.908" style="fill:#ff3131;"/><g><path id="POINT" d="M1932.059,1129.437c0,-33.587 27.253,-60.84 60.84,-60.84c33.587,0 60.809,27.253 60.809,60.84c0,33.587 -27.221,60.809 -60.809,60.809c-33.587,0 -60.84,-27.221 -60.84,-60.809Z" style="fill:#fff;"/><g id="BACKSPIN"><path d="M1827.5,1180.586c-18.158,-22.988 -36.128,-46.1 -53.941,-69.37c-17.75,-23.238 -35.689,-46.195 -53.815,-68.868c-1.349,-1.568 -3.763,-3.951 -7.276,-7.15c-3.45,-3.262 -7.119,-6.021 -11.039,-8.279c-3.857,-2.258 -7.213,-3.136 -10.035,-2.634c-2.76,0.502 -4.14,3.607 -4.14,9.283c0,21.074 0.376,42.024 1.129,62.847c0.815,20.824 0.69,41.835 -0.376,62.973c-0.251,3.763 -0.376,7.746 -0.376,11.917c0,4.108 -0.564,7.997 -1.631,11.666c-0.753,3.512 -1.882,5.488 -3.387,5.896c-1.443,0.345 -4.14,0.502 -8.154,0.502c-7.213,-0.251 -14.489,-0.376 -21.827,-0.376l-22.329,0c-1.599,0 -2.728,-3.011 -3.387,-9.032c-0.69,-6.021 -1.004,-13.485 -1.004,-22.454c0,-8.938 0.031,-18.064 0.125,-27.347c0.157,-9.346 0.376,-17.593 0.627,-24.712c0.314,-7.088 0.502,-11.698 0.502,-13.799c0,-29.416 -0.094,-58.896 -0.251,-88.438c-0.094,-29.511 0,-58.958 0.251,-88.312c0,-4.014 0.251,-7.809 0.753,-11.415c0.564,-3.575 3.011,-6.335 7.276,-8.279c4.265,-1.568 8.969,-2.289 14.175,-2.133c5.175,0.094 9.941,0.564 14.301,1.38c9.847,1.85 18.628,5.864 26.343,12.043c7.777,6.115 14.332,13.046 19.695,20.824c8.028,11.478 16.214,22.893 24.587,34.246c8.436,11.384 16.935,22.674 25.465,33.87c7.777,9.879 15.461,20.385 23.082,31.486c7.589,11.039 15.963,20.886 25.089,29.479c2.666,2.697 5.582,4.391 8.781,5.143c4.265,1.098 7.84,0.188 10.788,-2.76c2.917,-2.917 4.924,-6.272 6.021,-10.035c0.815,-2.666 1.286,-5.457 1.38,-8.405c0.157,-2.917 0.251,-5.708 0.251,-8.405c-0.502,-20.322 -0.972,-40.456 -1.38,-60.464c-0.439,-20.071 0.282,-40.142 2.133,-60.213c0.815,-6.68 3.167,-11.29 7.025,-13.799c3.92,-2.572 8.687,-3.92 14.301,-4.014c5.582,-0.157 11.227,0.251 16.935,1.254c5.77,0.941 10.945,1.505 15.555,1.756c1.819,0 3.544,0.376 5.143,1.129c2.164,1.349 3.387,3.701 3.638,7.025c0.251,3.356 0.157,6.868 -0.251,10.537c-0.439,3.607 -0.753,6.46 -1.004,8.53l0,32.49c-0.251,10.725 -0.376,21.419 -0.376,32.114l0,157.808c0,5.959 0.188,12.168 0.627,18.691c0.408,6.523 0.188,12.733 -0.627,18.566c-0.847,4.61 -2.509,6.868 -5.018,6.774c-2.509,-0.157 -5.645,-0.251 -9.408,-0.251l-31.235,0c-5.363,0 -9.785,-0.439 -13.297,-1.38c-3.45,-1.004 -6.899,-3.638 -10.412,-7.903Z" style="fill:#fff;"/><path d="M1574.29,893.196l1.505,0c6.68,0 13.234,0.094 19.695,0.251c6.429,0.094 12.983,0.314 19.695,0.627c4.767,0.251 7.15,2.133 7.15,5.645l0,149.403c0,10.976 -0.094,22.015 -0.251,33.117c-0.094,11.039 -0.125,22.047 -0.125,32.992c0,10.224 0.564,20.447 1.756,30.734c1.254,10.286 1.192,20.635 -0.125,30.985c-0.847,5.112 -2.603,8.405 -5.269,9.91c-2.697,1.443 -6.586,2.446 -11.666,3.011c-2.352,0.251 -6.021,0.47 -11.039,0.627c-4.955,0.094 -10.098,-0.188 -15.43,-0.878c-5.269,-0.659 -9.879,-2.007 -13.799,-4.014c-3.857,-2.007 -5.77,-4.892 -5.77,-8.656c0,-44.815 0.031,-89.692 0.125,-134.601c0.157,-44.909 0.125,-89.818 -0.125,-134.726c0,-5.331 1.004,-9.032 3.011,-11.039c2.007,-2.007 5.551,-3.136 10.663,-3.387Z" style="fill:#fff;"/><path d="M1410.385,1107.704c-4.014,0 -8.593,0.47 -13.673,1.38c-5.112,0.941 -7.652,4.077 -7.652,9.408c0,6.46 0.125,12.795 0.376,19.067c0.314,6.272 0.502,12.607 0.502,18.942c0,1.944 0.157,5.143 0.502,9.659c0.408,4.516 0.502,8.875 0.251,13.046c-0.251,4.108 -1.474,6.837 -3.638,8.154c-1.098,0.596 -2.195,0.972 -3.262,1.129c-1.004,0.094 -2.07,0.251 -3.136,0.502c-5.112,0 -10.13,0.094 -15.053,0.251c-4.955,0.094 -9.785,0.314 -14.551,0.627c-2.948,0 -6.366,0.125 -10.286,0.376c-3.857,0.251 -7.119,-0.533 -9.785,-2.383c-2.697,-2.415 -3.763,-6.429 -3.262,-12.043c0.564,-5.582 0.878,-10.035 0.878,-13.297l0,-64.478c0,-10.694 0.125,-21.388 0.376,-32.114l0,-65.231c0,-21.639 -0.125,-43.435 -0.376,-65.356c0,-3.262 -0.314,-7.182 -0.878,-11.792c-0.502,-4.673 -0.627,-9.283 -0.376,-13.799c0.251,-4.579 1.317,-8.217 3.262,-10.914c2.415,-2.917 5.676,-4.704 9.785,-5.394c4.171,-0.659 8.436,-0.784 12.795,-0.376c4.422,0.345 8.217,0.69 11.415,1.004c7.777,0.251 15.367,0.376 22.831,0.376c7.527,0 14.99,0.125 22.454,0.376c14.959,0.251 29.981,1.129 45.034,2.634c15.116,1.443 29.918,4.453 44.407,9.032c7.182,2.101 14.489,5.363 21.953,9.785c7.527,4.453 14.301,10.475 20.322,18.064c6.021,7.621 10.224,17.28 12.67,28.977c7.433,35.312 7.401,63.443 -0.125,84.423c-7.464,21.012 -23.05,36.567 -46.79,46.665c-14.74,6.46 -30.545,10.349 -47.418,11.666c-16.809,1.349 -33.086,1.882 -48.797,1.631l-0.753,0Zm-19.695,-62.973c0,2.948 1.192,5.488 3.638,7.652c2.917,2.352 6.649,3.23 11.164,2.634c4.579,-0.659 8.593,-0.878 12.043,-0.627c4.516,0 8.812,0.125 12.921,0.376c4.171,0.251 8.436,0.251 12.795,0c8.53,-0.251 16.496,-1.756 23.96,-4.516c7.527,-2.822 13.799,-8.028 18.817,-15.555c3.512,-5.08 6.053,-11.227 7.652,-18.44c1.568,-7.182 2.133,-14.301 1.631,-21.325c-0.502,-7.088 -2.101,-13.203 -4.767,-18.315c-6.46,-12.293 -15.273,-20.102 -26.469,-23.458c-11.227,-3.324 -23.27,-5.018 -36.128,-5.018c-2.697,0 -6.366,-0.125 -11.039,-0.376c-4.704,-0.251 -9.157,-0.251 -13.422,0c-4.265,0.251 -7.464,1.474 -9.534,3.638c-2.195,2.101 -3.262,4.485 -3.262,7.15l0,86.18Z" style="fill:#fff;"/><path d="M1237.187,1189.368c-3.45,0.345 -6.899,0.596 -10.412,0.753c-3.512,0.094 -6.993,0.125 -10.412,0.125c-20.071,-0.251 -39.828,-3.638 -59.209,-10.161c-19.318,-6.586 -36.473,-16.715 -51.432,-30.357c-1.098,-1.066 -2.446,-2.415 -4.014,-4.014c-1.599,-1.568 -2.258,-3.293 -2.007,-5.143c0.251,-0.815 0.627,-1.568 1.129,-2.258c0.564,-0.659 1.004,-1.254 1.254,-1.756c3.011,-3.262 5.802,-6.398 8.405,-9.408c2.666,-3.073 5.331,-6.209 8.028,-9.408c2.164,-2.415 4.265,-5.175 6.272,-8.279c2.007,-3.073 4.704,-4.767 8.154,-5.018c2.415,0 4.704,0.69 6.899,2.007c8.53,3.763 16.966,7.997 25.34,12.67c8.436,4.704 16.998,8.781 25.716,12.293c8.687,3.45 17.562,5.237 26.594,5.394c9.095,0.094 18.346,-2.415 27.723,-7.527c2.666,-1.317 5.175,-3.011 7.527,-5.018c2.415,-2.007 4.296,-4.171 5.645,-6.523c3.262,-5.927 4.046,-11.29 2.383,-16.057c-1.599,-4.83 -4.61,-9.189 -9.032,-13.046c-4.359,-3.826 -9.22,-7.182 -14.551,-10.035c-5.363,-2.822 -10.035,-5.049 -14.05,-6.649c-8.781,-3.669 -17.75,-6.774 -26.845,-9.283c-9.032,-2.572 -18.127,-5.331 -27.221,-8.279c-8.875,-2.917 -17.437,-6.523 -25.716,-10.788c-8.279,-4.328 -15.241,-10.224 -20.824,-17.688c-7.464,-9.596 -11.792,-20.761 -13.046,-33.493c-1.192,-12.701 -0.439,-24.775 2.258,-36.253c2.164,-10.694 6.523,-20.102 13.046,-28.225c6.523,-8.185 14.457,-14.802 23.834,-19.82c17.374,-10.192 38.511,-15.304 63.349,-15.304c10.349,0 20.698,0.972 30.985,2.885c10.286,1.85 20.385,4.485 30.357,7.903c5.331,1.944 10.819,4.014 16.433,6.272c5.582,2.258 10.412,4.955 14.426,8.028c4.014,3.105 6.523,7.088 7.527,11.917c1.066,4.767 -0.251,10.631 -4.014,17.562c-1.004,2.697 -2.352,5.237 -4.014,7.652c-1.599,2.352 -3.199,4.61 -4.767,6.774c-1.349,2.697 -2.948,4.516 -4.767,5.52c-3.262,2.195 -6.711,2.352 -10.286,0.502c-3.607,-1.913 -6.743,-3.669 -9.408,-5.269c-9.628,-6.084 -19.883,-10.725 -30.734,-13.924c-10.788,-3.262 -21.921,-4.202 -33.368,-2.885c-7.464,0.753 -14.395,3.105 -20.824,7.025c-6.46,3.857 -10.663,8.781 -12.67,14.802c-2.007,6.021 -0.063,12.921 5.896,20.698c6.335,8.279 14.363,14.551 24.085,18.817c9.785,4.265 20.008,7.715 30.734,10.286c10.694,2.509 20.604,5.614 29.73,9.283c6.931,2.697 13.799,5.833 20.573,9.408c6.837,3.607 12.952,8.091 18.315,13.422c7.433,7.276 12.701,16.151 15.806,26.594c3.073,10.38 4.328,21.043 3.763,31.988c-0.502,10.976 -2.76,21.137 -6.774,30.483c-4.516,10.631 -11.133,19.569 -19.82,26.845c-8.718,7.213 -18.409,12.764 -29.103,16.684c-10.725,3.857 -21.67,6.272 -32.866,7.276Z" style="fill:#fff;"/><path d="M1020.823,1176.196c-3.763,-4.516 -7.213,-9.314 -10.286,-14.426c-3.105,-5.08 -6.366,-10.035 -9.785,-14.802c-7.527,-10.192 -15.022,-20.353 -22.454,-30.483c-7.464,-10.098 -14.928,-20.134 -22.454,-30.106c-3.763,-5.331 -7.652,-8.028 -11.666,-8.028c-4.014,0 -7.84,1.631 -11.415,4.892c-3.607,3.199 -6.743,7.088 -9.408,11.666c-2.697,4.516 -4.83,8.781 -6.398,12.795c-3.45,8.53 -5.363,17.562 -5.77,27.096c-0.439,9.471 -0.22,18.691 0.627,27.723c0.502,5.112 0.439,10.286 -0.125,15.555c-0.502,5.206 -3.951,8.028 -10.286,8.53c-3.011,0 -6.115,-0.031 -9.283,-0.125c-3.199,-0.157 -6.241,-0.251 -9.157,-0.251c-4.014,0 -8.656,0.345 -13.924,1.004c-5.206,0.69 -9.659,0.47 -13.422,-0.627c-5.018,-1.317 -7.276,-4.014 -6.774,-8.028c0.502,-4.014 0.753,-8.405 0.753,-13.172l0,-26.469c0,-8.844 -0.125,-17.562 -0.376,-26.092l0,-105.623c0,-35.124 0.125,-70.154 0.376,-105.122c0,-3.262 1.317,-5.457 4.014,-6.649c2.666,-1.254 5.676,-2.007 9.032,-2.258c3.324,-0.251 6.084,-0.251 8.279,0c3.418,0.251 6.711,0.69 9.91,1.254c3.262,0.502 6.586,0.878 10.035,1.129c1.662,0 3.293,-0.031 4.892,-0.125c1.568,-0.157 3.042,0.063 4.391,0.627c2.164,0.251 4.296,1.349 6.398,3.262c2.164,1.85 3.387,3.951 3.638,6.272c1.066,12.889 1.788,25.685 2.133,38.386c0.408,12.638 1.411,25.402 3.011,38.26c0.564,3.45 1.568,6.962 3.011,10.537c1.505,3.607 4.391,5.394 8.656,5.394c2.666,0 5.08,-1.035 7.276,-3.136l8.781,-8.781c2.917,-3.011 5.708,-5.833 8.405,-8.53c6.931,-6.335 13.579,-12.921 19.946,-19.695c6.429,-6.837 12.199,-14.301 17.311,-22.329c9.346,-14.959 20.447,-25.716 33.243,-32.239c12.858,-6.586 29.291,-9.91 49.299,-9.91c5.331,0 10.569,0.188 15.68,0.502c5.08,0.251 8.217,1.599 9.408,4.014c1.16,2.352 -1.317,6.993 -7.401,13.924c-13.893,15.555 -27.817,31.079 -41.773,46.54c-13.893,15.492 -27.911,30.702 -42.024,45.661c-5.614,5.959 -8.875,11.604 -9.785,16.935c-0.941,5.269 -0.376,10.349 1.631,15.179c2.007,4.767 4.453,9.346 7.401,13.673c14.363,19.506 28.852,38.982 43.403,58.457c14.551,19.506 28.915,39.138 43.153,58.958c2.666,3.45 4.798,6.899 6.398,10.412c1.568,3.45 1.693,6.335 0.376,8.656c-1.349,2.258 -5.08,3.512 -11.164,3.763c-4.861,0.251 -9.722,0.063 -14.551,-0.627c-4.767,-0.659 -9.722,-1.004 -14.802,-1.004c-6.115,0 -11.854,-0.125 -17.186,-0.376c-5.363,-0.251 -10.412,-2.791 -15.179,-7.652c-1.944,-1.819 -3.262,-3.293 -4.014,-4.391Z" style="fill:#fff;"/><path d="M848.064,946.133c0,1.098 -0.564,2.195 -1.631,3.262c-4.265,5.018 -8.75,10.035 -13.422,15.053c-4.704,4.955 -9.283,9.91 -13.799,14.928c-0.596,0.596 -1.317,1.223 -2.133,1.882c-0.753,0.69 -1.693,1.254 -2.76,1.756c-2.603,0.847 -5.645,-0.439 -9.157,-3.889c-3.512,-3.512 -6.209,-6.084 -8.028,-7.777c-8.781,-6.335 -18.158,-11.666 -28.099,-15.931c-9.879,-4.328 -20.416,-6.523 -31.612,-6.523l-1.254,0c-21.325,0.345 -39.954,6.209 -55.822,17.562c-15.9,11.29 -27.472,26.97 -34.748,47.041c-3.199,8.781 -4.516,18.503 -4.014,29.103c0.564,10.537 2.666,20.949 6.272,31.235c3.575,10.286 8.436,19.663 14.551,28.099c6.178,8.373 13.297,15.116 21.325,20.196c14.112,8.781 30.671,13.172 49.676,13.172c13.36,0 25.528,-2.133 36.504,-6.398c10.945,-4.265 19.883,-10.286 26.845,-18.064c3.763,-4.516 7.213,-7.338 10.412,-8.53c3.167,-1.254 7.056,0.251 11.666,4.516c4.265,4.014 8.311,8.248 12.168,12.67c3.826,4.453 7.527,8.906 11.039,13.422c0.502,1.098 1.066,2.101 1.756,3.011c0.659,0.941 1.16,2.07 1.505,3.387c1.004,4.014 -0.376,7.777 -4.14,11.29c-3.701,3.45 -7.997,6.46 -12.921,9.032c-4.955,2.509 -8.75,4.579 -11.415,6.147c-12.293,7.777 -25.81,13.799 -40.518,18.064c-14.74,4.265 -29.95,6.398 -45.661,6.398c-21.169,0 -39.985,-3.042 -56.45,-9.157c-16.402,-6.178 -30.42,-14.301 -42.024,-24.336c-11.635,-10.035 -21.137,-20.98 -28.476,-32.866c-7.276,-11.854 -12.544,-23.709 -15.806,-35.5c-6.931,-25.34 -8.467,-49.958 -4.641,-73.886c3.92,-23.897 13.077,-45.222 27.472,-63.976c13.611,-18.127 30.734,-32.239 51.306,-42.274c20.573,-10.035 42.651,-15.053 66.234,-15.053l1.129,0c17.123,0 33.901,2.352 50.303,7.025c16.464,4.704 31.643,12.137 45.536,22.329c2.07,1.599 4.83,3.638 8.279,6.147c3.512,2.509 6.711,5.269 9.659,8.279c3.011,2.948 4.641,5.99 4.892,9.157Z" style="fill:#fff;"/><path d="M555.053,1126.144c3.763,8.53 7.652,17.06 11.666,25.59c4.014,8.53 7.715,17.123 11.164,25.716c1.913,4.265 2.666,7.338 2.258,9.157c-0.439,1.85 -3.011,2.948 -7.777,3.262c-7.276,0.251 -14.614,0.376 -21.953,0.376c-7.276,0 -14.677,-0.408 -22.203,-1.254c-5.614,-0.502 -10.412,-3.073 -14.426,-7.777c-4.014,-4.673 -6.711,-9.691 -8.028,-15.053c-1.85,-6.931 -4.453,-13.736 -7.777,-20.447c-3.356,-6.68 -8.122,-12.043 -14.301,-16.057c-5.018,-3.418 -10.004,-5.269 -14.928,-5.52c-4.955,-0.314 -10.255,-0.502 -15.931,-0.502c-6.366,0.345 -12.764,0.439 -19.193,0.251c-6.46,-0.157 -12.983,-0.376 -19.569,-0.627c-7.777,-0.502 -15.367,-0.533 -22.705,-0.125c-7.37,0.345 -14.646,2.383 -21.827,6.147c-9.126,4.516 -16.559,10.882 -22.329,19.067c-5.708,8.122 -9.628,17.154 -11.792,27.096c-0.502,3.199 -1.568,6.115 -3.136,8.781c-1.599,2.697 -4.265,4.14 -8.028,4.391c-1.098,0 -4.735,0.22 -10.914,0.627c-6.115,0.439 -12.858,0.721 -20.196,0.878c-7.37,0.094 -13.642,-0.251 -18.817,-1.004c-5.206,-0.815 -7.527,-2.195 -7.025,-4.14c0.564,-1.317 1.004,-2.509 1.254,-3.512l0.753,-3.262c3.763,-10.945 8.311,-21.576 13.673,-31.863c5.331,-10.286 10.286,-20.761 14.802,-31.486c5.08,-11.447 10.098,-22.893 15.053,-34.372c4.924,-11.541 9.941,-23.019 15.053,-34.497c10.098,-22.988 20.102,-45.975 29.981,-68.994c9.847,-22.988 19.475,-45.944 28.852,-68.868c2.415,-5.676 5.08,-9.565 8.028,-11.666c2.917,-2.164 7.056,-3.262 12.419,-3.262l0.878,0c5.018,0.251 9.973,0.251 14.928,0c5.018,-0.251 10.035,-0.251 15.053,0c7.276,0.596 12.544,2.697 15.806,6.272c3.324,3.607 6.335,8.342 9.032,14.175c3.262,7.276 6.46,14.489 9.659,21.576c3.167,7.025 6.398,14.144 9.659,21.325c6.084,14.144 12.356,28.35 18.817,42.651c6.429,14.301 12.701,28.57 18.817,42.776c0.502,0.753 2.54,5.488 6.147,14.175c3.669,8.718 8.091,19.318 13.297,31.863c5.175,12.544 10.443,25.277 15.806,38.135Zm-105.372,-56.199c4.516,-0.251 8.217,-0.376 11.164,-0.376c3.011,0 3.544,-2.666 1.631,-8.028c-1.098,-4.265 -2.76,-8.311 -5.018,-12.168c-2.258,-3.92 -4.453,-7.84 -6.523,-11.792c-3.011,-5.331 -5.645,-11.039 -7.903,-17.06c-2.258,-6.021 -4.735,-11.948 -7.401,-17.813c-1.349,-3.011 -2.572,-6.084 -3.638,-9.283c-1.004,-3.167 -2.195,-6.084 -3.512,-8.781c-1.944,-4.579 -3.512,-6.805 -4.767,-6.649c-1.192,0.188 -2.697,2.509 -4.516,7.025c-2.948,6.711 -5.833,13.517 -8.656,20.447c-2.76,6.962 -5.614,13.893 -8.53,20.824c-2.697,6.209 -5.896,12.168 -9.659,17.938c-3.763,5.708 -6.586,11.886 -8.405,18.566c-0.502,1.85 -0.502,3.45 0,4.767c0.815,2.697 3.418,3.763 7.777,3.262c4.422,-0.564 7.558,-0.878 9.408,-0.878l48.547,0Z" style="fill:#fff;"/><path d="M182.29,1187.36c-4.265,0.345 -8.499,0.596 -12.67,0.753c-4.108,0.094 -8.154,0.251 -12.168,0.502c-16.559,0.251 -33.243,0.22 -50.052,-0.125c-16.809,-0.408 -33.493,0.063 -50.052,1.38c-2.697,0.251 -6.335,0.47 -10.914,0.627c-4.516,0.094 -8.467,-0.564 -11.792,-2.007c-3.356,-1.505 -5.018,-4.391 -5.018,-8.656c0.564,-27.253 0.878,-54.442 0.878,-81.538c0,-27.159 0.125,-54.38 0.376,-81.664l0,-67.238c0,-5.582 0.031,-11.196 0.125,-16.809c0.157,-5.676 0.251,-11.321 0.251,-16.935c0,-3.763 0.314,-8.028 1.004,-12.795c0.659,-4.83 3.136,-7.934 7.401,-9.283c0.815,-0.251 1.631,-0.376 2.383,-0.376l2.383,0c24.901,0.251 49.832,0.69 74.764,1.254c24.995,0.502 49.676,2.76 74.012,6.774c12.043,1.944 22.454,6.46 31.235,13.548c8.781,7.025 15.21,15.68 19.318,25.967c4.171,10.286 5.206,21.451 3.136,33.493c-1.85,10.631 -5.457,20.165 -10.788,28.601c-5.363,8.467 -10.349,17.374 -14.928,26.719c-0.251,1.004 -0.596,2.007 -1.004,3.011c-0.345,0.941 -0.502,1.944 -0.502,3.011c0.251,2.352 1.756,4.83 4.516,7.401c2.822,2.509 5.959,4.892 9.408,7.15c3.512,2.258 6.053,4.202 7.652,5.77c5.331,5.363 10.192,11.353 14.551,17.938c4.422,6.523 7.464,13.673 9.157,21.451c2.321,11.478 1.286,23.772 -3.136,36.88c-4.359,13.046 -10.663,23.834 -18.942,32.364c-7.777,8.279 -17.123,13.987 -27.974,17.06c-10.788,3.105 -21.67,5.018 -32.615,5.77Zm-90.57,-206.731l0,2.007c-0.251,2.697 -0.502,6.021 -0.753,10.035c-0.251,4.014 0.063,7.777 1.004,11.29c0.909,3.45 2.822,5.959 5.77,7.527c1.662,0.753 3.293,1.223 4.892,1.38c1.568,0.188 3.293,0.251 5.143,0.251l24.211,0.753c8.185,0.251 16.308,-0.408 24.336,-2.007c6.084,-1.066 11.729,-4.202 16.935,-9.408c5.269,-5.175 8.436,-10.851 9.534,-17.06c1.568,-7.683 0.69,-14.332 -2.634,-19.946c-3.356,-5.676 -8.028,-10.035 -14.05,-13.046c-6.021,-3.073 -12.513,-4.924 -19.444,-5.52c-4.014,-0.502 -8.781,-0.941 -14.301,-1.38c-5.457,-0.408 -10.851,-0.314 -16.182,0.251c-5.363,0.502 -10.035,2.07 -14.05,4.641c-3.951,2.509 -6.46,6.586 -7.527,12.168c-0.596,2.948 -1.098,5.959 -1.505,9.032c-0.345,3.105 -0.815,6.115 -1.38,9.032Zm3.262,144.26c3.512,6.209 8.53,10.286 15.053,12.293c6.523,1.944 13.611,2.728 21.325,2.383c7.777,-0.408 14.865,-1.035 21.325,-1.882c7.777,-0.753 15.618,-3.011 23.583,-6.774c8.028,-3.763 14.206,-8.969 18.566,-15.68c3.92,-5.582 5.425,-11.227 4.516,-16.935c-0.941,-5.77 -3.356,-11.102 -7.276,-16.057c-3.857,-4.924 -8.279,-8.906 -13.297,-11.917c-5.959,-3.669 -12.388,-5.959 -19.318,-6.899c-6.962,-1.004 -13.767,-1.631 -20.447,-1.882c-7.715,-0.502 -15.241,0.22 -22.58,2.133c-7.37,1.85 -13.485,5.206 -18.315,10.035c-4.767,4.767 -7.589,11.666 -8.405,20.698c-0.251,3.763 -0.188,7.527 0.251,11.29c0.408,3.701 1.004,7.401 1.756,11.164c0.564,1.349 1.035,2.697 1.38,4.014c0.408,1.349 1.035,2.697 1.882,4.014Z" style="fill:#fff;"/></g></g></svg>