<?xml version="1.0" encoding="UTF-8" standalone="no"?><!DOCTYPE svg PUBLIC "-//W3C//DTD SVG 1.1//EN" "http://www.w3.org/Graphics/SVG/1.1/DTD/svg11.dtd"><svg width="100%" height="100%" viewBox="0 0 8334 3150" version="1.1" xmlns="http://www.w3.org/2000/svg" xmlns:xlink="http://www.w3.org/1999/xlink" xml:space="preserve" xmlns:serif="http://www.serif.com/" style="fill-rule:evenodd;clip-rule:evenodd;stroke-linejoin:round;stroke-miterlimit:2;"><g><g><path d="M7128.817,2709.933l0,-1129.667l386.973,0l0,118.844l4.33,0c100.572,-101.244 207.711,-151.861 321.416,-151.861c55.338,0 110.317,7.344 164.895,21.967c54.655,14.656 107.139,37.383 157.386,68.222c50.319,30.839 91.146,74.55 122.443,131.061c31.368,56.55 47.074,122.261 47.074,197.1l0,744.333l-386.973,0l0,-638.583c0,-58.767 -18.593,-110.15 -55.734,-154.189c-37.18,-44 -85.588,-66.039 -145.261,-66.039c-58.335,0 -111.182,22.767 -158.543,68.222c-47.361,45.494 -71.044,96.15 -71.044,152.011l0,638.583l-386.973,0l0.011,-0.006Zm-623.044,-1759.522c45.229,-45.456 99.2,-68.222 161.865,-68.222c62.665,0 116.559,22.767 161.722,68.222c45.229,45.494 67.865,99.789 67.865,162.917c0,63.133 -22.631,117.5 -67.865,163.067c-45.157,45.494 -99.051,68.222 -161.722,68.222c-62.665,0 -116.631,-22.728 -161.865,-68.222c-45.157,-45.567 -67.722,-99.933 -67.722,-163.067c0,-63.133 22.559,-117.422 67.722,-162.917Zm-37.108,629.856l386.973,0l0,1129.667l-386.973,0l0,-1129.667Zm-1416.464,989.878c-104.935,-115.278 -157.386,-256.594 -157.386,-423.878c0,-167.356 52.451,-309.033 157.386,-425.044c104.902,-115.972 238.285,-173.972 400.112,-173.972c148.616,0 271.025,46.983 367.19,140.956l0,-107.933l386.973,0l0,1129.667l-382.637,0l0,-127.717l-4.33,0c-96.165,107.172 -218.574,160.739 -367.19,160.739c-161.826,0 -295.21,-57.606 -400.112,-172.811l-0.006,-0.006Zm328.925,-615.456c-50.247,49.856 -75.374,113.717 -75.374,191.572c0,77.789 24.041,141.244 72.195,190.411c48.121,49.167 111.507,73.75 190.164,73.75c75.732,0 138.039,-24.911 186.843,-74.767c48.876,-49.928 73.352,-113.1 73.352,-189.539c0,-77.75 -25.198,-141.572 -75.517,-191.428c-50.247,-49.928 -111.832,-74.911 -184.678,-74.911c-74.327,0 -136.667,24.983 -186.986,74.911Z" style="fill:#fff;"/><path d="M4509.104,2121.283c19.348,79.711 47.939,153.717 85.769,221.978c37.83,68.183 89.703,136.844 155.656,205.978c65.915,69.167 149.051,145.356 249.364,228.667l-382.637,372.094c-54.506,-40.728 -110.317,-93.461 -167.495,-158.117c-57.178,-64.694 -111.292,-136.006 -162.295,-213.978c-51.041,-77.967 -95.008,-157.244 -131.973,-237.833c-36.965,-80.661 -62.918,-157.317 -77.825,-229.978c-14.946,-72.733 -15.376,-135.644 -1.3,-188.811c131.868,-60.222 222.436,-114.661 271.747,-163.356c49.272,-48.767 68.19,-88.222 56.748,-118.406c-11.481,-30.144 -43.571,-45.239 -96.308,-45.239c-79.125,0 -146.412,23.967 -201.86,71.861c-55.448,47.822 -95.95,112.517 -121.434,194.05c-25.523,81.461 -34.729,172.739 -27.578,273.761c7.002,49.678 14.478,94.844 22.383,135.572c7.867,40.728 17.111,78.839 27.721,114.333l-409.064,0c-29.853,-95.717 -54.005,-218.85 -72.487,-369.478c-18.483,-150.7 -30.828,-317.728 -36.965,-501.122c-6.17,-183.356 -6.605,-374.75 -1.3,-574.144c5.272,-199.356 17.111,-396.533 35.522,-591.45c18.483,-194.922 42.667,-377.478 72.63,-547.667l535.693,-0c-38.695,157.789 -72.592,329.728 -101.652,515.811c-28.988,186.011 -51.84,376.022 -68.587,570.067c-16.747,194.05 -26.856,381.478 -30.321,562.217c58.048,-88.517 135.873,-160.228 233.482,-215.139c97.608,-54.983 218.536,-80.733 362.86,-77.239c66.78,0 129.665,14.217 188.578,42.622c58.913,28.328 105.48,66.878 139.774,115.644c34.365,48.694 48.446,105.822 42.309,171.356c-6.17,65.567 -39.637,135.133 -100.352,208.739c-60.643,73.533 -156.918,149.244 -288.786,227.211l-0.017,-0.006Z" style="fill:#fff;"/></g><g><clipPath id="_clip1"><path d="M3668.805,2614.558c-77.032,0 -139.52,64.806 -139.52,144.733c0,79.933 62.488,144.733 139.52,144.733c77.071,0 139.52,-64.806 139.52,-144.733c0,-79.933 -62.45,-144.733 -139.52,-144.733Z"/></clipPath><g clip-path="url(#_clip1)"><g><g><g><g><g><clipPath id="_clip2"><path d="M3668.805,2614.558c-77.032,0 -139.52,64.806 -139.52,144.733c0,79.933 62.488,144.733 139.52,144.733c77.071,0 139.52,-64.806 139.52,-144.733c0,-79.933 -62.45,-144.733 -139.52,-144.733Z"/></clipPath><g clip-path="url(#_clip2)"><rect x="3529.284" y="2614.558" width="279.041" height="289.906" style="fill:#fff;"/></g></g></g></g></g></g></g></g><path d="M2599.054,1903.924l703.915,0l0,336.894l-703.915,0l0,-336.894Zm-1338.919,671.75c-124.575,-111.606 -186.843,-254.744 -186.843,-429.406c0,-174.739 64.83,-318.272 194.495,-430.572c129.736,-112.3 290.086,-168.444 480.973,-168.444c187.999,0 346.471,56.55 475.486,169.611c128.976,112.989 193.486,256.122 193.486,429.406c0,173.211 -63.061,315.944 -189.156,428.244c-126.018,112.3 -285.971,168.444 -479.816,168.444c-201.1,0 -363.978,-55.75 -488.625,-167.283Zm299.468,-620.983c-50.247,49.856 -75.374,113.717 -75.374,191.572c0,77.789 24.041,141.244 72.195,190.411c48.121,49.167 111.507,73.75 190.164,73.75c75.732,0 138.039,-24.911 186.843,-74.767c48.876,-49.928 73.352,-113.1 73.352,-189.539c0,-77.75 -25.198,-141.572 -75.517,-191.428c-50.247,-49.928 -111.832,-74.911 -184.678,-74.911c-74.327,0 -136.667,24.983 -186.986,74.911Zm-881.971,-88.15c-72.884,0 -135.548,27.167 -187.999,81.461c-52.484,54.328 -78.696,119.644 -78.696,195.939c0,77.894 26.206,143.972 78.696,198.267c52.451,54.328 115.116,81.461 187.999,81.461c35.015,0 68.19,-4.4 99.487,-13.239c31.368,-8.8 54.33,-17.639 68.873,-26.472l19.64,-13.089l131.251,270.85c-10.214,7.272 -24.476,16.439 -42.739,27.494c-18.196,10.983 -59.745,26 -124.613,45.094c-64.797,19.094 -134.359,28.656 -208.647,28.656c-164.713,0 -309.395,-58.333 -434.042,-174.994c-124.575,-116.733 -186.843,-256.594 -186.843,-419.517c-0,-164.444 62.268,-305.761 186.843,-423.878c124.646,-118.189 269.329,-177.317 434.042,-177.317c74.289,0 142.804,8.839 205.468,26.472c62.665,17.567 107.067,35.167 133.273,52.806l37.252,26.328l-131.251,266.489c-48.049,-35.2 -110.714,-52.806 -187.999,-52.806l0.006,-0.006Z" style="fill:#fff;"/></g></svg>