<?xml version="1.0" encoding="UTF-8" standalone="no"?><!DOCTYPE svg PUBLIC "-//W3C//DTD SVG 1.1//EN" "http://www.w3.org/Graphics/SVG/1.1/DTD/svg11.dtd"><svg width="100%" height="100%" viewBox="0 0 6250 1235" version="1.1" xmlns="http://www.w3.org/2000/svg" xmlns:xlink="http://www.w3.org/1999/xlink" xml:space="preserve" xmlns:serif="http://www.serif.com/" style="fill-rule:evenodd;clip-rule:evenodd;stroke-linejoin:round;stroke-miterlimit:2;"><path d="M1106.591,666.842c0.687,-7.827 0.556,-7.631 1.361,-15.5c13.024,-127.301 -115.336,-118.944 -138.039,-51.335c-7.578,22.567 6.315,205.72 -166.781,312.604c-240.278,148.368 -543.087,-29.705 -531.719,-304.798c8.234,-199.256 187.921,-324.702 337.86,-327.504c68.308,-1.277 91.533,67.573 64.387,105.351c-34.609,48.165 -93.35,15.216 -161.472,58.373c-161.715,102.45 -96.386,257.297 -77.575,287.085c77.368,122.514 227.209,121.758 305.363,65.137c104.133,-75.443 92.457,-185.401 95.868,-203.628c36.658,-195.928 286.689,-244.378 384.261,-64.788c49.91,91.864 12.884,283.099 -69.817,412.352c-222.132,347.17 -645.741,362.671 -894.092,173.369c-312.86,-238.473 -317.169,-617.202 -131.456,-864.158c173.252,-230.385 447.561,-257.72 507.187,-247.659c77.135,13.016 69.138,130.448 -8.034,132.162c-37.475,0.832 -37.078,2.527 -74.094,6.983c-82.582,9.941 -167.805,52.861 -212.486,86.005c-308.188,228.613 -240.144,638.159 33.406,803.908c308.309,186.81 697.108,-13.89 735.87,-363.96Z" style="fill:#8b80db;"/><path d="M4877.495,493.267c125.098,-14.872 143.057,31.708 160.236,22.958c6.658,-3.391 4.486,-28.956 4.459,-55.62c-0.128,-127.231 -1.108,-133.18 11.829,-134.708c1.311,-0.155 79.678,-0.742 89.216,-0.196c20.518,1.174 15.553,28.693 15.667,53.944c1.586,350.367 1.34,352.051 -3.087,382.317c-29.362,200.727 -263.508,255.367 -390.718,149.063c-167.671,-140.115 -78.176,-387.403 112.399,-417.759Zm59.147,111.224c-9.436,-0.968 -70.29,-7.213 -111.714,39.597c-85.006,96.058 8.933,220.062 104.234,208.788c148.591,-17.579 151.018,-229.25 7.479,-248.384Z" style="fill:#fff;"/><path d="M5862.503,703.406c0.782,17.416 10.373,102.195 -59.144,179.556c-170.875,190.156 -484.051,21.906 -407.576,-230.5c47.079,-155.386 285.148,-240.281 419.982,-67.453c41.981,53.81 45.991,108.246 46.738,118.397Zm-217.06,-98.514c-3.546,-0.234 -17.903,-3.355 -45.131,0.208c-29.58,3.871 -67.952,31.914 -80.923,54.064c-71.936,122.849 58.239,228.019 154.511,182.548c117.074,-55.295 92.134,-214.58 -28.457,-236.82Z" style="fill:#fff;"/><path d="M2218.589,493.302c178.289,31.368 255.576,246.011 143.467,381.567c-143.682,173.734 -421.563,80.794 -427.162,-149.339c-1.547,-63.58 32.192,-143.122 99.852,-190.746c78.242,-55.073 151.064,-45.154 183.842,-41.483Zm-165.088,262.236c2.272,7.418 10.418,57.505 70.313,85.798c125.91,59.478 250.4,-115.997 126.412,-213.792c-73.977,-58.349 -220.874,-8.083 -196.725,127.994Z" style="fill:#fff;"/><path d="M3212.676,710.82c-0.209,30.548 4.22,58.273 -12.157,63.654c-1.652,0.543 -1.594,0.309 -287.521,0.626c-8.989,0.01 -43.695,-3.802 -43.208,9.229c0.849,22.694 83.748,118.137 195.68,47.939c21.344,-13.386 23.985,-34.818 52.462,-9.12c51.421,46.404 60.659,48.177 50.41,61.693c-22.666,29.89 -169.797,145.809 -333.82,28.597c-32.267,-23.058 -85.089,-93.379 -88.253,-158.631c-2.618,-53.996 -4.622,-144.798 99.08,-222.348c123.351,-92.243 356.909,-34.549 367.327,178.361Zm-225.712,-113.609c-24.527,0.746 -40.835,-2.001 -81.432,25.133c-18.33,12.252 -35.862,40.626 -36.38,44.35c-2.027,14.566 8.352,10.014 184.18,10c29.348,-0.002 49.432,1.915 33.822,-23.045c-32.666,-52.232 -91.001,-55.866 -100.19,-56.439Z" style="fill:#fff;"/><path d="M4412.102,853.89c3.356,-0.317 67.153,-0.604 93.598,-55.796c16.066,-33.531 5.165,-213.176 8.476,-286.11c0.935,-20.597 17.134,-16.734 74.968,-16.936c29.442,-0.103 41.016,-4.889 40.996,24.429c-0.166,237.266 0.648,237.274 -1.349,257.802c-24.692,253.796 -440.042,253.23 -440.063,-29.735c-0.018,-243.273 -0.075,-243.985 3.84,-248.172c4.071,-4.353 25.184,-4.241 27.402,-4.229c69.596,0.37 80.538,-2.044 85.032,10.416c0.209,0.579 0.303,175.267 0.311,190.507c0.028,52.521 -16.038,153.288 106.788,157.824Z" style="fill:#fff;"/><path d="M6247.785,792.217c3.103,27.629 21.408,141.648 -137.285,170.149c-116.601,20.941 -225.394,-63.735 -219.138,-89.009c0.974,-3.933 59.178,-62.83 71.533,-61.339c4.513,0.545 56.712,63.387 133.197,48.634c49.9,-9.625 54.341,-54.407 7.566,-71.062c-81.501,-29.02 -187.447,-30.04 -200.995,-152.297c-0.928,-8.37 1.92,-51.168 24.027,-80.309c66.8,-88.059 219.298,-90.307 300.831,-7.207c20.417,20.809 16.587,25.946 3.344,38.39c-47.443,44.582 -52.766,53.969 -68.468,41.157c-13.071,-10.666 -22.672,-25.938 -74.162,-36.947c-43.996,-9.406 -106.259,34.628 -45.574,69.11c50.812,28.872 173.863,20.715 205.123,130.729Z" style="fill:#fff;"/><path d="M3659.477,597.258c-20.491,-5.281 -25.29,-10.933 -60.618,0.752c-3.082,1.019 -26.512,8.769 -24.941,31.909c1.003,14.782 5.577,27.849 48.886,41.201c98.448,30.351 185.884,43.849 180.611,164.696c-5.808,133.124 -231.398,182.585 -348.864,56.626c-19.78,-21.211 -4.322,-26.362 8.836,-38.007c43.047,-38.097 48.372,-51.372 64.692,-35.734c69.028,66.141 147.29,46.866 160.013,17.055c21.531,-50.447 -72.889,-50.179 -155.043,-87.739c-73.03,-33.389 -74.913,-100.113 -75.215,-110.811c-4.104,-145.398 199.843,-189.573 305.333,-104.302c45.302,36.619 31.577,46.39 22.766,54.509c-4.231,3.899 -48.016,44.244 -54.422,47.03c-18.34,7.975 -10.007,-20.379 -72.034,-37.183Z" style="fill:#fff;"/><path d="M1702.458,493.259c2.663,-0.348 75.231,-14.732 146.659,20.036c5.691,2.77 35.811,17.431 64.83,45.287c21.677,20.808 8.755,27.673 -39.232,67.25c-18.066,14.899 -23.794,30.344 -41.516,13.345c-56.065,-53.778 -127.582,-36.445 -154.622,-18.899c-153.633,99.689 8.728,320.15 152.021,196.96c19.962,-17.162 23.605,-8.071 42.855,9.609c44.325,40.712 62.842,43.361 44.956,62.446c-86.791,92.608 -222.875,92.475 -306.147,36.823c-193.063,-129.028 -114.917,-397.593 90.196,-432.856Z" style="fill:#fff;"/><path d="M4050.142,604.877c-9.655,0.007 -41.309,-4.178 -44.646,10.162c-1.338,5.749 -1.273,161.385 0,169.363c16.739,104.861 118.077,52.538 135.213,72.126c2.654,3.034 2.807,21.628 2.822,23.524c0.515,62.629 -0.735,71.561 -3.692,74.598c-4.061,4.171 -43.683,8.768 -74.973,7.423c-118.042,-5.075 -157.055,-96.605 -163.238,-111.11c-21.872,-51.315 -6.176,-214.801 -11.567,-236.517c-4.107,-16.548 -47.21,-5.596 -54.543,-13.58c-6.403,-6.972 -2.302,-96.673 -2.143,-97.201c4.496,-14.977 47.084,-4.128 54.57,-13.458c5.78,-7.202 0.306,-121.705 3.621,-133.865c3.429,-12.579 26.24,-10.551 55.206,-10.17c48.902,0.643 57.138,-1.47 57.525,18.815c2.252,118.146 -4.446,123.755 9.639,129.497c1.564,0.637 26.527,0.666 28.834,0.669c87.242,0.1 97.813,-4.84 99.9,17.118c0.205,2.156 -0.277,78.923 -0.819,81.543c-2.867,13.838 -18.728,11.128 -91.709,11.064Z" style="fill:#fff;"/><path d="M2661.964,494.571c34.188,0.265 58.747,-2.369 62.628,8.253c1.874,5.128 2.134,9.417 1.63,82.798c-0.217,31.576 -20.709,21.562 -56.876,22.359c-49.187,1.083 -92.341,34.623 -93.425,88.193c-2.132,105.337 3.709,246.729 -4.605,255.393c-5.206,5.425 -6.259,5.788 -94.031,4.753c-15.794,-0.186 -18.652,-1.626 -19.36,-17.465c-1.825,-40.86 0.151,-230.079 0.36,-250.085c1.005,-96.257 82.934,-190.618 203.679,-194.2Z" style="fill:#fff;"/><path d="M5330.673,769.626c-0.034,44.156 -0.067,88.311 -0.101,132.467c0.026,27.272 5.644,52.8 -17.659,53.565c-93.964,3.083 -96.049,-1.076 -98.318,-8.613c-1.233,-4.097 -1.822,-436.893 0.299,-443.1c2.537,-7.425 4.566,-10.799 97.981,-8.892c22.388,0.457 17.891,12.408 17.613,90.658c0.061,61.305 0.123,122.61 0.184,183.915Z" style="fill:#fff;"/><path d="M5339.159,394.239c-0.977,6.708 0.077,36.935 -34.948,56.775c-67.454,38.208 -139.354,-61.526 -70.83,-113.044c8.336,-6.267 35.593,-19.553 63.911,-7.894c43.892,18.07 41.768,63.453 41.868,64.164Z" style="fill:#fff;"/></svg>