<?xml version="1.0" encoding="UTF-8" standalone="no"?><!DOCTYPE svg PUBLIC "-//W3C//DTD SVG 1.1//EN" "http://www.w3.org/Graphics/SVG/1.1/DTD/svg11.dtd"><svg width="100%" height="100%" viewBox="0 0 8684 8684" version="1.1" xmlns="http://www.w3.org/2000/svg" xmlns:xlink="http://www.w3.org/1999/xlink" xml:space="preserve" xmlns:serif="http://www.serif.com/" style="fill-rule:evenodd;clip-rule:evenodd;stroke-linejoin:round;stroke-miterlimit:2;"><g id="CS73"><path d="M8290.075,5232.46l-1562.942,0l0,-220.896l1562.942,0c48.617,0 90.288,-17.873 125.017,-53.892c34.983,-36.282 52.475,-79.635 52.475,-130.19l0,-191.55c0,-49.355 -16.463,-91.773 -49.388,-126.988c-32.667,-35.215 -73.312,-54.022 -121.929,-56.558l-1285.133,0l0,-220.896l1285.133,0c48.617,-2.403 89.258,-21.343 121.929,-56.558c32.925,-35.215 49.388,-77.634 49.388,-127.524l0,-191.55c0,-50.422 -17.492,-93.64 -52.475,-129.659c-34.725,-35.88 -76.4,-53.892 -125.017,-53.892l-1562.942,0l0,-221.432l1562.942,0c108.038,0 200.125,39.752 276.267,118.985c76.142,78.969 114.212,174.342 114.212,285.994l0,191.55c0,116.051 -40.642,214.229 -121.929,294.529c81.283,80.434 121.929,178.478 121.929,293.997l0,191.55c0,111.781 -38.071,207.293 -114.212,286.525c-76.142,78.969 -168.229,118.454 -276.267,118.454l0,0.004Z" style="fill:#fff;fill-rule:nonzero;"/><path d="M5000.992,5244.541l0,-760.375c0,-15.142 4.246,-28.124 12.862,-38.938c8.875,-11.086 20.192,-18.387 33.954,-21.633l1368.992,-287.167c64.438,-15.142 116.783,-48.671 156.913,-100.591c40.387,-51.916 60.708,-111.542 60.708,-179.007l0,-131.957c0,-78.959 -26.625,-146.288 -79.742,-202.26c-52.863,-55.836 -116.783,-83.825 -191.896,-83.825l-1681.783,0l0,224.436l1681.783,0c16.721,0 30.613,5.948 41.671,17.849c11.317,11.629 16.979,26.228 16.979,43.805l0,131.957c0,14.467 -4.5,27.445 -13.375,38.938c-8.617,11.222 -19.808,18.387 -33.442,21.633l-1368.992,286.085c-63.792,15.142 -116.142,48.671 -156.913,100.591c-40.9,51.916 -61.221,111.949 -61.221,180.089l0,760.375l213.504,0l-0.004,-0.004Z" style="fill:#fff;fill-rule:nonzero;"/><path d="M3471.1,5232.46c-191.767,0 -370.287,-21.35 -535.558,-63.792c-165.4,-42.829 -308.679,-95.175 -430.092,-156.913l47.846,-112.154c106.621,59.679 240.383,110.996 401.283,153.825c161.154,42.571 331.317,63.792 510.35,63.792c129.904,0 244.5,-15.433 343.663,-46.3c99.033,-31.125 176.975,-72.796 233.567,-125.017c56.592,-52.088 84.888,-110.225 84.888,-174.404c0,-100.062 -52.863,-180.062 -158.454,-239.742c-105.721,-59.679 -288.487,-108.679 -548.421,-147.138c-290.158,-42.442 -497.746,-104.692 -622.5,-186.75c-124.5,-82.312 -186.75,-185.338 -186.75,-309.192c0,-85.017 35.113,-160 105.467,-224.821c70.225,-65.079 168.875,-116.913 295.817,-155.367c126.817,-38.329 275.496,-57.621 446.042,-57.621c143.021,0 270.35,8.617 382.246,25.725c112.154,16.85 217.233,38.071 315.367,63.792l0,127.588c-91.962,-27.396 -195.496,-50.675 -310.737,-69.967c-114.983,-19.163 -244.883,-28.808 -389.963,-28.808c-130.029,0 -247.329,13.375 -351.892,40.129c-104.308,26.496 -186.238,63.667 -245.912,111.637c-59.679,48.104 -89.517,103.921 -89.517,167.717c0,60.062 20.192,113.567 60.708,160.512c40.387,46.688 111.254,87.717 212.475,122.958c101.092,34.983 243.471,66.367 427.004,94.146c296.333,45.017 506.233,107.396 629.704,187.267c123.729,80 185.721,185.979 185.721,317.938c0,85.4 -33.183,162.829 -99.292,232.025c-65.85,69.325 -159.742,124.888 -281.413,166.688c-121.412,41.413 -265.333,62.25 -431.637,62.25l-0.008,-0.004Z" style="fill:#fff;fill-rule:nonzero;"/><path d="M1353.729,5232.46c-194.208,0 -374.4,-21.35 -540.704,-63.792c-166.429,-42.829 -311.508,-104.179 -435.238,-184.179c-123.471,-79.871 -219.933,-174.146 -289.129,-282.954c-69.325,-108.679 -103.921,-229.196 -103.921,-361.667c-0,-131.958 32.925,-251.829 98.779,-359.612c66.108,-107.65 157.942,-201.413 275.238,-281.413c117.296,-80.258 253.246,-141.608 407.971,-184.179c154.596,-42.442 320.513,-63.792 497.488,-63.792c183.15,0 356.779,22.508 521.154,67.396c164.242,44.629 301.733,112.667 412.6,204.242l-95.692,92.604c-94.017,-74.342 -214.533,-132.346 -361.667,-173.887c-147.138,-41.8 -305.979,-62.767 -476.396,-62.767c-149.579,0 -291.571,18.262 -425.975,54.533c-134.146,36.4 -252.987,88.746 -356.525,156.913c-103.279,68.296 -184.179,148.938 -242.829,241.8c-58.65,92.604 -87.975,195.367 -87.975,308.162c0,113.183 31.383,216.075 94.146,308.679c63.021,92.604 149.967,173.117 260.833,241.283c111.125,68.296 238.967,121.158 383.792,158.454c145.079,37.429 299.675,56.075 464.046,56.075c181.092,0 346.233,-22.767 495.429,-68.425c149.45,-45.917 295.558,-106.238 438.325,-181.092l0,156.913c-130.029,70.354 -272.925,124.758 -428.55,163.083c-155.754,38.329 -324.113,57.621 -505.204,57.621l0.004,0Z" style="fill:#9084df;fill-rule:nonzero;"/></g></svg>