<?xml version="1.0" encoding="UTF-8" standalone="no"?><!DOCTYPE svg PUBLIC "-//W3C//DTD SVG 1.1//EN" "http://www.w3.org/Graphics/SVG/1.1/DTD/svg11.dtd"><svg width="100%" height="100%" viewBox="0 0 6250 3844" version="1.1" xmlns="http://www.w3.org/2000/svg" xmlns:xlink="http://www.w3.org/1999/xlink" xml:space="preserve" xmlns:serif="http://www.serif.com/" style="fill-rule:evenodd;clip-rule:evenodd;stroke-linejoin:round;stroke-miterlimit:2;"><path id="CYPHER" d="M0,3362.304l0,-555.23l935.947,0l0,92.007l-843.94,0l-0,371.216l843.94,0l0,92.007l-935.947,0Zm1086.593,0l0,-92.007l820.157,0l0,-139.572l-843.94,0l0,-323.652l92.007,0l0,231.579l751.933,0l0,-231.579l92.007,0l0,555.23l-912.164,0Zm1039.028,0l0,-555.23l935.947,0l0,323.652l-843.94,0l0,231.579l-92.007,0Zm92.007,-323.652l751.933,0l0,-139.572l-751.933,0l0,139.572Zm970.804,323.652l0,-555.23l92.007,0l0,231.579l751.933,0l0,-231.579l92.007,0l0,555.23l-92.007,0l0,-231.579l-751.933,0l0,231.579l-92.007,0Zm1062.811,0l0,-555.23l935.947,0l0,92.007l-843.94,0l0,139.572l843.94,0l0,92.073l-843.94,0l0,139.572l843.94,0l0,92.007l-935.947,0Zm1062.81,0l0,-555.23l935.947,0l0,323.652l-299.803,0l299.803,178.434l0,53.145l-92.007,0l-389.419,-231.579l-362.514,0l0,231.579l-92.007,0Zm92.007,-323.652l751.933,0l0,-139.572l-751.933,0l0,139.572Z" style="fill:#fff;"/><path id="SESSIONS" d="M1925.162,3843.256c-12.378,0 -24.346,-1.91 -35.872,-5.747c-11.494,-3.868 -20.525,-8.857 -27.093,-14.968l8.652,-18.315c6.268,5.652 14.305,10.231 24.125,13.768c9.805,3.505 19.862,5.242 30.188,5.242c13.641,0 23.825,-2.289 30.567,-6.884c6.726,-4.626 10.105,-10.799 10.105,-18.504c0,-5.637 -1.831,-10.199 -5.494,-13.705c-3.663,-3.537 -8.21,-6.252 -13.641,-8.147c-5.4,-1.895 -13.041,-4.01 -22.925,-6.379c-12.378,-2.937 -22.388,-5.905 -29.998,-8.905c-7.579,-2.984 -14.083,-7.579 -19.515,-13.768c-5.4,-6.189 -8.084,-14.526 -8.084,-25.009c0,-8.794 2.305,-16.704 6.947,-23.746c4.626,-7.073 11.636,-12.71 21.03,-16.925c9.378,-4.247 21.062,-6.379 35.051,-6.379c9.726,0 19.278,1.263 28.672,3.789c9.378,2.495 17.446,6.094 24.188,10.799l-7.705,18.82c-6.915,-4.373 -14.305,-7.705 -22.167,-9.978c-7.831,-2.274 -15.504,-3.41 -22.988,-3.41c-13.357,0 -23.351,2.431 -29.998,7.263c-6.663,4.847 -9.978,11.115 -9.978,18.82c0,5.652 1.863,10.231 5.621,13.768c3.742,3.505 8.4,6.237 13.957,8.21c5.589,1.942 13.168,4.026 22.736,6.252c12.378,2.952 22.309,5.921 29.809,8.905c7.531,3 13.989,7.547 19.388,13.641c5.431,6.11 8.147,14.336 8.147,24.693c0,8.636 -2.368,16.515 -7.073,23.62c-4.673,7.121 -11.794,12.757 -21.346,16.925c-9.568,4.168 -21.33,6.252 -35.303,6.252Zm405.565,-22.357l0,20.462l-119.425,0l0,-164.581l116.141,0l0,20.462l-92.648,0l0,50.524l82.543,0l0,20.02l-82.543,0l0,53.113l95.932,0Zm274.102,22.357c-12.378,0 -24.346,-1.91 -35.872,-5.747c-11.494,-3.868 -20.525,-8.857 -27.093,-14.968l8.652,-18.315c6.268,5.652 14.305,10.231 24.125,13.768c9.805,3.505 19.862,5.242 30.188,5.242c13.641,0 23.825,-2.289 30.567,-6.884c6.726,-4.626 10.105,-10.799 10.105,-18.504c0,-5.637 -1.831,-10.199 -5.494,-13.705c-3.663,-3.537 -8.21,-6.252 -13.641,-8.147c-5.4,-1.895 -13.041,-4.01 -22.925,-6.379c-12.378,-2.937 -22.388,-5.905 -29.998,-8.905c-7.579,-2.984 -14.083,-7.579 -19.515,-13.768c-5.4,-6.189 -8.084,-14.526 -8.084,-25.009c0,-8.794 2.305,-16.704 6.947,-23.746c4.626,-7.073 11.636,-12.71 21.03,-16.925c9.378,-4.247 21.062,-6.379 35.051,-6.379c9.726,0 19.278,1.263 28.672,3.789c9.378,2.495 17.446,6.094 24.188,10.799l-7.705,18.82c-6.915,-4.373 -14.305,-7.705 -22.167,-9.978c-7.831,-2.274 -15.504,-3.41 -22.988,-3.41c-13.357,0 -23.351,2.431 -29.998,7.263c-6.663,4.847 -9.978,11.115 -9.978,18.82c0,5.652 1.863,10.231 5.621,13.768c3.742,3.505 8.4,6.237 13.957,8.21c5.589,1.942 13.168,4.026 22.736,6.252c12.378,2.952 22.309,5.921 29.809,8.905c7.531,3 13.989,7.547 19.388,13.641c5.431,6.11 8.147,14.336 8.147,24.693c0,8.636 -2.368,16.515 -7.073,23.62c-4.673,7.121 -11.794,12.757 -21.346,16.925c-9.568,4.168 -21.33,6.252 -35.303,6.252Zm334.074,0c-12.378,0 -24.346,-1.91 -35.872,-5.747c-11.494,-3.868 -20.525,-8.857 -27.093,-14.968l8.652,-18.315c6.268,5.652 14.305,10.231 24.125,13.768c9.805,3.505 19.862,5.242 30.188,5.242c13.641,0 23.825,-2.289 30.567,-6.884c6.726,-4.626 10.105,-10.799 10.105,-18.504c0,-5.637 -1.831,-10.199 -5.494,-13.705c-3.663,-3.537 -8.21,-6.252 -13.641,-8.147c-5.4,-1.895 -13.041,-4.01 -22.925,-6.379c-12.378,-2.937 -22.388,-5.905 -29.998,-8.905c-7.579,-2.984 -14.083,-7.579 -19.515,-13.768c-5.4,-6.189 -8.084,-14.526 -8.084,-25.009c0,-8.794 2.305,-16.704 6.947,-23.746c4.626,-7.073 11.636,-12.71 21.03,-16.925c9.378,-4.247 21.062,-6.379 35.051,-6.379c9.726,0 19.278,1.263 28.672,3.789c9.378,2.495 17.446,6.094 24.188,10.799l-7.705,18.82c-6.915,-4.373 -14.305,-7.705 -22.167,-9.978c-7.831,-2.274 -15.504,-3.41 -22.988,-3.41c-13.357,0 -23.351,2.431 -29.998,7.263c-6.663,4.847 -9.978,11.115 -9.978,18.82c0,5.652 1.863,10.231 5.621,13.768c3.742,3.505 8.4,6.237 13.957,8.21c5.589,1.942 13.168,4.026 22.736,6.252c12.378,2.952 22.309,5.921 29.809,8.905c7.531,3 13.989,7.547 19.388,13.641c5.431,6.11 8.147,14.336 8.147,24.693c0,8.636 -2.368,16.515 -7.073,23.62c-4.673,7.121 -11.794,12.757 -21.346,16.925c-9.568,4.168 -21.33,6.252 -35.303,6.252Zm286.14,-166.475l23.493,0l0,164.581l-23.493,0l0,-164.581Zm335.232,166.475c-16.594,0 -31.561,-3.631 -44.903,-10.926c-13.31,-7.279 -23.778,-17.336 -31.388,-30.188c-7.579,-12.884 -11.368,-27.235 -11.368,-43.071c0,-15.82 3.789,-30.156 11.368,-43.008c7.61,-12.884 18.078,-22.957 31.388,-30.251c13.341,-7.279 28.309,-10.926 44.903,-10.926c16.452,0 31.34,3.647 44.65,10.926c13.341,7.294 23.778,17.336 31.325,30.125c7.531,12.757 11.305,27.141 11.305,43.135c0,16.01 -3.773,30.409 -11.305,43.198c-7.547,12.757 -17.983,22.783 -31.325,30.062c-13.31,7.294 -28.199,10.926 -44.65,10.926Zm0,-20.967c12.078,0 22.941,-2.731 32.588,-8.21c9.631,-5.463 17.241,-13.026 22.799,-22.672c5.558,-9.631 8.336,-20.415 8.336,-32.335c0,-11.905 -2.779,-22.688 -8.336,-32.335c-5.558,-9.631 -13.168,-17.194 -22.799,-22.672c-9.647,-5.51 -20.509,-8.273 -32.588,-8.273c-12.047,0 -22.972,2.763 -32.777,8.273c-9.821,5.479 -17.494,13.041 -23.051,22.672c-5.558,9.647 -8.336,20.431 -8.336,32.335c0,11.92 2.779,22.704 8.336,32.335c5.558,9.647 13.231,17.21 23.051,22.672c9.805,5.479 20.73,8.21 32.777,8.21Zm452.817,-145.508l0,164.581l-19.262,0l-98.774,-122.709l0,122.709l-23.493,0l0,-164.581l19.262,0l98.774,122.709l0,-122.709l23.493,0Zm285.38,166.475c-12.378,0 -24.346,-1.91 -35.872,-5.747c-11.494,-3.868 -20.525,-8.857 -27.093,-14.968l8.652,-18.315c6.268,5.652 14.305,10.231 24.125,13.768c9.805,3.505 19.862,5.242 30.188,5.242c13.641,0 23.825,-2.289 30.567,-6.884c6.726,-4.626 10.105,-10.799 10.105,-18.504c0,-5.637 -1.831,-10.199 -5.494,-13.705c-3.663,-3.537 -8.21,-6.252 -13.641,-8.147c-5.4,-1.895 -13.041,-4.01 -22.925,-6.379c-12.378,-2.937 -22.388,-5.905 -29.998,-8.905c-7.579,-2.984 -14.083,-7.579 -19.515,-13.768c-5.4,-6.189 -8.084,-14.526 -8.084,-25.009c0,-8.794 2.305,-16.704 6.947,-23.746c4.626,-7.073 11.636,-12.71 21.03,-16.925c9.378,-4.247 21.062,-6.379 35.051,-6.379c9.726,0 19.278,1.263 28.672,3.789c9.378,2.495 17.446,6.094 24.188,10.799l-7.705,18.82c-6.915,-4.373 -14.305,-7.705 -22.167,-9.978c-7.831,-2.274 -15.504,-3.41 -22.988,-3.41c-13.357,0 -23.351,2.431 -29.998,7.263c-6.663,4.847 -9.978,11.115 -9.978,18.82c0,5.652 1.863,10.231 5.621,13.768c3.742,3.505 8.4,6.237 13.957,8.21c5.589,1.942 13.168,4.026 22.736,6.252c12.378,2.952 22.309,5.921 29.809,8.905c7.531,3 13.989,7.547 19.388,13.641c5.431,6.11 8.147,14.336 8.147,24.693c0,8.636 -2.368,16.515 -7.073,23.62c-4.673,7.121 -11.794,12.757 -21.346,16.925c-9.568,4.168 -21.33,6.252 -35.303,6.252Z" style="fill:#fff;"/><path d="M3298.05,2423.78c20.472,0 37.246,16.484 37.246,37.246c0,20.472 -16.775,37.263 -37.246,37.263c-20.488,0 -37.263,-16.791 -37.263,-37.263c0,-20.762 16.775,-37.246 37.263,-37.246Zm1037.976,11.092c14.224,0 26.171,11.657 26.171,26.155c0,14.224 -11.947,26.171 -26.171,26.171c-14.498,0 -26.155,-11.947 -26.155,-26.171c0,-14.498 11.657,-26.155 26.155,-26.155Zm0,-174.898c15.37,0 27.882,12.512 27.882,27.866c0,15.644 -12.512,28.157 -27.882,28.157c-15.628,0 -28.141,-12.512 -28.141,-28.157c0,-15.354 12.512,-27.866 28.141,-27.866Zm0,-174.898c16.5,0 29.868,13.368 29.868,29.868c0,16.484 -13.368,29.852 -29.868,29.852c-16.484,0 -29.852,-13.368 -29.852,-29.852c0,-16.5 13.368,-29.868 29.852,-29.868Zm0,-174.882c17.356,0 31.58,14.208 31.58,31.838c0,17.356 -14.224,31.58 -31.58,31.58c-17.63,0 -31.838,-14.224 -31.838,-31.58c0,-17.63 14.208,-31.838 31.838,-31.838Zm0,-174.608c18.486,0 33.565,14.773 33.565,33.549c0,18.486 -15.079,33.549 -33.565,33.549c-18.486,0 -33.549,-15.063 -33.549,-33.549c0,-18.777 15.063,-33.549 33.549,-33.549Zm0,-174.898c19.632,0 35.277,15.919 35.277,35.261c0,19.616 -15.644,35.551 -35.277,35.551c-19.616,0 -35.535,-15.935 -35.535,-35.551c0,-19.342 15.919,-35.261 35.535,-35.261Zm0,-174.898c20.488,0 37.263,16.775 37.263,37.263c0,20.472 -16.775,37.246 -37.263,37.246c-20.746,0 -37.246,-16.775 -37.246,-37.246c0,-20.488 16.5,-37.263 37.246,-37.263Zm0,-1320.658c14.224,-0 26.171,-11.657 26.171,-25.88c0,-14.498 -11.947,-26.155 -26.171,-26.155c-14.498,0 -26.155,11.657 -26.155,26.155c0,14.224 11.657,25.88 26.155,25.88Zm0,174.898c15.37,0 27.882,-12.512 27.882,-27.882c0,-15.354 -12.512,-27.866 -27.882,-27.866c-15.628,0 -28.141,12.512 -28.141,27.866c0,15.37 12.512,27.882 28.141,27.882Zm0,174.882c16.5,0 29.868,-13.368 29.868,-29.852c0,-16.5 -13.368,-29.868 -29.868,-29.868c-16.484,0 -29.852,13.368 -29.852,29.868c0,16.484 13.368,29.852 29.852,29.852Zm0,174.898c17.356,0 31.58,-14.224 31.58,-31.563c0,-17.63 -14.224,-31.854 -31.58,-31.854c-17.63,0 -31.838,14.224 -31.838,31.854c0,17.34 14.208,31.563 31.838,31.563Zm0,174.898c18.486,0 33.565,-15.079 33.565,-33.565c0,-18.486 -15.079,-33.549 -33.565,-33.549c-18.486,0 -33.549,15.063 -33.549,33.549c0,18.486 15.063,33.565 33.549,33.565Zm0,174.882c19.632,0 35.277,-15.919 35.277,-35.535c0,-19.632 -15.644,-35.261 -35.277,-35.261c-19.616,0 -35.535,15.628 -35.535,35.261c0,19.616 15.919,35.535 35.535,35.535Zm0,174.624c20.488,0 37.263,-16.5 37.263,-37.263c0,-20.472 -16.775,-37.246 -37.263,-37.246c-20.746,0 -37.246,16.775 -37.246,37.246c0,20.762 16.5,37.263 37.246,37.263Zm0,174.882c21.618,0 38.974,-17.34 38.974,-38.958c0,-21.618 -17.356,-39.248 -38.974,-39.248c-21.602,0 -39.232,17.63 -39.232,39.248c0,21.618 17.63,38.958 39.232,38.958Zm-1210.889,55.749c-43.22,0 -78.481,34.97 -78.481,78.206c0,43.22 35.261,78.19 78.481,78.19c43.236,0 78.206,-34.97 78.206,-78.19c0,-43.236 -34.97,-78.206 -78.206,-78.206Zm0,179.435c-39.813,0 -71.942,32.145 -71.942,71.668c0,39.813 32.128,71.942 71.942,71.942c39.539,0 71.668,-32.128 71.668,-71.942c0,-39.523 -32.128,-71.668 -71.668,-71.668Zm0,179.451c-36.116,0 -65.403,29.287 -65.403,65.403c0,35.826 29.287,65.129 65.403,65.129c35.842,0 65.129,-29.303 65.129,-65.129c0,-36.116 -29.287,-65.403 -65.129,-65.403Zm0,179.435c-32.419,0 -58.865,26.445 -58.865,58.865c0,32.419 26.445,58.59 58.865,58.59c32.419,0 58.59,-26.171 58.59,-58.59c0,-32.419 -26.171,-58.865 -58.59,-58.865Zm0,179.726c-28.996,0 -52.326,23.329 -52.326,52.051c0,28.996 23.329,52.326 52.326,52.326c28.722,0 52.051,-23.329 52.051,-52.326c0,-28.722 -23.329,-52.051 -52.051,-52.051Zm0,179.451c-25.299,0 -45.787,20.472 -45.787,45.497c0,25.315 20.488,45.787 45.787,45.787c25.025,0 45.513,-20.472 45.513,-45.787c0,-25.025 -20.488,-45.497 -45.513,-45.497Zm0,179.435c-21.602,0 -39.232,17.646 -39.232,39.248c0,21.618 17.63,38.958 39.232,38.958c21.618,0 38.958,-17.34 38.958,-38.958c0,-21.602 -17.34,-39.248 -38.958,-39.248Zm-1210.889,13.094c-14.498,0 -26.155,11.657 -26.155,26.155c0,14.224 11.657,26.171 26.155,26.171c14.224,0 25.88,-11.947 25.88,-26.171c0,-14.498 -11.657,-26.155 -25.88,-26.155Zm0,-174.898c-15.644,0 -28.157,12.512 -28.157,27.866c0,15.644 12.512,28.157 28.157,28.157c15.354,0 27.866,-12.512 27.866,-28.157c0,-15.354 -12.512,-27.866 -27.866,-27.866Zm0,-174.898c-16.484,0 -29.852,13.368 -29.852,29.868c0,16.484 13.368,29.852 29.852,29.852c16.5,0 29.868,-13.368 29.868,-29.852c0,-16.5 -13.368,-29.868 -29.868,-29.868Zm0,-174.882c-17.63,0 -31.854,14.208 -31.854,31.838c0,17.356 14.224,31.58 31.854,31.58c17.356,0 31.563,-14.224 31.563,-31.58c0,-17.63 -14.208,-31.838 -31.563,-31.838Zm0,-174.608c-18.76,0 -33.549,14.773 -33.549,33.549c0,18.486 14.789,33.549 33.549,33.549c18.486,0 33.565,-15.063 33.565,-33.549c0,-18.777 -15.079,-33.549 -33.565,-33.549Zm0,-174.898c-19.616,0 -35.551,15.919 -35.551,35.261c0,19.616 15.935,35.551 35.551,35.551c19.342,0 35.261,-15.935 35.261,-35.551c0,-19.342 -15.919,-35.261 -35.261,-35.261Zm0,-174.898c-20.762,0 -37.246,16.775 -37.246,37.263c0,20.472 16.484,37.246 37.246,37.246c20.472,0 37.263,-16.775 37.263,-37.246c0,-20.488 -16.791,-37.263 -37.263,-37.263Zm1210.889,-50.905c-46.917,0 -85.019,-38.102 -85.019,-84.745c0,-46.917 38.102,-85.036 85.019,-85.036c46.643,0 84.745,38.118 84.745,85.036c0,46.643 -38.102,84.745 -84.745,84.745Zm0,-179.435c-43.22,0 -78.481,-35.277 -78.481,-78.497c0,-43.22 35.261,-78.206 78.481,-78.206c43.236,0 78.206,34.986 78.206,78.206c0,43.22 -34.97,78.497 -78.206,78.497Zm0,-179.742c-39.813,0 -71.942,-32.128 -71.942,-71.651c0,-39.539 32.128,-71.668 71.942,-71.668c39.539,0 71.668,32.128 71.668,71.668c0,39.523 -32.128,71.651 -71.668,71.651Zm0,-179.435c-36.116,0 -65.403,-29.013 -65.403,-65.129c0,-36.116 29.287,-65.403 65.403,-65.403c35.842,0 65.129,29.287 65.129,65.403c0,36.116 -29.287,65.129 -65.129,65.129Zm0,-179.451c-32.419,0 -58.865,-26.155 -58.865,-58.574c0,-32.71 26.445,-58.865 58.865,-58.865c32.419,0 58.59,26.155 58.59,58.865c0,32.419 -26.171,58.574 -58.59,58.574Zm0,-179.435c-28.996,0 -52.326,-23.329 -52.326,-52.326c0,-28.722 23.329,-52.051 52.326,-52.051c28.722,0 52.051,23.329 52.051,52.051c0,28.996 -23.329,52.326 -52.051,52.326Zm0,-179.451c-25.299,0 -45.787,-20.472 -45.787,-45.787c0,-25.299 20.488,-45.771 45.787,-45.771c25.025,0 45.513,20.472 45.513,45.771c0,25.315 -20.488,45.787 -45.513,45.787Zm0,-179.726c-21.602,0 -39.232,-17.34 -39.232,-38.958c0,-21.618 17.63,-39.248 39.232,-39.248c21.618,0 38.958,17.63 38.958,39.248c0,21.618 -17.34,38.958 -38.958,38.958Zm-1210.889,-13.077c-14.498,0 -26.155,-11.657 -26.155,-25.88c0,-14.498 11.657,-26.155 26.155,-26.155c14.224,0 25.88,11.657 25.88,26.155c0,14.224 -11.657,25.88 -25.88,25.88Zm0,174.898c-15.644,0 -28.157,-12.512 -28.157,-27.882c0,-15.354 12.512,-27.866 28.157,-27.866c15.354,0 27.866,12.512 27.866,27.866c0,15.37 -12.512,27.882 -27.866,27.882Zm0,174.882c-16.484,0 -29.852,-13.368 -29.852,-29.852c0,-16.5 13.368,-29.868 29.852,-29.868c16.5,0 29.868,13.368 29.868,29.868c0,16.484 -13.368,29.852 -29.868,29.852Zm0,174.898c-17.63,0 -31.854,-14.224 -31.854,-31.563c0,-17.63 14.224,-31.854 31.854,-31.854c17.356,0 31.563,14.224 31.563,31.854c0,17.34 -14.208,31.563 -31.563,31.563Zm0,174.898c-18.76,0 -33.549,-15.079 -33.549,-33.565c0,-18.486 14.789,-33.549 33.549,-33.549c18.486,0 33.565,15.063 33.565,33.549c0,18.486 -15.079,33.565 -33.565,33.565Zm0,174.882c-19.616,0 -35.551,-15.919 -35.551,-35.535c0,-19.632 15.935,-35.261 35.551,-35.261c19.342,0 35.261,15.628 35.261,35.261c0,19.616 -15.919,35.535 -35.261,35.535Zm0,174.624c-20.762,0 -37.246,-16.5 -37.246,-37.263c0,-20.472 16.484,-37.246 37.246,-37.246c20.472,0 37.263,16.775 37.263,37.246c0,20.762 -16.791,37.263 -37.263,37.263Zm0,174.882c-21.602,0 -39.248,-17.34 -39.248,-38.958c0,-21.618 17.646,-39.248 39.248,-39.248c21.618,0 38.958,17.63 38.958,39.248c0,21.618 -17.34,38.958 -38.958,38.958Zm172.913,-168.925c-23.895,0 -43.236,-19.326 -43.236,-43.22c0,-23.604 19.342,-42.946 43.236,-42.946c23.878,0 43.22,19.342 43.22,42.946c0,23.895 -19.342,43.22 -43.22,43.22Zm172.896,5.974c-27.011,0 -48.919,-21.893 -48.919,-49.194c0,-27.011 21.909,-48.919 48.919,-48.919c27.011,0 49.194,21.909 49.194,48.919c0,27.301 -22.183,49.194 -49.194,49.194Zm173.187,5.699c-30.433,0 -54.877,-24.46 -54.877,-54.893c0,-30.143 24.443,-54.602 54.877,-54.602c30.143,0 54.602,24.46 54.602,54.602c0,30.433 -24.46,54.893 -54.602,54.893Zm172.896,5.974c-33.549,0 -60.85,-27.301 -60.85,-60.867c0,-33.549 27.301,-60.576 60.85,-60.576c33.565,0 60.576,27.027 60.576,60.576c0,33.565 -27.011,60.867 -60.576,60.867Zm172.913,5.957c-36.681,0 -66.55,-29.852 -66.55,-66.824c0,-36.681 29.868,-66.55 66.55,-66.55c36.681,0 66.55,29.868 66.55,66.55c0,36.972 -29.868,66.824 -66.55,66.824Zm172.896,5.699c-39.813,0 -72.233,-32.419 -72.233,-72.523c0,-39.813 32.419,-72.233 72.233,-72.233c40.104,0 72.523,32.419 72.523,72.233c0,40.104 -32.419,72.523 -72.523,72.523Zm-864.789,-204.75c-22.474,0 -40.669,-18.212 -40.669,-40.669c0,-22.474 18.195,-40.669 40.669,-40.669c22.458,0 40.653,18.195 40.653,40.669c0,22.458 -18.195,40.669 -40.653,40.669Zm172.896,5.118c-25.315,0 -45.787,-20.488 -45.787,-45.787c0,-25.315 20.472,-45.787 45.787,-45.787c25.315,0 45.787,20.472 45.787,45.787c0,25.299 -20.472,45.787 -45.787,45.787Zm173.187,5.118c-28.431,0 -51.196,-22.764 -51.196,-50.905c0,-28.157 22.764,-50.905 51.196,-50.905c28.157,0 50.905,22.748 50.905,50.905c0,28.141 -22.748,50.905 -50.905,50.905Zm172.896,5.392c-30.982,0 -56.298,-25.299 -56.298,-56.298c0,-30.998 25.315,-56.023 56.298,-56.023c30.998,0 56.023,25.025 56.023,56.023c0,30.998 -25.025,56.298 -56.023,56.298Zm172.913,5.118c-33.84,0 -61.432,-27.576 -61.432,-61.415c0,-33.84 27.592,-61.432 61.432,-61.432c33.84,0 61.432,27.592 61.432,61.432c0,33.84 -27.592,61.415 -61.432,61.415Zm172.896,5.118c-36.681,0 -66.533,-29.852 -66.533,-66.533c0,-36.698 29.852,-66.55 66.533,-66.55c36.972,0 66.84,29.852 66.84,66.55c0,36.681 -29.868,66.533 -66.84,66.533Zm-864.789,-201.328c-21.053,0 -38.118,-17.065 -38.118,-38.118c0,-21.037 17.065,-38.102 38.118,-38.102c21.037,0 38.102,17.065 38.102,38.102c0,21.053 -17.065,38.118 -38.102,38.118Zm172.896,4.537c-23.604,0 -42.655,-19.051 -42.655,-42.655c0,-23.604 19.051,-42.655 42.655,-42.655c23.604,0 42.655,19.051 42.655,42.655c0,23.604 -19.051,42.655 -42.655,42.655Zm173.187,4.553c-26.155,0 -47.208,-21.328 -47.208,-47.208c0,-26.155 21.053,-47.208 47.208,-47.208c25.88,0 46.917,21.053 46.917,47.208c0,25.88 -21.037,47.208 -46.917,47.208Zm172.896,4.262c-28.431,0 -51.745,-23.023 -51.745,-51.47c0,-28.722 23.313,-51.745 51.745,-51.745c28.447,0 51.486,23.023 51.486,51.745c0,28.447 -23.039,51.47 -51.486,51.47Zm172.913,4.553c-30.998,0 -56.023,-25.025 -56.023,-56.023c0,-30.998 25.025,-56.298 56.023,-56.298c30.998,0 56.298,25.299 56.298,56.298c0,30.998 -25.299,56.023 -56.298,56.023Zm172.896,4.553c-33.549,0 -60.576,-27.011 -60.576,-60.576c0,-33.549 27.027,-60.85 60.576,-60.85c33.565,0 60.867,27.301 60.867,60.85c0,33.565 -27.301,60.576 -60.867,60.576Zm-864.789,-197.921c-19.632,0 -35.551,-15.935 -35.551,-35.551c0,-19.907 15.919,-35.842 35.551,-35.842c19.616,0 35.535,15.935 35.535,35.842c0,19.616 -15.919,35.551 -35.535,35.551Zm172.896,3.697c-21.618,0 -39.248,-17.63 -39.248,-39.248c0,-21.893 17.63,-39.523 39.248,-39.523c21.893,0 39.523,17.63 39.523,39.523c0,21.618 -17.63,39.248 -39.523,39.248Zm173.187,3.972c-24.169,0 -43.511,-19.342 -43.511,-43.22c0,-24.169 19.342,-43.511 43.511,-43.511c23.895,0 43.22,19.342 43.22,43.511c0,23.878 -19.326,43.22 -43.22,43.22Zm172.896,3.697c-26.155,0 -47.192,-21.037 -47.192,-46.917c0,-26.171 21.037,-47.208 47.192,-47.208c25.88,0 47.208,21.037 47.208,47.208c0,25.88 -21.328,46.917 -47.208,46.917Zm172.913,3.988c-28.157,0 -50.905,-22.748 -50.905,-50.905c0,-28.447 22.748,-51.196 50.905,-51.196c28.157,0 50.905,22.748 50.905,51.196c0,28.157 -22.748,50.905 -50.905,50.905Zm172.896,3.697c-30.143,0 -54.602,-24.46 -54.602,-54.602c0,-30.433 24.46,-54.893 54.602,-54.893c30.433,0 54.893,24.46 54.893,54.893c0,30.143 -24.46,54.602 -54.893,54.602Zm-864.789,-194.805c-18.212,0 -33,-14.789 -33,-32.984c0,-18.195 14.789,-32.984 33,-32.984c18.195,0 32.984,14.789 32.984,32.984c0,18.195 -14.789,32.984 -32.984,32.984Zm172.896,3.407c-19.907,0 -36.116,-16.21 -36.116,-36.391c0,-19.907 16.21,-36.116 36.116,-36.116c20.197,0 36.407,16.21 36.407,36.116c0,20.181 -16.21,36.391 -36.407,36.391Zm173.187,3.132c-21.893,0 -39.523,-17.63 -39.523,-39.523c0,-21.618 17.63,-39.248 39.523,-39.248c21.618,0 39.248,17.63 39.248,39.248c0,21.893 -17.63,39.523 -39.248,39.523Zm172.896,3.132c-23.604,0 -42.655,-19.051 -42.655,-42.655c0,-23.604 19.051,-42.655 42.655,-42.655c23.604,0 42.671,19.051 42.671,42.655c0,23.604 -19.067,42.655 -42.671,42.655Zm172.913,3.132c-25.315,0 -45.787,-20.488 -45.787,-45.787c0,-25.315 20.472,-45.787 45.787,-45.787c25.315,0 45.787,20.472 45.787,45.787c0,25.299 -20.472,45.787 -45.787,45.787Zm172.896,3.407c-27.011,0 -48.903,-22.183 -48.903,-49.194c0,-27.027 21.893,-48.919 48.903,-48.919c27.301,0 49.21,21.893 49.21,48.919c0,27.011 -21.909,49.194 -49.21,49.194Zm-864.789,-191.673c-16.791,0 -30.433,-13.642 -30.433,-30.433c0,-16.775 13.643,-30.417 30.433,-30.417c16.775,0 30.417,13.642 30.417,30.417c0,16.791 -13.642,30.433 -30.417,30.433Zm172.896,2.567c-18.195,0 -32.984,-14.789 -32.984,-33c0,-18.195 14.789,-32.984 32.984,-32.984c18.195,0 32.984,14.789 32.984,32.984c0,18.212 -14.789,33 -32.984,33Zm173.187,2.551c-19.907,0 -35.551,-15.919 -35.551,-35.551c0,-19.616 15.644,-35.535 35.551,-35.535c19.616,0 35.551,15.919 35.551,35.535c0,19.632 -15.935,35.551 -35.551,35.551Zm172.896,2.567c-21.037,0 -38.102,-17.065 -38.102,-38.118c0,-21.037 17.065,-38.102 38.102,-38.102c21.053,0 38.118,17.065 38.118,38.102c0,21.053 -17.065,38.118 -38.118,38.118Zm172.913,2.551c-22.474,0 -40.669,-18.195 -40.669,-40.669c0,-22.458 18.195,-40.653 40.669,-40.653c22.458,0 40.669,18.195 40.669,40.653c0,22.474 -18.212,40.669 -40.669,40.669Zm172.896,2.567c-23.604,0 -42.929,-19.342 -42.929,-43.236c0,-23.878 19.326,-43.22 42.929,-43.22c23.895,0 43.236,19.342 43.236,43.22c0,23.895 -19.342,43.236 -43.236,43.236Zm-864.789,-188.266c-15.37,0 -27.882,-12.512 -27.882,-27.866c0,-15.644 12.512,-28.157 27.882,-28.157c15.354,0 27.866,12.512 27.866,28.157c0,15.354 -12.512,27.866 -27.866,27.866Zm172.896,2.002c-16.5,0 -29.852,-13.368 -29.852,-29.868c0,-16.5 13.352,-29.852 29.852,-29.852c16.5,0 29.868,13.352 29.868,29.852c0,16.5 -13.368,29.868 -29.868,29.868Zm173.187,1.695c-17.63,0 -31.854,-14.224 -31.854,-31.563c0,-17.63 14.224,-31.854 31.854,-31.854c17.356,0 31.563,14.224 31.563,31.854c0,17.34 -14.208,31.563 -31.563,31.563Zm172.896,1.986c-18.47,0 -33.549,-15.063 -33.549,-33.549c0,-18.777 15.079,-33.549 33.549,-33.549c18.486,0 33.565,14.773 33.565,33.549c0,18.486 -15.079,33.549 -33.565,33.549Zm172.913,1.711c-19.632,0 -35.261,-15.919 -35.261,-35.261c0,-19.616 15.628,-35.551 35.261,-35.551c19.616,0 35.551,15.935 35.551,35.551c0,19.342 -15.935,35.261 -35.551,35.261Zm172.896,1.986c-20.472,0 -37.246,-16.775 -37.246,-37.246c0,-20.762 16.775,-37.246 37.246,-37.246c20.762,0 37.263,16.484 37.263,37.246c0,20.472 -16.5,37.246 -37.263,37.246Zm-864.789,1127.855c-25.315,0 -45.787,20.472 -45.787,45.787c0,25.025 20.472,45.497 45.787,45.497c25.299,0 45.771,-20.472 45.771,-45.497c0,-25.315 -20.472,-45.787 -45.771,-45.787Zm172.896,-6.539c-28.722,0 -52.035,23.313 -52.035,52.326c0,28.722 23.313,52.051 52.035,52.051c29.013,0 52.326,-23.329 52.326,-52.051c0,-29.013 -23.313,-52.326 -52.326,-52.326Zm173.187,-6.539c-32.71,0 -58.865,26.445 -58.865,58.865c0,32.419 26.155,58.59 58.865,58.59c32.419,0 58.59,-26.171 58.59,-58.59c0,-32.419 -26.171,-58.865 -58.59,-58.865Zm172.896,-6.539c-36.116,0 -65.403,29.287 -65.403,65.403c0,35.826 29.287,65.129 65.403,65.129c36.116,0 65.129,-29.287 65.129,-65.129c0,-36.116 -29.013,-65.403 -65.129,-65.403Zm172.913,-6.539c-39.539,0 -71.668,32.128 -71.668,71.942c0,39.523 32.128,71.668 71.668,71.668c39.523,0 71.668,-32.145 71.668,-71.668c0,-39.813 -32.145,-71.942 -71.668,-71.942Zm172.896,-6.539c-43.22,0 -78.206,35.261 -78.206,78.481c0,43.22 34.986,78.206 78.206,78.206c43.236,0 78.497,-34.986 78.497,-78.206c0,-43.22 -35.261,-78.481 -78.497,-78.481Zm-864.789,208.157c-23.895,0 -43.236,19.342 -43.236,43.236c0,23.878 19.342,43.22 43.236,43.22c23.878,0 43.22,-19.342 43.22,-43.22c0,-23.895 -19.342,-43.236 -43.22,-43.236Zm172.896,-5.683c-27.011,0 -48.919,21.893 -48.919,48.919c0,27.011 21.909,48.903 48.919,48.903c27.011,0 49.194,-21.893 49.194,-48.903c0,-27.027 -22.183,-48.919 -49.194,-48.919Zm173.187,-5.974c-30.433,0 -54.877,24.46 -54.877,54.893c0,30.417 24.443,54.877 54.877,54.877c30.143,0 54.602,-24.46 54.602,-54.877c0,-30.433 -24.46,-54.893 -54.602,-54.893Zm172.896,-5.974c-33.549,0 -60.85,27.301 -60.85,60.867c0,33.549 27.301,60.56 60.85,60.56c33.565,0 60.576,-27.011 60.576,-60.56c0,-33.565 -27.011,-60.867 -60.576,-60.867Zm172.913,-5.683c-36.681,0 -66.55,29.852 -66.55,66.55c0,36.681 29.868,66.533 66.55,66.533c36.681,0 66.55,-29.852 66.55,-66.533c0,-36.698 -29.868,-66.55 -66.55,-66.55Zm172.896,-5.974c-39.813,0 -72.233,32.419 -72.233,72.523c0,40.088 32.419,72.507 72.233,72.507c40.104,0 72.523,-32.419 72.523,-72.507c0,-40.104 -32.419,-72.523 -72.523,-72.523Zm-864.789,204.75c-22.474,0 -40.669,18.195 -40.669,40.669c0,22.458 18.195,40.669 40.669,40.669c22.458,0 40.653,-18.212 40.653,-40.669c0,-22.474 -18.195,-40.669 -40.653,-40.669Zm172.896,-5.118c-25.315,0 -45.787,20.472 -45.787,45.787c0,25.315 20.472,45.787 45.787,45.787c25.315,0 45.787,-20.472 45.787,-45.787c0,-25.315 -20.472,-45.787 -45.787,-45.787Zm173.187,-5.118c-28.431,0 -51.196,22.748 -51.196,50.905c0,28.157 22.764,51.18 51.196,51.18c28.157,0 50.905,-23.023 50.905,-51.18c0,-28.157 -22.748,-50.905 -50.905,-50.905Zm172.896,-5.118c-30.982,0 -56.298,25.025 -56.298,56.023c0,30.998 25.315,56.314 56.298,56.314c30.998,0 56.023,-25.315 56.023,-56.314c0,-30.998 -25.025,-56.023 -56.023,-56.023Zm172.913,-5.409c-33.84,0 -61.432,27.592 -61.432,61.432c0,33.84 27.592,61.432 61.432,61.432c33.84,0 61.432,-27.592 61.432,-61.432c0,-33.84 -27.592,-61.432 -61.432,-61.432Zm172.896,-5.118c-36.681,0 -66.533,29.868 -66.533,66.55c0,36.972 29.852,66.55 66.533,66.55c36.972,0 66.84,-29.578 66.84,-66.55c0,-36.681 -29.868,-66.55 -66.84,-66.55Zm-864.789,201.635c-21.053,0 -38.118,17.065 -38.118,38.102c0,21.037 17.065,37.828 38.118,37.828c21.037,0 38.102,-16.791 38.102,-37.828c0,-21.037 -17.065,-38.102 -38.102,-38.102Zm172.896,-4.553c-23.604,0 -42.655,19.051 -42.655,42.655c0,23.313 19.051,42.364 42.655,42.364c23.604,0 42.655,-19.051 42.655,-42.364c0,-23.604 -19.051,-42.655 -42.655,-42.655Zm173.187,-4.553c-26.155,0 -47.208,21.037 -47.208,47.208c0,25.88 21.053,46.917 47.208,46.917c25.88,0 46.917,-21.037 46.917,-46.917c0,-26.171 -21.037,-47.208 -46.917,-47.208Zm172.896,-4.553c-28.431,0 -51.745,23.039 -51.745,51.761c0,28.431 23.313,51.47 51.745,51.47c28.447,0 51.486,-23.039 51.486,-51.47c0,-28.722 -23.039,-51.761 -51.486,-51.761Zm172.913,-4.553c-30.998,0 -56.023,25.025 -56.023,56.314c0,30.998 25.025,56.023 56.023,56.023c30.998,0 56.298,-25.025 56.298,-56.023c0,-31.289 -25.299,-56.314 -56.298,-56.314Zm172.896,-4.537c-33.549,0 -60.576,27.285 -60.576,60.85c0,33.275 27.027,60.576 60.576,60.576c33.565,0 60.867,-27.301 60.867,-60.576c0,-33.565 -27.301,-60.85 -60.867,-60.85Zm-864.789,198.212c-19.632,0 -35.551,15.919 -35.551,35.535c0,19.632 15.919,35.551 35.551,35.551c19.616,0 35.535,-15.919 35.535,-35.551c0,-19.616 -15.919,-35.535 -35.535,-35.535Zm172.896,-3.988c-21.618,0 -39.248,17.63 -39.248,39.523c0,21.618 17.63,39.248 39.248,39.248c21.893,0 39.523,-17.63 39.523,-39.248c0,-21.893 -17.63,-39.523 -39.523,-39.523Zm173.187,-3.697c-24.169,0 -43.511,19.342 -43.511,43.22c0,23.895 19.342,43.236 43.511,43.236c23.895,0 43.22,-19.342 43.22,-43.236c0,-23.878 -19.326,-43.22 -43.22,-43.22Zm172.896,-3.988c-26.155,0 -47.192,21.053 -47.192,47.208c0,25.88 21.037,47.208 47.192,47.208c25.88,0 47.208,-21.328 47.208,-47.208c0,-26.155 -21.328,-47.208 -47.208,-47.208Zm172.913,-3.697c-28.157,0 -50.905,22.764 -50.905,50.905c0,28.157 22.748,50.905 50.905,50.905c28.157,0 50.905,-22.748 50.905,-50.905c0,-28.141 -22.748,-50.905 -50.905,-50.905Zm172.896,-3.972c-30.143,0 -54.602,24.46 -54.602,54.877c0,30.143 24.46,54.893 54.602,54.893c30.433,0 54.893,-24.75 54.893,-54.893c0,-30.417 -24.46,-54.877 -54.893,-54.877Zm-864.789,194.805c-18.212,0 -33,14.773 -33,32.984c0,18.195 14.789,32.984 33,32.984c18.195,0 32.984,-14.789 32.984,-32.984c0,-18.212 -14.789,-32.984 -32.984,-32.984Zm172.896,-3.132c-19.907,0 -36.116,16.21 -36.116,36.116c0,19.907 16.21,36.391 36.116,36.391c20.197,0 36.407,-16.484 36.407,-36.391c0,-19.907 -16.21,-36.116 -36.407,-36.116Zm173.187,-3.132c-21.893,0 -39.523,17.63 -39.523,39.248c0,21.893 17.63,39.523 39.523,39.523c21.618,0 39.248,-17.63 39.248,-39.523c0,-21.618 -17.63,-39.248 -39.248,-39.248Zm172.896,-3.407c-23.604,0 -42.655,19.051 -42.655,42.655c0,23.604 19.051,42.655 42.655,42.655c23.604,0 42.671,-19.051 42.671,-42.655c0,-23.604 -19.067,-42.655 -42.671,-42.655Zm172.913,-3.132c-25.315,0 -45.787,20.472 -45.787,45.787c0,25.299 20.472,45.787 45.787,45.787c25.315,0 45.787,-20.488 45.787,-45.787c0,-25.315 -20.472,-45.787 -45.787,-45.787Zm172.896,-3.132c-27.011,0 -48.903,21.893 -48.903,48.919c0,27.011 21.893,48.903 48.903,48.903c27.301,0 49.21,-21.893 49.21,-48.903c0,-27.027 -21.909,-48.919 -49.21,-48.919Zm-864.789,191.382c-16.791,0 -30.433,13.659 -30.433,30.433c0,17.065 13.643,30.724 30.433,30.724c16.775,0 30.417,-13.659 30.417,-30.724c0,-16.775 -13.642,-30.433 -30.417,-30.433Zm172.896,-2.551c-18.195,0 -32.984,14.789 -32.984,32.984c0,18.486 14.789,33.275 32.984,33.275c18.195,0 32.984,-14.789 32.984,-33.275c0,-18.195 -14.789,-32.984 -32.984,-32.984Zm173.187,-2.567c-19.907,0 -35.551,15.935 -35.551,35.551c0,19.907 15.644,35.551 35.551,35.551c19.616,0 35.551,-15.644 35.551,-35.551c0,-19.616 -15.935,-35.551 -35.551,-35.551Zm172.896,-2.26c-21.037,0 -38.102,17.049 -38.102,37.812c0,21.053 17.065,38.118 38.102,38.118c21.053,0 38.118,-17.065 38.118,-38.118c0,-20.762 -17.065,-37.812 -38.118,-37.812Zm172.913,-2.567c-22.474,0 -40.669,18.195 -40.669,40.379c0,22.474 18.195,40.669 40.669,40.669c22.458,0 40.669,-18.195 40.669,-40.669c0,-22.183 -18.212,-40.379 -40.669,-40.379Zm172.896,-2.567c-23.604,0 -42.929,19.342 -42.929,42.946c0,23.895 19.326,43.236 42.929,43.236c23.895,0 43.236,-19.342 43.236,-43.236c0,-23.604 -19.342,-42.946 -43.236,-42.946Zm-864.789,187.976c-15.37,0 -27.882,12.512 -27.882,28.157c0,15.354 12.512,27.866 27.882,27.866c15.354,0 27.866,-12.512 27.866,-27.866c0,-15.644 -12.512,-28.157 -27.866,-28.157Zm172.896,-1.695c-16.5,0 -29.852,13.368 -29.852,29.852c0,16.5 13.352,29.868 29.852,29.868c16.5,0 29.868,-13.368 29.868,-29.868c0,-16.484 -13.368,-29.852 -29.868,-29.852Zm173.187,-2.002c-17.63,0 -31.854,14.224 -31.854,31.854c0,17.356 14.224,31.563 31.854,31.563c17.356,0 31.563,-14.208 31.563,-31.563c0,-17.63 -14.208,-31.854 -31.563,-31.854Zm172.896,-1.695c-18.47,0 -33.549,15.063 -33.549,33.549c0,18.486 15.079,33.565 33.549,33.565c18.486,0 33.565,-15.079 33.565,-33.565c0,-18.486 -15.079,-33.549 -33.565,-33.549Zm172.913,-2.002c-19.632,0 -35.261,15.935 -35.261,35.551c0,19.632 15.628,35.261 35.261,35.261c19.616,0 35.551,-15.628 35.551,-35.261c0,-19.616 -15.935,-35.551 -35.551,-35.551Zm172.896,-1.695c-20.472,0 -37.246,16.484 -37.246,37.246c0,20.472 16.775,37.263 37.246,37.263c20.762,0 37.263,-16.791 37.263,-37.263c0,-20.762 -16.5,-37.246 -37.263,-37.246Zm1210.889,-1303.609c23.895,0 43.236,-19.326 43.236,-43.22c0,-23.604 -19.342,-42.946 -43.236,-42.946c-23.604,0 -42.929,19.342 -42.929,42.946c0,23.895 19.326,43.22 42.929,43.22Zm-172.896,5.974c27.011,0 48.919,-21.893 48.919,-49.194c0,-27.011 -21.909,-48.919 -48.919,-48.919c-27.011,0 -48.919,21.909 -48.919,48.919c0,27.301 21.909,49.194 48.919,49.194Zm-172.896,5.699c30.143,0 54.877,-24.46 54.877,-54.893c0,-30.143 -24.734,-54.602 -54.877,-54.602c-30.433,0 -54.893,24.46 -54.893,54.602c0,30.433 24.46,54.893 54.893,54.893Zm-172.913,5.974c33.275,0 60.576,-27.301 60.576,-60.867c0,-33.549 -27.301,-60.576 -60.576,-60.576c-33.549,0 -60.85,27.027 -60.85,60.576c0,33.565 27.301,60.867 60.85,60.867Zm-173.187,5.957c36.972,0 66.55,-29.852 66.55,-66.824c0,-36.681 -29.578,-66.55 -66.55,-66.55c-36.681,0 -66.55,29.868 -66.55,66.55c0,36.972 29.868,66.824 66.55,66.824Zm-172.896,5.699c40.088,0 72.507,-32.419 72.507,-72.523c0,-39.813 -32.419,-72.233 -72.507,-72.233c-40.104,0 -72.523,32.419 -72.523,72.233c0,40.104 32.419,72.523 72.523,72.523Zm864.789,-204.75c22.474,0 40.669,-18.212 40.669,-40.669c0,-22.474 -18.195,-40.669 -40.669,-40.669c-22.183,0 -40.379,18.195 -40.379,40.669c0,22.458 18.195,40.669 40.379,40.669Zm-172.896,5.118c25.315,0 45.787,-20.488 45.787,-45.787c0,-25.315 -20.472,-45.787 -45.787,-45.787c-25.315,0 -45.787,20.472 -45.787,45.787c0,25.299 20.472,45.787 45.787,45.787Zm-172.896,5.118c28.141,0 50.889,-22.748 50.889,-50.905c0,-28.157 -22.748,-50.905 -50.889,-50.905c-28.157,0 -50.905,22.748 -50.905,50.905c0,28.157 22.748,50.905 50.905,50.905Zm-172.913,5.392c30.998,0 56.023,-25.299 56.023,-56.298c0,-30.998 -25.025,-56.023 -56.023,-56.023c-31.273,0 -56.298,25.025 -56.298,56.023c0,30.998 25.025,56.298 56.298,56.298Zm-173.187,5.118c33.84,0 61.432,-27.576 61.432,-61.415c0,-33.84 -27.592,-61.432 -61.432,-61.432c-33.84,0 -61.432,27.592 -61.432,61.432c0,33.84 27.592,61.415 61.432,61.415Zm-172.896,5.118c36.681,0 66.533,-29.852 66.533,-66.533c0,-36.698 -29.852,-66.55 -66.533,-66.55c-36.698,0 -66.55,29.852 -66.55,66.55c0,36.681 29.852,66.533 66.55,66.533Zm864.789,-201.328c21.053,0 38.118,-17.065 38.118,-38.118c0,-21.037 -17.065,-38.102 -38.118,-38.102c-20.746,0 -37.812,17.065 -37.812,38.102c0,21.053 17.065,38.118 37.812,38.118Zm-172.896,4.537c23.604,0 42.655,-19.051 42.655,-42.655c0,-23.604 -19.051,-42.655 -42.655,-42.655c-23.604,0 -42.655,19.051 -42.655,42.655c0,23.604 19.051,42.655 42.655,42.655Zm-172.896,4.553c25.864,0 47.208,-21.328 47.208,-47.208c0,-26.155 -21.344,-47.208 -47.208,-47.208c-26.171,0 -47.208,21.053 -47.208,47.208c0,25.88 21.037,47.208 47.208,47.208Zm-172.913,4.262c28.447,0 51.47,-23.023 51.47,-51.47c0,-28.722 -23.023,-51.745 -51.47,-51.745c-28.722,0 -51.761,23.023 -51.761,51.745c0,28.447 23.039,51.47 51.761,51.47Zm-173.187,4.553c30.998,0 56.314,-25.025 56.314,-56.023c0,-30.998 -25.315,-56.298 -56.314,-56.298c-30.998,0 -56.023,25.299 -56.023,56.298c0,30.998 25.025,56.023 56.023,56.023Zm-172.896,4.553c33.549,0 60.576,-27.011 60.576,-60.576c0,-33.549 -27.027,-60.85 -60.576,-60.85c-33.565,0 -60.576,27.301 -60.576,60.85c0,33.565 27.011,60.576 60.576,60.576Zm864.789,-197.921c19.907,0 35.551,-15.935 35.551,-35.551c0,-19.907 -15.644,-35.826 -35.551,-35.826c-19.616,0 -35.535,15.919 -35.535,35.826c0,19.616 15.919,35.551 35.535,35.551Zm-172.896,3.697c21.893,0 39.523,-17.63 39.523,-39.248c0,-21.893 -17.63,-39.523 -39.523,-39.523c-21.618,0 -39.248,17.63 -39.248,39.523c0,21.618 17.63,39.248 39.248,39.248Zm-172.896,3.972c23.878,0 43.22,-19.342 43.22,-43.22c0,-24.169 -19.342,-43.511 -43.22,-43.511c-23.895,0 -43.236,19.342 -43.236,43.511c0,23.878 19.342,43.22 43.236,43.22Zm-172.913,3.697c25.88,0 46.917,-21.037 46.917,-46.917c0,-26.171 -21.037,-47.208 -46.917,-47.208c-26.155,0 -47.208,21.037 -47.208,47.208c0,25.88 21.053,46.917 47.208,46.917Zm-173.187,3.988c28.157,0 51.196,-22.748 51.196,-50.905c0,-28.447 -23.039,-51.196 -51.196,-51.196c-28.157,0 -50.905,22.748 -50.905,51.196c0,28.157 22.748,50.905 50.905,50.905Zm-172.896,3.697c30.417,0 54.877,-24.46 54.877,-54.602c0,-30.433 -24.46,-54.893 -54.877,-54.893c-30.433,0 -54.893,24.46 -54.893,54.893c0,30.143 24.46,54.602 54.893,54.602Zm864.789,-194.805c18.486,0 33.275,-14.789 33.275,-32.984c0,-18.195 -14.789,-32.984 -33.275,-32.984c-18.195,0 -32.984,14.789 -32.984,32.984c0,18.195 14.789,32.984 32.984,32.984Zm-172.896,3.407c20.197,0 36.407,-16.21 36.407,-36.391c0,-19.907 -16.21,-36.116 -36.407,-36.116c-19.907,0 -36.116,16.21 -36.116,36.116c0,20.181 16.21,36.391 36.116,36.391Zm-172.896,3.132c21.602,0 39.232,-17.63 39.232,-39.523c0,-21.618 -17.63,-39.248 -39.232,-39.248c-21.909,0 -39.539,17.63 -39.539,39.248c0,21.893 17.63,39.523 39.539,39.523Zm-172.913,3.132c23.313,0 42.381,-19.051 42.381,-42.655c0,-23.604 -19.051,-42.655 -42.381,-42.655c-23.604,0 -42.655,19.051 -42.655,42.655c0,23.604 19.051,42.655 42.655,42.655Zm-173.187,3.132c25.315,0 45.787,-20.472 45.787,-45.787c0,-25.315 -20.472,-45.787 -45.787,-45.787c-25.315,0 -45.787,20.472 -45.787,45.787c0,25.315 20.472,45.787 45.787,45.787Zm-172.896,3.407c27.011,0 48.903,-22.183 48.903,-49.194c0,-27.011 -21.893,-48.919 -48.903,-48.919c-27.027,0 -48.919,21.909 -48.919,48.919c0,27.011 21.893,49.194 48.919,49.194Zm864.789,-191.673c17.065,0 30.724,-13.642 30.724,-30.433c0,-16.775 -13.659,-30.417 -30.724,-30.417c-16.775,0 -30.417,13.642 -30.417,30.417c0,16.791 13.642,30.433 30.417,30.433Zm-172.896,2.567c18.195,0 32.984,-14.789 32.984,-33c0,-18.195 -14.789,-32.984 -32.984,-32.984c-18.195,0 -32.984,14.789 -32.984,32.984c0,18.212 14.789,33 32.984,33Zm-172.896,2.551c19.616,0 35.535,-15.919 35.535,-35.551c0,-19.616 -15.919,-35.535 -35.535,-35.535c-19.632,0 -35.551,15.919 -35.551,35.535c0,19.632 15.919,35.551 35.551,35.551Zm-172.913,2.567c21.053,0 37.828,-17.065 37.828,-38.118c0,-21.037 -16.775,-38.102 -37.828,-38.102c-21.037,0 -38.102,17.065 -38.102,38.102c0,21.053 17.065,38.118 38.102,38.118Zm-173.187,2.551c22.474,0 40.669,-18.195 40.669,-40.669c0,-22.458 -18.195,-40.653 -40.669,-40.653c-22.458,0 -40.669,18.195 -40.669,40.653c0,22.474 18.212,40.669 40.669,40.669Zm-172.896,2.567c23.878,0 43.22,-19.342 43.22,-43.236c0,-23.878 -19.342,-43.22 -43.22,-43.22c-23.895,0 -43.236,19.342 -43.236,43.22c0,23.895 19.342,43.236 43.236,43.236Zm864.789,-188.266c15.644,0 28.157,-12.512 28.157,-27.866c0,-15.644 -12.512,-28.157 -28.157,-28.157c-15.354,0 -27.866,12.512 -27.866,28.157c0,15.354 12.512,27.866 27.866,27.866Zm-172.896,2.002c16.5,0 29.852,-13.368 29.852,-29.868c0,-16.5 -13.352,-29.852 -29.852,-29.852c-16.5,0 -29.868,13.352 -29.868,29.852c0,16.5 13.368,29.868 29.868,29.868Zm-172.896,1.695c17.34,0 31.563,-14.208 31.563,-31.563c0,-17.63 -14.224,-31.854 -31.563,-31.854c-17.646,0 -31.854,14.224 -31.854,31.854c0,17.356 14.208,31.563 31.854,31.563Zm-172.913,2.002c18.486,0 33.565,-15.079 33.565,-33.565c0,-18.76 -15.079,-33.549 -33.565,-33.549c-18.76,0 -33.549,14.789 -33.549,33.549c0,18.486 14.789,33.565 33.549,33.565Zm-173.187,1.695c19.616,0 35.551,-15.919 35.551,-35.261c0,-19.616 -15.935,-35.551 -35.551,-35.551c-19.342,0 -35.261,15.935 -35.261,35.551c0,19.342 15.919,35.261 35.261,35.261Zm-172.896,2.002c20.472,0 37.246,-16.791 37.246,-37.263c0,-20.762 -16.775,-37.246 -37.246,-37.246c-20.488,0 -37.263,16.484 -37.263,37.246c0,20.472 16.775,37.263 37.263,37.263Zm864.789,1127.839c25.315,0 45.787,20.472 45.787,45.787c0,25.025 -20.472,45.497 -45.787,45.497c-25.025,0 -45.497,-20.472 -45.497,-45.497c0,-25.315 20.472,-45.787 45.497,-45.787Zm-172.896,-6.539c29.013,0 52.326,23.329 52.326,52.326c0,28.722 -23.313,52.051 -52.326,52.051c-28.722,0 -52.035,-23.329 -52.035,-52.051c0,-28.996 23.313,-52.326 52.035,-52.326Zm-172.896,-6.539c32.419,0 58.574,26.445 58.574,58.865c0,32.419 -26.155,58.59 -58.574,58.59c-32.419,0 -58.881,-26.171 -58.881,-58.59c0,-32.419 26.462,-58.865 58.881,-58.865Zm-172.913,-6.539c35.842,0 65.129,29.287 65.129,65.403c0,35.842 -29.287,65.129 -65.129,65.129c-36.116,0 -65.403,-29.287 -65.403,-65.129c0,-36.116 29.287,-65.403 65.403,-65.403Zm-173.187,-6.539c39.813,0 71.942,32.128 71.942,71.942c0,39.539 -32.128,71.668 -71.942,71.668c-39.523,0 -71.668,-32.128 -71.668,-71.668c0,-39.813 32.145,-71.942 71.668,-71.942Zm-172.896,-6.539c43.22,0 78.206,35.261 78.206,78.481c0,43.236 -34.986,78.206 -78.206,78.206c-43.236,0 -78.206,-34.97 -78.206,-78.206c0,-43.22 34.97,-78.481 78.206,-78.481Zm864.789,208.157c23.895,0 43.236,19.342 43.236,43.236c0,23.878 -19.342,43.22 -43.236,43.22c-23.604,0 -42.929,-19.342 -42.929,-43.22c0,-23.895 19.326,-43.236 42.929,-43.236Zm-172.896,-5.683c27.011,0 48.919,21.893 48.919,48.919c0,27.011 -21.909,48.903 -48.919,48.903c-27.011,0 -48.919,-21.893 -48.919,-48.903c0,-27.027 21.909,-48.919 48.919,-48.919Zm-172.896,-5.974c30.143,0 54.877,24.46 54.877,54.893c0,30.417 -24.734,54.877 -54.877,54.877c-30.433,0 -54.893,-24.46 -54.893,-54.877c0,-30.433 24.46,-54.893 54.893,-54.893Zm-172.913,-5.974c33.275,0 60.576,27.301 60.576,60.867c0,33.549 -27.301,60.56 -60.576,60.56c-33.549,0 -60.85,-27.011 -60.85,-60.56c0,-33.565 27.301,-60.867 60.85,-60.867Zm-173.187,-5.683c36.972,0 66.55,29.852 66.55,66.55c0,36.681 -29.578,66.533 -66.55,66.533c-36.681,0 -66.55,-29.852 -66.55,-66.533c0,-36.698 29.868,-66.55 66.55,-66.55Zm-172.896,-5.974c40.088,0 72.507,32.419 72.507,72.523c0,40.088 -32.419,72.507 -72.507,72.507c-40.104,0 -72.523,-32.419 -72.523,-72.507c0,-40.104 32.419,-72.523 72.523,-72.523Zm864.789,204.75c22.474,0 40.669,18.195 40.669,40.669c0,22.458 -18.195,40.669 -40.669,40.669c-22.183,0 -40.379,-18.212 -40.379,-40.669c0,-22.474 18.195,-40.669 40.379,-40.669Zm-172.896,-5.118c25.315,0 45.787,20.472 45.787,45.787c0,25.315 -20.472,45.787 -45.787,45.787c-25.315,0 -45.787,-20.472 -45.787,-45.787c0,-25.315 20.472,-45.787 45.787,-45.787Zm-172.896,-5.118c28.141,0 50.889,22.748 50.889,50.905c0,28.157 -22.748,51.196 -50.889,51.196c-28.157,0 -50.905,-23.039 -50.905,-51.196c0,-28.157 22.748,-50.905 50.905,-50.905Zm-172.913,-5.118c30.998,0 56.023,25.025 56.023,56.023c0,30.998 -25.025,56.314 -56.023,56.314c-31.273,0 -56.298,-25.315 -56.298,-56.314c0,-30.998 25.025,-56.023 56.298,-56.023Zm-173.187,-5.409c33.84,0 61.432,27.592 61.432,61.432c0,33.84 -27.592,61.432 -61.432,61.432c-33.84,0 -61.432,-27.592 -61.432,-61.432c0,-33.84 27.592,-61.432 61.432,-61.432Zm-172.896,-5.118c36.681,0 66.533,29.868 66.533,66.55c0,36.972 -29.852,66.55 -66.533,66.55c-36.698,0 -66.55,-29.578 -66.55,-66.55c0,-36.681 29.852,-66.55 66.55,-66.55Zm864.789,201.635c21.053,0 38.118,17.065 38.118,38.102c0,21.037 -17.065,37.828 -38.118,37.828c-20.746,0 -37.812,-16.791 -37.812,-37.828c0,-21.037 17.065,-38.102 37.812,-38.102Zm-172.896,-4.553c23.604,0 42.655,19.051 42.655,42.655c0,23.313 -19.051,42.381 -42.655,42.381c-23.604,0 -42.655,-19.067 -42.655,-42.381c0,-23.604 19.051,-42.655 42.655,-42.655Zm-172.896,-4.553c25.864,0 47.208,21.053 47.208,47.208c0,25.88 -21.344,46.917 -47.208,46.917c-26.171,0 -47.208,-21.037 -47.208,-46.917c0,-26.155 21.037,-47.208 47.208,-47.208Zm-172.913,-4.553c28.447,0 51.47,23.039 51.47,51.761c0,28.431 -23.023,51.47 -51.47,51.47c-28.722,0 -51.761,-23.039 -51.761,-51.47c0,-28.722 23.039,-51.761 51.761,-51.761Zm-173.187,-4.553c30.998,0 56.314,25.025 56.314,56.314c0,30.998 -25.315,56.023 -56.314,56.023c-30.998,0 -56.023,-25.025 -56.023,-56.023c0,-31.289 25.025,-56.314 56.023,-56.314Zm-172.896,-4.537c33.549,0 60.576,27.301 60.576,60.85c0,33.275 -27.027,60.576 -60.576,60.576c-33.565,0 -60.576,-27.301 -60.576,-60.576c0,-33.549 27.011,-60.85 60.576,-60.85Zm864.789,198.212c19.907,0 35.551,15.919 35.551,35.535c0,19.632 -15.644,35.551 -35.551,35.551c-19.616,0 -35.535,-15.919 -35.535,-35.551c0,-19.616 15.919,-35.535 35.535,-35.535Zm-172.896,-3.988c21.893,0 39.523,17.63 39.523,39.523c0,21.618 -17.63,39.248 -39.523,39.248c-21.618,0 -39.248,-17.63 -39.248,-39.248c0,-21.893 17.63,-39.523 39.248,-39.523Zm-172.896,-3.697c23.878,0 43.22,19.342 43.22,43.22c0,23.895 -19.342,43.236 -43.22,43.236c-23.895,0 -43.236,-19.342 -43.236,-43.236c0,-23.878 19.342,-43.22 43.236,-43.22Zm-172.913,-3.988c25.88,0 46.917,21.053 46.917,47.208c0,25.88 -21.037,47.208 -46.917,47.208c-26.155,0 -47.208,-21.328 -47.208,-47.208c0,-26.155 21.053,-47.208 47.208,-47.208Zm-173.187,-3.697c28.157,0 51.196,22.764 51.196,50.905c0,28.157 -23.039,50.905 -51.196,50.905c-28.157,0 -50.905,-22.748 -50.905,-50.905c0,-28.141 22.748,-50.905 50.905,-50.905Zm-172.896,-3.972c30.417,0 54.877,24.46 54.877,54.877c0,30.159 -24.46,54.893 -54.877,54.893c-30.433,0 -54.893,-24.734 -54.893,-54.893c0,-30.417 24.46,-54.877 54.893,-54.877Zm864.789,194.805c18.486,0 33.275,14.789 33.275,32.984c0,18.195 -14.789,32.984 -33.275,32.984c-18.195,0 -32.984,-14.789 -32.984,-32.984c0,-18.195 14.789,-32.984 32.984,-32.984Zm-172.896,-3.132c20.197,0 36.407,16.21 36.407,36.116c0,19.907 -16.21,36.391 -36.407,36.391c-19.907,0 -36.116,-16.484 -36.116,-36.391c0,-19.907 16.21,-36.116 36.116,-36.116Zm-172.896,-3.132c21.602,0 39.232,17.63 39.232,39.248c0,21.893 -17.63,39.523 -39.232,39.523c-21.909,0 -39.539,-17.63 -39.539,-39.523c0,-21.618 17.63,-39.248 39.539,-39.248Zm-172.913,-3.407c23.313,0 42.381,19.051 42.381,42.655c0,23.604 -19.051,42.655 -42.381,42.655c-23.604,0 -42.655,-19.051 -42.655,-42.655c0,-23.604 19.051,-42.655 42.655,-42.655Zm-173.187,-3.132c25.315,0 45.787,20.472 45.787,45.787c0,25.299 -20.472,45.787 -45.787,45.787c-25.315,0 -45.787,-20.488 -45.787,-45.787c0,-25.315 20.472,-45.787 45.787,-45.787Zm-172.896,-3.132c27.011,0 48.903,21.893 48.903,48.919c0,27.011 -21.893,48.903 -48.903,48.903c-27.027,0 -48.919,-21.893 -48.919,-48.903c0,-27.027 21.893,-48.919 48.919,-48.919Zm864.789,191.399c17.065,0 30.724,13.642 30.724,30.417c0,17.065 -13.659,30.724 -30.724,30.724c-16.775,0 -30.417,-13.659 -30.417,-30.724c0,-16.775 13.642,-30.417 30.417,-30.417Zm-172.896,-2.567c18.195,0 32.984,14.789 32.984,32.984c0,18.486 -14.789,33.275 -32.984,33.275c-18.195,0 -32.984,-14.789 -32.984,-33.275c0,-18.195 14.789,-32.984 32.984,-32.984Zm-172.896,-2.567c19.616,0 35.535,15.935 35.535,35.551c0,19.907 -15.919,35.551 -35.535,35.551c-19.632,0 -35.551,-15.644 -35.551,-35.551c0,-19.616 15.919,-35.551 35.551,-35.551Zm-172.913,-2.26c21.053,0 37.828,17.049 37.828,37.812c0,21.053 -16.775,38.118 -37.828,38.118c-21.037,0 -38.102,-17.065 -38.102,-38.118c0,-20.762 17.065,-37.812 38.102,-37.812Zm-173.187,-2.567c22.474,0 40.669,18.195 40.669,40.379c0,22.474 -18.195,40.669 -40.669,40.669c-22.458,0 -40.669,-18.195 -40.669,-40.669c0,-22.183 18.212,-40.379 40.669,-40.379Zm-172.896,-2.551c23.878,0 43.22,19.326 43.22,42.929c0,23.895 -19.342,43.236 -43.22,43.236c-23.895,0 -43.236,-19.342 -43.236,-43.236c0,-23.604 19.342,-42.929 43.236,-42.929Zm864.789,187.96c15.644,0 28.157,12.528 28.157,28.157c0,15.354 -12.512,27.866 -28.157,27.866c-15.354,0 -27.866,-12.512 -27.866,-27.866c0,-15.628 12.512,-28.157 27.866,-28.157Zm-172.896,-1.695c16.5,0 29.852,13.368 29.852,29.852c0,16.5 -13.352,29.868 -29.852,29.868c-16.5,0 -29.868,-13.368 -29.868,-29.868c0,-16.484 13.368,-29.852 29.868,-29.852Zm-172.896,-1.986c17.34,0 31.563,14.208 31.563,31.838c0,17.356 -14.224,31.563 -31.563,31.563c-17.646,0 -31.854,-14.208 -31.854,-31.563c0,-17.63 14.208,-31.838 31.854,-31.838Zm-172.913,-1.711c18.486,0 33.565,15.063 33.565,33.549c0,18.486 -15.079,33.565 -33.565,33.565c-18.76,0 -33.549,-15.079 -33.549,-33.565c0,-18.486 14.789,-33.549 33.549,-33.549Zm-173.187,-1.986c19.616,0 35.551,15.919 35.551,35.535c0,19.632 -15.935,35.261 -35.551,35.261c-19.342,0 -35.261,-15.628 -35.261,-35.261c0,-19.616 15.919,-35.535 35.261,-35.535Z" style="fill:#ff751f;"/></svg>