<?xml version="1.0" encoding="UTF-8" standalone="no"?><!DOCTYPE svg PUBLIC "-//W3C//DTD SVG 1.1//EN" "http://www.w3.org/Graphics/SVG/1.1/DTD/svg11.dtd"><svg width="100%" height="100%" viewBox="0 0 8684 8684" version="1.1" xmlns="http://www.w3.org/2000/svg" xmlns:xlink="http://www.w3.org/1999/xlink" xml:space="preserve" xmlns:serif="http://www.serif.com/" style="fill-rule:evenodd;clip-rule:evenodd;stroke-linejoin:round;stroke-miterlimit:2;"><g><path id="E" d="M1243.074,6064.023c-259.9,0 -488.44,-65.443 -685.525,-196.441c-197.296,-131.214 -355.558,-314.045 -474.791,-548.381l261.072,-140.689c107.284,178.04 229.718,318.619 367.29,421.629c137.683,103.122 315.034,154.627 531.954,154.627c183.431,0 345.533,-40.507 486.311,-121.522c140.562,-81.232 251.258,-195.246 332.312,-341.921c81.054,-146.897 124.779,-315.573 130.964,-506.134l-2192.657,0l0,-23.519c0,-249.691 55.029,-474.446 165.092,-674.26c110.057,-199.708 261.5,-355.858 454.318,-468.239c192.606,-112.375 406.536,-168.565 642.011,-168.565c244.645,0 462.42,61.742 653.531,185.115c191.111,123.156 338.708,285.514 442.797,486.967c104.089,201.231 156.133,415.861 156.133,643.773c0,234.336 -50.444,450.705 -151.437,648.997c-100.888,198.075 -246.996,355.753 -438.107,473.029c-191.111,116.949 -418.162,175.534 -681.257,175.534l-0.011,0Zm-899.243,-1559.777l1816.831,0c-70.495,-249.691 -183.003,-436.223 -337.43,-559.707c-154.427,-123.373 -343.188,-185.115 -566.509,-185.115c-220.12,0 -411.871,62.614 -575.468,187.732c-163.808,124.901 -276.216,310.561 -337.43,557.095l0.006,-0.006Z" style="fill:#1cabb0;"/><path id="K" d="M4598.509,2616.92l311.833,0l0,1962.245l1124.054,-1002.249l463.276,0l-1334.788,1185.185l1412.858,1301.917l-444.931,0l-1220.463,-1119.414l0,1119.414l-311.833,0l0,-3447.103l-0.006,0.006Z" style="fill:#fff;"/><path id="O" d="M7412.532,6066.419c-238.676,0 -455.062,-58.585 -649.263,-175.534c-193.99,-117.276 -346.177,-275.827 -456.446,-475.641c-110.057,-199.708 -165.092,-416.839 -165.092,-651.175c0,-234.008 55.029,-452.556 165.092,-655.532c110.274,-202.976 262.456,-363.7 456.446,-482.177c194.201,-118.694 410.593,-178.146 649.263,-178.146c238.571,0 454.846,59.458 648.841,178.146c194.201,118.477 346.389,279.2 456.446,482.177c110.274,202.976 165.514,421.524 165.514,655.532c0,234.336 -55.245,451.467 -165.514,651.175c-110.057,199.82 -262.245,358.365 -456.446,475.641c-193.99,116.949 -410.27,175.534 -648.841,175.534Zm0,-309.255c177.462,0 338.708,-44.431 483.749,-133.287c145.252,-89.073 259.15,-209.289 341.698,-360.654c82.76,-151.576 124.134,-316.335 124.134,-494.369c0,-181.197 -42.869,-349.001 -128.402,-503.517c-85.639,-154.411 -201.137,-277.678 -346.389,-369.802c-145.358,-92.341 -303.625,-138.511 -474.791,-138.511c-171.277,0 -329.539,46.17 -474.791,138.511c-145.358,92.124 -260.856,215.391 -346.389,369.802c-85.639,154.516 -128.402,322.32 -128.402,503.517c0,181.197 41.163,346.711 123.712,496.548c82.76,149.837 195.913,269.397 339.564,358.476c143.868,88.856 305.97,133.287 486.311,133.287l-0.006,0Z" style="fill:#fff;"/><path id="K1" d="M4486.462,6064.023l-311.833,0l0,-1962.245l-1124.054,1002.249l-463.276,0l1334.788,-1185.185l-1412.858,-1301.917l444.931,0l1220.463,1119.414l0,-1119.414l311.833,0l0,3447.103l0.006,-0.006Z" style="fill:#1cabb0;"/></g></svg>