<?xml version="1.0" encoding="UTF-8" standalone="no"?><!DOCTYPE svg PUBLIC "-//W3C//DTD SVG 1.1//EN" "http://www.w3.org/Graphics/SVG/1.1/DTD/svg11.dtd"><svg width="100%" height="100%" viewBox="0 0 6250 3000" version="1.1" xmlns="http://www.w3.org/2000/svg" xmlns:xlink="http://www.w3.org/1999/xlink" xml:space="preserve" xmlns:serif="http://www.serif.com/" style="fill-rule:evenodd;clip-rule:evenodd;stroke-linejoin:round;stroke-miterlimit:2;"><g><g><g><g><path d="M0,2726.756l0,-26.738l189.548,0l0,26.738l-78.245,0l0,254.411l-33.057,0l0,-254.411l-78.245,0Z" style="fill:#fff;fill-rule:nonzero;"/></g></g></g><g><g><g><path d="M459.544,2878.715l117.065,0l-58.229,-129.456l-58.836,129.456Zm199.86,103.247l-36.09,0l-34.574,-76.509l-141.63,0l-34.574,76.509l-35.787,0l141.63,-300.74l141.024,300.74Z" style="fill:#fff;fill-rule:nonzero;"/></g></g></g><g><g><g><path d="M905.565,2953.105l115.245,0l0,28.856l-148.302,0l0,-281.15l33.057,0l0,252.293Z" style="fill:#fff;fill-rule:nonzero;"/></g></g></g><g><g><g><path d="M1430.019,2981.962l-191.368,0l0,-281.15l191.368,0l0,26.738l-158.311,0l0,100.07l153.761,0l0,27.268l-153.761,0l0,100.07l158.311,0l0,27.003Z" style="fill:#fff;fill-rule:nonzero;"/></g></g></g><g><g><g><path d="M1706.999,2774.673l0,207.288l-33.057,0l0,-298.887l181.056,224.496l0,-206.759l33.057,0l0,298.622l-181.056,-224.761Z" style="fill:#fff;fill-rule:nonzero;"/></g></g></g><g><g><g><path d="M2105.884,2726.756l0,-26.738l189.548,0l0,26.738l-78.245,0l0,254.411l-33.057,0l0,-254.411l-78.245,0Z" style="fill:#fff;fill-rule:nonzero;"/></g></g></g><g><g><g><path d="M2602.731,2849.329c-65.735,-13.237 -98.565,-37.725 -98.565,-73.597c0,-26.474 10.615,-46.329 31.844,-59.566c21.229,-13.038 45.946,-19.59 74.303,-19.59c62.854,0 100.157,20.385 111.909,61.154l-36.09,0c-6.293,-24.157 -31.541,-36.269 -75.819,-36.269c-30.934,0 -52.619,8.074 -64.901,24.091c-4.701,6.023 -6.975,13.502 -6.975,22.503c0,17.473 10.691,30.908 32.147,40.24c10.084,4.765 31.617,10.854 64.598,18.267c32.754,7.413 56.485,15.619 71.27,24.62c20.623,12.707 30.934,30.577 30.934,53.477c0,28.459 -12.889,49.969 -38.516,64.596c-21.457,12.045 -47.918,18.002 -79.459,18.002c-71.422,0 -112.743,-23.628 -124.04,-70.949l39.123,0c6.066,29.65 34.346,44.476 84.918,44.476c35.938,0 61.034,-8.604 75.213,-25.944c5.838,-6.883 8.795,-16.215 8.795,-28.062c0,-11.648 -5.307,-21.179 -15.77,-28.591c-14.785,-10.391 -43.065,-19.988 -84.918,-28.856Z" style="fill:#fff;fill-rule:nonzero;"/></g></g></g><g><g><g><path d="M3509.015,2841.387c0,20.517 -4.246,39.181 -12.738,56.124c-8.947,17.473 -20.774,32.43 -35.483,44.74c-15.012,12.376 -32.602,21.973 -52.77,28.856c-20.244,7.28 -41.852,10.854 -64.901,10.854l-84.311,0l0,-281.15l84.311,0c23.049,0 44.658,3.442 64.901,10.325c20.168,7.28 37.758,17.075 52.77,29.386c14.709,12.376 26.537,27.135 35.483,44.211c8.492,17.34 12.738,36.203 12.738,56.654Zm-32.147,0c0,-31.901 -12.965,-58.639 -38.819,-80.215c-25.324,-20.98 -56.637,-31.504 -94.016,-31.504l-52.164,0l0,223.437l52.164,0c37.379,0 68.692,-10.457 94.016,-31.504c25.854,-21.51 38.819,-48.248 38.819,-80.215Z" style="fill:#fff;fill-rule:nonzero;"/></g></g></g><g><g><g><rect x="3738.621" y="2700.812" width="33.057" height="281.15" style="fill:#fff;fill-rule:nonzero;"/></g></g></g><g><g><g><path d="M4131.275,2998.905l-146.179,-298.093l35.787,0l110.393,226.614l110.09,-226.614l35.787,0l-145.876,298.093Z" style="fill:#fff;fill-rule:nonzero;"/></g></g></g><g><g><g><rect x="4490.326" y="2700.812" width="33.057" height="281.15" style="fill:#fff;fill-rule:nonzero;"/></g></g></g><g><g><g><path d="M4856.898,2849.329c-65.735,-13.237 -98.565,-37.725 -98.565,-73.597c0,-26.474 10.615,-46.329 31.844,-59.566c21.229,-13.038 45.946,-19.59 74.303,-19.59c62.854,0 100.157,20.385 111.909,61.154l-36.09,0c-6.293,-24.157 -31.541,-36.269 -75.819,-36.269c-30.934,0 -52.619,8.074 -64.901,24.091c-4.701,6.023 -6.975,13.502 -6.975,22.503c0,17.473 10.691,30.908 32.147,40.24c10.084,4.765 31.617,10.854 64.598,18.267c32.754,7.413 56.485,15.619 71.27,24.62c20.623,12.707 30.934,30.577 30.934,53.477c0,28.459 -12.889,49.969 -38.516,64.596c-21.457,12.045 -47.918,18.002 -79.459,18.002c-71.422,0 -112.743,-23.628 -124.04,-70.949l39.123,0c6.066,29.65 34.346,44.476 84.918,44.476c35.938,0 61.034,-8.604 75.213,-25.944c5.838,-6.883 8.795,-16.215 8.795,-28.062c0,-11.648 -5.307,-21.179 -15.77,-28.591c-14.785,-10.391 -43.065,-19.988 -84.918,-28.856Z" style="fill:#fff;fill-rule:nonzero;"/></g></g></g><g><g><g><rect x="5212.193" y="2700.812" width="33.057" height="281.15" style="fill:#fff;fill-rule:nonzero;"/></g></g></g><g><g><g><path d="M5773.165,2840.593c0,-31.768 -12.965,-58.904 -38.819,-81.539c-25.93,-22.569 -57.244,-33.886 -94.016,-33.886c-36.242,0 -67.252,11.317 -93.106,33.886c-25.93,22.635 -38.819,49.77 -38.819,81.539c0,31.967 12.889,59.235 38.819,81.803c25.854,22.635 56.864,33.886 93.106,33.886c36.772,0 68.086,-11.251 94.016,-33.886c25.854,-22.569 38.819,-49.837 38.819,-81.803Zm33.057,0c0,19.789 -4.246,38.519 -12.738,56.124c-8.947,17.671 -20.774,33.026 -35.483,46.064c-15.164,13.237 -32.906,23.562 -53.073,30.974c-20.244,7.611 -41.776,11.384 -64.598,11.384c-22.67,0 -43.899,-3.772 -63.688,-11.384c-20.244,-7.413 -37.834,-17.737 -52.77,-30.974c-15.164,-13.038 -26.992,-28.393 -35.483,-46.064c-8.947,-17.605 -13.344,-36.335 -13.344,-56.124c0,-19.921 4.398,-38.718 13.344,-56.389c8.492,-17.605 20.32,-32.893 35.483,-45.799c14.936,-12.84 32.526,-23.164 52.77,-30.974c19.789,-7.413 41.018,-11.119 63.688,-11.119c22.822,0 44.354,3.706 64.598,11.119c20.168,7.81 37.91,18.134 53.073,30.974c14.709,12.906 26.537,28.194 35.483,45.799c8.492,17.671 12.738,36.467 12.738,56.389Z" style="fill:#fff;fill-rule:nonzero;"/></g></g></g><g><g><g><path d="M6068.944,2774.673l0,207.288l-33.057,0l0,-298.887l181.056,224.496l0,-206.759l33.057,0l0,298.622l-181.056,-224.761Z" style="fill:#fff;fill-rule:nonzero;"/></g></g></g></g><g><g><path d="M891.538,2368.832c-184.474,0 -343.817,-40.286 -478.027,-120.632c-134.061,-80.421 -236.463,-188.75 -307.282,-324.987c-70.819,-136.236 -106.228,-284.851 -106.228,-445.919c0,-156.642 36.385,-304.056 109.229,-442.318c72.994,-138.412 176.522,-250.042 310.583,-334.889c134.211,-84.773 287.177,-127.234 458.822,-127.234c165.194,0 315.459,38.71 450.72,116.131c135.186,77.271 241.414,184.549 318.685,321.986c77.196,137.287 115.831,291.678 115.831,463.324l0,15.904l-1538.51,0c4.201,131.06 34.659,246.966 91.524,347.793c57.015,100.827 134.811,179.148 233.462,234.963c98.801,55.815 212.532,83.722 341.191,83.722c152.441,0 276.824,-35.409 373.3,-106.228c96.626,-70.819 182.449,-167.445 257.469,-289.877l183.649,96.626c-83.872,160.843 -194.977,286.426 -333.389,376.6c-138.262,90.024 -298.58,135.036 -481.028,135.036Zm630.768,-1071.586c-42.836,-169.62 -121.682,-297.379 -236.463,-383.202c-114.856,-85.823 -249.517,-128.734 -403.908,-128.734c-156.642,0 -289.202,42.461 -397.606,127.234c-108.254,84.848 -187.1,213.057 -236.463,384.703l1274.44,0Z" style="fill:#1cabb0;"/></g><g><path d="M3078.113,2372.133l-218.758,0l0,-1348.56l-788.61,688.984l-325.287,0l936.85,-814.417l-991.464,-894.839l312.083,0l856.428,769.405l0,-769.405l218.758,0l0,2368.832Z" style="fill:#1cabb0;"/></g></g><g><g><path d="M3177.02,0l218.758,0l0,1348.56l788.61,-688.984l325.287,0l-936.85,814.417l991.464,894.839l-312.083,0l-856.428,-769.405l0,769.405l-218.758,0l0,-2368.832Z" style="fill:#fff;"/></g><g><path d="M5358.462,2372.133c-167.445,0 -319.285,-40.286 -455.521,-120.632c-136.236,-80.421 -242.99,-189.2 -320.185,-326.487c-77.271,-137.437 -115.831,-286.651 -115.831,-447.719c0,-160.843 38.56,-310.958 115.831,-450.42c77.196,-139.387 183.949,-249.967 320.185,-331.588c136.236,-81.622 288.077,-122.433 455.521,-122.433c167.445,0 319.285,40.811 455.521,122.433c136.236,81.622 242.915,192.201 320.185,331.588c77.196,139.462 115.831,289.577 115.831,450.42c0,161.068 -38.635,310.283 -115.831,447.719c-77.271,137.287 -183.949,246.066 -320.185,326.487c-136.236,80.346 -288.077,120.632 -455.521,120.632Zm0,-212.457c124.383,0 237.513,-30.458 339.391,-91.524c102.027,-61.216 181.924,-143.813 239.764,-247.866c57.99,-104.203 87.023,-217.408 87.023,-339.691c0,-124.383 -30.008,-239.764 -90.024,-345.992c-60.016,-106.228 -141.038,-190.926 -243.065,-254.168c-101.877,-63.392 -212.907,-95.125 -333.089,-95.125c-120.257,0 -231.287,31.733 -333.089,95.125c-101.877,63.242 -182.899,147.939 -243.065,254.168c-60.016,106.228 -90.024,221.609 -90.024,345.992c0,124.458 28.883,238.189 86.723,341.191c57.99,103.077 137.437,185.149 238.264,246.366c100.827,61.066 214.557,91.524 341.191,91.524Z" style="fill:#fff;"/></g></g></svg>