<?xml version="1.0" encoding="UTF-8" standalone="no"?><!DOCTYPE svg PUBLIC "-//W3C//DTD SVG 1.1//EN" "http://www.w3.org/Graphics/SVG/1.1/DTD/svg11.dtd"><svg width="100%" height="100%" viewBox="0 0 1563 1563" version="1.1" xmlns="http://www.w3.org/2000/svg" xmlns:xlink="http://www.w3.org/1999/xlink" xml:space="preserve" xmlns:serif="http://www.serif.com/" style="fill-rule:evenodd;clip-rule:evenodd;stroke-linejoin:round;stroke-miterlimit:2;"><g><path id="E" d="M223.682,997.876c-46.767,0 -87.891,-11.776 -123.355,-35.348c-35.502,-23.611 -63.98,-56.51 -85.435,-98.677l46.978,-25.316c19.305,32.037 41.336,57.333 66.091,75.869c24.775,18.556 56.688,27.824 95.721,27.824c33.007,0 62.176,-7.289 87.508,-21.867c25.293,-14.617 45.212,-35.133 59.797,-61.526c14.585,-26.433 22.453,-56.785 23.566,-91.075l-394.552,0l0,-4.232c0,-44.93 9.902,-85.373 29.707,-121.328c19.804,-35.936 47.055,-64.034 81.751,-84.256c34.658,-20.221 73.153,-30.332 115.525,-30.332c44.022,0 83.209,11.11 117.598,33.31c34.389,22.161 60.948,51.376 79.678,87.626c18.73,36.21 28.095,74.831 28.095,115.842c0,42.167 -9.077,81.101 -27.25,116.782c-18.154,35.642 -44.445,64.015 -78.834,85.118c-34.389,21.044 -75.245,31.586 -122.587,31.586Zm-161.812,-280.67l326.925,0c-12.685,-44.93 -32.93,-78.495 -60.718,-100.715c-27.788,-22.2 -61.754,-33.31 -101.939,-33.31c-39.609,0 -74.113,11.267 -103.551,33.781c-29.476,22.475 -49.703,55.883 -60.718,100.245Z" style="fill:#1cabb0;"/><path id="division" d="M486.256,1066.711c14.278,0 26.425,2.234 36.462,6.662c10.075,4.448 17.751,11.051 23.028,19.83c5.316,8.778 7.983,19.594 7.983,32.448c0,18.399 -5.124,32.409 -15.352,42.01c-10.248,9.562 -25.868,14.343 -46.901,14.343l-33.084,0l0,-115.293l27.864,0Zm5.22,104.085c16.427,0 28.939,-3.625 37.536,-10.894c8.597,-7.309 12.896,-18.673 12.896,-34.094c0,-16.498 -4.874,-28.608 -14.585,-36.289c-9.672,-7.72 -23.374,-11.6 -41.067,-11.6l-16.504,0l0,92.877l21.723,0Zm348.825,-104.085l11.361,0l0,115.293l-11.361,0l0,-115.293Zm93.268,118.193c-11.322,0 -21.493,-2.724 -30.551,-8.151c-9.058,-5.486 -16.177,-12.815 -21.34,-22.024c-5.124,-9.249 -7.676,-19.202 -7.676,-29.862c0,-11.286 2.61,-21.573 7.83,-30.881c5.258,-9.288 12.378,-16.636 21.34,-22.024c8.943,-5.428 18.768,-8.151 29.476,-8.151c11.207,0 21.416,2.665 30.628,7.995c9.25,5.29 16.523,12.54 21.8,21.789c5.316,9.249 7.983,19.496 7.983,30.724c0,11.188 -2.648,21.397 -7.906,30.646c-5.22,9.249 -12.397,16.577 -21.493,21.946c-9.058,5.33 -19.094,7.995 -30.09,7.995Zm-0.307,-11.286c8.693,0 16.696,-2.077 24.026,-6.27c7.369,-4.232 13.203,-10.111 17.502,-17.635c4.299,-7.563 6.448,-16.087 6.448,-25.551c0,-9.405 -2.226,-17.831 -6.678,-25.316c-4.452,-7.524 -10.363,-13.363 -17.732,-17.557c-7.331,-4.174 -15.18,-6.27 -23.566,-6.27c-8.29,0 -16.081,2.116 -23.335,6.349c-7.273,4.232 -13.126,10.169 -17.578,17.792c-4.414,7.583 -6.601,16.146 -6.601,25.708c0,9.209 2.168,17.537 6.525,25.002c4.337,7.426 10.132,13.246 17.348,17.478c7.254,4.193 15.141,6.27 23.642,6.27Zm159.486,-106.907l11.361,0l0,115.293l-2.533,0l-74.689,-87.234l0,87.234l-11.361,0l0,-115.293l2.38,0l74.842,88.331l0,-88.331Zm-516.543,0l11.361,0l0,115.293l-11.361,0l0,-115.293Zm30.093,0l12.205,0l37.459,89.115l38.073,-89.115l12.282,0l-49.127,115.293l-2.456,0l-48.436,-115.293Zm118.864,0l11.361,0l0,115.293l-11.361,0l0,-115.293Zm62.947,118.193c-7.58,0 -14.105,-2.038 -19.574,-6.113c-5.431,-4.076 -10.286,-10.189 -14.585,-18.34l9.595,-5.878c3.377,6.329 7.062,11.09 11.054,14.265c3.992,3.194 8.175,4.781 12.589,4.781c3.838,0 7.331,-0.862 10.516,-2.586c3.224,-1.763 5.757,-4.154 7.599,-7.132c1.842,-3.018 2.763,-6.309 2.763,-9.876c0,-3.488 -0.979,-6.76 -2.917,-9.797c-1.957,-3.076 -4.759,-6.231 -8.444,-9.484c-3.646,-3.292 -10.017,-8.661 -19.114,-16.146c-4.107,-3.331 -7.273,-6.29 -9.518,-8.857c-2.264,-2.547 -3.972,-5.29 -5.143,-8.23c-1.19,-2.978 -1.766,-6.545 -1.766,-10.738c0,-5.114 1.19,-9.738 3.608,-13.873c2.456,-4.115 5.776,-7.328 9.979,-9.64c4.183,-2.293 8.789,-3.449 13.817,-3.449c6.294,0 11.706,1.646 16.273,4.938c4.548,3.253 8.981,7.877 13.28,13.873l-9.135,7.211c-2.418,-3.233 -4.567,-5.8 -6.448,-7.681c-1.9,-1.92 -4.03,-3.468 -6.371,-4.624c-2.36,-1.195 -4.989,-1.803 -7.906,-1.803c-3.186,0 -5.911,0.686 -8.213,2.038c-2.303,1.313 -4.068,3.096 -5.297,5.33c-1.19,2.253 -1.766,4.663 -1.766,7.211c0,3.664 1.036,7.093 3.147,10.267c2.092,3.135 5.143,6.192 9.135,9.17c8.386,6.231 14.853,11.365 19.421,15.44c4.548,4.076 8.213,8.465 10.977,13.167c2.802,4.703 4.222,9.876 4.222,15.519c0,5.388 -1.42,10.463 -4.222,15.205c-2.763,4.761 -6.563,8.602 -11.361,11.521c-4.817,2.861 -10.209,4.311 -16.197,4.311Z" style="fill:#fff;"/><path id="K" d="M827.467,377.596l56.112,0l0,353.091l202.265,-180.347l83.363,0l-240.185,213.265l254.233,234.27l-80.062,0l-219.613,-201.43l0,201.43l-56.112,0l0,-620.28Z" style="fill:#fff;"/><path id="O" d="M1333.829,998.307c-42.948,0 -81.885,-10.542 -116.83,-31.586c-34.907,-21.103 -62.292,-49.633 -82.134,-85.588c-19.804,-35.936 -29.707,-75.007 -29.707,-117.174c0,-42.108 9.902,-81.434 29.707,-117.958c19.843,-36.524 47.227,-65.445 82.134,-86.764c34.945,-21.358 73.883,-32.056 116.83,-32.056c42.929,0 81.846,10.699 116.754,32.056c34.945,21.319 62.33,50.24 82.134,86.764c19.843,36.524 29.783,75.85 29.783,117.958c0,42.167 -9.941,81.238 -29.783,117.174c-19.804,35.956 -47.189,64.485 -82.134,85.588c-34.907,21.044 -73.825,31.586 -116.754,31.586Zm0,-55.648c31.933,0 60.948,-7.995 87.047,-23.984c26.137,-16.028 46.632,-37.66 61.486,-64.897c14.892,-27.275 22.337,-56.922 22.337,-88.958c0,-32.605 -7.714,-62.8 -23.105,-90.604c-15.41,-27.785 -36.193,-49.966 -62.33,-66.543c-26.156,-16.616 -54.635,-24.924 -85.435,-24.924c-30.82,0 -59.298,8.308 -85.435,24.924c-26.156,16.577 -46.939,38.758 -62.33,66.543c-15.41,27.804 -23.105,57.999 -23.105,90.604c0,32.605 7.407,62.388 22.261,89.35c14.892,26.962 35.253,48.476 61.102,64.505c25.888,15.989 55.057,23.984 87.508,23.984Z" style="fill:#fff;"/><path id="K1" d="M807.305,997.876l-56.112,0l0,-353.091l-202.265,180.347l-83.363,0l240.185,-213.265l-254.233,-234.27l80.062,0l219.613,201.43l0,-201.43l56.112,0l0,620.28Z" style="fill:#1cabb0;"/></g></svg>