<?xml version="1.0" encoding="UTF-8" standalone="no"?><!DOCTYPE svg PUBLIC "-//W3C//DTD SVG 1.1//EN" "http://www.w3.org/Graphics/SVG/1.1/DTD/svg11.dtd"><svg width="100%" height="100%" viewBox="0 0 2084 2084" version="1.1" xmlns="http://www.w3.org/2000/svg" xmlns:xlink="http://www.w3.org/1999/xlink" xml:space="preserve" xmlns:serif="http://www.serif.com/" style="fill-rule:evenodd;clip-rule:evenodd;stroke-linejoin:round;stroke-miterlimit:2;"><g><path d="M462.087,1068.908l6.203,0l62.502,-407.65c5.069,-31.272 12.166,-57.322 21.232,-78.151c9.184,-20.946 20.635,-38.019 34.352,-51.162c13.836,-13.142 29.343,-22.354 46.519,-27.693c17.176,-5.456 36.142,-8.214 57.015,-8.214c24.154,0 45.803,2.523 64.888,7.51c19.204,4.87 35.903,13.729 50.097,26.52c14.313,12.673 25.824,30.509 34.591,53.508c8.707,22.999 15.148,52.98 19.323,89.885l71.329,699.6l-207.784,0l-38.646,-701.947l-2.624,0c-7.515,60.725 -20.874,140.342 -40.078,238.911c-19.264,98.568 -41.748,220.957 -67.512,367.049c-5.904,31.155 -18.727,57.439 -38.408,78.855c-19.562,21.239 -43.119,31.917 -70.613,31.917c-25.764,0 -48.904,-9.857 -69.42,-29.57c-20.516,-19.714 -34.531,-50.927 -41.986,-93.64l-105.204,-573.808l-2.386,0l-37.692,682.233l-207.784,0l71.329,-703.355c3.34,-36.142 9.602,-65.477 18.846,-88.007c9.184,-22.53 20.874,-40.131 35.068,-52.804c14.135,-12.79 30.834,-21.474 50.097,-26.05c19.204,-4.518 40.913,-6.806 65.126,-6.806c89.221,0 141.763,52.218 157.687,156.536l63.934,416.334Z" style="fill:#fff;fill-rule:nonzero;"/><g><g><g><path d="M1263.293,510.824c52.483,0 95.423,10.326 128.821,30.979c33.398,20.535 50.097,56.559 50.097,108.19c0,39.427 -24.214,83.02 -72.522,130.72c-24.214,23.821 -42.821,41.891 -55.823,54.213c-12.882,12.204 -20.635,19.948 -23.14,23.234c28.448,5.808 54.749,15.9 78.963,30.275c24.154,14.433 44.61,31.859 61.309,52.335c16.699,20.535 29.82,43.769 39.362,69.702c9.662,25.815 14.552,53.508 14.552,83.079c0,91.058 -27.613,160.467 -82.78,208.167c-55.047,47.583 -132.638,71.345 -232.833,71.345l-267.901,0l0,-199.483l272.91,0c35.128,0 60.594,-6.337 76.339,-19.01c15.864,-12.79 23.856,-34.792 23.856,-65.947c0,-22.178 -6.56,-41.07 -19.562,-56.559c-12.882,-15.607 -29.76,-23.469 -50.574,-23.469l-190.369,0l0,-125.792l200.389,-177.188l-289.132,0l0,-194.79l338.037,0Z" style="fill:#fff;fill-rule:nonzero;"/></g></g></g><path d="M1861.713,510.824c52.483,0 95.423,10.326 128.821,30.979c33.398,20.535 50.097,56.559 50.097,108.19c0,39.427 -24.214,83.02 -72.522,130.72c-24.214,23.821 -42.821,41.891 -55.823,54.213c-12.882,12.204 -20.635,19.948 -23.14,23.234c28.448,5.808 54.749,15.9 78.963,30.275c24.154,14.433 44.61,31.859 61.309,52.335c16.699,20.535 29.82,43.769 39.362,69.702c9.662,25.815 14.552,53.508 14.552,83.079c0,91.058 -27.613,160.467 -82.78,208.167c-55.047,47.583 -132.638,71.345 -232.833,71.345l-267.901,0l0,-199.483l272.91,0c35.128,0 60.594,-6.337 76.339,-19.01c15.864,-12.79 23.856,-34.792 23.856,-65.947c0,-22.178 -6.56,-41.07 -19.562,-56.559c-12.882,-15.607 -29.76,-23.469 -50.574,-23.469l-190.369,0l0,-125.792l200.389,-177.188l-289.132,0l0,-194.79l338.037,0Z" style="fill:#fff;"/><g id="STREET-WEAR" serif:id="STREET WEAR"><g id="STREET"><path d="M92.649,1587.294c-15.008,0 -28.775,-2.068 -41.361,-6.145c-12.467,-4.254 -23.162,-9.986 -32.143,-17.253c-8.863,-7.209 -15.245,-15.599 -19.144,-25.053l14.89,-9.927c2.659,8.39 7.8,15.776 15.363,22.217c7.681,6.322 17.017,11.286 27.889,14.89c10.872,3.486 22.689,5.2 35.452,5.2c10.872,0 20.326,-1.241 28.362,-3.782c8.154,-2.482 14.476,-5.968 18.908,-10.399c4.55,-4.55 6.854,-9.572 6.854,-15.126c0,-6.736 -3.663,-12.349 -10.872,-16.781c-7.09,-4.372 -18.612,-7.681 -34.507,-9.927l-39.943,-6.618c-17.844,-2.659 -30.725,-6.972 -38.761,-12.999c-8.036,-6.145 -12.054,-14.713 -12.054,-25.762c0,-9.277 2.836,-17.313 8.509,-24.108c5.672,-6.736 13.531,-11.936 23.635,-15.599c10.045,-3.604 21.508,-5.436 34.271,-5.436c11.463,0 22.217,1.536 32.143,4.491c10.045,3.013 18.731,7.209 25.998,12.526c7.209,5.2 12.763,11.227 16.544,17.963l-13.472,10.636c-3.191,-5.672 -7.8,-10.695 -13.945,-15.126c-6.027,-4.55 -13.117,-8.095 -21.271,-10.636c-8.036,-2.659 -16.722,-4.018 -25.998,-4.018c-9.336,0 -17.667,1.3 -25.053,3.782c-7.268,2.363 -12.999,5.672 -17.253,9.927c-4.136,4.254 -6.145,9.159 -6.145,14.654c0,6.145 2.836,11.108 8.509,14.89c5.791,3.663 15.126,6.381 27.889,8.272l38.998,6.145c21.271,3.191 36.693,8.154 46.324,14.89c9.572,6.618 14.417,15.717 14.417,27.18c0,9.336 -3.191,17.608 -9.454,24.817c-6.145,7.09 -14.654,12.645 -25.526,16.544c-10.872,3.782 -23.576,5.672 -38.052,5.672Z" style="fill:#fff;"/><path d="M259.493,1581.858l0,-135.901l-72.323,0l0,-15.835l162.372,0l0,15.835l-72.323,0l0,135.901l-17.726,0Z" style="fill:#fff;"/><path d="M532.916,1586.113c-6.322,0 -11.463,-1.832 -15.363,-5.436c-3.959,-3.604 -7.031,-8.095 -9.218,-13.472l-12.763,-29.307c-2.363,-5.495 -5.672,-9.986 -9.927,-13.472c-4.254,-3.604 -9.099,-5.436 -14.417,-5.436l-75.868,0l0,62.869l-17.726,0l0,-151.736l109.902,0c10.99,0 20.621,1.832 28.835,5.436c8.331,3.486 14.713,8.509 19.144,15.126c4.55,6.618 6.854,14.417 6.854,23.399c0,11.345 -4.136,20.799 -12.29,28.362c-8.213,7.445 -19.322,11.758 -33.325,12.999c4.254,2.363 7.681,5.377 10.399,8.981c2.659,3.486 4.963,7.504 6.854,12.054l10.636,24.58c1.064,2.718 2.423,5.082 4.018,7.09c1.714,1.891 3.9,2.836 6.618,2.836c2.659,0 5.081,-0.827 7.327,-2.6c2.363,-1.714 4.372,-4.077 6.145,-7.09l8.981,10.399c-2.836,4.254 -6.322,7.74 -10.399,10.399c-4.136,2.659 -8.922,4.018 -14.417,4.018Zm-137.555,-82.958l90.994,0c11.345,0 20.444,-2.6 27.416,-7.8c7.09,-5.2 10.636,-12.054 10.636,-20.562c0,-8.627 -3.545,-15.599 -10.636,-20.799c-6.972,-5.318 -16.072,-8.036 -27.416,-8.036l-90.994,0l0,57.196Z" style="fill:#fff;"/><path d="M584.663,1581.858l0,-151.736l146.773,0l0,15.835l-129.519,0l0,49.87l120.774,0l0,15.363l-120.774,0l0,54.833l131.646,0l0,15.835l-148.9,0Z" style="fill:#fff;"/><path d="M764.791,1581.858l0,-151.736l146.773,0l0,15.835l-129.519,0l0,49.87l120.774,0l0,15.363l-120.774,0l0,54.833l131.646,0l0,15.835l-148.9,0Z" style="fill:#fff;"/><path d="M1007.552,1581.858l0,-135.901l-72.323,0l0,-15.835l162.372,0l0,15.835l-72.323,0l0,135.901l-17.726,0Z" style="fill:#fff;"/></g><g id="WEAR"><path d="M1265.45,1581.858l-67.359,-151.736l19.617,0l60.033,134.246l0.236,0l55.542,-134.246l27.18,0l55.778,134.246l0.236,0l59.796,-134.246l19.381,0l-67.123,151.736l-24.58,0l-56.96,-134.246l-0.236,0l-56.96,134.246l-24.58,0Z" style="fill:#fff;"/><path d="M1522.75,1581.858l0,-151.736l146.773,0l0,15.835l-129.519,0l0,49.87l120.774,0l0,15.363l-120.774,0l0,54.833l131.646,0l0,15.835l-148.9,0Z" style="fill:#fff;"/><path d="M1693.188,1581.858l80.595,-151.736l21.035,0l80.359,151.736l-18.908,0l-20.09,-36.398l-104.23,0l-19.617,36.398l-19.144,0Zm46.797,-52.233l88.631,0l-43.961,-83.904l-0.473,0l-44.197,83.904Z" style="fill:#fff;"/><path d="M2058.517,1586.113c-6.322,0 -11.463,-1.832 -15.363,-5.436c-3.959,-3.604 -7.031,-8.095 -9.218,-13.472l-12.763,-29.307c-2.363,-5.495 -5.672,-9.986 -9.927,-13.472c-4.254,-3.604 -9.099,-5.436 -14.417,-5.436l-75.868,0l0,62.869l-17.726,0l0,-151.736l109.902,0c10.99,0 20.621,1.832 28.835,5.436c8.331,3.486 14.713,8.509 19.144,15.126c4.55,6.618 6.854,14.417 6.854,23.399c0,11.345 -4.136,20.799 -12.29,28.362c-8.213,7.445 -19.322,11.758 -33.325,12.999c4.254,2.363 7.681,5.377 10.399,8.981c2.659,3.486 4.963,7.504 6.854,12.054l10.636,24.58c1.064,2.718 2.423,5.082 4.018,7.09c1.714,1.891 3.9,2.836 6.618,2.836c2.659,0 5.081,-0.827 7.327,-2.6c2.363,-1.714 4.372,-4.077 6.145,-7.09l8.981,10.399c-2.836,4.254 -6.322,7.74 -10.399,10.399c-4.136,2.659 -8.922,4.018 -14.417,4.018Zm-137.555,-82.958l90.994,0c11.345,0 20.444,-2.6 27.416,-7.8c7.09,-5.2 10.636,-12.054 10.636,-20.562c0,-8.627 -3.545,-15.599 -10.636,-20.799c-6.972,-5.318 -16.072,-8.036 -27.416,-8.036l-90.994,0l0,57.196Z" style="fill:#fff;"/></g></g></g></svg>