<?xml version="1.0" encoding="UTF-8" standalone="no"?><!DOCTYPE svg PUBLIC "-//W3C//DTD SVG 1.1//EN" "http://www.w3.org/Graphics/SVG/1.1/DTD/svg11.dtd"><svg width="100%" height="100%" viewBox="0 0 8684 8684" version="1.1" xmlns="http://www.w3.org/2000/svg" xmlns:xlink="http://www.w3.org/1999/xlink" xml:space="preserve" xmlns:serif="http://www.serif.com/" style="fill-rule:evenodd;clip-rule:evenodd;stroke-linejoin:round;stroke-miterlimit:2;"><path d="M3757.215,6137.996l-746.017,0l-161.025,-2924.779l-10.933,0c-31.312,253.021 -86.975,584.758 -166.992,995.463c-80.267,410.7 -173.95,920.654 -281.3,1529.371c-24.6,129.812 -78.029,239.329 -160.033,328.562c-81.508,88.496 -179.662,132.988 -294.221,132.988c-107.35,0 -203.767,-41.071 -289.25,-123.208c-85.483,-82.142 -143.879,-212.196 -174.942,-390.167l-438.35,-2390.867l-9.942,0l-157.05,2842.637l-865.767,0l297.204,-2930.646c13.917,-150.592 40.008,-272.821 78.525,-366.696c38.267,-93.875 86.975,-167.213 146.117,-220.017c58.896,-53.292 128.475,-89.475 208.738,-108.542c80.017,-18.825 170.471,-28.358 271.358,-28.358c371.754,0 590.679,217.575 657.029,652.233l266.39,1734.723l25.844,-0.002l260.425,-1698.542c21.121,-130.3 50.692,-238.842 88.467,-325.629c38.267,-87.275 85.979,-158.413 143.133,-213.175c57.65,-54.758 122.262,-93.142 193.829,-115.388c71.567,-22.733 150.592,-34.225 237.562,-34.225c100.642,0 190.846,10.513 270.367,31.292c80.017,20.292 149.596,57.204 208.738,110.5c59.637,52.804 107.6,127.121 144.129,222.95c36.279,95.829 63.117,220.75 80.512,374.521l212.461,2083.829l1102.119,0c146.367,0 252.475,-26.404 318.079,-79.208c66.1,-53.292 99.4,-144.967 99.4,-274.779c0,-92.408 -27.333,-171.125 -81.508,-235.662c-53.675,-65.029 -124,-97.788 -210.725,-97.788l-793.204,0l0,-524.133l834.954,-738.283l-1204.717,0l0,-811.625l1408.49,-0.002c218.679,0 397.598,43.023 536.756,129.077c139.158,85.562 208.738,235.662 208.738,450.792c0,164.279 -100.892,345.917 -302.175,544.667c-100.892,99.254 -178.421,174.546 -232.596,225.887c-53.675,50.85 -85.979,83.117 -96.417,96.808c118.533,24.2 228.121,66.25 329.012,126.146c100.642,60.137 185.875,132.746 255.454,218.062c69.579,85.562 124.25,182.371 164.008,290.425c40.258,107.562 60.633,222.95 60.633,346.162c0,379.408 -115.054,668.613 -344.917,867.363c-229.363,198.263 -552.658,297.271 -970.138,297.271l-1116.254,0l0,-0.008Zm4001.31,-3592.652c218.679,0 397.598,43.023 536.756,129.077c139.158,85.562 208.738,235.662 208.738,450.792c0,164.279 -100.892,345.917 -302.175,544.667c-100.892,99.254 -178.421,174.546 -232.596,225.887c-53.675,50.85 -85.979,83.117 -96.417,96.808c118.533,24.2 228.121,66.25 329.013,126.146c100.642,60.137 185.875,132.746 255.454,218.062c69.579,85.562 124.25,182.371 164.008,290.425c40.258,107.562 60.633,222.95 60.633,346.162c0,379.408 -115.054,668.613 -344.917,867.363c-229.363,198.263 -552.658,297.271 -970.137,297.271l-1116.254,0l0,-831.179l1137.125,0c146.367,0 252.475,-26.404 318.079,-79.208c66.1,-53.292 99.4,-144.967 99.4,-274.779c0,-92.408 -27.333,-171.125 -81.508,-235.662c-53.675,-65.029 -124,-97.788 -210.725,-97.788l-793.204,0l0,-524.133l834.954,-738.283l-1204.717,0l0,-811.625l1408.49,-0.002Z" style="fill:#fff;"/></svg>