<?xml version="1.0" encoding="UTF-8" standalone="no"?><!DOCTYPE svg PUBLIC "-//W3C//DTD SVG 1.1//EN" "http://www.w3.org/Graphics/SVG/1.1/DTD/svg11.dtd"><svg width="100%" height="100%" viewBox="0 0 250 109" version="1.1" xmlns="http://www.w3.org/2000/svg" xmlns:xlink="http://www.w3.org/1999/xlink" xml:space="preserve" xmlns:serif="http://www.serif.com/" style="fill-rule:evenodd;clip-rule:evenodd;stroke-linejoin:round;stroke-miterlimit:2;"><g><path d="M172.978,26.715l77.02,0l0,7.877l-0.736,0c-40.952,0 -81.904,-0.008 -122.856,0.022c-2.037,0.001 -4.079,0.276 -6.108,0.515c-2.051,0.242 -4.107,0.512 -6.128,0.928c-2.537,0.522 -5.064,1.127 -7.557,1.836c-3.573,1.016 -7.029,2.37 -10.4,3.948c-3.286,1.538 -6.498,3.213 -9.492,5.275c-2.428,1.672 -4.834,3.383 -7.18,5.169c-1.275,0.97 -2.426,2.111 -3.595,3.216c-1.401,1.324 -2.841,2.621 -4.123,4.058c-1.875,2.101 -3.692,4.264 -5.407,6.5c-1.501,1.958 -2.87,4.025 -4.215,6.099c-0.903,1.392 -1.738,2.841 -2.467,4.333c-1.393,2.851 -2.787,5.709 -4,8.64c-1.367,3.303 -2.427,6.728 -3.211,10.225c-0.523,2.333 -1.026,4.675 -1.415,7.034c-0.285,1.731 -0.366,3.497 -0.546,5.246c-0.046,0.445 -0.119,0.887 -0.184,1.362l-50.381,0c0.076,-0.971 0.139,-1.93 0.231,-2.886c0.086,-0.894 0.195,-1.787 0.308,-2.678c0.168,-1.334 0.291,-2.677 0.534,-3.998c0.385,-2.093 0.77,-4.191 1.304,-6.248c0.918,-3.542 1.871,-7.083 3.327,-10.451c1.309,-3.03 2.578,-6.084 4.046,-9.035c1.189,-2.39 2.581,-4.685 4.006,-6.943c1.33,-2.107 2.775,-4.145 4.26,-6.144c1.082,-1.456 2.264,-2.844 3.484,-4.186c1.864,-2.05 3.726,-4.111 5.725,-6.023c1.879,-1.798 3.892,-3.461 5.924,-5.084c1.862,-1.487 3.769,-2.933 5.762,-4.233c2.385,-1.556 4.835,-3.027 7.344,-4.368c2.448,-1.309 4.974,-2.481 7.522,-3.582c3.238,-1.399 6.578,-2.532 9.997,-3.401c2.169,-0.551 4.339,-1.115 6.531,-1.555c1.798,-0.361 3.625,-0.592 5.448,-0.8c1.987,-0.227 3.983,-0.372 5.977,-0.532c0.875,-0.071 1.754,-0.13 2.632,-0.13c29.517,-0.007 59.035,-0.006 88.617,-0.006Z" style="fill:#fff;fill-rule:nonzero;"/><path d="M196.369,48.639c-13.558,0 -27.05,-0.018 -40.543,0.023c-1.669,0.005 -3.348,0.25 -5.001,0.519c-2.422,0.394 -4.858,0.785 -7.228,1.41c-2.534,0.668 -5.055,1.466 -7.478,2.464c-2.466,1.015 -4.869,2.23 -7.182,3.566c-2.268,1.31 -4.415,2.843 -6.56,4.357c-1.194,0.843 -2.317,1.8 -3.4,2.788c-1.36,1.24 -2.707,2.505 -3.945,3.866c-1.392,1.529 -2.724,3.125 -3.958,4.786c-1.433,1.931 -2.85,3.894 -4.056,5.973c-1.252,2.159 -2.316,4.439 -3.325,6.728c-0.871,1.975 -1.678,3.999 -2.281,6.07c-0.707,2.427 -1.218,4.918 -1.707,7.402c-0.321,1.63 -0.498,3.293 -0.656,4.949c-0.173,1.805 -0.25,3.618 -0.371,5.46l-38.191,0c0.115,-1.682 0.222,-3.336 0.344,-4.99c0.073,-0.986 0.14,-1.973 0.267,-2.953c0.187,-1.435 0.362,-2.877 0.655,-4.292c0.467,-2.252 0.968,-4.501 1.566,-6.72c0.475,-1.763 1.009,-3.525 1.707,-5.207c1.273,-3.067 2.596,-6.124 4.364,-8.946c1.499,-2.393 2.993,-4.794 4.616,-7.1c1.067,-1.517 2.322,-2.907 3.563,-4.289c1.303,-1.452 2.635,-2.887 4.057,-4.217c1.429,-1.337 2.929,-2.613 4.501,-3.774c2.3,-1.7 4.623,-3.39 7.065,-4.868c2.141,-1.296 4.419,-2.385 6.709,-3.4c2.265,-1.005 4.579,-1.939 6.945,-2.656c2.618,-0.793 5.304,-1.382 7.989,-1.913c1.987,-0.393 4.016,-0.592 6.034,-0.799c1.531,-0.157 3.075,-0.264 4.613,-0.265c41.236,-0.014 82.472,-0.011 123.708,-0.011l0.809,0l0,6.039l-53.631,0Z" style="fill:#fff;fill-rule:nonzero;"/><path d="M101.151,14.201c-1.322,-2.689 -2.614,-5.338 -4.008,-8.195c-0.386,0.605 -0.701,1.031 -0.945,1.495c-0.706,1.339 -1.381,2.694 -2.074,4.04c-0.828,1.607 -1.644,3.221 -2.5,4.813c-0.649,1.205 -1.342,2.386 -2.046,3.559c-0.105,0.174 -0.371,0.35 -0.566,0.354c-2.999,0.065 -6,0.082 -8.999,0.165c-0.561,0.015 -0.868,-0.199 -1.112,-0.631c-1.026,-1.812 -2.084,-3.608 -3.065,-5.444c-1.139,-2.131 -2.196,-4.305 -3.315,-6.447c-0.827,-1.583 -1.697,-3.143 -2.544,-4.716c-0.509,-0.945 -1.012,-1.893 -1.512,-2.842c-0.056,-0.106 -0.072,-0.233 -0.117,-0.389c0.19,-0.012 0.335,-0.028 0.48,-0.028c2.404,-0.002 4.808,0.001 7.212,-0.004c0.338,-0.001 0.505,0.055 0.697,0.443c1.078,2.188 2.227,4.341 3.378,6.493c0.804,1.504 1.649,2.985 2.477,4.476c0.613,1.104 1.239,2.201 1.837,3.314c0.186,0.345 0.296,0.374 0.49,0.017c0.934,-1.721 1.894,-3.428 2.812,-5.157c1.016,-1.914 2.01,-3.841 2.988,-5.775c0.549,-1.086 1.044,-2.199 1.571,-3.296c0.162,-0.338 0.379,-0.53 0.818,-0.525c2.339,0.029 4.678,0.007 7.017,0.019c0.4,0.002 0.805,0.059 1.197,0.141c0.122,0.026 0.241,0.204 0.309,0.339c0.971,1.918 1.886,3.867 2.907,5.757c1.508,2.795 3.091,5.548 4.639,8.321c0.215,0.385 0.399,0.378 0.601,-0.009c1.061,-2.032 2.112,-4.069 3.195,-6.088c0.716,-1.336 1.499,-2.635 2.215,-3.97c0.794,-1.483 1.546,-2.989 2.288,-4.43l8.191,0c-1.739,3.42 -3.431,6.877 -5.24,10.27c-1.813,3.399 -3.743,6.734 -5.613,10.083l-10.583,0c-1.006,-2.019 -2.025,-4.064 -3.074,-6.15Z" style="fill:#fff;fill-rule:nonzero;"/><path d="M165.051,20.544l-35.518,0c0.069,-6.837 0.138,-13.644 0.209,-20.611l4.407,0c2.708,0 5.416,-0.013 8.123,0.006c1.159,0.008 2.318,0.104 3.477,0.116c0.617,0.007 1.235,-0.116 1.852,-0.113c0.769,0.004 1.539,0.121 2.307,0.114c3.152,-0.026 6.303,-0.086 9.455,-0.121c1.362,-0.015 2.724,0.006 4.085,-0.007c0.494,-0.004 0.683,0.158 0.497,0.666c-0.064,0.176 -0.061,0.383 -0.062,0.576c-0.005,1.18 -0.003,2.359 -0.003,3.62c-0.249,0 -0.478,-0.011 -0.706,0.002c-1.538,0.084 -3.076,0.193 -4.615,0.25c-0.572,0.021 -1.148,-0.118 -1.722,-0.114c-4.451,0.032 -8.902,0.099 -13.353,0.116c-1.938,0.007 -3.877,-0.079 -5.816,-0.122c-0.212,-0.005 -0.424,-0.001 -0.685,-0.001c0.058,0.925 0.113,1.801 0.169,2.704l23.831,0c-0.073,1.154 -0.14,2.222 -0.208,3.291c-0.004,0.065 -0.008,0.13 -0.014,0.194c-0.107,1.163 -0.107,1.153 -1.259,1.165c-3.927,0.039 -7.854,0.079 -11.781,0.134c-0.943,0.013 -1.885,0.124 -2.827,0.118c-1.549,-0.01 -3.098,-0.111 -4.647,-0.111c-1.068,0 -2.135,0.107 -3.235,0.167l0,2.71l0.637,0c2.902,0 5.804,-0.017 8.706,0.005c3.13,0.023 6.26,0.11 9.39,0.117c2.198,0.005 4.397,-0.071 6.596,-0.126c0.748,-0.019 1.495,-0.107 2.243,-0.108c0.155,-0 0.443,0.238 0.446,0.371c0.031,1.602 0.02,3.205 0.02,4.993Z" style="fill:#fff;fill-rule:nonzero;"/><path d="M214.564,18.795c-0.002,-1.288 -0.018,-2.513 0.001,-3.738c0.031,-2.024 0.105,-4.048 0.121,-6.073c0.022,-2.757 0.005,-5.515 0.005,-8.272l0,-0.516l14.954,0c4.266,0 8.533,-0.042 12.798,0.018c2.148,0.03 4.141,0.654 5.594,2.38c0.908,1.079 1.83,2.23 1.845,3.73c0.014,1.366 -0.331,2.683 -1.173,3.813c-0.766,1.028 -1.637,1.933 -2.826,2.458c-0.451,0.199 -0.92,0.356 -1.359,0.523c1.651,2.436 3.315,4.891 5.052,7.454l-8.454,0c-1.109,-1.54 -2.174,-3.007 -3.225,-4.485c-0.477,-0.67 -0.911,-1.373 -1.4,-2.034c-0.122,-0.165 -0.379,-0.319 -0.576,-0.321c-2.187,-0.023 -4.375,-0.014 -6.562,-0.014l-7.195,0l0,6.678c-2.424,0.437 -4.918,-0.095 -7.401,0.025c-0.069,-0.551 -0.133,-1.057 -0.199,-1.625m21.107,-9.934c0.855,-0.044 1.709,-0.101 2.565,-0.128c1.125,-0.035 2.206,-0.188 3.188,-0.817c0.783,-0.501 1.014,-1.513 0.072,-2.043c-0.526,-0.296 -1.163,-0.495 -1.763,-0.534c-1.651,-0.108 -3.309,-0.123 -4.965,-0.151c-3.105,-0.053 -6.21,-0.103 -9.315,-0.126c-0.941,-0.007 -1.883,0.117 -2.824,0.109c-0.525,-0.005 -0.681,0.216 -0.661,0.68c0.046,1.032 0.093,2.065 0.136,3.011l13.565,0Z" style="fill:#fff;fill-rule:nonzero;"/><path d="M16.633,13.93c-0.957,0.131 -1.854,0.269 -2.753,0.392c-1.428,0.195 -2.934,0.026 -4.214,0.909c-0.397,0.274 -0.771,0.58 -1.155,0.872c0.036,0.064 0.071,0.127 0.107,0.191l24.728,0l0,4.967c-0.447,0.049 -0.92,0.138 -1.395,0.146c-1.299,0.021 -2.599,0.023 -3.898,0.003c-1.83,-0.028 -3.66,-0.114 -5.491,-0.121c-4.592,-0.018 -9.183,-0.006 -13.775,-0.006l-7.898,0c0,-1.677 -0.051,-3.464 0.029,-5.245c0.027,-0.597 0.333,-1.206 0.606,-1.761c0.679,-1.383 1.901,-2.18 3.264,-2.685c1.639,-0.607 3.316,-1.143 5.013,-1.549c1.33,-0.318 2.717,-0.388 4.078,-0.577c1.506,-0.209 3.008,-0.445 4.516,-0.634c0.741,-0.093 1.501,-0.048 2.237,-0.164c1.742,-0.273 3.48,-0.58 5.208,-0.934c0.288,-0.059 0.693,-0.397 0.722,-0.644c0.027,-0.231 -0.349,-0.543 -0.596,-0.762c-0.162,-0.144 -0.414,-0.184 -0.623,-0.276c-1.06,-0.47 -2.179,-0.616 -3.323,-0.657c-2.145,-0.078 -4.288,-0.191 -6.433,-0.255c-2.565,-0.076 -5.045,0.392 -7.412,1.384c-0.684,0.287 -1.329,0.709 -1.923,1.162c-0.445,0.339 -0.803,0.42 -1.34,0.222c-1.583,-0.584 -3.192,-1.096 -4.912,-1.678c0.332,-0.476 0.577,-0.981 0.957,-1.339c0.79,-0.745 1.583,-1.529 2.502,-2.082c1.029,-0.619 2.176,-1.063 3.313,-1.464c0.803,-0.283 1.674,-0.369 2.515,-0.541c0.964,-0.197 1.928,-0.391 2.891,-0.587c0.103,-0.021 0.205,-0.064 0.309,-0.067c2.112,-0.047 4.233,-0.236 6.333,-0.099c3.007,0.196 6.018,0.399 8.964,1.229c1.355,0.382 2.641,0.813 3.758,1.638c1.303,0.962 2.287,2.256 2.314,3.925c0.029,1.848 -0.767,3.321 -2.499,4.239c-1.744,0.924 -3.564,1.414 -5.518,1.555c-1.153,0.083 -2.292,0.345 -3.439,0.516c-0.647,0.096 -1.299,0.157 -1.946,0.256c-1.082,0.165 -2.161,0.351 -3.243,0.519c-0.169,0.026 -0.346,0.005 -0.578,0.006Z" style="fill:#fff;fill-rule:nonzero;"/><path d="M169.047,19.198c1.675,-1.91 3.316,-3.788 4.959,-5.663c1.387,-1.582 2.792,-3.148 4.161,-4.745c0.704,-0.822 1.33,-1.713 2.023,-2.546c0.867,-1.042 1.777,-2.047 2.649,-3.084c0.713,-0.848 1.414,-1.707 2.089,-2.586c0.32,-0.417 0.631,-0.69 1.213,-0.66c0.678,0.035 1.364,-0.112 2.045,-0.105c2.112,0.022 4.223,0.09 6.334,0.118c0.76,0.01 0.9,0.727 1.281,1.128c0.877,0.925 1.638,1.962 2.453,2.948c1.333,1.613 2.678,3.215 4.004,4.833c1.608,1.961 3.197,3.939 4.804,5.902c1.514,1.85 3.04,3.689 4.558,5.535c0.02,0.024 0.008,0.074 0.013,0.14c-2.812,0 -5.621,0.022 -8.429,-0.03c-0.321,-0.006 -0.7,-0.378 -0.939,-0.673c-0.665,-0.822 -1.363,-1.64 -1.875,-2.559c-0.576,-1.034 -1.428,-0.812 -2.283,-0.767c-0.145,0.008 -0.288,0.086 -0.432,0.086c-2.209,0.006 -4.417,0.021 -6.626,-0.001c-1.809,-0.018 -3.617,-0.116 -5.425,-0.116c-1.743,-0.001 -3.487,0.069 -5.23,0.135c-0.185,0.007 -0.407,0.155 -0.538,0.304c-0.979,1.107 -1.934,2.236 -2.914,3.342c-0.125,0.141 -0.35,0.258 -0.535,0.268c-1.223,0.066 -2.447,0.144 -3.67,0.131c-1.515,-0.016 -3.029,-0.118 -4.649,-0.187c0.339,-0.409 0.632,-0.761 0.958,-1.148m15.71,-8.106l10.512,0c-0.095,-0.213 -0.126,-0.36 -0.211,-0.463c-0.764,-0.922 -1.541,-1.833 -2.309,-2.752c-0.835,-0.999 -1.661,-2.005 -2.507,-2.994c-0.043,-0.05 -0.298,-0.009 -0.364,0.068c-1.364,1.592 -2.718,3.193 -4.066,4.799c-0.347,0.413 -0.668,0.848 -1.055,1.342Z" style="fill:#fff;fill-rule:nonzero;"/><path d="M39.834,1.446c0.208,-0.392 0.367,-0.756 0.573,-1.087c0.076,-0.123 0.263,-0.238 0.4,-0.239c2.918,-0.014 5.836,-0.01 8.755,-0.01c0.063,1.249 0.13,2.446 0.182,3.645c0.052,1.204 0.129,2.41 0.123,3.614c-0.011,2.077 -0.114,4.154 -0.111,6.23c0.002,2.375 0.077,4.75 0.12,7.125c0.004,0.223 0.001,0.447 0.001,0.698l-7.368,0l0,-15.644l-4.749,0c0.707,-1.483 1.376,-2.887 2.076,-4.333Z" style="fill:#fff;fill-rule:nonzero;"/></g></svg>