<?xml version="1.0" encoding="UTF-8" standalone="no"?><!DOCTYPE svg PUBLIC "-//W3C//DTD SVG 1.1//EN" "http://www.w3.org/Graphics/SVG/1.1/DTD/svg11.dtd"><svg width="100%" height="100%" viewBox="0 0 250 405" version="1.1" xmlns="http://www.w3.org/2000/svg" xmlns:xlink="http://www.w3.org/1999/xlink" xml:space="preserve" xmlns:serif="http://www.serif.com/" style="fill-rule:evenodd;clip-rule:evenodd;stroke-linejoin:round;stroke-miterlimit:2;"><path d="M95.376,351.464c-4.823,2.388 -8.374,3.867 -10.654,4.437c-2.183,0.598 -3.422,-0.246 -3.72,-2.532c-0.101,-1.194 -0.002,-2.536 0.297,-4.026c0.198,-1.094 0.247,-1.788 0.151,-2.084c-0.201,0 -0.4,0.051 -0.598,0.151c-0.198,0.098 -0.347,0.197 -0.447,0.297l-0.372,0.372c-0.148,0.149 -0.272,0.271 -0.372,0.368c-2.283,1.99 -4.367,3.431 -6.253,4.323c-0.695,0.4 -1.388,0.748 -2.081,1.047c-0.992,0.296 -1.761,0.196 -2.307,-0.302c-0.546,-0.496 -0.72,-1.241 -0.523,-2.235c0,-0.198 0.099,-0.595 0.297,-1.193c0.596,-1.388 1.489,-2.532 2.679,-3.428c2.084,-1.49 4.168,-1.49 6.253,0l0.151,0.151l0.146,0c0.697,0.497 1.293,0.497 1.789,0l2.825,-2.834c0.499,-0.396 0.896,-0.444 1.191,-0.146c0.298,0.296 0.348,0.542 0.151,0.74c-0.101,0.796 -0.348,1.988 -0.744,3.578c-0.497,1.889 -0.696,3.629 -0.598,5.219c0.1,0.796 0.598,1.143 1.493,1.042c1.425,-0.19 5.124,-1.7 11.098,-4.532c-0.278,-4.08 0.09,-9.525 1.104,-16.335c1.588,-11.227 4.715,-22.157 9.38,-32.79c1.886,-4.271 3.92,-7.898 6.103,-10.881c0.991,-1.388 2.431,-2.977 4.318,-4.767c1.189,-0.996 2.53,-1.892 4.021,-2.687c1.884,-0.792 3.718,-0.79 5.505,0.005c1.786,0.792 3.028,2.133 3.725,4.022c0.593,1.591 0.89,3.628 0.89,6.11c-0.098,3.677 -0.89,7.553 -2.378,11.626c-1.589,4.271 -4.318,9.786 -8.189,16.544c-4.863,8.446 -10.967,17.438 -18.312,26.977c-0.299,0.202 -0.645,0.601 -1.041,1.198c-0.396,0.594 -0.695,0.99 -0.895,1.188c-0.795,0.896 -1.043,1.889 -0.744,2.98c0.991,3.181 1.687,5.119 2.086,5.813c2.181,3.779 5.455,5.519 9.823,5.219c3.749,-0.446 7.821,-3.787 12.213,-10.022c0.064,-2.878 0.708,-5.4 1.93,-7.569c0.793,-1.19 1.439,-1.985 1.935,-2.381c0.793,-0.596 1.687,-0.896 2.679,-0.896c1.092,0 1.836,0.398 2.232,1.193c0.596,0.893 0.497,1.838 -0.297,2.834c-1.755,1.853 -3.414,2.989 -4.978,3.406c-0.253,0.511 -0.379,0.767 -0.379,0.767c-0.569,1.01 -1.144,1.967 -1.724,2.871c-0.016,1.147 0.161,2.127 0.531,2.942c0.596,1.49 1.54,2.334 2.83,2.532c3.669,0.4 8.631,-2.532 14.884,-8.793l1.342,-1.344c0.129,0 0.239,0.01 0.331,0.029c0.184,-0.315 0.421,-0.472 0.711,-0.472c0.396,0.098 0.593,0.494 0.593,1.188c-0.198,0.796 -0.297,1.492 -0.297,2.089c-0.198,1.591 -0.198,2.784 0,3.578c1.29,-1.292 2.183,-2.236 2.679,-2.834c1.786,-1.788 3.423,-3.08 4.911,-3.875c2.185,-1.388 4.318,-1.289 6.399,0.297c0.895,0.698 2.037,1.643 3.428,2.834c0.791,0.994 2.303,1.318 4.535,0.971c2.234,-0.349 4.22,-0.797 5.957,-1.344c1.739,-0.547 3.401,-1.167 4.987,-1.862c0.298,-0.198 0.769,-0.421 1.413,-0.669c0.539,-0.206 0.956,-0.362 1.253,-0.467c0.254,-3.499 0.655,-6.946 1.204,-10.339c0.895,-6.261 2.284,-13.216 4.167,-20.867c-7.838,0 -16.073,0.447 -24.707,1.339c-4.466,0.4 -7.793,0.946 -9.978,1.641c-2.379,0.893 -3.816,1.838 -4.313,2.834c0,0.098 -0.148,0.146 -0.447,0.146c-0.298,-0.298 -0.447,-0.547 -0.447,-0.745c-0.1,-0.596 0.148,-1.193 0.744,-1.787c0.695,-0.596 1.637,-1.094 2.83,-1.49c1.985,-0.794 4.613,-1.392 7.887,-1.792c9.229,-1.094 18.013,-1.641 26.35,-1.641l2.383,0c0,-0.295 0.073,-0.741 0.221,-1.339c0.151,-0.596 0.274,-1.094 0.372,-1.49c1.786,-6.657 4.565,-14.309 8.339,-22.956c0.198,-0.298 0.444,-0.794 0.739,-1.49c0.298,-0.694 0.547,-1.241 0.749,-1.641l0.744,-1.339c0.593,-0.992 1.236,-1.34 1.931,-1.042c0.697,0.296 0.896,0.99 0.598,2.084c-0.098,0.695 -0.346,1.64 -0.744,2.834c-0.396,1.094 -0.968,2.634 -1.714,4.62c-0.744,1.987 -1.264,3.327 -1.559,4.022c-2.185,5.665 -3.922,10.733 -5.213,15.205l-0.744,2.683c10.717,0.198 18.557,0.297 23.52,0.297c1.29,0 3.299,0.051 6.027,0.151c2.731,0.101 4.79,0.151 6.178,0.151c2.878,0 6.402,-0.349 10.571,-1.047c2.084,-0.496 4.417,-1.34 6.997,-2.532l1.337,-0.448c0.1,0 0.25,0.099 0.447,0.297c0.1,0 0.151,0.051 0.151,0.151c0,0.098 -0.051,0.146 -0.151,0.146l-0.593,0.599c-2.185,1.192 -4.171,2.036 -5.957,2.532c-3.968,0.896 -8.634,1.344 -13.995,1.344c-1.288,0 -6.423,-0.048 -15.407,-0.146c-8.982,-0.1 -14.563,-0.151 -16.744,-0.151l-2.679,0c-1.589,6.161 -2.433,9.489 -2.533,9.986c-2.38,9.936 -3.868,20.815 -4.464,32.64c-0.198,2.983 0,5.766 0.593,8.35c0.398,1.789 0.796,3.03 1.191,3.725c0.895,2.185 2.483,2.78 4.765,1.787c0.396,-0.198 0.99,-0.595 1.785,-1.193c2.483,-1.688 4.716,-3.873 6.701,-6.558c2.383,-3.178 5.855,-8.046 10.421,-14.606c0.186,-0.233 0.362,-0.449 0.529,-0.648c0.745,-1.867 2.057,-3.439 3.936,-4.717c0.496,-0.396 1.191,-0.495 2.086,-0.297c0.496,0.198 0.868,0.57 1.116,1.117c0.247,0.547 0.172,1.069 -0.226,1.565c-0.098,0.101 -0.197,0.225 -0.297,0.372c-0.098,0.149 -0.221,0.272 -0.372,0.372c-0.148,0.101 -0.272,0.2 -0.372,0.297c-0.497,0.598 -1.142,1.591 -1.935,2.98c-0.597,1.393 -0.2,2.139 1.191,2.239c0.895,0.198 2.234,0.396 4.021,0.594c0.793,0 1.909,-0.024 3.348,-0.071c1.437,-0.05 2.505,-0.075 3.202,-0.075c3.669,0 6.696,0.497 9.079,1.49c0.496,0.198 1.141,0.098 1.935,-0.302l11.909,-7.001c0.198,-0.1 0.744,-0.299 1.639,-0.599c0.396,0 0.643,0.15 0.744,0.448c0.298,0.299 0.247,0.547 -0.151,0.745l-7.741,4.62l-5.359,3.131c-0.593,0.396 -0.742,0.893 -0.443,1.49c0.693,1.889 0.544,3.827 -0.447,5.813c-3.077,5.765 -7.792,9.441 -14.145,11.028c-0.892,0.202 -1.884,0.202 -2.976,0c-1.787,-0.198 -2.432,-1.19 -1.935,-2.98c0.198,-0.794 0.496,-1.391 0.895,-1.787c0.991,-1.392 1.834,-2.386 2.529,-2.98c2.978,-3.08 6.303,-5.863 9.973,-8.35l2.981,-2.084c-2.682,-0.896 -5.56,-1.344 -8.636,-1.344l-11.014,0.896c-1.194,0 -2.086,-0.099 -2.679,-0.297c-1.987,-0.596 -2.832,-1.741 -2.533,-3.432c0.005,-0.057 0.011,-0.114 0.017,-0.171c-3.348,4.75 -6.777,9.379 -10.288,13.886c-1.985,2.483 -3.97,4.52 -5.957,6.11c-0.791,0.695 -1.634,1.242 -2.529,1.641c-2.085,1.292 -4.02,0.844 -5.806,-1.344c-0.597,-0.694 -1.143,-1.737 -1.639,-3.131c-0.992,-2.98 -1.488,-6.209 -1.488,-9.689c-0.091,-3.593 -0.036,-7.133 0.164,-10.622c-1.569,1.016 -3.384,1.95 -5.447,2.8c-2.531,1.044 -5.161,1.766 -7.892,2.164c-2.729,0.396 -4.887,-0.002 -6.475,-1.198c-1.589,-0.992 -2.73,-1.788 -3.423,-2.386c-1.19,-0.792 -2.48,-0.891 -3.871,-0.297c-2.085,1.195 -3.97,2.635 -5.655,4.323l-2.232,1.938c-1.092,0.896 -1.839,0.648 -2.237,-0.745c-0.295,-0.992 -0.344,-2.383 -0.146,-4.172c0.049,-0.45 0.135,-0.95 0.26,-1.501c-2.058,2.246 -4.601,4.336 -7.631,6.272c-3.422,2.185 -6.176,3.227 -8.259,3.126c-2.484,-0.198 -4.021,-1.589 -4.615,-4.172c-0.039,-0.23 -0.07,-0.498 -0.094,-0.802c-4.409,6.155 -9.142,9.354 -14.2,9.595c-4.763,0 -8.384,-2.185 -10.863,-6.558c-0.101,-0.396 -0.275,-0.941 -0.523,-1.636c-0.248,-0.698 -0.471,-1.195 -0.669,-1.495c-0.599,-1.198 -1.018,-2.776 -1.257,-4.734Zm123.619,23.518c1.588,0 2.828,-0.199 3.72,-0.599c3.971,-1.292 7.295,-3.675 9.973,-7.152c0.793,-0.794 1.439,-1.888 1.935,-3.281l0.447,-1.49c0,-0.596 -0.049,-1.043 -0.146,-1.339c0,-1.094 -0.498,-1.341 -1.493,-0.745c-4.961,2.98 -9.474,6.605 -13.542,10.877c-0.399,0.4 -0.647,0.748 -0.744,1.047c-0.201,0.198 -0.4,0.495 -0.598,0.891c-0.299,0.497 -0.374,0.919 -0.226,1.268c0.151,0.349 0.374,0.523 0.673,0.523Zm-93.485,-26.232c2.084,-0.992 3.473,-1.987 4.167,-2.984c0.198,-0.097 0.198,-0.245 0,-0.443c0,-0.2 -0.15,-0.302 -0.447,-0.302c-0.593,-0.198 -1.138,-0.048 -1.634,0.448c-1.092,0.896 -1.788,1.99 -2.086,3.281Zm-26.942,-0.151c0.396,-0.198 1.089,-0.943 2.081,-2.235c0.793,-1.194 2.307,-3.331 4.539,-6.412c2.234,-3.08 3.947,-5.464 5.137,-7.152c5.656,-8.445 10.122,-16.046 13.397,-22.805c2.58,-5.066 4.219,-10.034 4.916,-14.903c0.396,-3.378 0.246,-6.012 -0.447,-7.902c-0.597,-1.688 -1.639,-2.805 -3.127,-3.352c-1.488,-0.547 -3.027,-0.323 -4.615,0.669c-0.695,0.497 -1.637,1.341 -2.83,2.532c-2.678,2.785 -5.06,6.214 -7.143,10.287c-3.275,6.459 -6.004,13.663 -8.189,21.612c-2.48,8.745 -3.869,17.836 -4.167,27.274c0,1.195 0.148,1.99 0.447,2.386Zm-26.498,3.281c1.092,-0.398 2.233,-0.945 3.423,-1.641c0.693,-0.496 1.09,-0.893 1.191,-1.193c0.1,-0.198 -0.024,-0.37 -0.372,-0.519c-0.348,-0.151 -0.771,-0.226 -1.267,-0.226c-0.795,0.198 -1.389,0.396 -1.785,0.594c-1.194,0.896 -1.987,1.841 -2.383,2.834c0.496,0.396 0.892,0.447 1.191,0.151Zm26.945,-44.417c0.1,0 0.151,0.051 0.151,0.151c0,0.098 -0.051,0.146 -0.151,0.146l-0.593,0.594c-2.185,1.195 -4.171,2.04 -5.957,2.536c-3.972,0.893 -8.636,1.339 -13.995,1.339c-7.541,0 -16.968,-0.099 -28.281,-0.297c-1.194,15.304 -1.888,25.439 -2.086,30.405c0,0.202 -0.299,6.065 -0.895,17.59c-0.396,7.353 -0.892,17.885 -1.488,31.598l0,4.172c0,0.796 -0.347,1.193 -1.041,1.193c-0.597,0 -0.994,-0.347 -1.191,-1.042c0,-0.2 -0.026,-0.449 -0.075,-0.745c-0.051,-0.298 -0.125,-0.547 -0.221,-0.745c-0.198,-4.372 -0.198,-7.652 0,-9.839c0,-0.694 0.048,-1.736 0.146,-3.126c0.1,-1.392 0.151,-2.437 0.151,-3.135l0.895,-20.565l0.89,-13.418c0.2,-4.966 0.896,-15.747 2.086,-32.343l-1.041,0c-12.406,0 -22.779,0.448 -31.116,1.344c-4.464,0.396 -7.788,0.942 -9.973,1.636c-2.383,0.896 -3.822,1.841 -4.318,2.834c0,0.101 -0.148,0.151 -0.443,0.151c-0.299,-0.298 -0.447,-0.547 -0.447,-0.745c-0.101,-0.596 0.147,-1.194 0.744,-1.792c0.693,-0.596 1.635,-1.094 2.825,-1.49c1.987,-0.794 4.617,-1.391 7.892,-1.787c9.229,-1.094 18.012,-1.641 26.35,-1.641c3.076,0 6.302,0.05 9.677,0.146c0.496,-5.563 0.891,-9.637 1.187,-12.22c0.1,-0.694 0.274,-1.662 0.523,-2.904c0.247,-1.245 0.421,-2.065 0.523,-2.461c0,-0.298 0.222,-0.547 0.669,-0.745c0.445,-0.198 0.866,-0.172 1.262,0.075c0.398,0.249 0.549,0.669 0.452,1.264c-0.299,1.292 -0.647,3.331 -1.045,6.115l-0.89,10.877c9.725,0.202 15.48,0.302 17.267,0.302c1.29,0 3.299,0.051 6.027,0.151c2.731,0.098 4.79,0.146 6.178,0.146c2.878,0 6.402,-0.347 10.571,-1.042c2.084,-0.496 4.417,-1.341 6.997,-2.536l1.337,-0.448c0.1,0 0.25,0.101 0.447,0.302Z" style="fill:#fff;"/><path d="M166.485,404.821l3.889,-10.57l1.347,0l3.875,10.57l-1.342,0l-0.965,-2.72l-4.497,0l-0.979,2.72l-1.328,0Zm2.684,-3.743l3.743,0l-1.874,-5.229l-1.869,5.229Zm16.359,3.923c-0.986,0 -1.851,-0.227 -2.595,-0.684c-0.744,-0.459 -1.322,-1.099 -1.733,-1.919c-0.412,-0.82 -0.617,-1.769 -0.617,-2.848c0,-1.077 0.207,-2.028 0.622,-2.852c0.417,-0.826 1.01,-1.471 1.78,-1.933c0.769,-0.464 1.678,-0.698 2.726,-0.698c1.187,0 2.173,0.288 2.962,0.863c0.788,0.575 1.297,1.366 1.53,2.371l-1.464,0c-0.139,-0.634 -0.473,-1.137 -1.003,-1.509c-0.527,-0.374 -1.203,-0.561 -2.025,-0.561c-0.776,0 -1.45,0.174 -2.025,0.523c-0.572,0.347 -1.016,0.842 -1.333,1.485c-0.318,0.645 -0.476,1.414 -0.476,2.31c0,0.896 0.155,1.667 0.466,2.31c0.313,0.645 0.746,1.141 1.3,1.49c0.552,0.347 1.196,0.519 1.931,0.519c1.123,0 1.973,-0.328 2.547,-0.985c0.574,-0.66 0.901,-1.565 0.979,-2.716l-3.047,0l0,-0.995l4.346,0l0,5.648l-1.163,0l-0.104,-1.735c-0.384,0.613 -0.851,1.087 -1.403,1.419c-0.553,0.33 -1.288,0.495 -2.204,0.495Zm23.035,-0.179l0,-10.57l1.267,0l5.627,8.472l0,-8.472l1.267,0l0,10.57l-1.267,0l-5.627,-8.472l0,8.472l-1.267,0Zm31.523,0l0,-4.017l-3.437,-6.553l1.431,0l2.642,5.346l2.637,-5.346l1.417,0l-3.423,6.553l0,4.017l-1.267,0Zm-12.678,0.179c-1.036,0 -1.929,-0.227 -2.679,-0.684c-0.748,-0.459 -1.327,-1.099 -1.738,-1.919c-0.412,-0.82 -0.617,-1.774 -0.617,-2.862c0,-1.077 0.205,-2.027 0.617,-2.848c0.411,-0.82 0.99,-1.462 1.738,-1.924c0.75,-0.464 1.643,-0.698 2.679,-0.698c1.208,0 2.191,0.291 2.948,0.872c0.759,0.579 1.245,1.386 1.46,2.423l-1.403,0c-0.164,-0.653 -0.494,-1.18 -0.994,-1.579c-0.497,-0.398 -1.167,-0.599 -2.011,-0.599c-0.753,0 -1.413,0.174 -1.978,0.523c-0.563,0.347 -0.997,0.844 -1.304,1.495c-0.305,0.651 -0.457,1.429 -0.457,2.334c0,0.905 0.152,1.683 0.457,2.334c0.307,0.648 0.742,1.146 1.304,1.495c0.565,0.347 1.224,0.519 1.978,0.519c0.844,0 1.514,-0.193 2.011,-0.58c0.499,-0.387 0.83,-0.902 0.994,-1.546l1.403,0c-0.214,1.016 -0.7,1.81 -1.46,2.386c-0.757,0.573 -1.74,0.858 -2.948,0.858Zm-31.178,-0.179l0,-10.57l6.531,0l0,1.042l-5.264,0l0,3.682l4.812,0l0,1.028l-4.812,0l0,3.776l5.264,0l0,1.042l-6.531,0Z" style="fill:#fff;"/><path d="M143.732,250.312l-143.732,0l0,-250.312l250,0l0,250.312l-92.63,0l0,-10.205l82.231,0l0,-229.625l-229.339,0l0,229.625l123.553,0l0,-155.842l-17.769,0l0,146.602l-9.985,0l0,-146.602l-58.127,0l0,-9.929l85.812,0l0,-18.826l-85.812,0l0,-9.792l153.787,0l0,9.792l-57.99,0l0,18.755l57.99,0l0,9.931l-57.99,0l0,166.115Z" style="fill:#1cabb0;"/></svg>