<?xml version="1.0" encoding="UTF-8" standalone="no"?><!DOCTYPE svg PUBLIC "-//W3C//DTD SVG 1.1//EN" "http://www.w3.org/Graphics/SVG/1.1/DTD/svg11.dtd"><svg width="100%" height="100%" viewBox="0 0 500 500" version="1.1" xmlns="http://www.w3.org/2000/svg" xmlns:xlink="http://www.w3.org/1999/xlink" xml:space="preserve" xmlns:serif="http://www.serif.com/" style="fill-rule:evenodd;clip-rule:evenodd;stroke-linejoin:round;stroke-miterlimit:2;"><path d="M345.954,194.621l154.044,0l0,15.754l-1.472,0c-81.904,0 -163.808,-0.016 -245.712,0.044c-4.074,0.002 -8.158,0.552 -12.216,1.03c-4.102,0.484 -8.214,1.024 -12.256,1.856c-5.074,1.044 -10.128,2.254 -15.114,3.672c-7.146,2.032 -14.058,4.74 -20.8,7.896c-6.572,3.076 -12.996,6.426 -18.984,10.55c-4.856,3.344 -9.668,6.766 -14.36,10.338c-2.55,1.94 -4.852,4.222 -7.19,6.432c-2.802,2.648 -5.682,5.242 -8.246,8.116c-3.75,4.202 -7.384,8.528 -10.814,13c-3.002,3.916 -5.74,8.05 -8.43,12.198c-1.806,2.784 -3.476,5.682 -4.934,8.666c-2.786,5.702 -5.574,11.418 -8,17.28c-2.734,6.606 -4.854,13.456 -6.422,20.45c-1.046,4.666 -2.052,9.35 -2.83,14.068c-0.57,3.462 -0.732,6.994 -1.092,10.492c-0.092,0.89 -0.238,1.774 -0.368,2.724l-100.762,0c0.152,-1.942 0.278,-3.86 0.462,-5.772c0.172,-1.788 0.39,-3.574 0.616,-5.356c0.336,-2.668 0.582,-5.354 1.068,-7.996c0.77,-4.186 1.54,-8.382 2.608,-12.496c1.836,-7.084 3.742,-14.166 6.654,-20.902c2.618,-6.06 5.156,-12.168 8.092,-18.07c2.378,-4.78 5.162,-9.37 8.012,-13.886c2.66,-4.214 5.55,-8.29 8.52,-12.288c2.164,-2.912 4.528,-5.688 6.968,-8.372c3.728,-4.1 7.452,-8.222 11.45,-12.046c3.758,-3.596 7.784,-6.922 11.848,-10.168c3.724,-2.974 7.538,-5.866 11.524,-8.466c4.77,-3.112 9.67,-6.054 14.688,-8.736c4.896,-2.618 9.948,-4.962 15.044,-7.164c6.476,-2.798 13.156,-5.064 19.994,-6.802c4.338,-1.102 8.678,-2.23 13.062,-3.11c3.596,-0.722 7.25,-1.184 10.896,-1.6c3.974,-0.454 7.966,-0.744 11.954,-1.064c1.75,-0.142 3.508,-0.26 5.264,-0.26c59.034,-0.014 118.07,-0.012 177.234,-0.012Z" style="fill:#fff;fill-rule:nonzero;"/><path d="M392.74,238.469c-27.116,0 -54.1,-0.036 -81.086,0.046c-3.338,0.01 -6.696,0.5 -10.002,1.038c-4.844,0.788 -9.716,1.57 -14.456,2.82c-5.068,1.336 -10.11,2.932 -14.956,4.928c-4.932,2.03 -9.738,4.46 -14.364,7.132c-4.536,2.62 -8.83,5.686 -13.12,8.714c-2.388,1.686 -4.634,3.6 -6.8,5.576c-2.72,2.48 -5.414,5.01 -7.89,7.732c-2.784,3.058 -5.448,6.25 -7.916,9.572c-2.866,3.862 -5.7,7.788 -8.112,11.946c-2.504,4.318 -4.632,8.878 -6.65,13.456c-1.742,3.95 -3.356,7.998 -4.562,12.14c-1.414,4.854 -2.436,9.836 -3.414,14.804c-0.642,3.26 -0.996,6.586 -1.312,9.898c-0.346,3.61 -0.5,7.236 -0.742,10.92l-76.382,0c0.23,-3.364 0.444,-6.672 0.688,-9.98c0.146,-1.972 0.28,-3.946 0.534,-5.906c0.374,-2.87 0.724,-5.754 1.31,-8.584c0.934,-4.504 1.936,-9.002 3.132,-13.44c0.95,-3.526 2.018,-7.05 3.414,-10.414c2.546,-6.134 5.192,-12.248 8.728,-17.892c2.998,-4.786 5.986,-9.588 9.232,-14.2c2.134,-3.034 4.644,-5.814 7.126,-8.578c2.606,-2.904 5.27,-5.774 8.114,-8.434c2.858,-2.674 5.858,-5.226 9.002,-7.548c4.6,-3.4 9.246,-6.78 14.13,-9.736c4.282,-2.592 8.838,-4.77 13.418,-6.8c4.53,-2.01 9.158,-3.878 13.89,-5.312c5.236,-1.586 10.608,-2.764 15.978,-3.826c3.974,-0.786 8.032,-1.184 12.068,-1.598c3.062,-0.314 6.15,-0.528 9.226,-0.53c82.472,-0.028 164.944,-0.022 247.416,-0.022l1.618,0l0,12.078l-107.262,0l0.002,0Z" style="fill:#fff;fill-rule:nonzero;"/><path d="M202.305,169.593c-2.644,-5.378 -5.228,-10.676 -8.016,-16.39c-0.772,1.21 -1.402,2.062 -1.89,2.99c-1.412,2.678 -2.762,5.388 -4.148,8.08c-1.656,3.214 -3.288,6.442 -5,9.626c-1.298,2.41 -2.684,4.772 -4.092,7.118c-0.21,0.348 -0.742,0.7 -1.132,0.708c-5.998,0.13 -12,0.164 -17.998,0.33c-1.122,0.03 -1.736,-0.398 -2.224,-1.262c-2.052,-3.624 -4.168,-7.216 -6.13,-10.888c-2.278,-4.262 -4.392,-8.61 -6.63,-12.894c-1.654,-3.166 -3.394,-6.286 -5.088,-9.432c-1.018,-1.89 -2.024,-3.786 -3.024,-5.684c-0.112,-0.212 -0.144,-0.466 -0.234,-0.778c0.38,-0.024 0.67,-0.056 0.96,-0.056c4.808,-0.004 9.616,0.002 14.424,-0.008c0.676,-0.002 1.01,0.11 1.394,0.886c2.156,4.376 4.454,8.682 6.756,12.986c1.608,3.008 3.298,5.97 4.954,8.952c1.226,2.208 2.478,4.402 3.674,6.628c0.372,0.69 0.592,0.748 0.98,0.034c1.868,-3.442 3.788,-6.856 5.624,-10.314c2.032,-3.828 4.02,-7.682 5.976,-11.55c1.098,-2.172 2.088,-4.398 3.142,-6.592c0.324,-0.676 0.758,-1.06 1.636,-1.05c4.678,0.058 9.356,0.014 14.034,0.038c0.8,0.004 1.61,0.118 2.394,0.282c0.244,0.052 0.482,0.408 0.618,0.678c1.942,3.836 3.772,7.734 5.814,11.514c3.016,5.59 6.182,11.096 9.278,16.642c0.43,0.77 0.798,0.756 1.202,-0.018c2.122,-4.064 4.224,-8.138 6.39,-12.176c1.432,-2.672 2.998,-5.27 4.43,-7.94c1.588,-2.966 3.092,-5.978 4.576,-8.86l16.382,0c-3.478,6.84 -6.862,13.754 -10.48,20.54c-3.626,6.798 -7.486,13.468 -11.226,20.166l-21.166,0c-2.012,-4.038 -4.05,-8.128 -6.148,-12.3l-0.012,-0.006Z" style="fill:#fff;fill-rule:nonzero;"/><path d="M330.104,182.279l-71.036,0c0.138,-13.674 0.276,-27.288 0.418,-41.222l8.814,0c5.416,0 10.832,-0.026 16.246,0.012c2.318,0.016 4.636,0.208 6.954,0.232c1.234,0.014 2.47,-0.232 3.704,-0.226c1.538,0.008 3.078,0.242 4.614,0.228c6.304,-0.052 12.606,-0.172 18.91,-0.242c2.724,-0.03 5.448,0.012 8.17,-0.014c0.988,-0.008 1.366,0.316 0.994,1.332c-0.128,0.352 -0.122,0.766 -0.124,1.152c-0.01,2.36 -0.006,4.718 -0.006,7.24c-0.498,0 -0.956,-0.022 -1.412,0.004c-3.076,0.168 -6.152,0.386 -9.23,0.5c-1.144,0.042 -2.296,-0.236 -3.444,-0.228c-8.902,0.064 -17.804,0.198 -26.706,0.232c-3.876,0.014 -7.754,-0.158 -11.632,-0.244c-0.424,-0.01 -0.848,-0.002 -1.37,-0.002c0.116,1.85 0.226,3.602 0.338,5.408l47.662,0c-0.146,2.308 -0.28,4.444 -0.416,6.582c-0.008,0.13 -0.016,0.26 -0.028,0.388c-0.214,2.326 -0.214,2.306 -2.518,2.33c-7.854,0.078 -15.708,0.158 -23.562,0.268c-1.886,0.026 -3.77,0.248 -5.654,0.236c-3.098,-0.02 -6.196,-0.222 -9.294,-0.222c-2.136,0 -4.27,0.214 -6.47,0.334l0,5.42l1.274,0c5.804,0 11.608,-0.034 17.412,0.01c6.26,0.046 12.52,0.22 18.78,0.234c4.396,0.01 8.794,-0.142 13.192,-0.252c1.496,-0.038 2.99,-0.214 4.486,-0.216c0.31,0 0.886,0.476 0.892,0.742c0.062,3.204 0.04,6.41 0.04,9.986l0.002,-0.002Z" style="fill:#fff;fill-rule:nonzero;"/><path d="M429.13,178.781c-0.004,-2.576 -0.036,-5.026 0.002,-7.476c0.062,-4.048 0.21,-8.096 0.242,-12.146c0.044,-5.514 0.01,-11.03 0.01,-16.544l0,-1.032l29.908,0c8.532,0 17.066,-0.084 25.596,0.036c4.296,0.06 8.282,1.308 11.188,4.76c1.816,2.158 3.66,4.46 3.69,7.46c0.028,2.732 -0.662,5.366 -2.346,7.626c-1.532,2.056 -3.274,3.866 -5.652,4.916c-0.902,0.398 -1.84,0.712 -2.718,1.046c3.302,4.872 6.63,9.782 10.104,14.908l-16.908,0c-2.218,-3.08 -4.348,-6.014 -6.45,-8.97c-0.954,-1.34 -1.822,-2.746 -2.8,-4.068c-0.244,-0.33 -0.758,-0.638 -1.152,-0.642c-4.374,-0.046 -8.75,-0.028 -13.124,-0.028l-14.39,0l0,13.356c-4.848,0.874 -9.836,-0.19 -14.802,0.05c-0.138,-1.102 -0.266,-2.114 -0.398,-3.25m42.214,-19.868c1.71,-0.088 3.418,-0.202 5.13,-0.256c2.25,-0.07 4.412,-0.376 6.376,-1.634c1.566,-1.002 2.028,-3.026 0.144,-4.086c-1.052,-0.592 -2.326,-0.99 -3.526,-1.068c-3.302,-0.216 -6.618,-0.246 -9.93,-0.302c-6.21,-0.106 -12.42,-0.206 -18.63,-0.252c-1.882,-0.014 -3.766,0.234 -5.648,0.218c-1.05,-0.01 -1.362,0.432 -1.322,1.36c0.092,2.064 0.186,4.13 0.272,6.022l27.13,0l0.004,-0.002Z" style="fill:#fff;fill-rule:nonzero;"/><path d="M33.269,169.051c-1.914,0.262 -3.708,0.538 -5.506,0.784c-2.856,0.39 -5.868,0.052 -8.428,1.818c-0.794,0.548 -1.542,1.16 -2.31,1.744c0.072,0.128 0.142,0.254 0.214,0.382l49.456,0l0,9.934c-0.894,0.098 -1.84,0.276 -2.79,0.292c-2.598,0.042 -5.198,0.046 -7.796,0.006c-3.66,-0.056 -7.32,-0.228 -10.982,-0.242c-9.184,-0.036 -18.366,-0.012 -27.55,-0.012l-15.796,0c-0,-3.354 -0.102,-6.928 0.058,-10.49c0.054,-1.194 0.666,-2.412 1.212,-3.522c1.358,-2.766 3.802,-4.36 6.528,-5.37c3.278,-1.214 6.632,-2.286 10.026,-3.098c2.66,-0.636 5.434,-0.776 8.156,-1.154c3.012,-0.418 6.016,-0.89 9.032,-1.268c1.482,-0.186 3.002,-0.096 4.474,-0.328c3.484,-0.546 6.96,-1.16 10.416,-1.868c0.576,-0.118 1.386,-0.794 1.444,-1.288c0.054,-0.462 -0.698,-1.086 -1.192,-1.524c-0.324,-0.288 -0.828,-0.368 -1.246,-0.552c-2.12,-0.94 -4.358,-1.232 -6.646,-1.314c-4.29,-0.156 -8.576,-0.382 -12.866,-0.51c-5.13,-0.152 -10.09,0.784 -14.824,2.768c-1.368,0.574 -2.658,1.418 -3.846,2.324c-0.89,0.678 -1.606,0.84 -2.68,0.444c-3.166,-1.168 -6.384,-2.192 -9.824,-3.356c0.664,-0.952 1.154,-1.962 1.914,-2.678c1.58,-1.49 3.166,-3.058 5.004,-4.164c2.058,-1.238 4.352,-2.126 6.626,-2.928c1.606,-0.566 3.348,-0.738 5.03,-1.082c1.928,-0.394 3.856,-0.782 5.782,-1.174c0.206,-0.042 0.41,-0.128 0.618,-0.134c4.224,-0.094 8.466,-0.472 12.666,-0.198c6.014,0.392 12.036,0.798 17.928,2.458c2.71,0.764 5.282,1.626 7.516,3.276c2.606,1.924 4.574,4.512 4.628,7.85c0.058,3.696 -1.534,6.642 -4.998,8.478c-3.488,1.848 -7.128,2.828 -11.036,3.11c-2.306,0.166 -4.584,0.69 -6.878,1.032c-1.294,0.192 -2.598,0.314 -3.892,0.512c-2.164,0.33 -4.322,0.702 -6.486,1.038c-0.338,0.052 -0.692,0.01 -1.156,0.012l-0,-0.008Z" style="fill:#fff;fill-rule:nonzero;"/><path d="M338.096,179.587c3.35,-3.82 6.632,-7.576 9.918,-11.326c2.774,-3.164 5.584,-6.296 8.322,-9.49c1.408,-1.644 2.66,-3.426 4.046,-5.092c1.734,-2.084 3.554,-4.094 5.298,-6.168c1.426,-1.696 2.828,-3.414 4.178,-5.172c0.64,-0.834 1.262,-1.38 2.426,-1.32c1.356,0.07 2.728,-0.224 4.09,-0.21c4.224,0.044 8.446,0.18 12.668,0.236c1.52,0.02 1.8,1.454 2.562,2.256c1.754,1.85 3.276,3.924 4.906,5.896c2.666,3.226 5.356,6.43 8.008,9.666c3.216,3.922 6.394,7.878 9.608,11.804c3.028,3.7 6.08,7.378 9.116,11.07c0.04,0.048 0.016,0.148 0.026,0.28c-5.624,0 -11.242,0.044 -16.858,-0.06c-0.642,-0.012 -1.4,-0.756 -1.878,-1.346c-1.33,-1.644 -2.726,-3.28 -3.75,-5.118c-1.152,-2.068 -2.856,-1.624 -4.566,-1.534c-0.29,0.016 -0.576,0.172 -0.864,0.172c-4.418,0.012 -8.834,0.042 -13.252,-0.002c-3.618,-0.036 -7.234,-0.232 -10.85,-0.232c-3.486,-0.002 -6.974,0.138 -10.46,0.27c-0.37,0.014 -0.814,0.31 -1.076,0.608c-1.958,2.214 -3.868,4.472 -5.828,6.684c-0.25,0.282 -0.7,0.516 -1.07,0.536c-2.446,0.132 -4.894,0.288 -7.34,0.262c-3.03,-0.032 -6.058,-0.236 -9.298,-0.374c0.678,-0.818 1.264,-1.522 1.916,-2.296m31.42,-16.212l21.024,0c-0.19,-0.426 -0.252,-0.72 -0.422,-0.926c-1.528,-1.844 -3.082,-3.666 -4.618,-5.504c-1.67,-1.998 -3.322,-4.01 -5.014,-5.988c-0.086,-0.1 -0.596,-0.018 -0.728,0.136c-2.728,3.184 -5.436,6.386 -8.132,9.598c-0.694,0.826 -1.336,1.696 -2.11,2.684Z" style="fill:#fff;fill-rule:nonzero;"/><path d="M79.671,144.083c0.416,-0.784 0.734,-1.512 1.146,-2.174c0.152,-0.246 0.526,-0.476 0.8,-0.478c5.836,-0.028 11.672,-0.02 17.51,-0.02c0.126,2.498 0.26,4.892 0.364,7.29c0.104,2.408 0.258,4.82 0.246,7.228c-0.022,4.154 -0.228,8.308 -0.222,12.46c0.004,4.75 0.154,9.5 0.24,14.25c0.008,0.446 0.002,0.894 0.002,1.396l-14.736,0l0,-31.288l-9.498,0c1.414,-2.966 2.752,-5.774 4.152,-8.666l-0.004,0.002Z" style="fill:#fff;fill-rule:nonzero;"/></svg>