<?xml version="1.0" encoding="UTF-8" standalone="no"?><!DOCTYPE svg PUBLIC "-//W3C//DTD SVG 1.1//EN" "http://www.w3.org/Graphics/SVG/1.1/DTD/svg11.dtd"><svg width="100%" height="100%" viewBox="0 0 250 35" version="1.1" xmlns="http://www.w3.org/2000/svg" xmlns:xlink="http://www.w3.org/1999/xlink" xml:space="preserve" xmlns:serif="http://www.serif.com/" style="fill-rule:evenodd;clip-rule:evenodd;stroke-linejoin:round;stroke-miterlimit:2;"><rect id="Plan-de-travail1" serif:id="Plan de travail1" x="0" y="0" width="250" height="35" style="fill:none;"/><clipPath id="_clip1"><rect x="0" y="0" width="250" height="35"/></clipPath><g clip-path="url(#_clip1)"><g><path d="M216.047,21.825c-5.208,0.003 -10.329,0.003 -15.451,0.01c-1.528,0.002 -1.942,0.423 -1.936,1.92c0.003,0.819 0.001,1.638 0.001,2.545l35.278,0l0,8.642l-44.19,0c0,-0.524 -0,-1.001 0,-1.479c0,-3.702 -0.004,-7.403 0.002,-11.105c0.009,-5.157 3.998,-9.164 9.173,-9.175c8.04,-0.017 16.08,-0.003 24.121,-0.006c1.596,-0 2.031,-0.447 2.012,-2.036c-0.003,-0.285 -0.003,-0.57 -0.018,-0.854c-0.052,-1.053 -0.554,-1.55 -1.625,-1.555c-2.203,-0.011 -4.406,0 -6.61,0.001c-5.351,0.002 -10.701,0.002 -16.052,0.004c-1.708,0.001 -2.075,0.355 -2.103,2.031c-0.006,0.367 -0.001,0.734 -0.001,1.167l-8.775,0c-1.033,-6.4 1.887,-11.799 8.946,-11.882c8.812,-0.103 17.625,-0.029 26.438,-0.024c4.838,0.003 8.649,3.701 8.687,8.492c0.017,2.129 0.129,4.301 -0.236,6.379c-0.73,4.156 -4.302,6.916 -8.562,6.932c-3.004,0.012 -6.009,-0.005 -9.099,-0.009Z" style="fill:#fff;fill-rule:nonzero;"/><path d="M0.014,33.49c0.001,-2.049 0.022,-4.014 -0.013,-5.978c-0.01,-0.527 0.166,-0.82 0.611,-1.08c6.43,-3.764 12.851,-7.543 19.274,-11.318c3.514,-2.065 7.028,-4.131 10.52,-6.342l-30.337,0l0,-8.674l47.892,0c0,1.721 0.005,3.421 -0.002,5.121c-0.004,0.994 0.308,2.186 -0.134,2.927c-0.463,0.774 -1.655,1.122 -2.536,1.643c-9.138,5.405 -18.277,10.807 -27.416,16.211c-0.087,0.051 -0.163,0.121 -0.359,0.27l21.381,0l0,-6.516l9.027,0l0,15.19l-47.907,0c0,-0.48 0,-0.925 0.001,-1.453Z" style="fill:#fff;fill-rule:nonzero;"/><path d="M88.506,0.808c3.475,1.686 5.085,4.448 5.087,8.186c0.002,5.723 0.01,11.447 -0.007,17.17c-0.015,5.166 -3.687,8.805 -8.89,8.812c-8.326,0.011 -16.653,0.015 -24.979,0.003c-5.045,-0.008 -8.73,-3.692 -8.73,-8.689c-0,-5.809 -0.002,-11.618 0.008,-17.426c0.009,-5.137 3.731,-8.826 8.889,-8.827c8.24,-0.001 16.481,-0.034 24.721,0.03c1.283,0.01 2.562,0.463 3.901,0.742m-23.484,7.928c-1.115,-0.001 -2.23,-0.009 -3.345,0c-1.316,0.011 -1.77,0.449 -1.772,1.73c-0.007,4.695 -0.008,9.39 -0.004,14.085c0.001,1.348 0.428,1.758 1.813,1.758c7.034,0.002 14.067,0.002 21.101,-0.001c1.433,-0.001 1.83,-0.399 1.831,-1.833c0.004,-4.581 0.003,-9.162 0.001,-13.743c-0.001,-1.617 -0.387,-1.998 -2.041,-1.998c-5.804,-0.002 -11.608,0.001 -17.584,0.002Z" style="fill:#fff;fill-rule:nonzero;"/><path d="M136.437,34.554c-0.193,0.145 -0.385,0.415 -0.58,0.418c-2.746,0.032 -5.493,0.04 -8.239,0.011c-0.292,-0.003 -0.647,-0.211 -0.861,-0.431c-3.288,-3.369 -6.569,-6.745 -9.829,-10.14c-3.537,-3.684 -7.05,-7.39 -10.574,-11.087c-0.072,-0.076 -0.151,-0.145 -0.339,-0.323l0,21.933l-8.944,0l0,-34.838c0.271,-0.014 0.545,-0.04 0.819,-0.041c2.489,-0.003 4.978,-0.021 7.467,0.018c0.375,0.006 0.848,0.188 1.103,0.454c6.222,6.485 12.417,12.996 18.629,19.491c0.66,0.69 1.392,1.313 2.142,2.016l0,-21.971c3.027,0 5.989,0 9.049,0.073c0.123,1.837 0.149,3.602 0.157,5.439c-0.007,0.42 0.005,0.768 -0.006,1.193c-0.01,0.826 0.004,1.574 -0,2.394c-0.006,0.363 0.007,0.655 -0.004,1.023c-0.007,0.654 0.008,1.233 0.005,1.889c-0.006,0.821 0.007,1.564 -0.004,2.385c-0.008,0.997 0.008,1.916 0.005,2.912c-0.004,0.707 0.01,1.336 0.001,2.043c-0.01,1.225 0.004,2.372 -0,3.595c-0.008,0.65 0.003,1.223 -0.01,1.872c-0.008,0.711 0.007,1.347 0.005,2.037c-0.006,0.13 0.006,0.205 -0.004,0.351c-0.007,0.368 0.009,0.665 0.006,1.036c-0.007,0.535 0.004,0.996 -0.007,1.531c-0.007,0.597 0.008,1.119 0.006,1.716c-0.005,0.535 0.008,0.995 -0.003,1.53c-0.012,0.54 -0,1.005 0.011,1.471Z" style="fill:#fff;fill-rule:nonzero;"/><path d="M179.952,0.579c-0,2.748 -0,5.416 -0,8.123l-40.384,0l0,-8.673c0.649,0 1.243,-0 1.838,0c12.562,0.001 25.124,0 37.686,0.014c0.327,0 0.881,-0.26 0.86,0.537Z" style="fill:#fff;fill-rule:nonzero;"/><path d="M161.441,34.983c-7.317,0 -14.548,0 -21.851,0l0,-8.623l40.293,0l0,8.623c-6.135,0 -12.246,0 -18.443,0Z" style="fill:#fff;fill-rule:nonzero;"/><path d="M143.926,21.821c-1.482,-0 -2.878,-0 -4.336,-0l0,-8.595l40.297,0l0,8.595c-11.941,0 -23.908,0 -35.961,-0Z" style="fill:#fff;fill-rule:nonzero;"/><path d="M241.143,12.825c0,-0.99 0,-1.895 0,-2.881l-4.856,0c0,-2.007 -0.013,-3.934 0.019,-5.859c0.003,-0.196 0.245,-0.426 0.429,-0.575c1.334,-1.075 2.677,-2.138 4.031,-3.188c0.188,-0.146 0.449,-0.28 0.677,-0.282c2.83,-0.019 5.659,-0.012 8.556,-0.012l0,34.889l-8.857,0c0,-7.377 0,-14.692 0,-22.092Z" style="fill:#fff;fill-rule:nonzero;"/></g></g></svg>