<?xml version="1.0" encoding="UTF-8" standalone="no"?><!DOCTYPE svg PUBLIC "-//W3C//DTD SVG 1.1//EN" "http://www.w3.org/Graphics/SVG/1.1/DTD/svg11.dtd"><svg width="100%" height="100%" viewBox="0 0 500 500" version="1.1" xmlns="http://www.w3.org/2000/svg" xmlns:xlink="http://www.w3.org/1999/xlink" xml:space="preserve" xmlns:serif="http://www.serif.com/" style="fill-rule:evenodd;clip-rule:evenodd;stroke-linejoin:round;stroke-miterlimit:2;"><path d="M213.427,433.905c-5.954,2.948 -10.338,4.774 -13.153,5.478c-2.695,0.738 -4.225,-0.304 -4.593,-3.126c-0.125,-1.474 -0.002,-3.131 0.367,-4.97c0.244,-1.351 0.305,-2.207 0.186,-2.573c-0.248,0 -0.494,0.063 -0.738,0.186c-0.244,0.121 -0.428,0.243 -0.552,0.367l-0.459,0.459c-0.183,0.184 -0.336,0.335 -0.459,0.454c-2.819,2.457 -5.391,4.236 -7.72,5.337c-0.858,0.494 -1.714,0.923 -2.569,1.293c-1.225,0.365 -2.174,0.242 -2.848,-0.373c-0.674,-0.612 -0.889,-1.532 -0.646,-2.759c0,-0.244 0.122,-0.735 0.367,-1.473c0.736,-1.714 1.838,-3.126 3.307,-4.232c2.573,-1.84 5.146,-1.84 7.72,0l0.186,0.186l0.18,0c0.86,0.614 1.596,0.614 2.209,0l3.488,-3.499c0.616,-0.489 1.106,-0.548 1.47,-0.18c0.368,0.365 0.43,0.669 0.186,0.914c-0.125,0.983 -0.43,2.454 -0.919,4.417c-0.614,2.332 -0.859,4.48 -0.738,6.443c0.123,0.983 0.738,1.411 1.843,1.286c1.759,-0.235 6.326,-2.099 13.701,-5.595c-0.343,-5.037 0.111,-11.759 1.363,-20.167c1.96,-13.86 5.821,-27.354 11.58,-40.481c2.328,-5.273 4.839,-9.751 7.535,-13.433c1.223,-1.714 3.001,-3.675 5.331,-5.885c1.468,-1.23 3.123,-2.336 4.964,-3.317c2.326,-0.978 4.59,-0.975 6.796,0.006c2.205,0.978 3.738,2.633 4.599,4.965c0.732,1.964 1.099,4.479 1.099,7.543c-0.121,4.539 -1.099,9.325 -2.936,14.353c-1.962,5.273 -5.331,12.081 -10.11,20.425c-6.004,10.427 -13.539,21.528 -22.607,33.305c-0.369,0.249 -0.796,0.742 -1.285,1.479c-0.489,0.733 -0.858,1.222 -1.105,1.467c-0.981,1.106 -1.288,2.332 -0.919,3.679c1.223,3.927 2.083,6.32 2.575,7.177c2.693,4.665 6.735,6.814 12.127,6.443c4.628,-0.551 9.656,-4.675 15.078,-12.373c0.079,-3.553 0.874,-6.667 2.383,-9.344c0.979,-1.469 1.777,-2.451 2.389,-2.939c0.979,-0.736 2.083,-1.106 3.307,-1.106c1.348,0 2.267,0.491 2.756,1.473c0.736,1.102 0.614,2.269 -0.367,3.499c-2.167,2.288 -4.215,3.69 -6.146,4.205c-0.312,0.631 -0.468,0.947 -0.468,0.947c-0.702,1.247 -1.412,2.428 -2.128,3.544c-0.02,1.416 0.199,2.626 0.656,3.632c0.736,1.84 1.901,2.881 3.494,3.126c4.53,0.494 10.656,-3.126 18.375,-10.856l1.657,-1.659c0.159,0 0.295,0.012 0.409,0.036c0.227,-0.389 0.52,-0.583 0.878,-0.583c0.489,0.121 0.732,0.61 0.732,1.467c-0.244,0.983 -0.367,1.842 -0.367,2.579c-0.244,1.964 -0.244,3.437 0,4.417c1.593,-1.595 2.695,-2.76 3.307,-3.499c2.205,-2.207 4.226,-3.802 6.063,-4.784c2.698,-1.714 5.331,-1.591 7.9,0.367c1.105,0.862 2.515,2.028 4.232,3.499c0.977,1.227 2.843,1.627 5.599,1.199c2.758,-0.431 5.21,-0.984 7.354,-1.659c2.147,-0.675 4.199,-1.441 6.157,-2.299c0.368,-0.244 0.949,-0.52 1.744,-0.826c0.665,-0.254 1.18,-0.447 1.547,-0.577c0.314,-4.32 0.809,-8.575 1.486,-12.764c1.105,-7.73 2.82,-16.316 5.144,-25.762c-9.677,0 -19.843,0.552 -30.502,1.653c-5.514,0.494 -9.621,1.168 -12.318,2.026c-2.937,1.102 -4.711,2.269 -5.325,3.499c0,0.121 -0.183,0.18 -0.552,0.18c-0.368,-0.368 -0.552,-0.675 -0.552,-0.92c-0.123,-0.736 0.183,-1.473 0.919,-2.206c0.858,-0.736 2.021,-1.351 3.494,-1.84c2.451,-0.98 5.695,-1.719 9.737,-2.212c11.394,-1.351 22.238,-2.026 32.531,-2.026l2.942,0c0,-0.364 0.09,-0.915 0.273,-1.653c0.186,-0.736 0.338,-1.351 0.459,-1.84c2.205,-8.218 5.636,-17.665 10.295,-28.341c0.244,-0.368 0.548,-0.98 0.912,-1.84c0.368,-0.857 0.675,-1.532 0.925,-2.026l0.919,-1.653c0.732,-1.225 1.526,-1.654 2.384,-1.286c0.86,0.365 1.106,1.222 0.738,2.573c-0.121,0.858 -0.427,2.025 -0.919,3.499c-0.489,1.351 -1.195,3.252 -2.116,5.704c-0.919,2.453 -1.56,4.107 -1.925,4.965c-2.698,6.994 -4.842,13.251 -6.436,18.772l-0.919,3.312c13.231,0.244 22.91,0.367 29.037,0.367c1.593,0 4.073,0.063 7.441,0.186c3.372,0.125 5.914,0.186 7.627,0.186c3.553,0 7.904,-0.431 13.051,-1.293c2.573,-0.612 5.453,-1.654 8.638,-3.126l1.651,-0.553c0.123,0 0.309,0.122 0.552,0.367c0.123,0 0.186,0.063 0.186,0.186c0,0.121 -0.063,0.18 -0.186,0.18l-0.732,0.74c-2.698,1.472 -5.149,2.514 -7.354,3.126c-4.899,1.106 -10.659,1.659 -17.278,1.659c-1.59,0 -7.93,-0.059 -19.021,-0.18c-11.089,-0.123 -17.979,-0.186 -20.672,-0.186l-3.307,0c-1.962,7.606 -3.004,11.715 -3.127,12.328c-2.938,12.267 -4.775,25.697 -5.511,40.296c-0.244,3.683 0,7.119 0.732,10.309c0.491,2.209 0.983,3.741 1.47,4.599c1.105,2.698 3.065,3.432 5.883,2.206c0.489,-0.244 1.222,-0.735 2.204,-1.473c3.065,-2.084 5.822,-4.781 8.273,-8.096c2.942,-3.923 7.228,-9.933 12.865,-18.032c0.23,-0.288 0.447,-0.554 0.653,-0.8c0.92,-2.305 2.539,-4.246 4.859,-5.823c0.612,-0.489 1.47,-0.611 2.575,-0.367c0.612,0.244 1.072,0.704 1.378,1.379c0.305,0.675 0.212,1.32 -0.279,1.932c-0.121,0.125 -0.243,0.278 -0.367,0.459c-0.121,0.184 -0.273,0.336 -0.459,0.459c-0.183,0.125 -0.336,0.247 -0.459,0.367c-0.614,0.738 -1.41,1.964 -2.389,3.679c-0.737,1.72 -0.247,2.641 1.47,2.764c1.105,0.244 2.758,0.489 4.964,0.733c0.979,0 2.357,-0.03 4.133,-0.088c1.774,-0.062 3.093,-0.093 3.953,-0.093c4.53,0 8.267,0.614 11.209,1.84c0.612,0.244 1.409,0.121 2.389,-0.373l14.702,-8.643c0.244,-0.123 0.919,-0.369 2.023,-0.74c0.489,0 0.794,0.185 0.919,0.553c0.368,0.369 0.305,0.675 -0.186,0.92l-9.557,5.704l-6.616,3.865c-0.732,0.489 -0.916,1.102 -0.547,1.84c0.856,2.332 0.672,4.725 -0.552,7.177c-3.799,7.117 -9.62,11.656 -17.463,13.615c-1.101,0.249 -2.326,0.249 -3.674,0c-2.206,-0.244 -3.002,-1.469 -2.389,-3.679c0.244,-0.98 0.612,-1.717 1.105,-2.206c1.223,-1.719 2.264,-2.946 3.122,-3.679c3.677,-3.802 7.781,-7.238 12.312,-10.309l3.68,-2.573c-3.311,-1.106 -6.864,-1.659 -10.662,-1.659l-13.597,1.106c-1.474,0 -2.575,-0.122 -3.307,-0.367c-2.453,-0.736 -3.496,-2.149 -3.127,-4.237c0.006,-0.07 0.014,-0.141 0.021,-0.211c-4.133,5.864 -8.367,11.579 -12.701,17.143c-2.451,3.065 -4.901,5.58 -7.354,7.543c-0.977,0.858 -2.017,1.533 -3.122,2.026c-2.574,1.595 -4.963,1.042 -7.168,-1.659c-0.737,-0.857 -1.411,-2.144 -2.023,-3.865c-1.225,-3.679 -1.837,-7.665 -1.837,-11.962c-0.112,-4.436 -0.044,-8.806 0.202,-13.114c-1.937,1.254 -4.178,2.407 -6.725,3.457c-3.125,1.289 -6.372,2.18 -9.743,2.672c-3.369,0.489 -6.033,-0.002 -7.994,-1.479c-1.962,-1.225 -3.37,-2.207 -4.226,-2.946c-1.469,-0.978 -3.062,-1.1 -4.779,-0.367c-2.574,1.475 -4.901,3.253 -6.981,5.337l-2.756,2.393c-1.348,1.106 -2.27,0.8 -2.762,-0.92c-0.364,-1.225 -0.425,-2.942 -0.18,-5.151c0.06,-0.556 0.167,-1.173 0.321,-1.853c-2.541,2.773 -5.68,5.353 -9.421,7.743c-4.225,2.698 -7.625,3.984 -10.196,3.859c-3.067,-0.244 -4.964,-1.962 -5.698,-5.151c-0.048,-0.284 -0.086,-0.615 -0.116,-0.99c-5.443,7.599 -11.286,11.548 -17.531,11.846c-5.88,0 -10.351,-2.698 -13.411,-8.096c-0.125,-0.489 -0.34,-1.162 -0.646,-2.02c-0.306,-0.862 -0.581,-1.475 -0.826,-1.846c-0.74,-1.479 -1.257,-3.427 -1.552,-5.844l0.005,0.002Zm152.616,29.034c1.96,0 3.491,-0.246 4.593,-0.74c4.902,-1.595 9.006,-4.537 12.312,-8.83c0.979,-0.98 1.777,-2.331 2.389,-4.051l0.552,-1.84c0,-0.736 -0.06,-1.288 -0.18,-1.653c0,-1.351 -0.615,-1.656 -1.843,-0.92c-6.125,3.679 -11.696,8.154 -16.718,13.428c-0.493,0.494 -0.799,0.923 -0.919,1.293c-0.248,0.244 -0.494,0.611 -0.738,1.1c-0.369,0.614 -0.462,1.135 -0.279,1.565c0.186,0.431 0.462,0.646 0.831,0.646l0.001,-0Zm-115.413,-32.385c2.573,-1.225 4.288,-2.453 5.144,-3.684c0.244,-0.12 0.244,-0.302 0,-0.547c0,-0.247 -0.185,-0.373 -0.552,-0.373c-0.732,-0.244 -1.405,-0.059 -2.017,0.553c-1.348,1.106 -2.207,2.457 -2.575,4.051Zm-33.262,-0.186c0.489,-0.244 1.344,-1.164 2.569,-2.759c0.979,-1.474 2.848,-4.112 5.604,-7.916c2.758,-3.802 4.873,-6.746 6.342,-8.83c6.983,-10.426 12.496,-19.81 16.539,-28.154c3.185,-6.254 5.209,-12.388 6.069,-18.399c0.489,-4.17 0.304,-7.422 -0.552,-9.756c-0.737,-2.084 -2.023,-3.463 -3.86,-4.138c-1.837,-0.675 -3.737,-0.399 -5.698,0.826c-0.858,0.614 -2.021,1.656 -3.494,3.126c-3.306,3.438 -6.247,7.672 -8.818,12.7c-4.043,7.974 -7.412,16.868 -10.11,26.681c-3.062,10.796 -4.777,22.02 -5.144,33.672c0,1.475 0.183,2.457 0.552,2.946l0.001,0.001Zm-32.713,4.051c1.348,-0.491 2.757,-1.167 4.226,-2.026c0.856,-0.612 1.346,-1.102 1.47,-1.473c0.123,-0.244 -0.03,-0.457 -0.459,-0.641c-0.43,-0.186 -0.952,-0.279 -1.564,-0.279c-0.981,0.244 -1.715,0.489 -2.204,0.733c-1.474,1.106 -2.453,2.273 -2.942,3.499c0.612,0.489 1.101,0.552 1.47,0.186l0.002,0Zm33.265,-54.836c0.123,0 0.186,0.063 0.186,0.186c0,0.121 -0.063,0.18 -0.186,0.18l-0.732,0.733c-2.698,1.475 -5.149,2.519 -7.354,3.131c-4.904,1.102 -10.662,1.653 -17.278,1.653c-9.31,0 -20.948,-0.122 -34.915,-0.367c-1.474,18.894 -2.331,31.406 -2.575,37.537c0,0.249 -0.369,7.488 -1.105,21.716c-0.489,9.078 -1.101,22.08 -1.837,39.01l0,5.151c0,0.983 -0.428,1.473 -1.285,1.473c-0.737,0 -1.227,-0.428 -1.47,-1.286c0,-0.247 -0.032,-0.554 -0.093,-0.92c-0.063,-0.368 -0.154,-0.675 -0.273,-0.92c-0.244,-5.398 -0.244,-9.447 0,-12.147c0,-0.857 0.059,-2.143 0.18,-3.859c0.123,-1.719 0.186,-3.009 0.186,-3.87l1.105,-25.389l1.099,-16.565c0.247,-6.131 1.106,-19.441 2.575,-39.93l-1.285,0c-15.316,0 -28.122,0.553 -38.415,1.659c-5.511,0.489 -9.615,1.163 -12.312,2.02c-2.942,1.106 -4.719,2.273 -5.331,3.499c0,0.125 -0.183,0.186 -0.547,0.186c-0.369,-0.368 -0.552,-0.675 -0.552,-0.92c-0.125,-0.736 0.181,-1.474 0.919,-2.212c0.856,-0.736 2.019,-1.351 3.488,-1.84c2.453,-0.98 5.7,-1.717 9.743,-2.206c11.394,-1.351 22.237,-2.026 32.531,-2.026c3.798,0 7.78,0.062 11.947,0.18c0.612,-6.868 1.1,-11.898 1.465,-15.086c0.123,-0.857 0.338,-2.052 0.646,-3.585c0.305,-1.537 0.52,-2.549 0.646,-3.038c0,-0.368 0.274,-0.675 0.826,-0.92c0.549,-0.244 1.069,-0.212 1.558,0.093c0.491,0.307 0.678,0.826 0.558,1.56c-0.369,1.595 -0.799,4.112 -1.29,7.549l-1.099,13.428c12.006,0.249 19.111,0.373 21.317,0.373c1.593,0 4.073,0.063 7.441,0.186c3.372,0.121 5.914,0.18 7.627,0.18c3.553,0 7.904,-0.428 13.051,-1.286c2.573,-0.612 5.453,-1.656 8.638,-3.131l1.651,-0.553c0.123,0 0.309,0.125 0.552,0.373l0,-0.001Z" style="fill:#fff;"/><path d="M301.216,499.778l4.801,-13.049l1.663,0l4.784,13.049l-1.657,0l-1.191,-3.358l-5.552,0l-1.209,3.358l-1.64,0Zm3.314,-4.621l4.621,0l-2.314,-6.456l-2.307,6.456Zm20.196,4.843c-1.217,0 -2.285,-0.28 -3.204,-0.844c-0.919,-0.567 -1.632,-1.357 -2.14,-2.369c-0.509,-1.012 -0.762,-2.184 -0.762,-3.516c0,-1.33 0.256,-2.504 0.768,-3.521c0.515,-1.02 1.247,-1.816 2.198,-2.386c0.949,-0.573 2.072,-0.862 3.365,-0.862c1.465,0 2.683,0.356 3.657,1.065c0.973,0.71 1.601,1.686 1.889,2.927l-1.807,0c-0.172,-0.783 -0.584,-1.404 -1.238,-1.863c-0.651,-0.462 -1.485,-0.693 -2.5,-0.693c-0.958,0 -1.79,0.215 -2.5,0.646c-0.706,0.428 -1.254,1.04 -1.646,1.833c-0.393,0.796 -0.588,1.746 -0.588,2.852c0,1.106 0.191,2.058 0.575,2.852c0.386,0.796 0.921,1.409 1.605,1.84c0.681,0.428 1.477,0.641 2.384,0.641c1.386,0 2.436,-0.405 3.144,-1.216c0.709,-0.815 1.112,-1.932 1.209,-3.353l-3.762,0l0,-1.228l5.365,0l0,6.973l-1.436,0l-0.128,-2.142c-0.474,0.757 -1.051,1.342 -1.732,1.752c-0.683,0.407 -1.59,0.611 -2.721,0.611l0.004,0.002Zm28.438,-0.221l0,-13.049l1.564,0l6.947,10.459l0,-10.459l1.564,0l0,13.049l-1.564,0l-6.947,-10.459l0,10.459l-1.564,0Zm38.917,0l0,-4.959l-4.243,-8.09l1.767,0l3.262,6.6l3.256,-6.6l1.749,0l-4.226,8.09l0,4.959l-1.564,0Zm-15.652,0.221c-1.279,0 -2.381,-0.28 -3.307,-0.844c-0.923,-0.567 -1.638,-1.357 -2.146,-2.369c-0.509,-1.012 -0.762,-2.19 -0.762,-3.533c0,-1.33 0.253,-2.502 0.762,-3.516c0.507,-1.012 1.222,-1.805 2.146,-2.375c0.926,-0.573 2.028,-0.862 3.307,-0.862c1.491,0 2.705,0.359 3.639,1.077c0.937,0.715 1.537,1.711 1.802,2.991l-1.732,0c-0.202,-0.806 -0.61,-1.457 -1.227,-1.949c-0.614,-0.491 -1.441,-0.74 -2.483,-0.74c-0.93,0 -1.744,0.215 -2.442,0.646c-0.695,0.428 -1.231,1.042 -1.61,1.846c-0.377,0.804 -0.564,1.764 -0.564,2.881c0,1.117 0.188,2.078 0.564,2.881c0.379,0.8 0.916,1.415 1.61,1.846c0.698,0.428 1.511,0.641 2.442,0.641c1.042,0 1.869,-0.238 2.483,-0.716c0.616,-0.478 1.025,-1.114 1.227,-1.909l1.732,0c-0.264,1.254 -0.864,2.235 -1.802,2.946c-0.935,0.707 -2.148,1.059 -3.639,1.059Zm-38.491,-0.221l0,-13.049l8.063,0l0,1.286l-6.499,0l0,4.546l5.941,0l0,1.269l-5.941,0l0,4.662l6.499,0l0,1.286l-8.063,0Z" style="fill:#fff;"/><path d="M273.126,309.026l-177.446,0l0,-309.026l308.641,0l0,309.026l-114.358,0l0,-12.599l101.52,0l0,-283.487l-283.134,0l-0,283.487l152.534,0l0,-192.397l-21.937,0l0,180.99l-12.327,0l0,-180.99l-71.762,0l0,-12.258l105.94,0l0,-23.242l-105.94,0l0,-12.089l189.86,0l0,12.089l-71.592,0l0,23.154l71.592,0l0,12.26l-71.592,0l0,205.08l0.001,0.001Z" style="fill:#1cabb0;"/></svg>