<?xml version="1.0" encoding="UTF-8" standalone="no"?><!DOCTYPE svg PUBLIC "-//W3C//DTD SVG 1.1//EN" "http://www.w3.org/Graphics/SVG/1.1/DTD/svg11.dtd"><svg width="100%" height="100%" viewBox="0 0 4874 2706" version="1.1" xmlns="http://www.w3.org/2000/svg" xmlns:xlink="http://www.w3.org/1999/xlink" xml:space="preserve" xmlns:serif="http://www.serif.com/" style="fill-rule:evenodd;clip-rule:evenodd;stroke-linejoin:round;stroke-miterlimit:2;"><path d="M0,2387.712c0,-60.319 13.574,-114.583 40.755,-162.76c27.214,-48.177 64.29,-85.84 111.263,-113.021c47.005,-27.214 99.17,-40.82 156.51,-40.82c67.399,0 126.204,16.26 176.432,48.763c50.26,32.52 86.93,78.63 110.026,138.346l-96.68,0c-17.155,-37.24 -41.829,-65.902 -74.023,-86.003c-32.21,-20.085 -70.801,-30.143 -115.755,-30.143c-43.148,0 -81.868,10.059 -116.146,30.143c-34.294,20.101 -61.198,48.633 -80.729,85.612c-19.499,36.947 -29.232,80.241 -29.232,129.883c0,49.056 9.733,92.057 29.232,129.036c19.531,36.947 46.436,65.462 80.729,85.547c34.277,20.101 72.998,30.143 116.146,30.143c44.954,0 83.545,-9.896 115.755,-29.688c32.194,-19.824 56.868,-48.372 74.023,-85.612l96.68,0c-23.096,59.115 -59.766,104.801 -110.026,137.044c-50.228,32.21 -109.033,48.307 -176.432,48.307c-57.34,0 -109.505,-13.444 -156.51,-40.365c-46.973,-26.904 -84.049,-64.29 -111.263,-112.174c-27.181,-47.868 -40.755,-101.953 -40.755,-162.24Zm883.128,317.448c-45.54,0 -86.768,-10.352 -123.698,-31.055c-36.947,-20.703 -65.918,-50.098 -86.914,-88.216c-20.964,-38.151 -31.445,-82.324 -31.445,-132.552c0,-49.691 10.775,-93.587 32.357,-131.706c21.566,-38.151 50.977,-67.399 88.216,-87.76c37.24,-20.394 78.906,-30.599 125,-30.599c46.126,0 87.826,10.205 125.065,30.599c37.24,20.361 66.634,49.463 88.216,87.305c21.566,37.858 32.357,81.901 32.357,132.161c0,50.228 -11.1,94.401 -33.268,132.552c-22.135,38.118 -52.132,67.513 -89.974,88.216c-37.858,20.703 -79.818,31.055 -125.911,31.055Zm0,-70.964c28.939,0 56.136,-6.787 81.576,-20.378c25.423,-13.623 45.964,-34.017 61.589,-61.198c15.658,-27.214 23.503,-60.303 23.503,-99.284c0,-39.014 -7.682,-72.103 -23.047,-99.284c-15.365,-27.214 -35.465,-47.461 -60.286,-60.742c-24.837,-13.314 -51.725,-19.987 -80.664,-19.987c-29.557,0 -56.624,6.673 -81.185,19.987c-24.528,13.281 -44.189,33.529 -58.984,60.742c-14.762,27.181 -22.135,60.27 -22.135,99.284c0,39.583 7.243,72.982 21.745,100.195c14.486,27.181 33.854,47.428 58.073,60.742c24.251,13.281 50.863,19.922 79.818,19.922Zm392.778,-344.076c14.193,-27.767 34.44,-49.349 60.742,-64.714c26.302,-15.365 58.366,-23.047 96.224,-23.047l0,83.333l-21.289,0c-90.462,0 -135.677,49.072 -135.677,147.201l0,264.258l-80.664,0l0,-485.938l80.664,0l0,78.906Zm649.978,145.443c0,15.365 -0.895,31.624 -2.669,48.763l-388.411,0c2.946,47.884 19.352,85.27 49.219,112.174c29.85,26.921 66.081,40.365 108.659,40.365c34.847,0 63.949,-8.105 87.305,-24.349c23.34,-16.276 39.746,-38.021 49.219,-65.234l86.914,0c-13.021,46.712 -39.046,84.701 -78.06,113.997c-39.03,29.264 -87.484,43.88 -145.378,43.88c-46.143,0 -87.402,-10.352 -123.763,-31.055c-36.328,-20.703 -64.844,-50.098 -85.547,-88.216c-20.671,-38.151 -30.99,-82.324 -30.99,-132.552c0,-50.26 10.042,-94.303 30.143,-132.161c20.085,-37.842 48.307,-66.943 84.635,-87.305c36.361,-20.394 78.206,-30.599 125.521,-30.599c46.094,0 86.865,10.059 122.331,30.143c35.449,20.101 62.793,47.754 82.031,82.943c19.222,35.156 28.841,74.902 28.841,119.206Zm-83.398,-16.862c0,-30.729 -6.803,-57.161 -20.378,-79.297c-13.59,-22.168 -32.064,-39.03 -55.404,-50.586c-23.356,-11.54 -49.219,-17.318 -77.604,-17.318c-40.804,0 -75.553,13.021 -104.232,39.062c-28.646,26.009 -45.036,62.044 -49.154,108.138l306.771,0Zm342.297,284.635c-40.804,0 -77.327,-7.227 -109.57,-21.68c-32.21,-14.486 -57.471,-34.587 -75.781,-60.286c-18.327,-25.732 -27.783,-55.436 -28.385,-89.128l86.003,0c2.995,28.955 14.974,53.353 35.938,73.177c20.996,19.792 51.595,29.688 91.797,29.688c38.411,0 68.701,-9.603 90.885,-28.841c22.168,-19.222 33.268,-43.896 33.268,-74.023c0,-23.649 -6.51,-42.855 -19.531,-57.617c-13.021,-14.795 -29.297,-26.042 -48.828,-33.724c-19.499,-7.682 -45.768,-15.967 -78.841,-24.87c-40.804,-10.628 -73.486,-21.257 -98.047,-31.901c-24.528,-10.628 -45.508,-27.311 -62.956,-50.065c-17.415,-22.786 -26.107,-53.385 -26.107,-91.797c0,-33.675 8.561,-63.509 25.716,-89.518c17.139,-26.042 41.227,-46.159 72.266,-60.352c31.022,-14.193 66.634,-21.289 106.836,-21.289c57.943,0 105.371,14.502 142.318,43.49c36.93,28.955 57.764,67.367 62.5,115.234l-88.672,0c-2.962,-23.649 -15.365,-44.482 -37.24,-62.5c-21.875,-18.001 -50.846,-27.018 -86.914,-27.018c-33.691,0 -61.182,8.724 -82.487,26.172c-21.273,17.415 -31.901,41.781 -31.901,73.112c0,22.493 6.348,40.82 19.076,55.013c12.712,14.16 28.385,24.935 47.005,32.357c18.62,7.389 44.792,15.804 78.516,25.26c40.755,11.247 73.535,22.331 98.372,33.268c24.821,10.938 46.11,27.783 63.867,50.521c17.741,22.754 26.628,53.63 26.628,92.643c0,30.176 -7.992,58.561 -23.958,85.156c-15.983,26.611 -39.632,48.177 -70.964,64.714c-31.348,16.536 -68.278,24.805 -110.807,24.805Zm379.508,-425.586l0,286.393c0,23.665 5.013,40.365 15.039,50.13c10.059,9.733 27.507,14.583 52.344,14.583l59.375,0l0,68.294l-72.721,0c-44.922,0 -78.63,-10.319 -101.107,-30.99c-22.445,-20.703 -33.659,-54.704 -33.659,-102.018l0,-286.393l-62.956,0l0,-66.536l62.956,0l0,-122.331l80.729,0l0,122.331l126.758,0l0,66.536l-126.758,0Zm611.79,-66.536l0,485.938l-80.664,0l0,-71.81c-15.365,24.837 -36.816,44.189 -64.323,58.073c-27.474,13.883 -57.78,20.833 -90.885,20.833c-37.858,0 -71.859,-7.829 -102.018,-23.503c-30.127,-15.658 -53.906,-39.16 -71.354,-70.508c-17.415,-31.331 -26.107,-69.466 -26.107,-114.388l0,-284.635l79.753,0l0,274.023c0,47.884 12.109,84.684 36.328,110.417c24.251,25.7 57.373,38.542 99.349,38.542c43.18,0 77.181,-13.298 102.018,-39.909c24.821,-26.595 37.24,-65.316 37.24,-116.146l0,-266.927l80.664,0Zm62.96,241.211c0,-49.642 10.042,-93.245 30.143,-130.794c20.085,-37.533 47.721,-66.634 82.878,-87.305c35.189,-20.703 74.642,-31.055 118.359,-31.055c37.842,0 73.014,8.724 105.534,26.172c32.503,17.415 57.324,40.299 74.479,68.685l0,-257.161l81.576,0l0,656.185l-81.576,0l0,-91.341c-15.934,29.004 -39.567,52.799 -70.898,71.419c-31.348,18.62 -68.001,27.93 -109.961,27.93c-43.148,0 -82.324,-10.628 -117.513,-31.901c-35.156,-21.305 -62.793,-51.172 -82.878,-89.583c-20.101,-38.444 -30.143,-82.194 -30.143,-131.25Zm411.393,0.911c0,-36.67 -7.406,-68.587 -22.201,-95.768c-14.762,-27.214 -34.701,-48.047 -59.831,-62.5c-25.098,-14.486 -52.718,-21.745 -82.878,-21.745c-30.176,0 -57.666,7.096 -82.487,21.289c-24.837,14.16 -44.645,34.831 -59.44,62.044c-14.762,27.181 -22.135,59.098 -22.135,95.768c0,37.24 7.373,69.629 22.135,97.135c14.795,27.474 34.603,48.47 59.44,62.956c24.821,14.453 52.311,21.68 82.487,21.68c30.16,0 57.78,-7.227 82.878,-21.68c25.13,-14.486 45.068,-35.482 59.831,-62.956c14.795,-27.507 22.201,-59.587 22.201,-96.224Zm216.365,-321.029c-15.365,0 -28.385,-5.306 -39.062,-15.951c-10.645,-10.628 -15.951,-23.633 -15.951,-38.997c0,-15.365 5.306,-28.353 15.951,-38.997c10.677,-10.677 23.698,-16.016 39.062,-16.016c14.746,0 27.295,5.339 37.63,16.016c10.368,10.645 15.56,23.633 15.56,38.997c0,15.365 -5.192,28.369 -15.56,38.997c-10.335,10.645 -22.884,15.951 -37.63,15.951Zm38.997,78.906l0,485.938l-80.664,0l0,-485.938l80.664,0Zm305.923,493.945c-45.54,0 -86.768,-10.352 -123.698,-31.055c-36.947,-20.703 -65.918,-50.098 -86.914,-88.216c-20.964,-38.151 -31.445,-82.324 -31.445,-132.552c0,-49.691 10.775,-93.587 32.357,-131.706c21.566,-38.151 50.977,-67.399 88.216,-87.76c37.24,-20.394 78.906,-30.599 125,-30.599c46.126,0 87.826,10.205 125.065,30.599c37.24,20.361 66.634,49.463 88.216,87.305c21.566,37.858 32.357,81.901 32.357,132.161c0,50.228 -11.1,94.401 -33.268,132.552c-22.135,38.118 -52.132,67.513 -89.974,88.216c-37.858,20.703 -79.818,31.055 -125.911,31.055Zm0,-70.964c28.939,0 56.136,-6.787 81.576,-20.378c25.423,-13.623 45.964,-34.017 61.589,-61.198c15.658,-27.214 23.503,-60.303 23.503,-99.284c0,-39.014 -7.682,-72.103 -23.047,-99.284c-15.365,-27.214 -35.465,-47.461 -60.286,-60.742c-24.837,-13.314 -51.725,-19.987 -80.664,-19.987c-29.557,0 -56.624,6.673 -81.185,19.987c-24.528,13.281 -44.189,33.529 -58.984,60.742c-14.762,27.181 -22.135,60.27 -22.135,99.284c0,39.583 7.243,72.982 21.745,100.195c14.486,27.181 33.854,47.428 58.073,60.742c24.251,13.281 50.863,19.922 79.818,19.922Zm484.119,70.964c-37.24,0 -70.638,-6.364 -100.195,-19.076c-29.557,-12.712 -52.913,-30.436 -70.052,-53.19c-17.155,-22.786 -26.611,-48.958 -28.385,-78.516l83.333,0c2.376,24.268 13.77,44.076 34.18,59.44c20.394,15.365 47.135,23.047 80.208,23.047c30.762,0 55.013,-6.787 72.721,-20.378c17.741,-13.623 26.628,-30.762 26.628,-51.432c0,-21.305 -9.473,-37.126 -28.385,-47.461c-18.929,-10.319 -48.177,-20.524 -87.76,-30.599c-36.068,-9.456 -65.495,-19.043 -88.281,-28.776c-22.754,-9.766 -42.253,-24.251 -58.529,-43.49c-16.243,-19.222 -24.349,-44.482 -24.349,-75.781c0,-24.87 7.373,-47.624 22.135,-68.294c14.795,-20.703 35.775,-37.109 62.956,-49.219c27.214,-12.109 58.268,-18.164 93.164,-18.164c53.776,0 97.201,13.607 130.273,40.82c33.105,27.181 50.863,64.388 53.255,111.654l-80.729,0c-1.742,-25.391 -11.914,-45.768 -30.534,-61.133c-18.62,-15.397 -43.604,-23.112 -74.935,-23.112c-29.004,0 -52.067,6.217 -69.206,18.62c-17.155,12.419 -25.716,28.695 -25.716,48.828c0,15.934 5.16,29.085 15.495,39.453c10.368,10.335 23.389,18.604 39.062,24.805c15.658,6.217 37.386,13.151 65.169,20.833c34.896,9.473 63.281,18.783 85.156,27.93c21.875,9.163 40.625,22.917 56.25,41.276c15.658,18.327 23.796,42.253 24.414,71.81c0,26.611 -7.406,50.553 -22.201,71.81c-14.762,21.273 -35.596,37.988 -62.5,50.13c-26.872,12.109 -57.747,18.164 -92.643,18.164Z" style="fill:#fff;"/><path d="M1508.735,931.559c0,-237.988 91.081,-465.12 256.429,-639.551c175.977,-185.563 422.087,-292.008 675.13,-292.008c57.048,-0 103.32,46.289 103.32,103.337c0,57.048 -46.273,103.32 -103.32,103.32c-196.647,0 -388.053,82.959 -525.179,227.555c-128.825,135.856 -199.772,312.484 -199.772,497.347c0,192.139 75.798,373.779 213.477,511.442c137.663,137.663 319.287,213.46 511.426,213.46c184.863,0 361.491,-70.947 497.347,-199.756c142.171,-134.814 224.756,-322.07 227.474,-515.137c-2.116,-59.212 -50.96,-106.755 -110.677,-106.755c-61.051,0 -110.758,49.707 -110.758,110.758c0,137.467 -54.004,267.204 -152.132,365.299c-98.096,98.096 -227.832,152.148 -365.299,152.148c-285.335,0 -517.448,-232.145 -517.448,-517.448c0,-136.279 53.255,-265.202 149.87,-363.021c98.372,-99.561 228.906,-154.411 367.578,-154.411c57.048,0 103.32,46.273 103.32,103.32c0,57.048 -46.273,103.32 -103.32,103.32c-83.008,0 -161.344,33.04 -220.557,92.969c-58.203,58.903 -90.234,136.247 -90.234,217.822c0,171.387 139.437,310.791 310.791,310.791c82.259,0 160.107,-32.536 219.206,-91.585c59.082,-59.098 91.618,-136.93 91.618,-219.206c0,-175 142.399,-317.399 317.415,-317.399c165.471,0 301.796,127.258 316.146,289.063l-0,61.837c-12.405,236.136 -116.822,462.665 -290.788,627.616c-162.288,153.94 -370.308,243.504 -590.275,255.16l-98.687,-0c-228.889,-12.078 -443.241,-107.835 -608.125,-272.673c-176.66,-176.709 -273.975,-410.238 -273.975,-657.617Z" style="fill:#9084df;"/></svg>