<?xml version="1.0" encoding="UTF-8" standalone="no"?><!DOCTYPE svg PUBLIC "-//W3C//DTD SVG 1.1//EN" "http://www.w3.org/Graphics/SVG/1.1/DTD/svg11.dtd"><svg width="100%" height="100%" viewBox="0 0 1042 771" version="1.1" xmlns="http://www.w3.org/2000/svg" xmlns:xlink="http://www.w3.org/1999/xlink" xml:space="preserve" xmlns:serif="http://www.serif.com/" style="fill-rule:evenodd;clip-rule:evenodd;stroke-linejoin:round;stroke-miterlimit:2;"><g><path d="M306.021,214.371c0,-54.767 21,-107.033 59.125,-147.175c40.571,-42.7 97.321,-67.196 155.663,-67.196c13.158,-0 23.825,10.65 23.825,23.779c0,13.129 -10.671,23.779 -23.825,23.779c-45.342,0 -89.471,19.092 -121.087,52.367c-29.7,31.263 -46.058,71.908 -46.058,114.45c0,44.217 17.479,86.017 49.221,117.696c31.742,31.679 73.617,49.125 117.925,49.125c42.625,0 83.346,-16.329 114.671,-45.971c32.779,-31.025 51.821,-74.117 52.45,-118.546c-0.487,-13.625 -11.75,-24.567 -25.517,-24.567c-14.079,0 -25.538,11.438 -25.538,25.487c0,31.638 -12.454,61.492 -35.079,84.062c-22.617,22.575 -52.533,35.013 -84.229,35.013c-65.792,0 -119.308,-53.417 -119.308,-119.075c0,-31.363 12.279,-61.029 34.558,-83.542c22.679,-22.912 52.775,-35.533 84.75,-35.533c13.158,0 23.825,10.65 23.825,23.775c0,13.129 -10.671,23.779 -23.825,23.779c-19.138,0 -37.2,7.6 -50.85,21.396c-13.421,13.554 -20.808,31.354 -20.808,50.125c0,39.442 32.15,71.521 71.658,71.521c18.967,0 36.917,-7.483 50.542,-21.075c13.621,-13.6 21.125,-31.512 21.125,-50.446c0,-40.271 32.833,-73.042 73.183,-73.042c38.142,0 69.567,29.267 72.896,66.483l0,14.329c-2.879,54.321 -26.95,106.425 -67.042,144.367c-37.425,35.425 -85.383,56.037 -136.104,58.721l-22.75,0c-52.775,-2.779 -102.2,-24.812 -140.213,-62.75c-40.733,-40.667 -63.175,-94.4 -63.175,-151.333l-0.008,-0.004Z" style="fill:#9084df;"/><path d="M144.713,632.867c-0.133,0 -0.267,-0.038 -0.404,-0.104c-0.142,-0.058 -0.279,-0.092 -0.404,-0.092l-5.013,0c-1.704,0 -3.371,-0.071 -5.013,-0.208c-0.954,0 -1.975,0.033 -3.062,0.104c-1.092,0.067 -2.183,0.033 -3.271,-0.104c-1.913,0 -3.896,-0.037 -5.942,-0.104c-2.042,-0.071 -4.083,-0.104 -6.121,-0.104c-0.55,0 -1.104,-0.071 -1.65,-0.208c-0.542,-0.129 -1.079,-0.196 -1.621,-0.196c-0.55,-0.142 -1.133,-0.208 -1.742,-0.208c-0.612,0 -1.192,-0.067 -1.742,-0.196c-1.363,-0.142 -2.692,-0.312 -3.992,-0.525c-1.292,-0.204 -2.617,-0.367 -3.975,-0.496c-1.229,-0.142 -2.429,-0.279 -3.588,-0.421c-1.15,-0.129 -2.342,-0.267 -3.571,-0.404c-0.954,-0.129 -1.871,-0.267 -2.763,-0.404c-0.883,-0.142 -1.8,-0.275 -2.763,-0.404c-1.633,-0.408 -3.267,-0.854 -4.908,-1.333c-1.633,-0.479 -3.267,-0.987 -4.908,-1.529c-0.683,-0.271 -1.362,-0.5 -2.042,-0.704c-0.683,-0.208 -1.362,-0.383 -2.042,-0.525c-1.771,-0.679 -3.479,-1.25 -5.117,-1.721c-1.633,-0.479 -3.338,-0.992 -5.117,-1.542c-1.092,-0.271 -2.042,-0.538 -2.85,-0.808c-0.958,-0.138 -1.917,-0.483 -2.867,-1.033c-1.363,-0.538 -2.758,-1.079 -4.188,-1.617c-1.433,-0.546 -2.833,-1.096 -4.2,-1.646c-2.042,-0.679 -3.812,-1.492 -5.312,-2.442c-0.683,-0.271 -1.396,-0.571 -2.146,-0.913c-0.75,-0.337 -1.467,-0.646 -2.146,-0.929c-0.821,-0.408 -1.642,-0.812 -2.462,-1.213c-0.808,-0.408 -1.629,-0.817 -2.446,-1.229c-0.954,-0.679 -1.942,-1.321 -2.971,-1.933c-1.021,-0.617 -2.008,-1.267 -2.954,-1.946c-0.413,-0.271 -0.787,-0.538 -1.125,-0.808c-0.342,-0.275 -0.646,-0.554 -0.917,-0.825c-0.692,-0.546 -1.413,-1.092 -2.162,-1.633c-0.742,-0.546 -1.454,-1.092 -2.146,-1.633c-1.092,-0.946 -2.113,-1.867 -3.063,-2.754c-0.954,-0.887 -1.904,-1.804 -2.867,-2.754c-0.542,-0.538 -1.017,-1.05 -1.425,-1.529c-0.413,-0.479 -0.883,-0.987 -1.425,-1.529c-0.412,-0.408 -0.821,-0.854 -1.229,-1.333c-0.413,-0.479 -0.821,-0.917 -1.229,-1.317c-0.142,-0.275 -0.283,-0.554 -0.421,-0.825c-0.133,-0.271 -0.262,-0.471 -0.392,-0.612c-0.821,-1.496 -1.713,-2.988 -2.671,-4.479c-0.954,-1.496 -1.838,-3.063 -2.654,-4.704c-0.412,-0.679 -0.788,-1.425 -1.125,-2.246c-0.342,-0.817 -0.646,-1.567 -0.917,-2.246c-0.542,-1.496 -1.121,-2.988 -1.742,-4.479c-0.612,-1.496 -1.121,-2.996 -1.529,-4.492c-0.412,-1.496 -0.479,-3.129 -0.208,-4.896l0,-2.246c0.138,-1.229 0.246,-2.488 0.317,-3.775c0.067,-1.296 0.171,-2.625 0.3,-3.983c0.138,-1.625 0.346,-3.192 0.617,-4.688c0.271,-1.496 0.546,-2.996 0.825,-4.492c0.271,-0.946 0.504,-1.829 0.704,-2.65c0.208,-0.817 0.45,-1.637 0.721,-2.454c0.408,-0.808 0.783,-1.621 1.125,-2.442c0.338,-0.817 0.646,-1.638 0.917,-2.454c0.408,-0.808 0.854,-1.587 1.337,-2.337c0.479,-0.75 0.921,-1.533 1.321,-2.35c0.817,-1.354 1.742,-2.612 2.763,-3.775c1.029,-1.158 2.017,-2.346 2.971,-3.563c0.408,-0.275 0.954,-0.758 1.637,-1.438c1.358,-1.087 2.688,-2.204 3.975,-3.354c1.3,-1.158 2.629,-2.217 3.992,-3.175c1.371,-1.087 2.733,-2.042 4.096,-2.863c2.858,-1.487 5.587,-3.046 8.179,-4.688c1.221,-0.817 2.475,-1.604 3.767,-2.35c1.3,-0.75 2.567,-1.458 3.796,-2.142c1.358,-0.679 2.688,-1.354 3.975,-2.038c1.3,-0.679 2.629,-1.292 3.992,-1.842c1.087,-0.396 2.213,-0.8 3.375,-1.212c1.158,-0.408 2.283,-0.817 3.375,-1.229c1.5,-0.546 3,-1.092 4.5,-1.633c1.5,-0.546 2.992,-1.092 4.487,-1.633c0.817,-0.271 1.671,-0.5 2.55,-0.704c0.888,-0.208 1.746,-0.383 2.567,-0.525c1.087,-0.271 2.146,-0.538 3.167,-0.808c1.021,-0.275 2.013,-0.483 2.971,-0.613c1.771,-0.408 3.471,-0.817 5.1,-1.229c1.638,-0.408 3.275,-0.75 4.908,-1.017c0.546,-0.138 1.096,-0.208 1.638,-0.208c0.546,0 1.096,-0.062 1.638,-0.196c1.087,-0.275 2.25,-0.421 3.483,-0.421c1.229,0 2.392,-0.062 3.483,-0.196c0.129,-0.137 0.333,-0.208 0.617,-0.208l1.517,0c0.479,0 0.996,-0.062 1.546,-0.196c0.95,-0.137 1.9,-0.275 2.85,-0.404c0.958,-0.137 1.912,-0.275 2.867,-0.421c1.087,0 2.146,-0.062 3.167,-0.196c1.029,-0.137 2.017,-0.275 2.971,-0.421c1.229,-0.129 2.454,-0.229 3.675,-0.3c1.229,-0.067 2.463,-0.171 3.692,-0.313c1.087,-0.271 2.108,-0.467 3.062,-0.6c0.95,-0.137 1.904,-0.142 2.867,-0.017c0.271,0 0.542,-0.133 0.808,-0.404l19.433,0c0.129,0 0.196,0.037 0.196,0.104c0,0.071 0.067,0.104 0.208,0.104c0.271,0.129 0.679,0.196 1.229,0.196l6.121,0c2.05,0 4.029,0.071 5.942,0.208l0.6,0c0.692,0.142 1.338,0.246 1.95,0.312c0.608,0.058 1.188,0.163 1.742,0.3c1.088,0.142 2.179,0.246 3.271,0.312c1.088,0.058 2.179,0.092 3.271,0.092c1.088,0.142 2.179,0.208 3.271,0.208l3.062,0c1.088,0.129 2.108,0.233 3.062,0.3c0.958,0.071 1.913,0.242 2.867,0.508c0.958,0.142 1.913,0.279 2.867,0.421c0.95,0.129 1.904,0.329 2.867,0.6c0.95,0.142 1.863,0.246 2.746,0.312c0.888,0.071 1.817,0.242 2.775,0.508c1.771,0.413 3.504,0.821 5.208,1.229c1.7,0.413 3.438,0.75 5.208,1.017c1.088,0.129 2.213,0.337 3.375,0.613c1.158,0.271 2.213,0.538 3.167,0.808c0.817,0.142 1.604,0.312 2.354,0.525c0.75,0.204 1.463,0.367 2.146,0.496c3.271,0.821 6.129,1.908 8.583,3.267c0.546,0.279 1.096,0.521 1.638,0.721c0.546,0.204 1.096,0.442 1.637,0.721c1.371,0.271 2.529,0.746 3.483,1.421c0.95,0.55 1.867,1.062 2.762,1.542c0.888,0.471 1.808,0.975 2.762,1.512c1.358,0.55 2.65,1.162 3.871,1.842c1.229,0.683 2.392,1.358 3.483,2.038c1.371,0.958 2.767,1.85 4.2,2.667c1.429,0.808 2.825,1.692 4.188,2.65c0.546,0.4 1.096,0.804 1.637,1.212c0.546,0.413 1.096,0.821 1.637,1.229c0.408,0.271 0.75,0.575 1.021,0.912c0.271,0.342 0.608,0.65 1.021,0.929c0.679,0.538 1.325,0.979 1.938,1.317c0.621,0.342 1.204,0.717 1.754,1.125c0.129,0.142 0.258,0.246 0.392,0.312c0.138,0.058 0.279,0.233 0.421,0.508c0.679,0.538 1.325,1.15 1.938,1.829c0.621,0.683 1.2,1.363 1.742,2.05c0.279,0.4 0.587,0.804 0.929,1.212c0.338,0.413 0.646,0.821 0.917,1.229c-0.271,0.142 -0.546,0.346 -0.825,0.613c-0.954,0.538 -1.871,1.087 -2.762,1.633c-0.883,0.538 -1.867,0.95 -2.954,1.229c-1.229,0.413 -2.429,0.892 -3.587,1.438c-1.15,0.538 -2.342,1.079 -3.571,1.617c-0.821,0.55 -1.708,0.996 -2.654,1.333c-0.954,0.342 -1.904,0.646 -2.867,0.912c-0.954,0.271 -1.904,0.575 -2.867,0.913c-0.954,0.342 -1.9,0.65 -2.85,0.929c-1.229,0.538 -2.463,1.05 -3.692,1.529c-1.225,0.471 -2.513,0.979 -3.871,1.529c-0.958,0.412 -1.95,0.787 -2.971,1.125c-1.021,0.342 -2.079,0.646 -3.167,0.913c-1.5,0.412 -2.967,0.892 -4.396,1.438c-1.433,0.537 -2.896,1.017 -4.396,1.421c-0.821,0.271 -1.779,0.537 -2.867,0.808c-0.271,-0.396 -0.683,-0.871 -1.229,-1.421c-0.542,-0.538 -1.05,-1.079 -1.529,-1.617c-0.471,-0.546 -0.913,-1.096 -1.321,-1.646c-0.55,-0.537 -1.067,-1.079 -1.546,-1.617c-0.471,-0.546 -1.046,-1.096 -1.725,-1.646c-1.229,-0.946 -2.463,-1.896 -3.692,-2.846c-1.225,-0.958 -2.579,-1.775 -4.083,-2.454c-1.092,-0.679 -2.183,-1.288 -3.271,-1.829c-1.092,-0.546 -2.183,-1.025 -3.271,-1.438c-2.042,-0.679 -4.088,-1.287 -6.137,-1.829c-2.042,-0.546 -4.088,-1.025 -6.137,-1.438c-0.954,-0.271 -1.975,-0.5 -3.062,-0.704c-1.092,-0.208 -2.183,-0.454 -3.271,-0.733c-0.954,-0.271 -1.838,-0.5 -2.654,-0.704c-0.821,-0.208 -1.642,-0.379 -2.463,-0.508c-1.225,-0.275 -2.446,-0.554 -3.675,-0.825c-1.225,-0.271 -2.446,-0.471 -3.675,-0.613c-0.821,-0.129 -1.642,-0.262 -2.463,-0.404c-0.808,-0.138 -1.629,-0.208 -2.446,-0.208c-0.954,-0.129 -1.942,-0.229 -2.971,-0.3c-1.021,-0.067 -2.079,-0.167 -3.167,-0.3c-1.092,-0.137 -2.217,-0.242 -3.375,-0.312c-1.15,-0.067 -2.275,-0.104 -3.363,-0.104l-7.367,0c-1.229,0.142 -2.463,0.246 -3.692,0.312c-1.225,0.071 -2.379,0.171 -3.467,0.3c-1.225,0 -2.412,0.038 -3.571,0.104c-1.162,0.071 -2.287,0.104 -3.375,0.104c-0.142,0 -0.246,0.038 -0.317,0.104c-0.058,0.058 -0.163,0.092 -0.3,0.092c-0.954,0.142 -1.904,0.246 -2.867,0.312c-0.954,0.071 -1.9,0.171 -2.85,0.3c-0.958,0.142 -1.987,0.208 -3.075,0.208c-1.092,0 -2.183,0.071 -3.271,0.208l-0.617,0c-0.683,0.129 -1.396,0.196 -2.146,0.196c-0.75,0 -1.529,0.071 -2.342,0.208c-0.958,0.129 -1.987,0.267 -3.075,0.404c-1.092,0.142 -2.183,0.346 -3.271,0.612c-1.771,0.413 -3.479,0.821 -5.117,1.229c-1.633,0.413 -3.333,0.883 -5.1,1.421c-0.954,0.271 -2.008,0.575 -3.167,0.913c-1.162,0.342 -2.287,0.717 -3.375,1.125c-1.363,0.413 -2.692,0.954 -3.992,1.633c-1.292,0.683 -2.55,1.429 -3.783,2.246c-0.683,0.413 -1.396,0.821 -2.146,1.229c-0.75,0.413 -1.467,0.75 -2.146,1.017c-0.412,0.142 -0.854,0.346 -1.338,0.612c-0.471,0.271 -0.913,0.608 -1.321,1.017c-1.771,1.358 -3.479,2.788 -5.117,4.283c-1.633,1.496 -3.196,2.996 -4.696,4.492c-1.771,1.767 -2.933,3.671 -3.483,5.704c0,0.688 -0.208,1.375 -0.617,2.05c-0.4,0.95 -0.704,1.971 -0.917,3.054c-0.204,1.087 -0.442,2.179 -0.721,3.267c-0.133,0.413 -0.267,0.854 -0.404,1.333c-0.133,0.471 -0.133,0.908 0,1.317c0.137,0.55 0.242,1.163 0.3,1.842c0.067,0.683 0.171,1.358 0.317,2.038c0.271,1.496 0.646,2.963 1.125,4.388c0.479,1.429 1.125,2.825 1.938,4.179c0.546,0.821 1.096,1.604 1.638,2.35c0.546,0.75 1.233,1.462 2.054,2.142c0.808,0.55 1.487,1.229 2.042,2.038c1.229,1.371 2.392,2.454 3.483,3.267c1.629,1.087 3.296,2.179 4.996,3.267c1.713,1.087 3.45,1.975 5.221,2.65c0.271,0 0.404,0.037 0.404,0.104c0,0.071 0.067,0.104 0.208,0.104c1.221,0.55 2.475,1.062 3.767,1.542c1.3,0.471 2.629,0.837 3.992,1.108c0.958,0.142 1.913,0.312 2.867,0.525c0.958,0.204 1.912,0.433 2.867,0.704c1.908,0.412 3.85,0.854 5.821,1.333c1.979,0.471 3.925,0.908 5.837,1.317c1.088,0.142 2.179,0.312 3.271,0.525c1.087,0.204 2.179,0.433 3.271,0.704c1.221,0.129 2.438,0.233 3.663,0.3c1.229,0.071 2.463,0.242 3.692,0.508c1.229,0.142 2.492,0.279 3.783,0.421c1.3,0.129 2.629,0.267 3.992,0.404l19.929,0c0.75,0 1.4,-0.067 1.95,-0.208c1.5,0 2.929,-0.029 4.292,-0.092c1.358,-0.067 2.721,-0.171 4.083,-0.312c1.371,0 2.7,-0.033 3.992,-0.104c1.292,-0.067 2.617,-0.104 3.992,-0.104l0.092,0c0.067,0 0.171,-0.062 0.317,-0.196c1.088,-0.138 2.146,-0.308 3.167,-0.508c1.021,-0.208 2.012,-0.379 2.971,-0.508c1.088,-0.275 2.179,-0.483 3.271,-0.612c1.088,-0.137 2.108,-0.346 3.062,-0.612c1.908,-0.408 3.85,-0.846 5.821,-1.317c1.979,-0.479 3.925,-0.992 5.838,-1.542c1.221,-0.271 2.408,-0.608 3.571,-1.017c1.158,-0.408 2.354,-0.75 3.587,-1.017c0.679,-0.271 1.358,-0.5 2.042,-0.704c0.679,-0.208 1.292,-0.383 1.829,-0.525c1.5,-0.679 3.033,-1.288 4.608,-1.829c1.567,-0.546 3.033,-1.233 4.396,-2.05c1.5,-0.817 2.929,-1.7 4.292,-2.65c1.358,-0.946 2.654,-2.038 3.888,-3.267c0.817,-0.946 1.671,-1.862 2.55,-2.742c0.888,-0.888 1.808,-1.812 2.762,-2.771c0.679,0.142 1.292,0.312 1.829,0.525c0.546,0.204 1.1,0.433 1.65,0.704c0.95,0.271 1.863,0.575 2.746,0.913c0.887,0.342 1.746,0.65 2.567,0.929c1.088,0.4 2.212,0.837 3.375,1.317c1.158,0.479 2.283,0.925 3.375,1.333c0.808,0.271 1.625,0.575 2.446,0.913c0.817,0.342 1.638,0.717 2.463,1.125c1.221,0.413 2.408,0.854 3.571,1.333c1.158,0.471 2.354,0.979 3.588,1.529c1.771,0.683 3.575,1.296 5.417,1.842c1.837,0.537 3.646,1.079 5.417,1.617c0.679,0.279 1.396,0.554 2.146,0.825c0.75,0.271 1.462,0.537 2.146,0.808c0.817,0.279 1.6,0.592 2.342,0.929c0.75,0.342 1.533,0.575 2.354,0.704c0.546,0.279 1.029,0.487 1.442,0.612c-0.142,0.142 -0.246,0.279 -0.317,0.421c-0.071,0.129 -0.171,0.329 -0.3,0.6c-0.55,0.55 -1.033,1.1 -1.442,1.646c-0.413,0.537 -0.883,1.15 -1.425,1.829c-0.142,0.271 -0.479,0.683 -1.021,1.229c-1.363,1.767 -2.933,3.367 -4.713,4.792c-1.771,1.429 -3.475,2.892 -5.1,4.388c-1.362,1.358 -2.962,2.583 -4.8,3.671c-1.842,1.087 -3.717,2.108 -5.629,3.054c-0.954,0.55 -1.942,1.062 -2.971,1.542c-1.021,0.471 -2.008,0.979 -2.954,1.529c-1.362,0.683 -2.762,1.358 -4.2,2.038c-1.433,0.683 -2.892,1.358 -4.383,2.038c-1.229,0.412 -2.429,0.854 -3.587,1.333c-1.163,0.479 -2.354,0.921 -3.571,1.317c-0.821,0.279 -1.642,0.592 -2.463,0.929c-0.821,0.342 -1.638,0.646 -2.446,0.913c-1.771,0.55 -3.55,1.029 -5.325,1.438c-1.771,0.4 -3.608,0.804 -5.508,1.212c-1.375,0.412 -2.708,0.758 -4.008,1.033c-1.292,0.271 -2.617,0.537 -3.975,0.808c-1.633,0.271 -3.233,0.608 -4.8,1.017c-1.571,0.412 -3.175,0.75 -4.8,1.017c-0.958,0.142 -1.95,0.346 -2.971,0.612c-1.021,0.271 -2.079,0.542 -3.167,0.825c-0.954,0.129 -1.871,0.258 -2.762,0.387c-0.883,0.137 -1.8,0.35 -2.762,0.629c-0.542,0 -1.05,0.062 -1.529,0.196c-0.479,0.137 -0.992,0.208 -1.529,0.208c-1.229,0.137 -2.5,0.275 -3.796,0.404l-3.767,0.404c-1.375,0.137 -2.737,0.242 -4.096,0.312c-1.363,0.067 -2.792,0.167 -4.292,0.3c-1.229,0.137 -2.463,0.208 -3.692,0.208c-1.225,0 -2.513,0.067 -3.871,0.208l-1.021,0c0,0 -0.037,0.029 -0.104,0.092c-0.071,0.067 -0.104,0.104 -0.104,0.104l-7.158,0l-0.042,0.008Zm254.15,3.071c-1.229,0 -2.462,0.029 -3.692,0.092c-1.225,0.067 -2.446,0.037 -3.675,-0.092c-1.633,-0.279 -3.3,-0.387 -5.013,-0.312c-1.704,0.067 -3.438,0.104 -5.208,0.104l-2.654,0c-1.771,0 -3.479,-0.204 -5.117,-0.612l-1.021,0c-0.821,0 -1.675,-0.071 -2.567,-0.208c-0.883,-0.129 -1.796,-0.267 -2.746,-0.404c-0.683,-0.129 -1.433,-0.267 -2.25,-0.404c-0.821,-0.142 -1.642,-0.275 -2.462,-0.404c-0.542,-0.142 -1.15,-0.279 -1.829,-0.421c-0.683,-0.129 -1.363,-0.267 -2.042,-0.404c-0.958,-0.271 -2.021,-0.508 -3.179,-0.721c-1.15,-0.204 -2.275,-0.371 -3.363,-0.508c-0.413,-0.129 -0.821,-0.233 -1.229,-0.3c-0.413,-0.071 -0.821,-0.171 -1.229,-0.3c-0.954,-0.279 -1.838,-0.492 -2.654,-0.629c-0.821,-0.129 -1.708,-0.267 -2.654,-0.404c-0.413,0 -1.029,-0.133 -1.846,-0.404c-1.092,-0.271 -2.146,-0.608 -3.167,-1.017c-1.021,-0.408 -2.079,-0.75 -3.167,-1.017c-2.592,-0.546 -5.183,-1.5 -7.775,-2.863c-1.363,-0.679 -2.692,-1.288 -3.992,-1.829c-1.292,-0.546 -2.617,-1.162 -3.975,-1.842c-1.092,-0.679 -2.25,-1.287 -3.483,-1.829c-1.229,-0.546 -2.392,-1.096 -3.483,-1.646c-0.808,-0.679 -1.696,-1.221 -2.654,-1.633c-0.954,-0.408 -1.838,-0.883 -2.654,-1.421c-0.683,-0.679 -1.567,-1.221 -2.654,-1.633c-0.542,-0.271 -1.017,-0.537 -1.425,-0.808c-0.413,-0.275 -0.892,-0.554 -1.442,-0.825c-1.092,-0.679 -2.25,-1.392 -3.483,-2.142c-1.225,-0.75 -2.446,-1.458 -3.675,-2.142c-0.271,-0.275 -0.579,-0.517 -0.917,-0.721c-0.342,-0.2 -0.646,-0.367 -0.917,-0.508c-0.55,-0.271 -1.067,-0.608 -1.546,-1.017c-0.471,-0.408 -1.046,-0.817 -1.725,-1.229c-3.271,-2.175 -6.479,-4.896 -9.617,-8.163c-0.271,-0.271 -0.471,-0.538 -0.6,-0.808c-0.958,-1.496 -1.95,-2.996 -2.971,-4.492c-1.021,-1.496 -2.013,-2.925 -2.971,-4.283c-0.133,0 -0.196,-0.067 -0.196,-0.208c-0.821,-1.354 -1.604,-2.679 -2.354,-3.971c-0.75,-1.296 -1.467,-2.625 -2.146,-3.983c-0.683,-1.087 -1.092,-2.175 -1.229,-3.267c0,-0.408 -0.133,-1.021 -0.404,-1.842c-0.142,-1.229 -0.346,-2.417 -0.617,-3.562c-0.271,-1.158 -0.542,-2.35 -0.808,-3.579c-0.412,-2.308 -0.55,-4.483 -0.421,-6.529c0.138,-0.679 0.246,-1.421 0.317,-2.233c0.067,-0.817 0.171,-1.571 0.3,-2.263c0.137,-0.537 0.208,-1.421 0.208,-2.65c0.137,-0.808 0.346,-1.621 0.617,-2.442c0.271,-0.817 0.471,-1.638 0.617,-2.454c0.271,-0.808 0.471,-1.587 0.6,-2.338c0.138,-0.75 0.279,-1.458 0.421,-2.142c0.271,-1.087 0.575,-2.075 0.917,-2.967c0.337,-0.888 0.646,-1.804 0.917,-2.754c1.087,-2.446 2.25,-4.962 3.483,-7.55c0.408,-1.087 0.921,-2.071 1.529,-2.95c0.621,-0.887 1.267,-1.812 1.95,-2.771c1.358,-1.625 2.754,-3.254 4.188,-4.883c1.429,-1.637 2.962,-3.133 4.608,-4.492c2.45,-2.454 4.9,-4.425 7.354,-5.917c0.95,-0.688 1.938,-1.267 2.954,-1.738c1.029,-0.479 2.017,-0.988 2.971,-1.529c0.817,-0.408 1.604,-0.817 2.354,-1.229c0.75,-0.408 1.462,-0.817 2.146,-1.229c1.229,-0.817 2.392,-1.496 3.483,-2.038c1.087,-0.546 2.146,-1.021 3.167,-1.421c1.021,-0.408 2.075,-0.817 3.167,-1.229c0.817,-0.275 1.671,-0.588 2.55,-0.929c0.887,-0.337 1.808,-0.712 2.762,-1.125c0.271,-0.129 0.575,-0.258 0.917,-0.388c0.35,-0.137 0.658,-0.275 0.929,-0.421c0.129,-0.138 0.262,-0.242 0.404,-0.3c0.137,-0.067 0.275,-0.171 0.404,-0.313c1.371,-0.271 2.662,-0.708 3.888,-1.317c1.229,-0.617 2.525,-1.062 3.887,-1.333c0.408,-0.137 0.817,-0.275 1.229,-0.404c0.408,-0.137 0.817,-0.275 1.229,-0.421c0.808,-0.271 1.654,-0.538 2.537,-0.808c0.887,-0.271 1.817,-0.471 2.775,-0.613c1.221,-0.271 2.446,-0.608 3.675,-1.017c1.229,-0.408 2.525,-0.75 3.888,-1.017c1.229,-0.271 2.454,-0.538 3.675,-0.808c1.229,-0.275 2.392,-0.488 3.483,-0.629c1.087,-0.129 2.242,-0.258 3.467,-0.388c1.229,-0.137 2.392,-0.275 3.483,-0.421c0.679,-0.138 1.396,-0.275 2.146,-0.404c0.75,-0.138 1.462,-0.275 2.146,-0.421c0.679,-0.129 1.325,-0.196 1.938,-0.196c0.621,0 1.2,-0.067 1.742,-0.208c0.546,-0.129 1.129,-0.262 1.742,-0.404c0.621,-0.137 1.2,-0.275 1.742,-0.404c0.817,-0.137 1.637,-0.275 2.446,-0.404c0.817,-0.137 1.712,-0.208 2.671,-0.208c1.087,-0.138 2.179,-0.242 3.271,-0.3c1.087,-0.067 2.179,-0.242 3.271,-0.525l8.792,0c0.808,0.142 1.654,0.246 2.537,0.312c0.887,0.071 1.746,0.104 2.567,0.104c0.271,0.129 0.679,0.196 1.229,0.196c0.817,0 1.637,-0.029 2.446,-0.092c0.817,-0.067 1.638,-0.037 2.462,0.092c0.817,0 1.604,0.038 2.354,0.104c0.75,0.071 1.462,0.171 2.146,0.3l0.617,0c1.487,0.142 2.95,0.208 4.383,0.208c1.442,0 2.842,0.071 4.2,0.208c1.087,0 2.208,0.037 3.363,0.104c1.158,0.058 2.354,0.162 3.588,0.3c0.546,0 1.129,0.037 1.742,0.104c0.608,0.071 1.188,0.171 1.742,0.3c0.808,0.142 1.625,0.246 2.446,0.312c0.817,0.058 1.637,0.163 2.462,0.3c0.679,0.142 1.396,0.246 2.146,0.312c0.75,0.058 1.396,0.163 1.938,0.3c0.679,0.142 1.396,0.246 2.146,0.312c0.75,0.058 1.4,0.163 1.95,0.3l1.425,0c1.908,0 3.888,0.204 5.929,0.613c1.5,0.271 2.962,0.575 4.396,0.912c1.429,0.342 2.825,0.646 4.188,0.912c2.317,0.413 4.537,0.787 6.646,1.125c2.108,0.342 4.254,0.787 6.438,1.333c0.692,0.129 1.375,0.338 2.054,0.613c0.679,0.271 1.358,0.538 2.042,0.808c1.087,0.55 2.146,1.029 3.167,1.438c1.021,0.4 2.075,0.804 3.167,1.212c1.229,0.413 2.425,0.892 3.588,1.438c1.158,0.538 2.35,1.017 3.571,1.421c0.679,0.271 1.358,0.575 2.042,0.912c0.692,0.342 1.375,0.65 2.054,0.929c1.088,0.271 2.179,0.683 3.271,1.229c1.087,0.538 2.108,1.15 3.062,1.829c0.679,0.412 1.358,0.75 2.042,1.017c0.817,0.413 1.604,0.854 2.354,1.333c0.75,0.471 1.463,0.979 2.146,1.529c0.546,0.271 0.958,0.538 1.229,0.808c1.5,0.821 2.929,1.842 4.292,3.071c1.358,1.221 2.721,2.375 4.083,3.458c0.817,0.821 1.671,1.642 2.55,2.454c0.888,0.821 1.746,1.633 2.567,2.442c0.408,0.413 0.817,0.854 1.229,1.333c0.408,0.479 0.817,0.925 1.229,1.333c0.396,0.4 0.771,0.804 1.113,1.212c0.35,0.413 0.725,0.821 1.125,1.229c2.729,2.858 5.05,5.854 6.962,8.987c0.129,0.271 0.333,0.817 0.617,1.633c0.129,0.129 0.229,0.3 0.3,0.508c0.067,0.204 0.171,0.433 0.3,0.704c0.408,0.821 0.783,1.675 1.125,2.562c0.337,0.879 0.579,1.796 0.721,2.754c0.138,0.95 0.308,1.933 0.508,2.95c0.208,1.017 0.379,2.075 0.508,3.158c0,0.55 0.033,1.1 0.104,1.646c0.067,0.538 0.171,1.079 0.3,1.617c0.279,0.683 0.421,1.329 0.421,1.946c0,0.608 0.062,1.254 0.196,1.933c0.137,1.358 0.208,2.65 0.208,3.879l0,3.879c-0.142,1.358 -0.283,2.75 -0.421,4.179c-0.133,1.429 -0.329,2.892 -0.6,4.387c-0.271,1.358 -0.646,2.754 -1.125,4.192c-0.479,1.429 -1.062,2.888 -1.742,4.375c-0.413,0.958 -0.821,1.917 -1.229,2.875c-0.413,0.95 -0.958,1.829 -1.638,2.638c-0.808,1.371 -1.629,2.696 -2.446,3.983c-0.821,1.288 -1.708,2.617 -2.654,3.983c-0.283,0.537 -0.625,1.017 -1.033,1.421c-0.4,0.412 -0.742,0.821 -1.021,1.229c-0.542,0.537 -1.05,1.087 -1.529,1.633c-0.471,0.537 -0.983,1.087 -1.529,1.633c-0.542,0.537 -1.188,1.121 -1.938,1.737c-0.75,0.608 -1.467,1.254 -2.146,1.933c-0.283,0.142 -0.692,0.479 -1.229,1.017c-0.821,0.683 -1.642,1.392 -2.462,2.142c-0.808,0.75 -1.629,1.462 -2.446,2.142c-1.092,0.958 -2.25,1.812 -3.483,2.562c-1.225,0.75 -2.517,1.462 -3.888,2.142c-2.454,1.358 -5.008,2.617 -7.667,3.775c-2.654,1.163 -5.342,2.346 -8.075,3.562c-2.313,0.958 -4.663,1.85 -7.054,2.667c-2.383,0.808 -4.8,1.688 -7.262,2.638c-0.954,0.413 -1.975,0.758 -3.062,1.033c-1.092,0.271 -2.183,0.538 -3.271,0.808c-1.771,0.413 -3.337,0.883 -4.696,1.421c-1.642,0.55 -3.312,0.992 -5.012,1.333c-1.704,0.337 -3.371,0.712 -5.012,1.125c-1.633,0.408 -3.233,0.817 -4.8,1.229c-1.571,0.408 -3.175,0.75 -4.8,1.017c-0.283,0.137 -0.554,0.208 -0.825,0.208c-0.271,0 -0.542,0.062 -0.808,0.196c-0.683,0.137 -1.396,0.275 -2.146,0.404c-0.75,0.138 -1.467,0.275 -2.146,0.421c-0.55,0.129 -1.067,0.229 -1.546,0.3c-0.471,0.067 -1.046,0.104 -1.725,0.104c-0.692,0 -1.45,0.033 -2.267,0.104c-0.808,0.067 -1.629,0.104 -2.446,0.104c-0.821,0.129 -1.604,0.229 -2.354,0.3c-0.742,0.067 -1.454,0.104 -2.146,0.104c-0.133,0.129 -0.267,0.196 -0.404,0.196c-0.542,0 -1.154,0.033 -1.846,0.104c-0.683,0.067 -1.362,0.104 -2.042,0.104c-0.954,0.138 -2.008,0.208 -3.167,0.208c-1.162,0 -2.288,0.062 -3.375,0.196c-0.542,0 -1.05,0.033 -1.529,0.104c-0.479,0.067 -0.992,0.104 -1.529,0.104c-0.271,0 -0.579,0.033 -0.917,0.104c-0.342,0.067 -0.654,0.104 -0.929,0.104l-6.738,0l-0.033,0.017Zm-2.054,-35.508l0,0.196c1.5,-0.129 2.962,-0.229 4.396,-0.3c1.429,-0.067 2.829,-0.104 4.2,-0.104c0.129,0 0.262,-0.033 0.404,-0.104c0.137,-0.067 0.275,-0.104 0.404,-0.104c0.817,-0.271 1.671,-0.467 2.55,-0.6c0.887,-0.137 1.808,-0.275 2.762,-0.421c0.408,-0.129 0.854,-0.158 1.338,-0.092c0.479,0.058 0.992,0.025 1.529,-0.104c1.087,-0.275 2.146,-0.517 3.167,-0.721c1.029,-0.2 2.088,-0.233 3.179,-0.104l0.196,0c0.679,-0.129 1.325,-0.229 1.938,-0.3c0.621,-0.067 1.2,-0.171 1.742,-0.312c1.087,-0.129 2.213,-0.262 3.375,-0.404c1.158,-0.137 2.283,-0.275 3.375,-0.404c1.638,-0.271 3.242,-0.608 4.8,-1.017c1.567,-0.408 3.171,-0.817 4.8,-1.229c1.5,-0.408 3.033,-0.817 4.608,-1.229c1.567,-0.408 3.104,-0.883 4.608,-1.421c0.808,-0.271 1.592,-0.608 2.342,-1.017c0.75,-0.408 1.604,-0.683 2.567,-0.825c1.087,-0.271 2.108,-0.638 3.062,-1.108c0.95,-0.479 1.904,-0.992 2.867,-1.542c0.95,-0.679 1.863,-1.288 2.746,-1.829c0.887,-0.546 1.817,-1.096 2.775,-1.646c0.679,-0.396 1.396,-0.767 2.146,-1.108c0.75,-0.35 1.396,-0.796 1.938,-1.333c1.088,-0.946 2.075,-1.967 2.954,-3.054c0.887,-1.087 1.675,-2.175 2.354,-3.267c0.958,-1.638 1.779,-3.304 2.462,-5.004c0.679,-1.708 1.358,-3.375 2.042,-5.004c0,-0.271 0.033,-0.5 0.104,-0.704c0.067,-0.208 0.104,-0.383 0.104,-0.525c0.129,-0.537 0.229,-1.05 0.3,-1.529c0.067,-0.479 0.171,-0.987 0.317,-1.529c0.129,-0.546 0.196,-1.054 0.196,-1.529l0,-1.542c-0.133,-0.946 -0.233,-1.863 -0.3,-2.742c-0.071,-0.887 -0.104,-1.804 -0.104,-2.754c-0.142,-0.408 -0.208,-0.783 -0.208,-1.125c0,-0.337 -0.067,-0.712 -0.196,-1.125c-0.413,-2.996 -1.779,-5.446 -4.096,-7.354c-0.412,-0.408 -0.854,-0.812 -1.337,-1.212c-0.471,-0.408 -0.912,-0.817 -1.321,-1.229c-1.5,-1.638 -3.104,-3.167 -4.8,-4.596c-1.704,-1.425 -3.508,-2.683 -5.417,-3.775c-1.229,-0.679 -2.429,-1.321 -3.588,-1.933c-1.15,-0.617 -2.412,-1.2 -3.783,-1.738c-1.633,-0.546 -3.3,-1.125 -5.013,-1.737c-1.704,-0.608 -3.3,-1.392 -4.8,-2.35c-0.133,-0.129 -0.233,-0.196 -0.3,-0.196c-0.071,0 -0.175,-0.067 -0.317,-0.208c-1.363,-0.408 -2.758,-0.883 -4.188,-1.421c-1.433,-0.546 -2.896,-1.025 -4.396,-1.438c-2.725,-0.808 -5.483,-1.517 -8.283,-2.125c-2.792,-0.617 -5.621,-1.062 -8.479,-1.333c-0.412,-0.137 -0.821,-0.242 -1.229,-0.312c-0.413,-0.067 -0.883,-0.104 -1.425,-0.104l-10.129,0c-3.333,0 -6.704,-0.062 -10.113,-0.196c-1.771,-0.138 -3.479,-0.171 -5.117,-0.104c-1.633,0.071 -3.333,0.242 -5.1,0.508c-0.958,0.142 -1.988,0.208 -3.075,0.208c-1.092,0 -2.183,0.067 -3.271,0.196l-1.425,0c-0.412,0 -0.883,0.142 -1.425,0.421c-1.375,0.4 -2.842,0.837 -4.413,1.317c-1.562,0.479 -3.092,0.854 -4.592,1.125c-0.821,0.142 -1.675,0.312 -2.567,0.525c-0.883,0.204 -1.733,0.367 -2.55,0.496c-2.312,0.413 -4.558,1.025 -6.738,1.842c-2.183,0.821 -4.363,1.704 -6.542,2.65c-3.821,1.629 -7.504,3.671 -11.046,6.125c-0.683,0.413 -1.362,0.75 -2.042,1.017c-1.363,0.129 -2.729,0.675 -4.096,1.633c-0.954,0.683 -1.975,1.392 -3.062,2.142c-1.092,0.75 -2.05,1.671 -2.867,2.754c-0.413,0.537 -0.821,1.017 -1.229,1.421c-0.4,0.412 -0.808,0.892 -1.217,1.438c-0.283,0.4 -0.554,0.775 -0.825,1.125c-0.271,0.342 -0.542,0.712 -0.808,1.108c-0.958,1.642 -1.717,3.308 -2.267,5.017c-0.542,1.7 -1.079,3.429 -1.621,5.196c-0.142,0.537 -0.246,1.15 -0.317,1.829c-0.058,0.683 -0.092,1.362 -0.092,2.05c0.129,0.537 0.229,1.121 0.3,1.737c0.067,0.608 0.171,1.254 0.3,1.933c0.279,1.221 0.725,2.442 1.337,3.671c0.608,1.229 1.188,2.454 1.742,3.671c0.408,0.683 0.846,1.392 1.321,2.142c0.479,0.75 0.854,1.462 1.125,2.142c0.958,1.908 2.254,3.679 3.887,5.317c0.958,0.95 1.913,1.867 2.867,2.754c0.95,0.879 1.904,1.729 2.867,2.546c0.679,0.538 1.396,0.983 2.146,1.333c0.75,0.342 1.462,0.712 2.146,1.108c0.542,0.279 1.05,0.554 1.529,0.825c0.479,0.271 0.992,0.537 1.529,0.808c0.817,0.412 1.637,0.788 2.446,1.125c0.817,0.342 1.638,0.717 2.462,1.125c1.638,0.683 3.308,1.258 5.013,1.737c1.7,0.479 3.438,0.854 5.208,1.125c1.908,0.271 3.683,0.683 5.325,1.229c0.542,0.129 1.079,0.3 1.621,0.508c0.546,0.204 1.1,0.3 1.65,0.3c1.087,0.142 2.179,0.346 3.271,0.612c1.087,0.271 2.179,0.546 3.271,0.825c0.95,0.129 1.863,0.3 2.746,0.508c0.887,0.204 1.817,0.433 2.775,0.704c1.088,0.279 2.208,0.554 3.363,0.825c1.158,0.271 2.354,0.404 3.588,0.404c0.408,0 0.846,0.037 1.321,0.104c0.479,0.071 0.996,0.171 1.546,0.3c0.679,0.142 1.325,0.246 1.938,0.312c0.608,0.071 1.188,0.104 1.742,0.104l5.1,0l-0.004,-0Zm140.883,-112.446c0.679,-0.271 1.325,-0.438 1.938,-0.508c0.608,-0.067 1.188,-0.104 1.742,-0.104l27.804,0c2.858,0.279 5.721,0.388 8.583,0.312c2.858,-0.067 5.792,-0.033 8.792,0.104c0.679,0 1.396,0.038 2.146,0.104c0.75,0.058 1.462,0.092 2.146,0.092c2.317,-0.129 4.637,-0.196 6.946,-0.196c2.317,0 4.571,-0.067 6.754,-0.208c3.129,-0.271 6.296,-0.333 9.5,-0.196c3.212,0.129 6.379,0.129 9.512,-0.017l30.671,0c1.087,0 2.212,-0.029 3.375,-0.092c1.158,-0.067 2.283,-0.038 3.375,0.092c1.9,0.142 3.833,0.246 5.808,0.312c1.979,0.071 3.858,0.038 5.642,-0.104c1.9,-0.137 3.737,-0.208 5.508,-0.208l5.325,0c1.629,0 3.258,0.037 4.892,0.104c1.637,0.071 3.279,0.175 4.921,0.312c2.042,0.129 4.083,0.196 6.121,0.196l14.525,0c1.771,-0.129 3.471,-0.229 5.1,-0.3c1.637,-0.067 3.275,-0.033 4.908,0.104c1.908,0.129 3.821,0.196 5.733,0.196l5.717,0c0.546,0 1.029,0.038 1.442,0.104c0.408,0.071 0.883,0.104 1.425,0.104c0.679,0.142 1.358,0.246 2.042,0.312c0.692,0.058 1.304,0.163 1.846,0.3c2.729,0.271 5.321,0.683 7.775,1.229c1.908,0.538 3.679,1.087 5.312,1.633c1.638,0.538 3.275,1.283 4.908,2.233c1.771,0.821 3.442,1.708 5.013,2.667c1.567,0.95 3.033,2.037 4.396,3.267c1.5,1.087 2.825,2.275 3.975,3.563c1.158,1.287 2.221,2.679 3.179,4.179c0.271,0.279 0.504,0.554 0.704,0.825c0.208,0.271 0.379,0.538 0.508,0.808c0.408,0.55 0.783,1.062 1.125,1.542c0.337,0.471 0.65,0.979 0.929,1.529c0.271,0.538 0.542,0.942 0.808,1.212c0.271,0.413 0.542,0.821 0.808,1.229c0.279,0.412 0.554,0.821 0.825,1.229c0.137,0.142 0.242,0.279 0.3,0.421c0.067,0.129 0.171,0.329 0.317,0.6c0.817,0.95 1.462,2.038 1.938,3.267c0.479,1.229 0.921,2.387 1.337,3.475c0.137,0.538 0.242,1.121 0.3,1.737c0.067,0.608 0.171,1.254 0.317,1.933c0.137,0.271 0.208,0.683 0.208,1.229l0,7.55c0,0.537 -0.142,1.221 -0.421,2.038c-0.133,0.821 -0.267,1.642 -0.404,2.454c-0.142,0.808 -0.346,1.554 -0.617,2.233c-0.412,1.229 -0.787,2.454 -1.125,3.683c-0.342,1.221 -0.779,2.375 -1.321,3.458c-1.229,3.546 -3.071,6.542 -5.521,8.987c-0.683,0.95 -1.396,1.833 -2.146,2.65c-0.75,0.821 -1.538,1.704 -2.354,2.65c-2.454,2.45 -5.175,4.625 -8.179,6.529c-1.913,1.229 -3.821,2.246 -5.717,3.054c-1.642,0.821 -3.317,1.504 -5.025,2.05c-1.704,0.537 -3.438,1.15 -5.208,1.829c-0.271,0 -0.475,0.071 -0.617,0.208c0.137,0.271 0.346,0.537 0.617,0.808c1.229,1.371 2.392,2.733 3.483,4.087c1.087,1.358 2.046,2.788 2.867,4.283c0.271,0.55 0.608,1.092 1.021,1.633c0.679,0.95 1.358,1.938 2.042,2.967c0.679,1.017 1.358,2.004 2.042,2.95c1.087,1.767 2.25,3.504 3.483,5.213c1.229,1.7 2.392,3.429 3.483,5.196c0.542,0.55 0.979,1.163 1.321,1.842c0.337,0.683 0.646,1.358 0.917,2.038c0.279,0.538 0.587,1.017 0.929,1.421c0.337,0.412 0.646,0.821 0.917,1.229c1.229,1.087 2.117,2.383 2.654,3.879c1.087,1.629 2.179,3.125 3.271,4.492c0.679,0.683 1.292,1.429 1.829,2.246c0.546,0.808 1.1,1.554 1.65,2.233c0.542,0.55 1.05,1.1 1.529,1.646c0.479,0.538 0.992,1.079 1.529,1.617c0.546,0.687 0.887,1.437 1.021,2.246c-0.413,0.137 -1.021,0.208 -1.829,0.208c-1.092,0.137 -2.217,0.208 -3.375,0.208c-1.163,0 -2.354,0.062 -3.587,0.196c-2.863,0.137 -5.688,0.208 -8.479,0.208l-10.325,0c-2.729,0 -5.429,-0.038 -8.087,-0.104c-2.654,-0.071 -5.338,-0.171 -8.058,-0.3c-0.958,0 -1.95,0.029 -2.971,0.092c-1.021,0.067 -2.013,0.104 -2.971,0.104c-0.808,-0.129 -1.629,-0.167 -2.446,-0.104c-0.821,0.067 -1.571,0.037 -2.25,-0.092c-0.271,-0.142 -0.546,-0.175 -0.825,-0.104c-0.271,0.067 -0.542,0.104 -0.808,0.104l-3.675,0c-0.271,-0.683 -0.583,-1.296 -0.929,-1.842c-0.342,-0.546 -0.712,-1.092 -1.112,-1.633c-0.692,-1.087 -1.413,-2.142 -2.163,-3.158c-0.742,-1.017 -1.525,-2.071 -2.342,-3.158c-0.55,-1.088 -1.2,-2.142 -1.95,-3.158c-0.75,-1.025 -1.467,-2.013 -2.146,-2.967c-0.808,-1.354 -1.663,-2.613 -2.55,-3.775c-0.892,-1.158 -1.883,-2.279 -2.971,-3.371c-0.4,-0.679 -0.842,-1.321 -1.321,-1.933c-0.479,-0.617 -0.925,-1.2 -1.337,-1.737c-0.683,-0.958 -1.362,-1.908 -2.042,-2.863c-0.683,-0.946 -1.363,-1.9 -2.042,-2.863c-0.142,-0.271 -0.283,-0.5 -0.421,-0.704c-0.133,-0.208 -0.329,-0.383 -0.6,-0.525c-0.55,-1.087 -1.167,-2.104 -1.846,-3.054c-0.683,-0.946 -1.433,-1.9 -2.25,-2.863c-0.133,-0.271 -0.3,-0.571 -0.508,-0.912c-0.204,-0.337 -0.442,-0.646 -0.721,-0.913c-0.133,-0.546 -0.4,-1.025 -0.808,-1.438c-0.413,-0.408 -0.821,-0.883 -1.229,-1.421c-0.542,-0.679 -1.017,-1.392 -1.425,-2.142c-0.412,-0.75 -0.892,-1.458 -1.442,-2.142l-0.808,0c-2.729,0 -5.529,-0.033 -8.388,-0.104c-2.862,-0.067 -5.654,-0.033 -8.375,0.104c-3.271,0.129 -6.542,0.167 -9.812,0.104c-3.271,-0.067 -6.542,-0.038 -9.812,0.092c-1.771,0.142 -3.613,0.175 -5.521,0.104c-1.913,-0.067 -3.821,-0.033 -5.733,0.104c-2.183,0.142 -4.433,0.246 -6.754,0.312c-2.312,0.058 -4.629,0.025 -6.946,-0.104c-2.579,-0.137 -5.138,-0.171 -7.667,-0.104c-2.521,0.071 -5.008,0.037 -7.458,-0.104c-0.821,0 -1.642,-0.033 -2.462,-0.104c-0.808,-0.067 -1.629,-0.104 -2.446,-0.104c-1.225,0 -2.446,0.037 -3.675,0.104c-1.229,0.071 -2.529,0.175 -3.888,0.312c-0.271,0.129 -0.683,0.196 -1.229,0.196l-10.429,0l0,10.212c0,1.358 0.033,2.688 0.104,3.983c0.067,1.288 0.104,2.613 0.104,3.971c0.137,0.537 0.242,1.183 0.3,1.933c0.067,0.75 0.171,1.462 0.317,2.142l0,19.587c0,0.55 0.033,1.1 0.104,1.646c0.067,0.537 0.104,1.079 0.104,1.617c0,0.279 -0.037,0.554 -0.104,0.825c-0.071,0.271 -0.104,0.542 -0.104,0.825l-3.483,0c-0.542,0.271 -0.883,0.467 -1.021,0.6l-17.588,0c-0.954,0 -1.9,-0.067 -2.85,-0.196c-4.363,-0.413 -8.725,-0.612 -13.083,-0.612l-14.317,0c-0.142,0 -0.279,-0.071 -0.404,-0.208l0,-3.458c0.129,-0.817 0.125,-1.667 -0.017,-2.546c-0.133,-0.887 -0.196,-1.742 -0.196,-2.562c-0.142,-0.271 -0.208,-0.742 -0.208,-1.421c0,-4.492 -0.038,-8.979 -0.104,-13.462c-0.058,-4.492 -0.025,-8.987 0.104,-13.479c0.137,-2.854 0.171,-5.675 0.104,-8.463c-0.071,-2.792 -0.037,-5.621 0.104,-8.475c0.137,-0.817 0.171,-1.596 0.104,-2.338c-0.071,-0.75 -0.104,-1.533 -0.104,-2.35c0.137,-2.446 0.208,-4.892 0.208,-7.337c0,-2.454 0.062,-4.975 0.196,-7.562l0,-3.671c0,-1.229 0.067,-2.45 0.208,-3.671c0.271,-3.267 0.404,-6.492 0.404,-9.692c0,-3.204 -0.067,-6.371 -0.196,-9.496c-0.142,-5.708 -0.175,-11.387 -0.104,-17.029c0.067,-5.65 -0.038,-11.329 -0.317,-17.042l0,-5.721c-0.133,-0.271 -0.196,-0.679 -0.196,-1.229l0.004,0Zm51.921,61.421l1.229,0c1.229,0 2.421,-0.029 3.571,-0.092c1.158,-0.067 2.283,-0.104 3.375,-0.104c4.358,-0.137 8.754,-0.171 13.192,-0.104c4.429,0.071 8.754,-0.029 12.979,-0.3l4.096,0c3.542,0 7.117,0.037 10.729,0.104c3.608,0.058 7.192,0.025 10.746,-0.104l10.925,0c3.621,0 7.204,-0.067 10.746,-0.208c2.721,-0.137 5.479,-0.171 8.267,-0.104c2.8,0.071 5.629,0.038 8.492,-0.104c0.95,-0.129 1.9,-0.158 2.85,-0.092c0.958,0.058 1.921,0.092 2.879,0.092c1.629,-0.129 3.225,-0.196 4.788,-0.196l4.608,0c0.138,0 0.279,-0.067 0.421,-0.208c0.95,-0.137 1.829,-0.242 2.642,-0.3c0.817,-0.067 1.712,-0.104 2.671,-0.104c0.542,0 1.079,-0.033 1.621,-0.104c0.546,-0.067 1.1,-0.167 1.65,-0.3c0.679,0 1.358,-0.067 2.042,-0.208c0.679,-0.137 1.296,-0.208 1.846,-0.208c2.721,-0.271 5.033,-0.946 6.946,-2.038c0.408,-0.271 0.846,-0.5 1.321,-0.704c0.479,-0.208 0.921,-0.45 1.337,-0.721c0.679,-0.546 1.429,-1.025 2.25,-1.438c0.817,-0.408 1.567,-0.883 2.25,-1.421c0.271,-0.271 0.404,-0.471 0.404,-0.612c0.408,-0.817 0.817,-1.604 1.229,-2.35c0.408,-0.75 0.817,-1.529 1.229,-2.337c0.396,-0.817 0.329,-1.842 -0.208,-3.071c-0.412,-1.217 -1.229,-2.308 -2.462,-3.267c-0.542,-0.679 -1.225,-1.287 -2.042,-1.829c-0.821,-0.546 -1.571,-1.092 -2.25,-1.633c-0.542,-0.275 -1.225,-0.554 -2.042,-0.825c-0.542,0 -0.954,-0.062 -1.229,-0.196c-2.863,-0.817 -5.792,-1.229 -8.792,-1.229c-1.362,-0.138 -2.758,-0.242 -4.188,-0.3c-1.433,-0.067 -2.829,-0.104 -4.188,-0.104l-1.846,0c-3.404,-0.138 -6.842,-0.171 -10.325,-0.104c-3.475,0.071 -6.983,0.038 -10.533,-0.104c-1.225,-0.138 -2.517,-0.208 -3.888,-0.208l-3.871,0c-4.646,-0.271 -9.35,-0.367 -14.121,-0.3c-4.763,0.071 -9.529,0.037 -14.3,-0.104c-4.913,-0.138 -9.792,-0.171 -14.629,-0.104c-4.833,0.071 -9.704,0.037 -14.617,-0.104c-1.362,-0.129 -2.758,-0.158 -4.188,-0.092c-1.433,0.058 -2.896,0.025 -4.396,-0.104c-1.362,-0.138 -2.729,-0.208 -4.096,-0.208c-1.362,0 -2.725,0.133 -4.083,0.404c-1.092,0.142 -2.25,0.175 -3.483,0.104c-1.225,-0.067 -2.379,-0.033 -3.467,0.104c-0.683,0.142 -1.396,0.208 -2.146,0.208c-0.75,0 -1.467,0.067 -2.146,0.196c-0.142,0.55 -0.246,1.1 -0.317,1.646c-0.058,0.538 -0.092,1.15 -0.092,1.829l0,13.058c0.129,1.087 0.229,2.179 0.3,3.267c0.067,1.087 0.171,2.179 0.3,3.267l0,4.075l0.012,-0.004Zm251.487,-28.771c0.138,3.267 0.208,6.5 0.208,9.704l0,9.692l1.637,0c4.358,0 8.721,-0.033 13.083,-0.104c4.358,-0.067 8.721,0.029 13.083,0.3c4.358,0.142 8.721,0.175 13.083,0.104c4.358,-0.067 8.65,-0.033 12.875,0.104l49.071,0c1.638,0 3.346,-0.067 5.117,-0.208c1.908,-0.129 3.85,-0.158 5.821,-0.092c1.979,0.058 3.921,0.025 5.821,-0.104c3.962,-0.275 7.917,-0.383 11.871,-0.312c3.95,0.071 7.9,0.104 11.854,0.104l3.271,0c1.087,0 2.179,-0.067 3.271,-0.208l7.158,0c1.087,0 2.208,0.037 3.362,0.104c1.158,0.071 2.283,0.175 3.375,0.312l5.521,0c0.279,0.538 0.45,1.05 0.508,1.529c0.067,0.479 0.104,0.988 0.104,1.529c0.137,2.587 0.137,5.175 0,7.758c0,0.95 -0.071,1.867 -0.208,2.754c-0.133,0.879 -0.267,1.729 -0.404,2.546l0,0.825c-0.133,0.95 -0.196,1.9 -0.196,2.863l0,3.054c-0.142,1.221 -0.246,2.408 -0.317,3.562c-0.071,1.163 -0.104,2.35 -0.104,3.579c0,0.129 -0.133,0.608 -0.404,1.421c-0.271,0 -0.542,0.071 -0.808,0.208c-0.958,0 -1.917,0.037 -2.867,0.104c-0.954,0.058 -1.975,0.163 -3.063,0.3l-2.25,0c-1.092,0 -2.25,-0.033 -3.483,-0.104c-1.229,-0.067 -2.458,-0.167 -3.675,-0.3c-0.55,-0.137 -1.2,-0.171 -1.95,-0.104c-0.75,0.071 -1.467,0.104 -2.146,0.104c-0.954,0.129 -1.837,0.233 -2.654,0.3c-0.821,0.071 -1.637,0.242 -2.446,0.508c-0.821,0 -1.367,-0.067 -1.638,-0.208c-1.229,-0.129 -2.321,-0.129 -3.271,0l-0.617,0c-0.958,0.142 -1.95,0.246 -2.971,0.312c-1.021,0.071 -2.008,0.104 -2.954,0.104c-2.321,0.129 -4.679,0.167 -7.067,0.104c-2.383,-0.067 -4.725,-0.038 -7.038,0.092c-3.962,0.142 -7.954,0.208 -11.975,0.208l-11.958,0c-2.579,0.142 -5.238,0.208 -7.967,0.208l-8.179,0c-1.362,0 -2.692,0.037 -3.992,0.104c-1.292,0.058 -2.688,0.092 -4.188,0.092c-5.725,-0.129 -11.479,-0.196 -17.271,-0.196c-5.792,0 -11.621,-0.067 -17.483,-0.208l-9.213,0c-3.133,0 -6.267,0.071 -9.392,0.208c-1.5,0 -3,0.037 -4.5,0.104c-1.5,0.058 -3,0.162 -4.5,0.3l-5.1,0c-0.413,0 -0.788,0.038 -1.125,0.104c-0.342,0.058 -0.646,0.092 -0.917,0.092c-0.142,0.142 -0.208,0.246 -0.208,0.312l0,0.104c0,0.95 -0.037,1.933 -0.104,2.95c-0.071,1.017 -0.037,2.008 0.104,2.967c0.137,1.358 0.171,2.75 0.104,4.179c-0.071,1.429 -0.104,2.892 -0.104,4.387c0.137,0.55 0.171,1.163 0.104,1.842c-0.071,0.683 -0.175,1.358 -0.317,2.038l0,1.017c0.408,0.142 0.888,0.208 1.442,0.208l2.042,0c4.9,0.129 9.837,0.233 14.812,0.3c4.983,0.071 9.925,0.104 14.842,0.104l10.221,0c1.358,-0.137 2.721,-0.242 4.083,-0.3c1.371,-0.067 2.733,-0.104 4.096,-0.104c0.129,-0.137 0.396,-0.208 0.808,-0.208l11.15,0c3.75,0 7.462,0.071 11.133,0.208l9.2,0c3,0 6.004,0.067 9.004,0.196l3.975,0c1.3,0 2.629,0.071 3.992,0.208c4.358,0.271 8.688,0.375 12.979,0.312c4.3,-0.067 8.633,-0.104 12.996,-0.104l12.875,0c1.358,0 2.654,-0.033 3.888,-0.104c1.229,-0.067 2.525,-0.171 3.887,-0.312l0.404,0c1.229,-0.129 2.492,-0.196 3.783,-0.196c1.3,0 2.558,-0.067 3.783,-0.208c1.5,-0.137 3,-0.208 4.5,-0.208l4.5,0c0.817,0 1.6,0.071 2.342,0.208c0.75,0.142 1.533,0.208 2.354,0.208l4.096,0c0.408,0 0.75,-0.067 1.021,-0.208l4.592,0c1.567,0 3.104,-0.067 4.608,-0.208c2.45,-0.271 4.938,-0.367 7.458,-0.3c2.521,0.071 5.013,0.104 7.471,0.104l0.404,0c0.679,0.271 1.021,0.879 1.021,1.829c0.137,2.317 0.242,4.596 0.3,6.846c0.067,2.246 0.171,4.525 0.317,6.829c0,0.279 0.029,0.592 0.092,0.929c0.067,0.342 0.104,0.646 0.104,0.913c0.137,0.683 0.208,1.429 0.208,2.246c0,0.821 0.067,1.571 0.208,2.246c0.129,1.629 0.196,3.262 0.196,4.896l0,4.896c0,0.683 -0.037,1.429 -0.104,2.246c-0.058,0.808 -0.162,1.558 -0.3,2.246c-0.683,0.129 -1.362,0.196 -2.042,0.196l-2.042,0c-5.183,0 -10.4,-0.037 -15.65,-0.104c-5.246,-0.058 -10.454,-0.025 -15.638,0.104c-1.5,0 -2.967,0.033 -4.396,0.104c-1.433,0.067 -2.896,0.167 -4.396,0.3l-1.229,0c-2.042,0 -4.087,0.033 -6.138,0.104c-2.042,0.067 -4.017,0.033 -5.929,-0.104c-2.992,-0.129 -5.954,-0.167 -8.883,-0.104c-2.933,0.067 -5.896,0.038 -8.9,-0.092c-3.812,-0.271 -7.7,-0.375 -11.658,-0.312c-3.954,0.067 -7.904,0.104 -11.854,0.104c-1.225,0 -2.446,0.033 -3.675,0.104c-1.229,0.067 -2.458,0.104 -3.675,0.104c-0.958,0.129 -1.888,0.196 -2.775,0.196c-0.883,0 -1.796,0.067 -2.746,0.208c-1.362,0.137 -2.654,0.208 -3.887,0.208l-16.971,0c-4.5,0 -9,-0.071 -13.492,-0.208c-4.771,-0.142 -9.617,-0.175 -14.525,-0.104c-4.904,0.067 -9.737,0.104 -14.513,0.104c-1.771,-0.142 -3.542,-0.142 -5.312,0c-3,0.137 -6.075,0.208 -9.213,0.208l-9.392,0c-2.321,0 -4.679,-0.037 -7.067,-0.104c-2.383,-0.071 -4.8,-0.175 -7.246,-0.312c-1.771,0 -3.542,-0.037 -5.312,-0.104c-1.771,-0.058 -3.612,-0.092 -5.521,-0.092c-2.183,0 -4.467,-0.037 -6.858,-0.104c-2.383,-0.071 -4.725,-0.104 -7.037,-0.104c-0.958,0 -1.921,0.033 -2.879,0.104c-0.954,0.067 -1.975,0.167 -3.062,0.3c-0.271,0 -0.579,-0.037 -0.917,-0.104c-0.342,-0.058 -0.646,-0.092 -0.917,-0.092l-6.346,0l0,-7.758c0,-0.679 -0.037,-1.287 -0.104,-1.829c-0.058,-0.546 -0.025,-1.096 0.104,-1.646c0,-2.854 -0.037,-5.675 -0.104,-8.462c-0.058,-2.788 -0.092,-5.542 -0.092,-8.267l0,-35.092c0.129,-2.175 0.196,-4.35 0.196,-6.529c0,-2.175 0.067,-4.35 0.208,-6.529c0,-1.496 0.033,-3.092 0.104,-4.792c0.067,-1.708 0.104,-3.375 0.104,-5.004l0,-3.475c0,-1.229 0.062,-2.45 0.196,-3.671c0.279,-2.175 0.383,-4.317 0.317,-6.425c-0.071,-2.117 -0.104,-4.263 -0.104,-6.442c0,-2.854 0.033,-5.675 0.104,-8.462c0.067,-2.788 0.033,-5.542 -0.104,-8.267c-0.142,-1.904 -0.246,-3.779 -0.317,-5.617c-0.058,-1.833 -0.025,-3.637 0.104,-5.408c0.137,-1.354 0.246,-2.712 0.317,-4.075c0.067,-1.354 0.242,-2.717 0.508,-4.087l0,-0.808c0.271,-0.271 0.742,-0.404 1.425,-0.404c2.587,-0.275 5.108,-0.421 7.562,-0.421l7.562,0c1.371,0 2.733,-0.029 4.096,-0.092c1.358,-0.067 2.721,-0.104 4.083,-0.104c1.088,0 2.146,0.038 3.167,0.104c1.029,0.058 2.017,0.092 2.971,0.092c0.679,0 1.429,-0.029 2.25,-0.092c0.817,-0.067 1.638,-0.104 2.463,-0.104c2.312,0.129 4.654,0.167 7.037,0.104c2.392,-0.067 4.675,0.029 6.858,0.3c2.042,0 4.05,0.038 6.033,0.104c1.979,0.071 3.921,0.038 5.821,-0.104c3,-0.271 5.967,-0.333 8.9,-0.196c2.929,0.129 5.896,0.129 8.9,-0.017l3.767,0c1.3,0 2.567,-0.062 3.796,-0.196c1.908,-0.408 4.021,-0.479 6.333,-0.208c1.229,0 2.421,0.037 3.571,0.104c1.158,0.071 2.354,0.171 3.587,0.3l0.617,0c3.812,0.142 7.592,0.208 11.346,0.208l11.15,0c0.95,0 1.9,-0.033 2.85,-0.104c0.958,-0.067 1.913,-0.104 2.867,-0.104c6.271,0.279 12.508,0.387 18.712,0.312c6.2,-0.067 12.442,-0.033 18.712,0.104c3.671,-0.275 7.346,-0.383 11.029,-0.312c3.679,0.071 7.433,0.037 11.254,-0.104c1.629,-0.129 3.296,-0.196 4.996,-0.196l18.308,0c0.679,0 1.154,0.067 1.425,0.196c0.817,0.142 1.604,0.246 2.354,0.312c0.75,0.071 1.6,0.037 2.55,-0.104c0.138,-0.138 0.413,-0.208 0.825,-0.208l22.583,0c0.067,0 0.104,0.071 0.104,0.208c0.138,0.142 0.208,0.413 0.208,0.808c-0.142,1.779 -0.208,3.588 -0.208,5.421c0,1.829 -0.067,3.696 -0.196,5.6c-0.142,2.317 -0.175,4.633 -0.104,6.95c0.067,2.308 0.033,4.621 -0.104,6.933l0,6.725c-0.142,0.142 -0.279,0.208 -0.404,0.208c-0.958,0.142 -1.888,0.246 -2.775,0.312c-0.883,0.058 -1.867,0.163 -2.954,0.3l-1.425,0c-3,0 -6.004,-0.033 -9.004,-0.104c-2.992,-0.067 -5.988,0.029 -8.988,0.3c-1.092,0.142 -2.154,0.208 -3.179,0.208l-3.167,0c-0.808,0.142 -1.629,0.246 -2.446,0.312c-0.821,0.058 -1.642,0.163 -2.463,0.3l-1.217,0c-3.683,0 -7.396,-0.033 -11.15,-0.104c-3.75,-0.067 -7.467,-0.033 -11.133,0.104c-6.683,0.142 -13.438,0.175 -20.258,0.104c-6.812,-0.067 -13.625,0.029 -20.438,0.3c-2.592,0 -5.183,0.037 -7.775,0.104c-2.579,0.071 -5.238,0.104 -7.967,0.104c-3.412,0 -6.792,-0.033 -10.129,-0.104c-3.333,-0.067 -6.767,-0.167 -10.308,-0.3c-1.783,-0.138 -3.521,-0.171 -5.221,-0.104c-1.704,0.071 -3.437,0.038 -5.208,-0.104c-1.375,-0.138 -2.842,-0.208 -4.412,-0.208l-4.592,0c-3.133,-0.271 -6.304,-0.367 -9.512,-0.3c-3.204,0.071 -6.371,0.037 -9.5,-0.104l-8.792,0c-0.954,0.142 -2.008,0.208 -3.167,0.208c-1.163,0 -2.288,0.067 -3.375,0.196l-0.021,0.029Z" style="fill:#fff;"/><path d="M294.375,736.596c-14.25,-3.271 -21.367,-9.354 -21.367,-18.242c0,-6.558 2.296,-11.475 6.888,-14.75c4.579,-3.212 9.954,-4.821 16.117,-4.821c13.625,0 21.704,5.058 24.233,15.171l-7.804,0c-1.375,-6.008 -6.85,-9.017 -16.433,-9.017c-6.717,0 -11.4,1.983 -14.062,5.946c-1.033,1.496 -1.546,3.379 -1.546,5.629c0,4.304 2.325,7.621 6.979,9.946c2.192,1.163 6.846,2.663 13.971,4.508c7.121,1.85 12.292,3.9 15.5,6.154c4.45,3.137 6.679,7.542 6.679,13.208c0,7.037 -2.771,12.371 -8.312,15.996c-4.663,3.008 -10.412,4.508 -17.258,4.508c-15.467,0 -24.438,-5.875 -26.904,-17.629l8.525,0c1.3,7.379 7.429,11.067 18.383,11.067c7.804,0 13.242,-2.15 16.325,-6.454c1.229,-1.708 1.846,-4.029 1.846,-6.962c0,-2.875 -1.133,-5.233 -3.392,-7.083c-3.213,-2.596 -9.333,-4.988 -18.367,-7.175Zm64.271,-5.525l0,-6.667l11.3,0l0,-17.521l7.188,0l0,17.521l11.179,0l0,6.667l-11.179,0l0,38.429l-7.188,0l0,-38.429l-11.3,0Zm101.029,30.746c-3.354,5.742 -8.379,8.613 -15.079,8.613c-5.071,0 -9.046,-1.679 -11.917,-5.033c-2.812,-3.342 -4.217,-7.612 -4.217,-12.804l0,-28.188l7.188,0l0,28.188c0,2.938 0.683,5.429 2.054,7.475c1.3,2.125 3.488,3.192 6.571,3.192c5.613,0 9.579,-1.775 11.917,-5.333c2.317,-3.483 3.483,-8.371 3.483,-14.663l0,-18.854l7.204,0l0,45.096l-7.204,0l0,-7.688Zm94.571,7.683l-7.188,0l0,-7.683c-0.412,0.55 -0.821,1.058 -1.229,1.529c-4.312,4.783 -9.583,7.175 -15.817,7.175c-6.225,0 -11.463,-2.388 -15.713,-7.175c-4.171,-4.642 -6.258,-10.1 -6.258,-16.383c0,-6.292 2.088,-11.758 6.258,-16.4c4.25,-4.783 9.488,-7.175 15.713,-7.175c6.229,0 11.5,2.392 15.817,7.175c0.408,0.479 0.817,0.987 1.229,1.529l0,-39.45l7.188,0l0,76.858Zm-7.188,-22.542c0,-4.375 -1.508,-8.2 -4.517,-11.487c-3.083,-3.271 -6.879,-4.913 -11.388,-4.913c-4.525,0 -8.292,1.642 -11.3,4.913c-3.083,3.287 -4.621,7.112 -4.621,11.487c0,4.367 1.538,8.188 4.621,11.471c3.008,3.275 6.775,4.913 11.3,4.913c4.508,0 8.304,-1.638 11.388,-4.913c3.008,-3.283 4.517,-7.108 4.517,-11.471Zm60.275,-38.129c0.887,0.892 1.337,1.946 1.337,3.175c0,1.3 -0.446,2.392 -1.337,3.279c-0.892,0.892 -1.95,1.333 -3.179,1.333c-1.3,0 -2.396,-0.442 -3.288,-1.333c-0.892,-0.887 -1.337,-1.979 -1.337,-3.279c0,-1.229 0.442,-2.283 1.337,-3.175c0.888,-0.888 1.983,-1.333 3.288,-1.333c1.229,0 2.288,0.446 3.179,1.333Zm0.404,60.671l-7.188,0l0,-45.096l7.188,0l0,45.096Zm90.371,-22.75c0,6.558 -2.296,12.092 -6.887,16.596c-4.725,4.583 -10.3,6.875 -16.733,6.875c-6.433,0 -11.983,-2.292 -16.642,-6.875c-4.65,-4.5 -6.979,-10.033 -6.979,-16.596c0,-6.487 2.325,-12.058 6.979,-16.712c4.592,-4.571 10.137,-6.858 16.642,-6.858c6.5,0 12.079,2.288 16.733,6.858c4.592,4.654 6.887,10.225 6.887,16.712Zm-7.188,0c0,-4.512 -1.612,-8.371 -4.833,-11.575c-3.221,-3.212 -7.092,-4.821 -11.6,-4.821c-4.525,0 -8.388,1.608 -11.6,4.821c-3.221,3.204 -4.833,7.067 -4.833,11.575c0,4.446 1.608,8.267 4.833,11.471c3.212,3.217 7.075,4.821 11.6,4.821c4.508,0 8.375,-1.604 11.6,-4.821c3.217,-3.204 4.833,-7.029 4.833,-11.471Zm56.462,16.296c1.779,1.229 4.112,1.842 6.992,1.842c6.562,0 9.846,-2.458 9.846,-7.383c0,-2.863 -2.363,-5.05 -7.083,-6.558c-1.979,-0.679 -4.104,-1.292 -6.362,-1.842c-2.333,-0.546 -4.487,-1.263 -6.467,-2.142c-2.333,-1.096 -4.079,-2.462 -5.238,-4.104c-1.163,-1.637 -1.742,-3.583 -1.742,-5.842c0,-4.513 1.567,-7.896 4.712,-10.154c3.15,-2.312 6.917,-3.475 11.3,-3.475c4.383,0 8.004,0.892 10.879,2.667c2.879,1.767 4.833,4.942 5.854,9.525l-7.7,0c-0.821,-2.525 -2.017,-4.196 -3.587,-5.017c-1.513,-0.817 -3.4,-1.229 -5.658,-1.229c-2.25,0 -4.167,0.475 -5.746,1.421c-1.642,1.029 -2.462,2.529 -2.462,4.508c0,2.058 0.683,3.562 2.054,4.525c1.3,0.879 2.942,1.663 4.921,2.35c1.987,0.621 4.146,1.163 6.467,1.633c2.258,0.55 4.417,1.304 6.467,2.263c4.658,2.188 6.992,5.704 6.992,10.558c0,4.854 -1.75,8.438 -5.237,10.754c-1.783,1.167 -3.733,2.058 -5.854,2.667c-2.062,0.546 -4.321,0.825 -6.783,0.825c-10.475,0 -16.5,-4.646 -18.067,-13.942l7.592,0c0.75,2.946 2.05,5 3.9,6.154l0.013,-0.004Z" style="fill:#fff;"/></g></svg>