<?xml version="1.0" encoding="UTF-8" standalone="no"?><!DOCTYPE svg PUBLIC "-//W3C//DTD SVG 1.1//EN" "http://www.w3.org/Graphics/SVG/1.1/DTD/svg11.dtd"><svg width="100%" height="100%" viewBox="0 0 500 500" version="1.1" xmlns="http://www.w3.org/2000/svg" xmlns:xlink="http://www.w3.org/1999/xlink" xml:space="preserve" xmlns:serif="http://www.serif.com/" style="fill-rule:evenodd;clip-rule:evenodd;stroke-linejoin:round;stroke-miterlimit:2;"><g><path d="M432.095,258.651c-10.416,0.006 -20.658,0.006 -30.902,0.02c-3.056,0.004 -3.884,0.846 -3.872,3.84c0.006,1.638 0.002,3.276 0.002,5.09l70.556,0l0,17.284l-88.38,0l0,-2.958c0,-7.404 -0.008,-14.806 0.004,-22.21c0.018,-10.314 7.996,-18.328 18.346,-18.35c16.08,-0.034 32.16,-0.006 48.242,-0.012c3.192,0 4.062,-0.894 4.024,-4.072c-0.006,-0.57 -0.006,-1.14 -0.036,-1.708c-0.104,-2.106 -1.108,-3.1 -3.25,-3.11c-4.406,-0.022 -8.812,0 -13.22,0.002c-10.702,0.004 -21.402,0.004 -32.104,0.008c-3.416,0.002 -4.15,0.71 -4.206,4.062c-0.012,0.734 -0.002,1.468 -0.002,2.334l-17.55,0c-2.066,-12.8 3.774,-23.598 17.892,-23.764c17.624,-0.206 35.25,-0.058 52.876,-0.048c9.676,0.006 17.298,7.402 17.374,16.984c0.034,4.258 0.258,8.602 -0.472,12.758c-1.46,8.312 -8.604,13.832 -17.124,13.864c-6.008,0.024 -12.018,-0.01 -18.198,-0.018l0,0.004Z" style="fill:#fff;fill-rule:nonzero;"/><path d="M0.027,281.981c0.002,-4.098 0.044,-8.028 -0.026,-11.956c-0.02,-1.054 0.332,-1.64 1.222,-2.16c12.86,-7.528 25.702,-15.086 38.548,-22.636c7.028,-4.13 14.056,-8.262 21.04,-12.684l-60.674,0l0,-17.348l95.784,0c0,3.442 0.01,6.842 -0.004,10.242c-0.008,1.988 0.616,4.372 -0.268,5.854c-0.926,1.548 -3.31,2.244 -5.072,3.286c-18.276,10.81 -36.554,21.614 -54.832,32.422c-0.174,0.102 -0.326,0.242 -0.718,0.54l42.762,0l0,-13.032l18.054,0l0,30.38l-95.814,0c-0,-0.96 -0,-1.85 0.002,-2.906l-0.004,-0.002Z" style="fill:#fff;fill-rule:nonzero;"/><path d="M177.012,216.616c6.95,3.372 10.17,8.896 10.174,16.372c0.004,11.446 0.02,22.894 -0.014,34.34c-0.03,10.332 -7.374,17.61 -17.78,17.624c-16.652,0.022 -33.306,0.03 -49.958,0.006c-10.09,-0.016 -17.46,-7.384 -17.46,-17.378c0,-11.618 -0.004,-23.236 0.016,-34.852c0.018,-10.274 7.462,-17.652 17.778,-17.654c16.48,-0.002 32.962,-0.068 49.442,0.06c2.566,0.02 5.124,0.926 7.802,1.484m-46.968,15.856c-2.23,-0.002 -4.46,-0.018 -6.69,0c-2.632,0.022 -3.54,0.898 -3.544,3.46c-0.014,9.39 -0.016,18.78 -0.008,28.17c0.002,2.696 0.856,3.516 3.626,3.516c14.068,0.004 28.134,0.004 42.202,-0.002c2.866,-0.002 3.66,-0.798 3.662,-3.666c0.008,-9.162 0.006,-18.324 0.002,-27.486c-0.002,-3.234 -0.774,-3.996 -4.082,-3.996c-11.608,-0.004 -23.216,0.002 -35.168,0.004Z" style="fill:#fff;fill-rule:nonzero;"/><path d="M272.874,284.109c-0.386,0.29 -0.77,0.83 -1.16,0.836c-5.492,0.064 -10.986,0.08 -16.478,0.022c-0.584,-0.006 -1.294,-0.422 -1.722,-0.862c-6.576,-6.738 -13.138,-13.49 -19.658,-20.28c-7.074,-7.368 -14.1,-14.78 -21.148,-22.174c-0.144,-0.152 -0.302,-0.29 -0.678,-0.646l0,43.866l-17.888,0l0,-69.676c0.542,-0.028 1.09,-0.08 1.638,-0.082c4.978,-0.006 9.956,-0.042 14.934,0.036c0.75,0.012 1.696,0.376 2.206,0.908c12.444,12.97 24.834,25.992 37.258,38.982c1.32,1.38 2.784,2.626 4.284,4.032l0,-43.942c6.054,0 11.978,0 18.098,0.146c0.246,3.674 0.298,7.204 0.314,10.878c-0.014,0.84 0.01,1.536 -0.012,2.386c-0.02,1.652 0.008,3.148 0,4.788c-0.012,0.726 0.014,1.31 -0.008,2.046c-0.014,1.308 0.016,2.466 0.01,3.778c-0.012,1.642 0.014,3.128 -0.008,4.77c-0.016,1.994 0.016,3.832 0.01,5.824c-0.008,1.414 0.02,2.672 0.002,4.086c-0.02,2.45 0.008,4.744 0,7.19c-0.016,1.3 0.006,2.446 -0.02,3.744c-0.016,1.422 0.014,2.694 0.01,4.074c-0.012,0.26 0.012,0.41 -0.008,0.702c-0.014,0.736 0.018,1.33 0.012,2.072c-0.014,1.07 0.008,1.992 -0.014,3.062c-0.014,1.194 0.016,2.238 0.012,3.432c-0.01,1.07 0.016,1.99 -0.006,3.06c-0.024,1.08 0,2.01 0.022,2.942l-0.002,0Z" style="fill:#fff;fill-rule:nonzero;"/><path d="M359.905,216.158l0,16.246l-80.768,0l0,-17.346l3.676,0c25.124,0.002 50.248,0 75.372,0.028c0.654,0 1.762,-0.52 1.72,1.074l0,-0.002Z" style="fill:#fff;fill-rule:nonzero;"/><path d="M322.882,284.967l-43.702,0l0,-17.246l80.586,0l0,17.246l-36.886,0l0.002,0Z" style="fill:#fff;fill-rule:nonzero;"/><rect x="279.18" y="241.452" width="80.594" height="17.19" style="fill:#fff;fill-rule:nonzero;"/><path d="M482.287,240.65l0,-5.762l-9.712,0c0,-4.014 -0.026,-7.868 0.038,-11.718c0.006,-0.392 0.49,-0.852 0.858,-1.15c2.668,-2.15 5.354,-4.276 8.062,-6.376c0.376,-0.292 0.898,-0.56 1.354,-0.564c5.66,-0.038 11.318,-0.024 17.112,-0.024l0,69.778l-17.714,0l0,-44.184l0.002,0Z" style="fill:#fff;fill-rule:nonzero;"/></g></svg>