<?xml version="1.0" encoding="UTF-8" standalone="no"?><!DOCTYPE svg PUBLIC "-//W3C//DTD SVG 1.1//EN" "http://www.w3.org/Graphics/SVG/1.1/DTD/svg11.dtd"><svg width="100%" height="100%" viewBox="0 0 500 500" version="1.1" xmlns="http://www.w3.org/2000/svg" xmlns:xlink="http://www.w3.org/1999/xlink" xml:space="preserve" xmlns:serif="http://www.serif.com/" style="fill-rule:evenodd;clip-rule:evenodd;stroke-linejoin:round;stroke-miterlimit:2;"><path d="M146.896,167.896c0,-26.288 10.08,-51.376 28.38,-70.645c19.474,-20.496 46.714,-32.254 74.719,-32.254c6.316,0 11.436,5.112 11.436,11.414c0,6.302 -5.122,11.414 -11.436,11.414c-21.764,0 -42.946,9.164 -58.122,25.136c-14.256,15.006 -22.108,34.516 -22.108,54.936c0,21.224 8.39,41.288 23.626,56.495c15.236,15.206 35.336,23.58 56.604,23.58c20.46,0 40.006,-7.838 55.043,-22.066c15.734,-14.892 24.874,-35.576 25.176,-56.903c-0.234,-6.54 -5.64,-11.792 -12.248,-11.792c-6.758,0 -12.258,5.49 -12.258,12.234c0,15.186 -5.978,29.516 -16.838,40.35c-10.856,10.836 -25.216,16.806 -40.43,16.806c-31.58,0 -57.268,-25.64 -57.268,-57.156c0,-15.054 5.894,-29.294 16.588,-40.1c10.886,-10.998 25.332,-17.056 40.68,-17.056c6.316,0 11.436,5.112 11.436,11.412c0,6.302 -5.122,11.414 -11.436,11.414c-9.186,0 -17.856,3.648 -24.408,10.27c-6.442,6.506 -9.988,15.05 -9.988,24.06c0,18.932 15.432,34.33 34.396,34.33c9.104,0 17.72,-3.592 24.26,-10.116c6.538,-6.528 10.14,-15.126 10.14,-24.214c0,-19.33 15.76,-35.06 35.128,-35.06c18.308,0 33.392,14.048 34.99,31.912l0,6.878c-1.382,26.074 -12.936,51.084 -32.18,69.297c-17.964,17.004 -40.984,26.898 -65.33,28.186l-10.92,0c-25.332,-1.334 -49.056,-11.91 -67.303,-30.12c-19.552,-19.52 -30.324,-45.312 -30.324,-72.64l-0.004,-0.002l-0,0Z" style="fill:#9084df;"/><path d="M69.467,368.776c-0.064,0 -0.128,-0.018 -0.194,-0.05c-0.068,-0.028 -0.134,-0.044 -0.194,-0.044l-2.406,0c-0.818,0 -1.618,-0.034 -2.406,-0.1c-0.458,0 -0.948,0.016 -1.47,0.05c-0.524,0.032 -1.048,0.016 -1.57,-0.05c-0.918,0 -1.87,-0.018 -2.852,-0.05c-0.98,-0.034 -1.96,-0.05 -2.938,-0.05c-0.264,0 -0.53,-0.034 -0.792,-0.1c-0.26,-0.062 -0.518,-0.094 -0.778,-0.094c-0.264,-0.068 -0.544,-0.1 -0.836,-0.1c-0.294,0 -0.572,-0.032 -0.836,-0.094c-0.654,-0.068 -1.292,-0.15 -1.916,-0.252c-0.62,-0.098 -1.256,-0.176 -1.908,-0.238c-0.59,-0.068 -1.166,-0.134 -1.722,-0.202c-0.552,-0.062 -1.124,-0.128 -1.714,-0.194c-0.458,-0.062 -0.898,-0.128 -1.326,-0.194c-0.424,-0.068 -0.864,-0.132 -1.326,-0.194c-0.784,-0.196 -1.568,-0.41 -2.356,-0.64c-0.784,-0.23 -1.568,-0.474 -2.356,-0.734c-0.328,-0.13 -0.654,-0.24 -0.98,-0.338c-0.328,-0.1 -0.654,-0.184 -0.98,-0.252c-0.85,-0.326 -1.67,-0.6 -2.456,-0.826c-0.784,-0.23 -1.602,-0.476 -2.456,-0.74c-0.524,-0.13 -0.98,-0.258 -1.368,-0.388c-0.46,-0.066 -0.92,-0.232 -1.376,-0.496c-0.654,-0.258 -1.324,-0.518 -2.01,-0.776c-0.688,-0.262 -1.36,-0.526 -2.016,-0.79c-0.98,-0.326 -1.83,-0.716 -2.55,-1.172c-0.328,-0.13 -0.67,-0.274 -1.03,-0.438c-0.36,-0.162 -0.704,-0.31 -1.03,-0.446c-0.394,-0.196 -0.788,-0.39 -1.182,-0.582c-0.388,-0.196 -0.782,-0.392 -1.174,-0.59c-0.458,-0.326 -0.932,-0.634 -1.426,-0.928c-0.49,-0.296 -0.964,-0.608 -1.418,-0.934c-0.198,-0.13 -0.378,-0.258 -0.54,-0.388c-0.164,-0.132 -0.31,-0.266 -0.44,-0.396c-0.332,-0.262 -0.678,-0.524 -1.038,-0.784c-0.356,-0.262 -0.698,-0.524 -1.03,-0.784c-0.524,-0.454 -1.014,-0.896 -1.47,-1.322c-0.458,-0.426 -0.914,-0.866 -1.376,-1.322c-0.26,-0.258 -0.488,-0.504 -0.684,-0.734c-0.198,-0.23 -0.424,-0.474 -0.684,-0.734c-0.198,-0.196 -0.394,-0.41 -0.59,-0.64c-0.198,-0.23 -0.394,-0.44 -0.59,-0.632c-0.068,-0.132 -0.136,-0.266 -0.202,-0.396c-0.064,-0.13 -0.126,-0.226 -0.188,-0.294c-0.394,-0.718 -0.822,-1.434 -1.282,-2.15c-0.458,-0.718 -0.882,-1.47 -1.274,-2.258c-0.198,-0.326 -0.378,-0.684 -0.54,-1.078c-0.164,-0.392 -0.31,-0.752 -0.44,-1.078c-0.26,-0.718 -0.538,-1.434 -0.836,-2.15c-0.294,-0.718 -0.538,-1.438 -0.734,-2.156c-0.198,-0.718 -0.23,-1.502 -0.1,-2.35l0,-1.078c0.066,-0.59 0.118,-1.194 0.152,-1.812c0.032,-0.622 0.082,-1.26 0.144,-1.912c0.066,-0.78 0.166,-1.532 0.296,-2.25c0.13,-0.718 0.262,-1.438 0.396,-2.156c0.13,-0.454 0.242,-0.878 0.338,-1.272c0.1,-0.392 0.216,-0.786 0.346,-1.178c0.196,-0.388 0.376,-0.778 0.54,-1.172c0.162,-0.392 0.31,-0.786 0.44,-1.178c0.196,-0.388 0.41,-0.762 0.642,-1.122c0.23,-0.36 0.442,-0.736 0.634,-1.128c0.392,-0.65 0.836,-1.254 1.326,-1.812c0.494,-0.556 0.968,-1.126 1.426,-1.71c0.196,-0.132 0.458,-0.364 0.786,-0.69c0.652,-0.522 1.29,-1.058 1.908,-1.61c0.624,-0.556 1.262,-1.064 1.916,-1.524c0.658,-0.522 1.312,-0.98 1.966,-1.374c1.372,-0.714 2.682,-1.462 3.926,-2.25c0.586,-0.392 1.188,-0.77 1.808,-1.128c0.624,-0.36 1.232,-0.7 1.822,-1.028c0.652,-0.326 1.29,-0.65 1.908,-0.978c0.624,-0.326 1.262,-0.62 1.916,-0.884c0.522,-0.19 1.062,-0.384 1.62,-0.582c0.556,-0.196 1.096,-0.392 1.62,-0.59c0.72,-0.262 1.44,-0.524 2.16,-0.784c0.72,-0.262 1.436,-0.524 2.154,-0.784c0.392,-0.13 0.802,-0.24 1.224,-0.338c0.426,-0.1 0.838,-0.184 1.232,-0.252c0.522,-0.13 1.03,-0.258 1.52,-0.388c0.49,-0.132 0.966,-0.232 1.426,-0.294c0.85,-0.196 1.666,-0.392 2.448,-0.59c0.786,-0.196 1.572,-0.36 2.356,-0.488c0.262,-0.066 0.526,-0.1 0.786,-0.1c0.262,0 0.526,-0.03 0.786,-0.094c0.522,-0.132 1.08,-0.202 1.672,-0.202c0.59,0 1.148,-0.03 1.672,-0.094c0.062,-0.066 0.16,-0.1 0.296,-0.1l0.728,0c0.23,0 0.478,-0.03 0.742,-0.094c0.456,-0.066 0.912,-0.132 1.368,-0.194c0.46,-0.066 0.918,-0.132 1.376,-0.202c0.522,0 1.03,-0.03 1.52,-0.094c0.494,-0.066 0.968,-0.132 1.426,-0.202c0.59,-0.062 1.178,-0.11 1.764,-0.144c0.59,-0.032 1.182,-0.082 1.772,-0.15c0.522,-0.13 1.012,-0.224 1.47,-0.288c0.456,-0.066 0.914,-0.068 1.376,-0.008c0.13,0 0.26,-0.064 0.388,-0.194l9.328,0c0.062,0 0.094,0.018 0.094,0.05c0,0.034 0.032,0.05 0.1,0.05c0.13,0.062 0.326,0.094 0.59,0.094l2.938,0c0.984,0 1.934,0.034 2.852,0.1l0.288,0c0.332,0.068 0.642,0.118 0.936,0.15c0.292,0.028 0.57,0.078 0.836,0.144c0.522,0.068 1.046,0.118 1.57,0.15c0.522,0.028 1.046,0.044 1.57,0.044c0.522,0.068 1.046,0.1 1.57,0.1l1.47,0c0.522,0.062 1.012,0.112 1.47,0.144c0.46,0.034 0.918,0.116 1.376,0.244c0.46,0.068 0.918,0.134 1.376,0.202c0.456,0.062 0.914,0.158 1.376,0.288c0.456,0.068 0.894,0.118 1.318,0.15c0.426,0.034 0.872,0.116 1.332,0.244c0.85,0.198 1.682,0.394 2.5,0.59c0.816,0.198 1.65,0.36 2.5,0.488c0.522,0.062 1.062,0.162 1.62,0.294c0.556,0.13 1.062,0.258 1.52,0.388c0.392,0.068 0.77,0.15 1.13,0.252c0.36,0.098 0.702,0.176 1.03,0.238c1.57,0.394 2.942,0.916 4.12,1.568c0.262,0.134 0.526,0.25 0.786,0.346c0.262,0.098 0.526,0.212 0.786,0.346c0.658,0.13 1.214,0.358 1.672,0.682c0.456,0.264 0.896,0.51 1.326,0.74c0.426,0.226 0.868,0.468 1.326,0.726c0.652,0.264 1.272,0.558 1.858,0.884c0.59,0.328 1.148,0.652 1.672,0.978c0.658,0.46 1.328,0.888 2.016,1.28c0.686,0.388 1.356,0.812 2.01,1.272c0.262,0.192 0.526,0.386 0.786,0.582c0.262,0.198 0.526,0.394 0.786,0.59c0.196,0.13 0.36,0.276 0.49,0.438c0.13,0.164 0.292,0.312 0.49,0.446c0.326,0.258 0.636,0.47 0.93,0.632c0.298,0.164 0.578,0.344 0.842,0.54c0.062,0.068 0.124,0.118 0.188,0.15c0.066,0.028 0.134,0.112 0.202,0.244c0.326,0.258 0.636,0.552 0.93,0.878c0.298,0.328 0.576,0.654 0.836,0.984c0.134,0.192 0.282,0.386 0.446,0.582c0.162,0.198 0.31,0.394 0.44,0.59c-0.13,0.068 -0.262,0.166 -0.396,0.294c-0.458,0.258 -0.898,0.522 -1.326,0.784c-0.424,0.258 -0.896,0.456 -1.418,0.59c-0.59,0.198 -1.166,0.428 -1.722,0.69c-0.552,0.258 -1.124,0.518 -1.714,0.776c-0.394,0.264 -0.82,0.478 -1.274,0.64c-0.458,0.164 -0.914,0.31 -1.376,0.438c-0.458,0.13 -0.914,0.276 -1.376,0.438c-0.458,0.164 -0.912,0.312 -1.368,0.446c-0.59,0.258 -1.182,0.504 -1.772,0.734c-0.588,0.226 -1.206,0.47 -1.858,0.734c-0.46,0.198 -0.936,0.378 -1.426,0.54c-0.49,0.164 -0.998,0.31 -1.52,0.438c-0.72,0.198 -1.424,0.428 -2.11,0.69c-0.688,0.258 -1.39,0.488 -2.11,0.682c-0.394,0.13 -0.854,0.258 -1.376,0.388c-0.13,-0.19 -0.328,-0.418 -0.59,-0.682c-0.26,-0.258 -0.504,-0.518 -0.734,-0.776c-0.226,-0.262 -0.438,-0.526 -0.634,-0.79c-0.264,-0.258 -0.512,-0.518 -0.742,-0.776c-0.226,-0.262 -0.502,-0.526 -0.828,-0.79c-0.59,-0.454 -1.182,-0.91 -1.772,-1.366c-0.588,-0.46 -1.238,-0.852 -1.96,-1.178c-0.524,-0.326 -1.048,-0.618 -1.57,-0.878c-0.524,-0.262 -1.048,-0.492 -1.57,-0.69c-0.98,-0.326 -1.962,-0.618 -2.946,-0.878c-0.98,-0.262 -1.962,-0.492 -2.946,-0.69c-0.458,-0.13 -0.948,-0.24 -1.47,-0.338c-0.524,-0.1 -1.048,-0.218 -1.57,-0.352c-0.458,-0.13 -0.882,-0.24 -1.274,-0.338c-0.394,-0.1 -0.788,-0.182 -1.182,-0.244c-0.588,-0.132 -1.174,-0.266 -1.764,-0.396c-0.588,-0.13 -1.174,-0.226 -1.764,-0.294c-0.394,-0.062 -0.788,-0.126 -1.182,-0.194c-0.388,-0.066 -0.782,-0.1 -1.174,-0.1c-0.458,-0.062 -0.932,-0.11 -1.426,-0.144c-0.49,-0.032 -0.998,-0.08 -1.52,-0.144c-0.524,-0.066 -1.064,-0.116 -1.62,-0.15c-0.552,-0.032 -1.092,-0.05 -1.614,-0.05l-3.536,0c-0.59,0.068 -1.182,0.118 -1.772,0.15c-0.588,0.034 -1.142,0.082 -1.664,0.144c-0.588,0 -1.158,0.018 -1.714,0.05c-0.558,0.034 -1.098,0.05 -1.62,0.05c-0.068,0 -0.118,0.018 -0.152,0.05c-0.028,0.028 -0.078,0.044 -0.144,0.044c-0.458,0.068 -0.914,0.118 -1.376,0.15c-0.458,0.034 -0.912,0.082 -1.368,0.144c-0.46,0.068 -0.954,0.1 -1.476,0.1c-0.524,0 -1.048,0.034 -1.57,0.1l-0.296,0c-0.328,0.062 -0.67,0.094 -1.03,0.094c-0.36,0 -0.734,0.034 -1.124,0.1c-0.46,0.062 -0.954,0.128 -1.476,0.194c-0.524,0.068 -1.048,0.166 -1.57,0.294c-0.85,0.198 -1.67,0.394 -2.456,0.59c-0.784,0.198 -1.6,0.424 -2.448,0.682c-0.458,0.13 -0.964,0.276 -1.52,0.438c-0.558,0.164 -1.098,0.344 -1.62,0.54c-0.654,0.198 -1.292,0.458 -1.916,0.784c-0.62,0.328 -1.224,0.686 -1.816,1.078c-0.328,0.198 -0.67,0.394 -1.03,0.59c-0.36,0.198 -0.704,0.36 -1.03,0.488c-0.198,0.068 -0.41,0.166 -0.642,0.294c-0.226,0.13 -0.438,0.292 -0.634,0.488c-0.85,0.652 -1.67,1.338 -2.456,2.056c-0.784,0.718 -1.534,1.438 -2.254,2.156c-0.85,0.848 -1.408,1.762 -1.672,2.738c0,0.33 -0.1,0.66 -0.296,0.984c-0.192,0.456 -0.338,0.946 -0.44,1.466c-0.098,0.522 -0.212,1.046 -0.346,1.568c-0.064,0.198 -0.128,0.41 -0.194,0.64c-0.064,0.226 -0.064,0.436 0,0.632c0.066,0.264 0.116,0.558 0.144,0.884c0.032,0.328 0.082,0.652 0.152,0.978c0.13,0.718 0.31,1.422 0.54,2.106c0.23,0.686 0.54,1.356 0.93,2.006c0.262,0.394 0.526,0.77 0.786,1.128c0.262,0.36 0.592,0.702 0.986,1.028c0.388,0.264 0.714,0.59 0.98,0.978c0.59,0.658 1.148,1.178 1.672,1.568c0.782,0.522 1.582,1.046 2.398,1.568c0.822,0.522 1.656,0.948 2.506,1.272c0.13,0 0.194,0.018 0.194,0.05c0,0.034 0.032,0.05 0.1,0.05c0.586,0.264 1.188,0.51 1.808,0.74c0.624,0.226 1.262,0.402 1.916,0.532c0.46,0.068 0.918,0.15 1.376,0.252c0.46,0.098 0.918,0.208 1.376,0.338c0.916,0.198 1.848,0.41 2.794,0.64c0.95,0.226 1.884,0.436 2.802,0.632c0.522,0.068 1.046,0.15 1.57,0.252c0.522,0.098 1.046,0.208 1.57,0.338c0.586,0.062 1.17,0.112 1.758,0.144c0.59,0.034 1.182,0.116 1.772,0.244c0.59,0.068 1.196,0.134 1.816,0.202c0.624,0.062 1.262,0.128 1.916,0.194l9.566,0c0.36,0 0.672,-0.032 0.936,-0.1c0.72,0 1.406,-0.014 2.06,-0.044c0.652,-0.032 1.306,-0.082 1.96,-0.15c0.658,0 1.296,-0.016 1.916,-0.05c0.62,-0.032 1.256,-0.05 1.916,-0.05l0.044,0c0.032,0 0.082,-0.03 0.152,-0.094c0.522,-0.066 1.03,-0.148 1.52,-0.244c0.49,-0.1 0.966,-0.182 1.426,-0.244c0.522,-0.132 1.046,-0.232 1.57,-0.294c0.522,-0.066 1.012,-0.166 1.47,-0.294c0.916,-0.196 1.848,-0.406 2.794,-0.632c0.95,-0.23 1.884,-0.476 2.802,-0.74c0.586,-0.13 1.156,-0.292 1.714,-0.488c0.556,-0.196 1.13,-0.36 1.722,-0.488c0.326,-0.13 0.652,-0.24 0.98,-0.338c0.326,-0.1 0.62,-0.184 0.878,-0.252c0.72,-0.326 1.456,-0.618 2.212,-0.878c0.752,-0.262 1.456,-0.592 2.11,-0.984c0.72,-0.392 1.406,-0.816 2.06,-1.272c0.652,-0.454 1.274,-0.978 1.866,-1.568c0.392,-0.454 0.802,-0.894 1.224,-1.316c0.426,-0.426 0.868,-0.87 1.326,-1.33c0.326,0.068 0.62,0.15 0.878,0.252c0.262,0.098 0.528,0.208 0.792,0.338c0.456,0.13 0.894,0.276 1.318,0.438c0.426,0.164 0.838,0.312 1.232,0.446c0.522,0.192 1.062,0.402 1.62,0.632c0.556,0.23 1.096,0.444 1.62,0.64c0.388,0.13 0.78,0.276 1.174,0.438c0.392,0.164 0.786,0.344 1.182,0.54c0.586,0.198 1.156,0.41 1.714,0.64c0.556,0.226 1.13,0.47 1.722,0.734c0.85,0.328 1.716,0.622 2.6,0.884c0.882,0.258 1.75,0.518 2.6,0.776c0.326,0.134 0.67,0.266 1.03,0.396c0.36,0.13 0.702,0.258 1.03,0.388c0.392,0.134 0.768,0.284 1.124,0.446c0.36,0.164 0.736,0.276 1.13,0.338c0.262,0.134 0.494,0.234 0.692,0.294c-0.068,0.068 -0.118,0.134 -0.152,0.202c-0.034,0.062 -0.082,0.158 -0.144,0.288c-0.264,0.264 -0.496,0.528 -0.692,0.79c-0.198,0.258 -0.424,0.552 -0.684,0.878c-0.068,0.13 -0.23,0.328 -0.49,0.59c-0.654,0.848 -1.408,1.616 -2.262,2.3c-0.85,0.686 -1.668,1.388 -2.448,2.106c-0.654,0.652 -1.422,1.24 -2.304,1.762c-0.884,0.522 -1.784,1.012 -2.702,1.466c-0.458,0.264 -0.932,0.51 -1.426,0.74c-0.49,0.226 -0.964,0.47 -1.418,0.734c-0.654,0.328 -1.326,0.652 -2.016,0.978c-0.688,0.328 -1.388,0.652 -2.104,0.978c-0.59,0.198 -1.166,0.41 -1.722,0.64c-0.558,0.23 -1.13,0.442 -1.714,0.632c-0.394,0.134 -0.788,0.284 -1.182,0.446c-0.394,0.164 -0.786,0.31 -1.174,0.438c-0.85,0.264 -1.704,0.494 -2.556,0.69c-0.85,0.192 -1.732,0.386 -2.644,0.582c-0.66,0.198 -1.3,0.364 -1.924,0.496c-0.62,0.13 -1.256,0.258 -1.908,0.388c-0.784,0.13 -1.552,0.292 -2.304,0.488c-0.754,0.198 -1.524,0.36 -2.304,0.488c-0.46,0.068 -0.936,0.166 -1.426,0.294c-0.49,0.13 -0.998,0.26 -1.52,0.396c-0.458,0.062 -0.898,0.124 -1.326,0.186c-0.424,0.066 -0.864,0.168 -1.326,0.302c-0.26,0 -0.504,0.03 -0.734,0.094c-0.23,0.066 -0.476,0.1 -0.734,0.1c-0.59,0.066 -1.2,0.132 -1.822,0.194l-1.808,0.194c-0.66,0.066 -1.314,0.116 -1.966,0.15c-0.654,0.032 -1.34,0.08 -2.06,0.144c-0.59,0.066 -1.182,0.1 -1.772,0.1c-0.588,0 -1.206,0.032 -1.858,0.1l-0.49,0c0,0 -0.018,0.014 -0.05,0.044c-0.034,0.032 -0.05,0.05 -0.05,0.05l-3.436,0l-0.02,0.004l0.001,0.002Zm121.993,1.474c-0.59,0 -1.182,0.014 -1.772,0.044c-0.588,0.032 -1.174,0.018 -1.764,-0.044c-0.784,-0.134 -1.584,-0.186 -2.406,-0.15c-0.818,0.032 -1.65,0.05 -2.5,0.05l-1.274,0c-0.85,0 -1.67,-0.098 -2.456,-0.294l-0.49,0c-0.394,0 -0.804,-0.034 -1.232,-0.1c-0.424,-0.062 -0.862,-0.128 -1.318,-0.194c-0.328,-0.062 -0.688,-0.128 -1.08,-0.194c-0.394,-0.068 -0.788,-0.132 -1.182,-0.194c-0.26,-0.068 -0.552,-0.134 -0.878,-0.202c-0.328,-0.062 -0.654,-0.128 -0.98,-0.194c-0.46,-0.13 -0.97,-0.244 -1.526,-0.346c-0.552,-0.098 -1.092,-0.178 -1.614,-0.244c-0.198,-0.062 -0.394,-0.112 -0.59,-0.144c-0.198,-0.034 -0.394,-0.082 -0.59,-0.144c-0.458,-0.134 -0.882,-0.236 -1.274,-0.302c-0.394,-0.062 -0.82,-0.128 -1.274,-0.194c-0.198,0 -0.494,-0.064 -0.886,-0.194c-0.524,-0.13 -1.03,-0.292 -1.52,-0.488c-0.49,-0.196 -0.998,-0.36 -1.52,-0.488c-1.244,-0.262 -2.488,-0.72 -3.732,-1.374c-0.654,-0.326 -1.292,-0.618 -1.916,-0.878c-0.62,-0.262 -1.256,-0.558 -1.908,-0.884c-0.524,-0.326 -1.08,-0.618 -1.672,-0.878c-0.59,-0.262 -1.148,-0.526 -1.672,-0.79c-0.388,-0.326 -0.814,-0.586 -1.274,-0.784c-0.458,-0.196 -0.882,-0.424 -1.274,-0.682c-0.328,-0.326 -0.752,-0.586 -1.274,-0.784c-0.26,-0.13 -0.488,-0.258 -0.684,-0.388c-0.198,-0.132 -0.428,-0.266 -0.692,-0.396c-0.524,-0.326 -1.08,-0.668 -1.672,-1.028c-0.588,-0.36 -1.174,-0.7 -1.764,-1.028c-0.13,-0.132 -0.278,-0.248 -0.44,-0.346c-0.164,-0.096 -0.31,-0.176 -0.44,-0.244c-0.264,-0.13 -0.512,-0.292 -0.742,-0.488c-0.226,-0.196 -0.502,-0.392 -0.828,-0.59c-1.57,-1.044 -3.11,-2.35 -4.616,-3.918c-0.13,-0.13 -0.226,-0.258 -0.288,-0.388c-0.46,-0.718 -0.936,-1.438 -1.426,-2.156c-0.49,-0.718 -0.966,-1.404 -1.426,-2.056c-0.064,0 -0.094,-0.032 -0.094,-0.1c-0.394,-0.65 -0.77,-1.286 -1.13,-1.906c-0.36,-0.622 -0.704,-1.26 -1.03,-1.912c-0.328,-0.522 -0.524,-1.044 -0.59,-1.568c0,-0.196 -0.064,-0.49 -0.194,-0.884c-0.068,-0.59 -0.166,-1.16 -0.296,-1.71c-0.13,-0.556 -0.26,-1.128 -0.388,-1.718c-0.198,-1.108 -0.264,-2.152 -0.202,-3.134c0.066,-0.326 0.118,-0.682 0.152,-1.072c0.032,-0.392 0.082,-0.754 0.144,-1.086c0.066,-0.258 0.1,-0.682 0.1,-1.272c0.066,-0.388 0.166,-0.778 0.296,-1.172c0.13,-0.392 0.226,-0.786 0.296,-1.178c0.13,-0.388 0.226,-0.762 0.288,-1.122c0.066,-0.36 0.134,-0.7 0.202,-1.028c0.13,-0.522 0.276,-0.996 0.44,-1.424c0.162,-0.426 0.31,-0.866 0.44,-1.322c0.522,-1.174 1.08,-2.382 1.672,-3.624c0.196,-0.522 0.442,-0.994 0.734,-1.416c0.298,-0.426 0.608,-0.87 0.936,-1.33c0.652,-0.78 1.322,-1.562 2.01,-2.344c0.686,-0.786 1.422,-1.504 2.212,-2.156c1.176,-1.178 2.352,-2.124 3.53,-2.84c0.456,-0.33 0.93,-0.608 1.418,-0.834c0.494,-0.23 0.968,-0.474 1.426,-0.734c0.392,-0.196 0.77,-0.392 1.13,-0.59c0.36,-0.196 0.702,-0.392 1.03,-0.59c0.59,-0.392 1.148,-0.718 1.672,-0.978c0.522,-0.262 1.03,-0.49 1.52,-0.682c0.49,-0.196 0.996,-0.392 1.52,-0.59c0.392,-0.132 0.802,-0.282 1.224,-0.446c0.426,-0.162 0.868,-0.342 1.326,-0.54c0.13,-0.062 0.276,-0.124 0.44,-0.186c0.168,-0.066 0.316,-0.132 0.446,-0.202c0.062,-0.066 0.126,-0.116 0.194,-0.144c0.066,-0.032 0.132,-0.082 0.194,-0.15c0.658,-0.13 1.278,-0.34 1.866,-0.632c0.59,-0.296 1.212,-0.51 1.866,-0.64c0.196,-0.066 0.392,-0.132 0.59,-0.194c0.196,-0.066 0.392,-0.132 0.59,-0.202c0.388,-0.13 0.794,-0.258 1.218,-0.388c0.426,-0.13 0.872,-0.226 1.332,-0.294c0.586,-0.13 1.174,-0.292 1.764,-0.488c0.59,-0.196 1.212,-0.36 1.866,-0.488c0.59,-0.13 1.178,-0.258 1.764,-0.388c0.59,-0.132 1.148,-0.234 1.672,-0.302c0.522,-0.062 1.076,-0.124 1.664,-0.186c0.59,-0.066 1.148,-0.132 1.672,-0.202c0.326,-0.066 0.67,-0.132 1.03,-0.194c0.36,-0.066 0.702,-0.132 1.03,-0.202c0.326,-0.062 0.636,-0.094 0.93,-0.094c0.298,0 0.576,-0.032 0.836,-0.1c0.262,-0.062 0.542,-0.126 0.836,-0.194c0.298,-0.066 0.576,-0.132 0.836,-0.194c0.392,-0.066 0.786,-0.132 1.174,-0.194c0.392,-0.066 0.822,-0.1 1.282,-0.1c0.522,-0.066 1.046,-0.116 1.57,-0.144c0.522,-0.032 1.046,-0.116 1.57,-0.252l4.22,0c0.388,0.068 0.794,0.118 1.218,0.15c0.426,0.034 0.838,0.05 1.232,0.05c0.13,0.062 0.326,0.094 0.59,0.094c0.392,0 0.786,-0.014 1.174,-0.044c0.392,-0.032 0.786,-0.018 1.182,0.044c0.392,0 0.77,0.018 1.13,0.05c0.36,0.034 0.702,0.082 1.03,0.144l0.296,0c0.714,0.068 1.416,0.1 2.104,0.1c0.692,0 1.364,0.034 2.016,0.1c0.522,0 1.06,0.018 1.614,0.05c0.556,0.028 1.13,0.078 1.722,0.144c0.262,0 0.542,0.018 0.836,0.05c0.292,0.034 0.57,0.082 0.836,0.144c0.388,0.068 0.78,0.118 1.174,0.15c0.392,0.028 0.786,0.078 1.182,0.144c0.326,0.068 0.67,0.118 1.03,0.15c0.36,0.028 0.67,0.078 0.93,0.144c0.326,0.068 0.67,0.118 1.03,0.15c0.36,0.028 0.672,0.078 0.936,0.144l0.684,0c0.916,0 1.866,0.098 2.846,0.294c0.72,0.13 1.422,0.276 2.11,0.438c0.686,0.164 1.356,0.31 2.01,0.438c1.112,0.198 2.178,0.378 3.19,0.54c1.012,0.164 2.042,0.378 3.09,0.64c0.332,0.062 0.66,0.162 0.986,0.294c0.326,0.13 0.652,0.258 0.98,0.388c0.522,0.264 1.03,0.494 1.52,0.69c0.49,0.192 0.996,0.386 1.52,0.582c0.59,0.198 1.164,0.428 1.722,0.69c0.556,0.258 1.128,0.488 1.714,0.682c0.326,0.13 0.652,0.276 0.98,0.438c0.332,0.164 0.66,0.312 0.986,0.446c0.522,0.13 1.046,0.328 1.57,0.59c0.522,0.258 1.012,0.552 1.47,0.878c0.326,0.198 0.652,0.36 0.98,0.488c0.392,0.198 0.77,0.41 1.13,0.64c0.36,0.226 0.702,0.47 1.03,0.734c0.262,0.13 0.46,0.258 0.59,0.388c0.72,0.394 1.406,0.884 2.06,1.474c0.652,0.586 1.306,1.14 1.96,1.66c0.392,0.394 0.802,0.788 1.224,1.178c0.426,0.394 0.838,0.784 1.232,1.172c0.196,0.198 0.392,0.41 0.59,0.64c0.196,0.23 0.392,0.444 0.59,0.64c0.19,0.192 0.37,0.386 0.534,0.582c0.168,0.198 0.348,0.394 0.54,0.59c1.31,1.372 2.424,2.81 3.342,4.314c0.062,0.13 0.16,0.392 0.296,0.784c0.062,0.062 0.11,0.144 0.144,0.244c0.032,0.098 0.082,0.208 0.144,0.338c0.196,0.394 0.376,0.804 0.54,1.23c0.162,0.422 0.278,0.862 0.346,1.322c0.066,0.456 0.148,0.928 0.244,1.416c0.1,0.488 0.182,0.996 0.244,1.516c0,0.264 0.016,0.528 0.05,0.79c0.032,0.258 0.082,0.518 0.144,0.776c0.134,0.328 0.202,0.638 0.202,0.934c0,0.292 0.03,0.602 0.094,0.928c0.066,0.652 0.1,1.272 0.1,1.862l0,1.862c-0.068,0.652 -0.136,1.32 -0.202,2.006c-0.064,0.686 -0.158,1.388 -0.288,2.106c-0.13,0.652 -0.31,1.322 -0.54,2.012c-0.23,0.686 -0.51,1.386 -0.836,2.1c-0.198,0.46 -0.394,0.92 -0.59,1.38c-0.198,0.456 -0.46,0.878 -0.786,1.266c-0.388,0.658 -0.782,1.294 -1.174,1.912c-0.394,0.618 -0.82,1.256 -1.274,1.912c-0.136,0.258 -0.3,0.488 -0.496,0.682c-0.192,0.198 -0.356,0.394 -0.49,0.59c-0.26,0.258 -0.504,0.522 -0.734,0.784c-0.226,0.258 -0.472,0.522 -0.734,0.784c-0.26,0.258 -0.57,0.538 -0.93,0.834c-0.36,0.292 -0.704,0.602 -1.03,0.928c-0.136,0.068 -0.332,0.23 -0.59,0.488c-0.394,0.328 -0.788,0.668 -1.182,1.028c-0.388,0.36 -0.782,0.702 -1.174,1.028c-0.524,0.46 -1.08,0.87 -1.672,1.23c-0.588,0.36 -1.208,0.702 -1.866,1.028c-1.178,0.652 -2.404,1.256 -3.68,1.812c-1.274,0.558 -2.564,1.126 -3.876,1.71c-1.11,0.46 -2.238,0.888 -3.386,1.28c-1.144,0.388 -2.304,0.81 -3.486,1.266c-0.458,0.198 -0.948,0.364 -1.47,0.496c-0.524,0.13 -1.048,0.258 -1.57,0.388c-0.85,0.198 -1.602,0.424 -2.254,0.682c-0.788,0.264 -1.59,0.476 -2.406,0.64c-0.818,0.162 -1.618,0.342 -2.406,0.54c-0.784,0.196 -1.552,0.392 -2.304,0.59c-0.754,0.196 -1.524,0.36 -2.304,0.488c-0.136,0.066 -0.266,0.1 -0.396,0.1c-0.13,0 -0.26,0.03 -0.388,0.094c-0.328,0.066 -0.67,0.132 -1.03,0.194c-0.36,0.066 -0.704,0.132 -1.03,0.202c-0.264,0.062 -0.512,0.11 -0.742,0.144c-0.226,0.032 -0.502,0.05 -0.828,0.05c-0.332,0 -0.696,0.016 -1.088,0.05c-0.388,0.032 -0.782,0.05 -1.174,0.05c-0.394,0.062 -0.77,0.11 -1.13,0.144c-0.356,0.032 -0.698,0.05 -1.03,0.05c-0.064,0.062 -0.128,0.094 -0.194,0.094c-0.26,0 -0.554,0.016 -0.886,0.05c-0.328,0.032 -0.654,0.05 -0.98,0.05c-0.458,0.066 -0.964,0.1 -1.52,0.1c-0.558,0 -1.098,0.03 -1.62,0.094c-0.26,0 -0.504,0.016 -0.734,0.05c-0.23,0.032 -0.476,0.05 -0.734,0.05c-0.13,0 -0.278,0.016 -0.44,0.05c-0.164,0.032 -0.314,0.05 -0.446,0.05l-3.234,0l-0.016,0.008l-0.002,0.006Zm-0.986,-17.044l0,0.094c0.72,-0.062 1.422,-0.11 2.11,-0.144c0.686,-0.032 1.358,-0.05 2.016,-0.05c0.062,0 0.126,-0.016 0.194,-0.05c0.066,-0.032 0.132,-0.05 0.194,-0.05c0.392,-0.13 0.802,-0.224 1.224,-0.288c0.426,-0.066 0.868,-0.132 1.326,-0.202c0.196,-0.062 0.41,-0.076 0.642,-0.044c0.23,0.028 0.476,0.012 0.734,-0.05c0.522,-0.132 1.03,-0.248 1.52,-0.346c0.494,-0.096 1.002,-0.112 1.526,-0.05l0.094,0c0.326,-0.062 0.636,-0.11 0.93,-0.144c0.298,-0.032 0.576,-0.082 0.836,-0.15c0.522,-0.062 1.062,-0.126 1.62,-0.194c0.556,-0.066 1.096,-0.132 1.62,-0.194c0.786,-0.13 1.556,-0.292 2.304,-0.488c0.752,-0.196 1.522,-0.392 2.304,-0.59c0.72,-0.196 1.456,-0.392 2.212,-0.59c0.752,-0.196 1.49,-0.424 2.212,-0.682c0.388,-0.13 0.764,-0.292 1.124,-0.488c0.36,-0.196 0.77,-0.328 1.232,-0.396c0.522,-0.13 1.012,-0.306 1.47,-0.532c0.456,-0.23 0.914,-0.476 1.376,-0.74c0.456,-0.326 0.894,-0.618 1.318,-0.878c0.426,-0.262 0.872,-0.526 1.332,-0.79c0.326,-0.19 0.67,-0.368 1.03,-0.532c0.36,-0.168 0.67,-0.382 0.93,-0.64c0.522,-0.454 0.996,-0.944 1.418,-1.466c0.426,-0.522 0.804,-1.044 1.13,-1.568c0.46,-0.786 0.854,-1.586 1.182,-2.402c0.326,-0.82 0.652,-1.62 0.98,-2.402c0,-0.13 0.016,-0.24 0.05,-0.338c0.032,-0.1 0.05,-0.184 0.05,-0.252c0.062,-0.258 0.11,-0.504 0.144,-0.734c0.032,-0.23 0.082,-0.474 0.152,-0.734c0.062,-0.262 0.094,-0.506 0.094,-0.734l0,-0.74c-0.064,-0.454 -0.112,-0.894 -0.144,-1.316c-0.034,-0.426 -0.05,-0.866 -0.05,-1.322c-0.068,-0.196 -0.1,-0.376 -0.1,-0.54c0,-0.162 -0.032,-0.342 -0.094,-0.54c-0.198,-1.438 -0.854,-2.614 -1.966,-3.53c-0.198,-0.196 -0.41,-0.39 -0.642,-0.582c-0.226,-0.196 -0.438,-0.392 -0.634,-0.59c-0.72,-0.786 -1.49,-1.52 -2.304,-2.206c-0.818,-0.684 -1.684,-1.288 -2.6,-1.812c-0.59,-0.326 -1.166,-0.634 -1.722,-0.928c-0.552,-0.296 -1.158,-0.576 -1.816,-0.834c-0.784,-0.262 -1.584,-0.54 -2.406,-0.834c-0.818,-0.292 -1.584,-0.668 -2.304,-1.128c-0.064,-0.062 -0.112,-0.094 -0.144,-0.094c-0.034,0 -0.084,-0.032 -0.152,-0.1c-0.654,-0.196 -1.324,-0.424 -2.01,-0.682c-0.688,-0.262 -1.39,-0.492 -2.11,-0.69c-1.308,-0.388 -2.632,-0.728 -3.976,-1.02c-1.34,-0.296 -2.698,-0.51 -4.07,-0.64c-0.198,-0.066 -0.394,-0.116 -0.59,-0.15c-0.198,-0.032 -0.424,-0.05 -0.684,-0.05l-4.862,0c-1.6,0 -3.218,-0.03 -4.854,-0.094c-0.85,-0.066 -1.67,-0.082 -2.456,-0.05c-0.784,0.034 -1.6,0.116 -2.448,0.244c-0.46,0.068 -0.954,0.1 -1.476,0.1c-0.524,0 -1.048,0.032 -1.57,0.094l-0.684,0c-0.198,0 -0.424,0.068 -0.684,0.202c-0.66,0.192 -1.364,0.402 -2.118,0.632c-0.75,0.23 -1.484,0.41 -2.204,0.54c-0.394,0.068 -0.804,0.15 -1.232,0.252c-0.424,0.098 -0.832,0.176 -1.224,0.238c-1.11,0.198 -2.188,0.492 -3.234,0.884c-1.048,0.394 -2.094,0.818 -3.14,1.272c-1.834,0.782 -3.602,1.762 -5.302,2.94c-0.328,0.198 -0.654,0.36 -0.98,0.488c-0.654,0.062 -1.31,0.324 -1.966,0.784c-0.458,0.328 -0.948,0.668 -1.47,1.028c-0.524,0.36 -0.984,0.802 -1.376,1.322c-0.198,0.258 -0.394,0.488 -0.59,0.682c-0.192,0.198 -0.388,0.428 -0.584,0.69c-0.136,0.192 -0.266,0.372 -0.396,0.54c-0.13,0.164 -0.26,0.342 -0.388,0.532c-0.46,0.788 -0.824,1.588 -1.088,2.408c-0.26,0.816 -0.518,1.646 -0.778,2.494c-0.068,0.258 -0.118,0.552 -0.152,0.878c-0.028,0.328 -0.044,0.654 -0.044,0.984c0.062,0.258 0.11,0.538 0.144,0.834c0.032,0.292 0.082,0.602 0.144,0.928c0.134,0.586 0.348,1.172 0.642,1.762c0.292,0.59 0.57,1.178 0.836,1.762c0.196,0.328 0.406,0.668 0.634,1.028c0.23,0.36 0.41,0.702 0.54,1.028c0.46,0.916 1.082,1.766 1.866,2.552c0.46,0.456 0.918,0.896 1.376,1.322c0.456,0.422 0.914,0.83 1.376,1.222c0.326,0.258 0.67,0.472 1.03,0.64c0.36,0.164 0.702,0.342 1.03,0.532c0.26,0.134 0.504,0.266 0.734,0.396c0.23,0.13 0.476,0.258 0.734,0.388c0.392,0.198 0.786,0.378 1.174,0.54c0.392,0.164 0.786,0.344 1.182,0.54c0.786,0.328 1.588,0.604 2.406,0.834c0.816,0.23 1.65,0.41 2.5,0.54c0.916,0.13 1.768,0.328 2.556,0.59c0.26,0.062 0.518,0.144 0.778,0.244c0.262,0.098 0.528,0.144 0.792,0.144c0.522,0.068 1.046,0.166 1.57,0.294c0.522,0.13 1.046,0.262 1.57,0.396c0.456,0.062 0.894,0.144 1.318,0.244c0.426,0.098 0.872,0.208 1.332,0.338c0.522,0.134 1.06,0.266 1.614,0.396c0.556,0.13 1.13,0.194 1.722,0.194c0.196,0 0.406,0.018 0.634,0.05c0.23,0.034 0.478,0.082 0.742,0.144c0.326,0.068 0.636,0.118 0.93,0.15c0.292,0.034 0.57,0.05 0.836,0.05l2.448,0l-0.002,0l0,-0Zm67.624,-53.974c0.326,-0.13 0.636,-0.21 0.93,-0.244c0.292,-0.032 0.57,-0.05 0.836,-0.05l13.346,0c1.372,0.134 2.746,0.186 4.12,0.15c1.372,-0.032 2.78,-0.016 4.22,0.05c0.326,0 0.67,0.018 1.03,0.05c0.36,0.028 0.702,0.044 1.03,0.044c1.112,-0.062 2.226,-0.094 3.334,-0.094c1.112,0 2.194,-0.032 3.242,-0.1c1.502,-0.13 3.022,-0.16 4.56,-0.094c1.542,0.062 3.062,0.062 4.566,-0.008l14.722,0c0.522,0 1.062,-0.014 1.62,-0.044c0.556,-0.032 1.096,-0.018 1.62,0.044c0.912,0.068 1.84,0.118 2.788,0.15c0.95,0.034 1.852,0.018 2.708,-0.05c0.912,-0.066 1.794,-0.1 2.644,-0.1l2.556,0c0.782,0 1.564,0.018 2.348,0.05c0.786,0.034 1.574,0.084 2.362,0.15c0.98,0.062 1.96,0.094 2.938,0.094l6.972,0c0.85,-0.062 1.666,-0.11 2.448,-0.144c0.786,-0.032 1.572,-0.016 2.356,0.05c0.916,0.062 1.834,0.094 2.752,0.094l2.744,0c0.262,0 0.494,0.018 0.692,0.05c0.196,0.034 0.424,0.05 0.684,0.05c0.326,0.068 0.652,0.118 0.98,0.15c0.332,0.028 0.626,0.078 0.886,0.144c1.31,0.13 2.554,0.328 3.732,0.59c0.916,0.258 1.766,0.522 2.55,0.784c0.786,0.258 1.572,0.616 2.356,1.072c0.85,0.394 1.652,0.82 2.406,1.28c0.752,0.456 1.456,0.978 2.11,1.568c0.72,0.522 1.356,1.092 1.908,1.71c0.556,0.618 1.066,1.286 1.526,2.006c0.13,0.134 0.242,0.266 0.338,0.396c0.1,0.13 0.182,0.258 0.244,0.388c0.196,0.264 0.376,0.51 0.54,0.74c0.162,0.226 0.312,0.47 0.446,0.734c0.13,0.258 0.26,0.452 0.388,0.582c0.13,0.198 0.26,0.394 0.388,0.59c0.134,0.198 0.266,0.394 0.396,0.59c0.066,0.068 0.116,0.134 0.144,0.202c0.032,0.062 0.082,0.158 0.152,0.288c0.392,0.456 0.702,0.978 0.93,1.568c0.23,0.59 0.442,1.146 0.642,1.668c0.066,0.258 0.116,0.538 0.144,0.834c0.032,0.292 0.082,0.602 0.152,0.928c0.066,0.13 0.1,0.328 0.1,0.59l0,3.624c0,0.258 -0.068,0.586 -0.202,0.978c-0.064,0.394 -0.128,0.788 -0.194,1.178c-0.068,0.388 -0.166,0.746 -0.296,1.072c-0.198,0.59 -0.378,1.178 -0.54,1.768c-0.164,0.586 -0.374,1.14 -0.634,1.66c-0.59,1.702 -1.474,3.14 -2.65,4.314c-0.328,0.456 -0.67,0.88 -1.03,1.272c-0.36,0.394 -0.738,0.818 -1.13,1.272c-1.178,1.176 -2.484,2.22 -3.926,3.134c-0.918,0.59 -1.834,1.078 -2.744,1.466c-0.788,0.394 -1.592,0.722 -2.412,0.984c-0.818,0.258 -1.65,0.552 -2.5,0.878c-0.13,0 -0.228,0.034 -0.296,0.1c0.066,0.13 0.166,0.258 0.296,0.388c0.59,0.658 1.148,1.312 1.672,1.962c0.522,0.652 0.982,1.338 1.376,2.056c0.13,0.264 0.292,0.524 0.49,0.784c0.326,0.456 0.652,0.93 0.98,1.424c0.326,0.488 0.652,0.962 0.98,1.416c0.522,0.848 1.08,1.682 1.672,2.502c0.59,0.816 1.148,1.646 1.672,2.494c0.26,0.264 0.47,0.558 0.634,0.884c0.162,0.328 0.31,0.652 0.44,0.978c0.134,0.258 0.282,0.488 0.446,0.682c0.162,0.198 0.31,0.394 0.44,0.59c0.59,0.522 1.016,1.144 1.274,1.862c0.522,0.782 1.046,1.5 1.57,2.156c0.326,0.328 0.62,0.686 0.878,1.078c0.262,0.388 0.528,0.746 0.792,1.072c0.26,0.264 0.504,0.528 0.734,0.79c0.23,0.258 0.476,0.518 0.734,0.776c0.262,0.33 0.426,0.69 0.49,1.078c-0.198,0.066 -0.49,0.1 -0.878,0.1c-0.524,0.066 -1.064,0.1 -1.62,0.1c-0.558,0 -1.13,0.03 -1.722,0.094c-1.374,0.066 -2.73,0.1 -4.07,0.1l-4.956,0c-1.31,0 -2.606,-0.018 -3.882,-0.05c-1.274,-0.034 -2.562,-0.082 -3.868,-0.144c-0.46,0 -0.936,0.014 -1.426,0.044c-0.49,0.032 -0.966,0.05 -1.426,0.05c-0.388,-0.062 -0.782,-0.08 -1.174,-0.05c-0.394,0.032 -0.754,0.018 -1.08,-0.044c-0.13,-0.068 -0.262,-0.084 -0.396,-0.05c-0.13,0.032 -0.26,0.05 -0.388,0.05l-1.764,0c-0.13,-0.328 -0.28,-0.622 -0.446,-0.884c-0.164,-0.262 -0.342,-0.524 -0.534,-0.784c-0.332,-0.522 -0.678,-1.028 -1.038,-1.516c-0.356,-0.488 -0.732,-0.994 -1.124,-1.516c-0.264,-0.522 -0.576,-1.028 -0.936,-1.516c-0.36,-0.492 -0.704,-0.966 -1.03,-1.424c-0.388,-0.65 -0.798,-1.254 -1.224,-1.812c-0.428,-0.556 -0.904,-1.094 -1.426,-1.618c-0.192,-0.326 -0.404,-0.634 -0.634,-0.928c-0.23,-0.296 -0.444,-0.576 -0.642,-0.834c-0.328,-0.46 -0.654,-0.916 -0.98,-1.374c-0.328,-0.454 -0.654,-0.912 -0.98,-1.374c-0.068,-0.13 -0.136,-0.24 -0.202,-0.338c-0.064,-0.1 -0.158,-0.184 -0.288,-0.252c-0.264,-0.522 -0.56,-1.01 -0.886,-1.466c-0.328,-0.454 -0.688,-0.912 -1.08,-1.374c-0.064,-0.13 -0.144,-0.274 -0.244,-0.438c-0.098,-0.162 -0.212,-0.31 -0.346,-0.438c-0.064,-0.262 -0.192,-0.492 -0.388,-0.69c-0.198,-0.196 -0.394,-0.424 -0.59,-0.682c-0.26,-0.326 -0.488,-0.668 -0.684,-1.028c-0.198,-0.36 -0.428,-0.7 -0.692,-1.028l-0.388,0c-1.31,0 -2.654,-0.016 -4.026,-0.05c-1.374,-0.032 -2.714,-0.016 -4.02,0.05c-1.57,0.062 -3.14,0.08 -4.71,0.05c-1.57,-0.032 -3.14,-0.018 -4.71,0.044c-0.85,0.068 -1.734,0.084 -2.65,0.05c-0.918,-0.032 -1.834,-0.016 -2.752,0.05c-1.048,0.068 -2.128,0.118 -3.242,0.15c-1.11,0.028 -2.222,0.012 -3.334,-0.05c-1.238,-0.066 -2.466,-0.082 -3.68,-0.05c-1.21,0.034 -2.404,0.018 -3.58,-0.05c-0.394,0 -0.788,-0.016 -1.182,-0.05c-0.388,-0.032 -0.782,-0.05 -1.174,-0.05c-0.588,0 -1.174,0.018 -1.764,0.05c-0.59,0.034 -1.214,0.084 -1.866,0.15c-0.13,0.062 -0.328,0.094 -0.59,0.094l-5.006,0l0,4.902c0,0.652 0.016,1.29 0.05,1.912c0.032,0.618 0.05,1.254 0.05,1.906c0.066,0.258 0.116,0.568 0.144,0.928c0.032,0.36 0.082,0.702 0.152,1.028l0,9.402c0,0.264 0.016,0.528 0.05,0.79c0.032,0.258 0.05,0.518 0.05,0.776c0,0.134 -0.018,0.266 -0.05,0.396c-0.034,0.13 -0.05,0.26 -0.05,0.396l-1.672,0c-0.26,0.13 -0.424,0.224 -0.49,0.288l-8.442,0c-0.458,0 -0.912,-0.032 -1.368,-0.094c-2.094,-0.198 -4.188,-0.294 -6.28,-0.294l-6.872,0c-0.068,0 -0.134,-0.034 -0.194,-0.1l0,-1.66c0.062,-0.392 0.06,-0.8 -0.008,-1.222c-0.064,-0.426 -0.094,-0.836 -0.094,-1.23c-0.068,-0.13 -0.1,-0.356 -0.1,-0.682c0,-2.156 -0.018,-4.31 -0.05,-6.462c-0.028,-2.156 -0.012,-4.314 0.05,-6.47c0.066,-1.37 0.082,-2.724 0.05,-4.062c-0.034,-1.34 -0.018,-2.698 0.05,-4.068c0.066,-0.392 0.082,-0.766 0.05,-1.122c-0.034,-0.36 -0.05,-0.736 -0.05,-1.128c0.066,-1.174 0.1,-2.348 0.1,-3.522c0,-1.178 0.03,-2.388 0.094,-3.63l0,-1.762c0,-0.59 0.032,-1.176 0.1,-1.762c0.13,-1.568 0.194,-3.116 0.194,-4.652c0,-1.538 -0.032,-3.058 -0.094,-4.558c-0.068,-2.74 -0.084,-5.466 -0.05,-8.174c0.032,-2.712 -0.018,-5.438 -0.152,-8.18l0,-2.746c-0.064,-0.13 -0.094,-0.326 -0.094,-0.59l0.002,0l0,0.003Zm24.922,29.482l0.59,0c0.59,0 1.162,-0.014 1.714,-0.044c0.556,-0.032 1.096,-0.05 1.62,-0.05c2.092,-0.066 4.202,-0.082 6.332,-0.05c2.126,0.034 4.202,-0.014 6.23,-0.144l1.966,0c1.7,0 3.416,0.018 5.15,0.05c1.732,0.028 3.452,0.012 5.158,-0.05l5.244,0c1.738,0 3.458,-0.032 5.158,-0.1c1.306,-0.066 2.63,-0.082 3.968,-0.05c1.344,0.034 2.702,0.018 4.076,-0.05c0.456,-0.062 0.912,-0.076 1.368,-0.044c0.46,0.028 0.922,0.044 1.382,0.044c0.782,-0.062 1.548,-0.094 2.298,-0.094l2.212,0c0.066,0 0.134,-0.032 0.202,-0.1c0.456,-0.066 0.878,-0.116 1.268,-0.144c0.392,-0.032 0.822,-0.05 1.282,-0.05c0.26,0 0.518,-0.016 0.778,-0.05c0.262,-0.032 0.528,-0.08 0.792,-0.144c0.326,0 0.652,-0.032 0.98,-0.1c0.326,-0.066 0.622,-0.1 0.886,-0.1c1.306,-0.13 2.416,-0.454 3.334,-0.978c0.196,-0.13 0.406,-0.24 0.634,-0.338c0.23,-0.1 0.442,-0.216 0.642,-0.346c0.326,-0.262 0.686,-0.492 1.08,-0.69c0.392,-0.196 0.752,-0.424 1.08,-0.682c0.13,-0.13 0.194,-0.226 0.194,-0.294c0.196,-0.392 0.392,-0.77 0.59,-1.128c0.196,-0.36 0.392,-0.734 0.59,-1.122c0.19,-0.392 0.158,-0.884 -0.1,-1.474c-0.198,-0.584 -0.59,-1.108 -1.182,-1.568c-0.26,-0.326 -0.588,-0.618 -0.98,-0.878c-0.394,-0.262 -0.754,-0.524 -1.08,-0.784c-0.26,-0.132 -0.588,-0.266 -0.98,-0.396c-0.26,0 -0.458,-0.03 -0.59,-0.094c-1.374,-0.392 -2.78,-0.59 -4.22,-0.59c-0.654,-0.066 -1.324,-0.116 -2.01,-0.144c-0.688,-0.032 -1.358,-0.05 -2.01,-0.05l-0.886,0c-1.634,-0.066 -3.284,-0.082 -4.956,-0.05c-1.668,0.034 -3.352,0.018 -5.056,-0.05c-0.588,-0.066 -1.208,-0.1 -1.866,-0.1l-1.858,0c-2.23,-0.13 -4.488,-0.176 -6.778,-0.144c-2.286,0.034 -4.574,0.018 -6.864,-0.05c-2.358,-0.066 -4.7,-0.082 -7.022,-0.05c-2.32,0.034 -4.658,0.018 -7.016,-0.05c-0.654,-0.062 -1.324,-0.076 -2.01,-0.044c-0.688,0.028 -1.39,0.012 -2.11,-0.05c-0.654,-0.066 -1.31,-0.1 -1.966,-0.1c-0.654,0 -1.308,0.064 -1.96,0.194c-0.524,0.068 -1.08,0.084 -1.672,0.05c-0.588,-0.032 -1.142,-0.016 -1.664,0.05c-0.328,0.068 -0.67,0.1 -1.03,0.1c-0.36,0 -0.704,0.032 -1.03,0.094c-0.068,0.264 -0.118,0.528 -0.152,0.79c-0.028,0.258 -0.044,0.552 -0.044,0.878l0,6.268c0.062,0.522 0.11,1.046 0.144,1.568c0.032,0.522 0.082,1.046 0.144,1.568l0,1.956l0.006,-0.002l0.001,-0.001Zm120.715,-13.81c0.066,1.568 0.1,3.12 0.1,4.658l0,4.652l0.786,0c2.092,0 4.186,-0.016 6.28,-0.05c2.092,-0.032 4.186,0.014 6.28,0.144c2.092,0.068 4.186,0.084 6.28,0.05c2.092,-0.032 4.152,-0.016 6.18,0.05l23.554,0c0.786,0 1.606,-0.032 2.456,-0.1c0.916,-0.062 1.848,-0.076 2.794,-0.044c0.95,0.028 1.882,0.012 2.794,-0.05c1.902,-0.132 3.8,-0.184 5.698,-0.15c1.896,0.034 3.792,0.05 5.69,0.05l1.57,0c0.522,0 1.046,-0.032 1.57,-0.1l3.436,0c0.522,0 1.06,0.018 1.614,0.05c0.556,0.034 1.096,0.084 1.62,0.15l2.65,0c0.134,0.258 0.216,0.504 0.244,0.734c0.032,0.23 0.05,0.474 0.05,0.734c0.066,1.242 0.066,2.484 0,3.724c0,0.456 -0.034,0.896 -0.1,1.322c-0.064,0.422 -0.128,0.83 -0.194,1.222l0,0.396c-0.064,0.456 -0.094,0.912 -0.094,1.374l0,1.466c-0.068,0.586 -0.118,1.156 -0.152,1.71c-0.034,0.558 -0.05,1.128 -0.05,1.718c0,0.062 -0.064,0.292 -0.194,0.682c-0.13,0 -0.26,0.034 -0.388,0.1c-0.46,0 -0.92,0.018 -1.376,0.05c-0.458,0.028 -0.948,0.078 -1.47,0.144l-1.08,0c-0.524,0 -1.08,-0.016 -1.672,-0.05c-0.59,-0.032 -1.18,-0.08 -1.764,-0.144c-0.264,-0.066 -0.576,-0.082 -0.936,-0.05c-0.36,0.034 -0.704,0.05 -1.03,0.05c-0.458,0.062 -0.882,0.112 -1.274,0.144c-0.394,0.034 -0.786,0.116 -1.174,0.244c-0.394,0 -0.656,-0.032 -0.786,-0.1c-0.59,-0.062 -1.114,-0.062 -1.57,0l-0.296,0c-0.46,0.068 -0.936,0.118 -1.426,0.15c-0.49,0.034 -0.964,0.05 -1.418,0.05c-1.114,0.062 -2.246,0.08 -3.392,0.05c-1.144,-0.032 -2.268,-0.018 -3.378,0.044c-1.902,0.068 -3.818,0.1 -5.748,0.1l-5.74,0c-1.238,0.068 -2.514,0.1 -3.824,0.1l-3.926,0c-0.654,0 -1.292,0.018 -1.916,0.05c-0.62,0.028 -1.29,0.044 -2.01,0.044c-2.748,-0.062 -5.51,-0.094 -8.29,-0.094c-2.78,0 -5.578,-0.032 -8.392,-0.1l-4.422,0c-1.504,0 -3.008,0.034 -4.508,0.1c-0.72,0 -1.44,0.018 -2.16,0.05c-0.72,0.028 -1.44,0.078 -2.16,0.144l-2.448,0c-0.198,0 -0.378,0.018 -0.54,0.05c-0.164,0.028 -0.31,0.044 -0.44,0.044c-0.068,0.068 -0.1,0.118 -0.1,0.15l0,0.05c0,0.456 -0.018,0.928 -0.05,1.416c-0.034,0.488 -0.018,0.964 0.05,1.424c0.066,0.652 0.082,1.32 0.05,2.006c-0.034,0.686 -0.05,1.388 -0.05,2.106c0.066,0.264 0.082,0.558 0.05,0.884c-0.034,0.328 -0.084,0.652 -0.152,0.978l0,0.488c0.196,0.068 0.426,0.1 0.692,0.1l0.98,0c2.352,0.062 4.722,0.112 7.11,0.144c2.392,0.034 4.764,0.05 7.124,0.05l4.906,0c0.652,-0.066 1.306,-0.116 1.96,-0.144c0.658,-0.032 1.312,-0.05 1.966,-0.05c0.062,-0.066 0.19,-0.1 0.388,-0.1l5.352,0c1.8,0 3.582,0.034 5.344,0.1l4.416,0c1.44,0 2.882,0.032 4.322,0.094l1.908,0c0.624,0 1.262,0.034 1.916,0.1c2.092,0.13 4.17,0.18 6.23,0.15c2.064,-0.032 4.144,-0.05 6.238,-0.05l6.18,0c0.652,0 1.274,-0.016 1.866,-0.05c0.59,-0.032 1.212,-0.082 1.866,-0.15l0.194,0c0.59,-0.062 1.196,-0.094 1.816,-0.094c0.624,0 1.228,-0.032 1.816,-0.1c0.72,-0.066 1.44,-0.1 2.16,-0.1l2.16,0c0.392,0 0.768,0.034 1.124,0.1c0.36,0.068 0.736,0.1 1.13,0.1l1.966,0c0.196,0 0.36,-0.032 0.49,-0.1l2.204,0c0.752,0 1.49,-0.032 2.212,-0.1c1.176,-0.13 2.37,-0.176 3.58,-0.144c1.21,0.034 2.406,0.05 3.586,0.05l0.194,0c0.326,0.13 0.49,0.422 0.49,0.878c0.066,1.112 0.116,2.206 0.144,3.286c0.032,1.078 0.082,2.172 0.152,3.278c0,0.134 0.014,0.284 0.044,0.446c0.032,0.164 0.05,0.31 0.05,0.438c0.066,0.328 0.1,0.686 0.1,1.078c0,0.394 0.032,0.754 0.1,1.078c0.062,0.782 0.094,1.566 0.094,2.35l0,2.35c0,0.328 -0.018,0.686 -0.05,1.078c-0.028,0.388 -0.078,0.748 -0.144,1.078c-0.328,0.062 -0.654,0.094 -0.98,0.094l-0.98,0c-2.488,0 -4.992,-0.018 -7.512,-0.05c-2.518,-0.028 -5.018,-0.012 -7.506,0.05c-0.72,0 -1.424,0.016 -2.11,0.05c-0.688,0.032 -1.39,0.08 -2.11,0.144l-0.59,0c-0.98,0 -1.962,0.016 -2.946,0.05c-0.98,0.032 -1.928,0.016 -2.846,-0.05c-1.436,-0.062 -2.858,-0.08 -4.264,-0.05c-1.408,0.032 -2.83,0.018 -4.272,-0.044c-1.83,-0.13 -3.696,-0.18 -5.596,-0.15c-1.898,0.032 -3.794,0.05 -5.69,0.05c-0.588,0 -1.174,0.016 -1.764,0.05c-0.59,0.032 -1.18,0.05 -1.764,0.05c-0.46,0.062 -0.906,0.094 -1.332,0.094c-0.424,0 -0.862,0.032 -1.318,0.1c-0.654,0.066 -1.274,0.1 -1.866,0.1l-8.146,0c-2.16,0 -4.32,-0.034 -6.476,-0.1c-2.29,-0.068 -4.616,-0.084 -6.972,-0.05c-2.354,0.032 -4.674,0.05 -6.966,0.05c-0.85,-0.068 -1.7,-0.068 -2.55,0c-1.44,0.066 -2.916,0.1 -4.422,0.1l-4.508,0c-1.114,0 -2.246,-0.018 -3.392,-0.05c-1.144,-0.034 -2.304,-0.084 -3.478,-0.15c-0.85,0 -1.7,-0.018 -2.55,-0.05c-0.85,-0.028 -1.734,-0.044 -2.65,-0.044c-1.048,0 -2.144,-0.018 -3.292,-0.05c-1.144,-0.034 -2.268,-0.05 -3.378,-0.05c-0.46,0 -0.922,0.016 -1.382,0.05c-0.458,0.032 -0.948,0.08 -1.47,0.144c-0.13,0 -0.278,-0.018 -0.44,-0.05c-0.164,-0.028 -0.31,-0.044 -0.44,-0.044l-3.046,0l0,-3.724c0,-0.326 -0.018,-0.618 -0.05,-0.878c-0.028,-0.262 -0.012,-0.526 0.05,-0.79c0,-1.37 -0.018,-2.724 -0.05,-4.062c-0.028,-1.338 -0.044,-2.66 -0.044,-3.968l0,-16.844c0.062,-1.044 0.094,-2.088 0.094,-3.134c0,-1.044 0.032,-2.088 0.1,-3.134c0,-0.718 0.016,-1.484 0.05,-2.3c0.032,-0.82 0.05,-1.62 0.05,-2.402l0,-1.668c0,-0.59 0.03,-1.176 0.094,-1.762c0.134,-1.044 0.184,-2.072 0.152,-3.084c-0.034,-1.016 -0.05,-2.046 -0.05,-3.092c0,-1.37 0.016,-2.724 0.05,-4.062c0.032,-1.338 0.016,-2.66 -0.05,-3.968c-0.068,-0.914 -0.118,-1.814 -0.152,-2.696c-0.028,-0.88 -0.012,-1.746 0.05,-2.596c0.066,-0.65 0.118,-1.302 0.152,-1.956c0.032,-0.65 0.116,-1.304 0.244,-1.962l0,-0.388c0.13,-0.13 0.356,-0.194 0.684,-0.194c1.242,-0.132 2.452,-0.202 3.63,-0.202l3.63,0c0.658,0 1.312,-0.014 1.966,-0.044c0.652,-0.032 1.306,-0.05 1.96,-0.05c0.522,0 1.03,0.018 1.52,0.05c0.494,0.028 0.968,0.044 1.426,0.044c0.326,0 0.686,-0.014 1.08,-0.044c0.392,-0.032 0.786,-0.05 1.182,-0.05c1.11,0.062 2.234,0.08 3.378,0.05c1.148,-0.032 2.244,0.014 3.292,0.144c0.98,0 1.944,0.018 2.896,0.05c0.95,0.034 1.882,0.018 2.794,-0.05c1.44,-0.13 2.864,-0.16 4.272,-0.094c1.406,0.062 2.83,0.062 4.272,-0.008l1.808,0c0.624,0 1.232,-0.03 1.822,-0.094c0.916,-0.196 1.93,-0.23 3.04,-0.1c0.59,0 1.162,0.018 1.714,0.05c0.556,0.034 1.13,0.082 1.722,0.144l0.296,0c1.83,0.068 3.644,0.1 5.446,0.1l5.352,0c0.456,0 0.912,-0.016 1.368,-0.05c0.46,-0.032 0.918,-0.05 1.376,-0.05c3.01,0.134 6.004,0.186 8.982,0.15c2.976,-0.032 5.972,-0.016 8.982,0.05c1.762,-0.132 3.526,-0.184 5.294,-0.15c1.766,0.034 3.568,0.018 5.402,-0.05c0.782,-0.062 1.582,-0.094 2.398,-0.094l8.788,0c0.326,0 0.554,0.032 0.684,0.094c0.392,0.068 0.77,0.118 1.13,0.15c0.36,0.034 0.768,0.018 1.224,-0.05c0.066,-0.066 0.198,-0.1 0.396,-0.1l10.84,0c0.032,0 0.05,0.034 0.05,0.1c0.066,0.068 0.1,0.198 0.1,0.388c-0.068,0.854 -0.1,1.722 -0.1,2.602c0,0.878 -0.032,1.774 -0.094,2.688c-0.068,1.112 -0.084,2.224 -0.05,3.336c0.032,1.108 0.016,2.218 -0.05,3.328l0,3.228c-0.068,0.068 -0.134,0.1 -0.194,0.1c-0.46,0.068 -0.906,0.118 -1.332,0.15c-0.424,0.028 -0.896,0.078 -1.418,0.144l-0.684,0c-1.44,0 -2.882,-0.016 -4.322,-0.05c-1.436,-0.032 -2.874,0.014 -4.314,0.144c-0.524,0.068 -1.034,0.1 -1.526,0.1l-1.52,0c-0.388,0.068 -0.782,0.118 -1.174,0.15c-0.394,0.028 -0.788,0.078 -1.182,0.144l-0.584,0c-1.768,0 -3.55,-0.016 -5.352,-0.05c-1.8,-0.032 -3.584,-0.016 -5.344,0.05c-3.208,0.068 -6.45,0.084 -9.724,0.05c-3.27,-0.032 -6.54,0.014 -9.81,0.144c-1.244,0 -2.488,0.018 -3.732,0.05c-1.238,0.034 -2.514,0.05 -3.824,0.05c-1.638,0 -3.26,-0.016 -4.862,-0.05c-1.6,-0.032 -3.248,-0.08 -4.948,-0.144c-0.856,-0.066 -1.69,-0.082 -2.506,-0.05c-0.818,0.034 -1.65,0.018 -2.5,-0.05c-0.66,-0.066 -1.364,-0.1 -2.118,-0.1l-2.204,0c-1.504,-0.13 -3.026,-0.176 -4.566,-0.144c-1.538,0.034 -3.058,0.018 -4.56,-0.05l-4.22,0c-0.458,0.068 -0.964,0.1 -1.52,0.1c-0.558,0 -1.098,0.032 -1.62,0.094l-0.01,0.014l0.005,0.001Z" style="fill:#fff;"/><path d="M141.306,418.566c-6.84,-1.57 -10.256,-4.49 -10.256,-8.756c0,-3.148 1.102,-5.508 3.306,-7.08c2.198,-1.542 4.778,-2.314 7.736,-2.314c6.54,0 10.418,2.428 11.632,7.282l-3.746,0c-0.66,-2.884 -3.288,-4.328 -7.888,-4.328c-3.224,0 -5.472,0.952 -6.75,2.854c-0.496,0.718 -0.742,1.622 -0.742,2.702c0,2.066 1.116,3.658 3.35,4.774c1.052,0.558 3.286,1.278 6.706,2.164c3.418,0.888 5.9,1.872 7.44,2.954c2.136,1.506 3.206,3.62 3.206,6.34c0,3.378 -1.33,5.938 -3.99,7.678c-2.238,1.444 -4.998,2.164 -8.284,2.164c-7.424,0 -11.73,-2.82 -12.914,-8.462l4.092,0c0.624,3.542 3.566,5.312 8.824,5.312c3.746,0 6.356,-1.032 7.836,-3.098c0.59,-0.82 0.886,-1.934 0.886,-3.342c0,-1.38 -0.544,-2.512 -1.628,-3.4c-1.542,-1.246 -4.48,-2.394 -8.816,-3.444l-0,0Zm30.85,-2.652l0,-3.2l5.424,0l0,-8.41l3.45,0l0,8.41l5.366,0l0,3.2l-5.366,0l0,18.446l-3.45,0l0,-18.446l-5.424,0Zm48.494,14.758c-1.61,2.756 -4.022,4.134 -7.238,4.134c-2.434,0 -4.342,-0.806 -5.72,-2.416c-1.35,-1.604 -2.024,-3.654 -2.024,-6.146l0,-13.53l3.45,0l0,13.53c0,1.41 0.328,2.606 0.986,3.588c0.624,1.02 1.674,1.532 3.154,1.532c2.694,0 4.598,-0.852 5.72,-2.56c1.112,-1.672 1.672,-4.018 1.672,-7.038l0,-9.05l3.458,0l0,21.646l-3.458,0l0,-3.691Zm45.394,3.688l-3.45,0l0,-3.688c-0.198,0.264 -0.394,0.508 -0.59,0.734c-2.07,2.296 -4.6,3.444 -7.592,3.444c-2.988,0 -5.502,-1.146 -7.542,-3.444c-2.002,-2.228 -3.004,-4.848 -3.004,-7.864c0,-3.02 1.002,-5.644 3.004,-7.872c2.04,-2.296 4.554,-3.444 7.542,-3.444c2.99,0 5.52,1.148 7.592,3.444c0.196,0.23 0.392,0.474 0.59,0.734l0,-18.936l3.45,0l0,36.892Zm-3.45,-10.82c0,-2.1 -0.724,-3.936 -2.168,-5.514c-1.48,-1.57 -3.302,-2.358 -5.466,-2.358c-2.172,0 -3.98,0.788 -5.424,2.358c-1.48,1.578 -2.218,3.414 -2.218,5.514c0,2.096 0.738,3.93 2.218,5.506c1.444,1.572 3.252,2.358 5.424,2.358c2.164,0 3.986,-0.786 5.466,-2.358c1.444,-1.576 2.168,-3.412 2.168,-5.506Zm28.932,-18.302c0.426,0.428 0.642,0.934 0.642,1.524c0,0.624 -0.214,1.148 -0.642,1.574c-0.428,0.428 -0.936,0.64 -1.526,0.64c-0.624,0 -1.15,-0.212 -1.578,-0.64c-0.428,-0.426 -0.642,-0.95 -0.642,-1.574c0,-0.59 0.212,-1.096 0.642,-1.524c0.426,-0.426 0.952,-0.64 1.578,-0.64c0.59,0 1.098,0.214 1.526,0.64Zm0.194,29.122l-3.45,0l0,-21.646l3.45,0l0,21.646Zm43.378,-10.92c0,3.148 -1.102,5.804 -3.306,7.966c-2.268,2.2 -4.944,3.3 -8.032,3.3c-3.088,0 -5.752,-1.1 -7.988,-3.3c-2.232,-2.16 -3.35,-4.816 -3.35,-7.966c0,-3.114 1.116,-5.788 3.35,-8.022c2.204,-2.194 4.866,-3.292 7.988,-3.292c3.12,0 5.798,1.098 8.032,3.292c2.204,2.234 3.306,4.908 3.306,8.022Zm-3.45,0c0,-2.166 -0.774,-4.018 -2.32,-5.556c-1.546,-1.542 -3.404,-2.314 -5.568,-2.314c-2.172,0 -4.026,0.772 -5.568,2.314c-1.546,1.538 -2.32,3.392 -2.32,5.556c0,2.134 0.772,3.968 2.32,5.506c1.542,1.544 3.396,2.314 5.568,2.314c2.164,0 4.02,-0.77 5.568,-2.314c1.544,-1.538 2.32,-3.374 2.32,-5.506Zm27.102,7.822c0.854,0.59 1.974,0.884 3.356,0.884c3.15,0 4.726,-1.18 4.726,-3.544c0,-1.374 -1.134,-2.424 -3.4,-3.148c-0.95,-0.326 -1.97,-0.62 -3.054,-0.884c-1.12,-0.262 -2.154,-0.606 -3.104,-1.028c-1.12,-0.526 -1.958,-1.182 -2.514,-1.97c-0.558,-0.786 -0.836,-1.72 -0.836,-2.804c0,-2.166 0.752,-3.79 2.262,-4.874c1.512,-1.11 3.32,-1.668 5.424,-1.668c2.104,0 3.842,0.428 5.222,1.28c1.382,0.848 2.32,2.372 2.81,4.572l-3.696,0c-0.394,-1.212 -0.968,-2.014 -1.722,-2.408c-0.726,-0.392 -1.632,-0.59 -2.716,-0.59c-1.08,0 -2,0.228 -2.758,0.682c-0.788,0.494 -1.182,1.214 -1.182,2.164c0,0.988 0.328,1.71 0.986,2.172c0.624,0.422 1.412,0.798 2.362,1.128c0.954,0.298 1.99,0.558 3.104,0.784c1.084,0.264 2.12,0.626 3.104,1.086c2.236,1.05 3.356,2.738 3.356,5.068c0,2.33 -0.84,4.05 -2.514,5.162c-0.856,0.56 -1.792,0.988 -2.81,1.28c-0.99,0.262 -2.074,0.396 -3.256,0.396c-5.028,0 -7.92,-2.23 -8.672,-6.692l3.644,0c0.36,1.414 0.984,2.4 1.872,2.954l0.006,-0.002l-0.001,0Z" style="fill:#fff;"/></svg>